<svg width="20" height="20" viewBox="0 0 20 20" fill="none" xmlns="http://www.w3.org/2000/svg">
<path fill-rule="evenodd" clip-rule="evenodd" d="M10.21 14.77C10.0722 14.6267 9.99685 14.4346 10.0006 14.2359C10.0043 14.0371 10.0869 13.848 10.23 13.71L14.168 10L10.23 6.29C10.1556 6.22256 10.0956 6.14089 10.0534 6.04982C10.0112 5.95875 9.9877 5.86013 9.98431 5.75982C9.98093 5.6595 9.99771 5.55952 10.0337 5.46581C10.0696 5.3721 10.124 5.28656 10.1936 5.21426C10.2633 5.14196 10.3467 5.08437 10.439 5.0449C10.5313 5.00543 10.6305 4.98489 10.7309 4.9845C10.8313 4.9841 10.9307 5.00385 11.0233 5.04259C11.1159 5.08132 11.1998 5.13825 11.27 5.21L15.77 9.46C15.8426 9.52996 15.9003 9.61384 15.9398 9.70662C15.9792 9.7994 15.9995 9.89918 15.9995 10C15.9995 10.1008 15.9792 10.2006 15.9398 10.2934C15.9003 10.3862 15.8426 10.47 15.77 10.54L11.27 14.79C11.1267 14.9278 10.9346 15.0031 10.7359 14.9994C10.5371 14.9956 10.348 14.9131 10.21 14.77Z" fill="white"/>
<path fill-rule="evenodd" clip-rule="evenodd" d="M4.20999 14.77C4.07216 14.6267 3.99685 14.4346 4.0006 14.2359C4.00435 14.0371 4.08686 13.848 4.22999 13.71L8.16799 10L4.22999 6.29C4.15565 6.22256 4.0956 6.14089 4.0534 6.04982C4.0112 5.95875 3.9877 5.86013 3.98431 5.75982C3.98093 5.6595 3.99771 5.55952 4.03366 5.46581C4.06962 5.3721 4.12402 5.28656 4.19365 5.21426C4.26327 5.14196 4.3467 5.08437 4.43899 5.0449C4.53127 5.00543 4.63055 4.98489 4.73092 4.9845C4.83129 4.9841 4.93072 5.00385 5.02332 5.04259C5.11592 5.08132 5.1998 5.13825 5.26999 5.21L9.76999 9.46C9.84258 9.52996 9.90032 9.61384 9.93975 9.70662C9.97919 9.7994 9.99951 9.89918 9.99951 10C9.99951 10.1008 9.97919 10.2006 9.93975 10.2934C9.90032 10.3862 9.84258 10.47 9.76999 10.54L5.26999 14.79C5.12673 14.9278 4.93462 15.0031 4.73585 14.9994C4.53709 14.9956 4.34795 14.9131 4.20999 14.77Z" fill="white"/>
</svg>
