<svg width="59" height="59" viewBox="0 0 59 59" fill="none" xmlns="http://www.w3.org/2000/svg">
<path d="M58.0477 51.3872C57.7953 51.3872 57.5532 51.4874 57.3748 51.6659C57.1963 51.8444 57.0961 52.0864 57.0961 52.3388V55.3078L50.5312 46.9908H50.53L30.4512 21.5569V18.0812C30.4512 17.8288 30.351 17.5867 30.1725 17.4083C29.9941 17.2298 29.752 17.1296 29.4996 17.1296C29.2472 17.1296 29.0052 17.2298 28.8267 17.4083C28.6483 17.5867 28.548 17.8288 28.548 18.0812V21.5569L7.82216 47.8104C7.82097 47.8127 7.81859 47.8139 7.8174 47.8163L1.9032 55.3078V52.3388C1.9032 52.0864 1.80294 51.8444 1.62448 51.6659C1.44602 51.4874 1.20398 51.3872 0.951601 51.3872C0.699221 51.3872 0.457177 51.4874 0.278717 51.6659C0.100258 51.8444 1.05433e-08 52.0864 1.05433e-08 52.3388V58.0484C-2.94276e-05 58.2462 0.0615879 58.4391 0.176282 58.6003C0.290977 58.7615 0.453047 58.8829 0.639952 58.9477C0.740147 58.9825 0.845512 59.0002 0.951601 59C1.09534 59.0001 1.23722 58.9675 1.3666 58.9049C1.49598 58.8423 1.60949 58.7512 1.69861 58.6384L5.70961 53.5568V58.0484C5.70961 58.3008 5.80986 58.5428 5.98832 58.7213C6.16678 58.8997 6.40883 59 6.66121 59H52.3381C52.5904 59 52.8325 58.8997 53.0109 58.7213C53.1894 58.5428 53.2897 58.3008 53.2897 58.0484V53.5568L57.3006 58.6384C57.3898 58.7512 57.5033 58.8423 57.6327 58.9049C57.762 58.9675 57.9039 59.0001 58.0477 59C58.1537 59.0002 58.2591 58.9825 58.3593 58.9477C58.5462 58.8829 58.7083 58.7615 58.823 58.6003C58.9377 58.4391 58.9993 58.2462 58.9993 58.0484V52.3388C58.9993 52.0864 58.899 51.8444 58.7205 51.6659C58.5421 51.4874 58.3 51.3872 58.0477 51.3872ZM15.1602 56.207L12.6396 52.3495L23.0335 42.0353L15.1602 56.207ZM16.8433 57.0968L29.4996 34.3143L42.1559 57.0968H16.8433ZM35.9658 42.0353L46.3596 52.3495L43.8391 56.207L35.9658 42.0353ZM51.3864 57.0968H45.5317L48.377 52.7397C48.4966 52.5562 48.5492 52.3371 48.5261 52.1193C48.5029 51.9015 48.4053 51.6984 48.2497 51.5442L32.6673 36.0807L32.6613 36.0866L30.4512 32.1089V29.5004C30.4512 29.248 30.351 29.0059 30.1725 28.8275C29.9941 28.649 29.752 28.5488 29.4996 28.5488C29.2472 28.5488 29.0052 28.649 28.8267 28.8275C28.6483 29.0059 28.548 29.248 28.548 29.5004V32.1089L26.3379 36.0866L26.332 36.0807L10.7495 51.5442C10.594 51.6984 10.4964 51.9015 10.4732 52.1193C10.45 52.3371 10.5027 52.5562 10.6222 52.7397L13.4675 57.0968H7.61281V51.1469L7.67347 51.0708L7.70916 51.0256L29.2391 23.7539C29.4093 23.8031 29.5899 23.8031 29.7601 23.7539L51.2901 51.0256L51.3864 51.1469V57.0968Z" fill="white"/>
<path d="M7.61286 14.2748H20.4595C21.56 14.2755 22.6186 13.8524 23.4155 13.0933C24.2124 12.3343 24.6865 11.2975 24.7393 10.1983C24.7922 9.09897 24.4198 8.02154 23.6994 7.18953C22.9789 6.35753 21.9659 5.83483 20.8703 5.7299C20.6816 4.39329 20.0912 3.14555 19.1775 2.15199C18.2637 1.15843 17.0696 0.465932 15.7534 0.166242C14.4372 -0.133448 13.0611 -0.0261887 11.8072 0.47381C10.5533 0.97381 9.48098 1.84295 8.73218 2.96609C7.9505 2.81003 7.14481 2.81937 6.36697 2.9935C5.58912 3.16764 4.85635 3.50271 4.21583 3.97716C3.57531 4.45161 3.04123 5.05492 2.64796 5.74826C2.2547 6.44159 2.01097 7.20959 1.93245 8.00281C1.85394 8.79604 1.94239 9.59692 2.1921 10.3539C2.44182 11.1109 2.84727 11.8072 3.38235 12.398C3.91743 12.9888 4.57029 13.461 5.29891 13.7843C6.02753 14.1075 6.81576 14.2746 7.61286 14.2748ZM7.61286 4.75879C8.04115 4.75871 8.46638 4.8311 8.87052 4.9729C9.08787 5.04901 9.32546 5.04371 9.5392 4.95799C9.75295 4.87226 9.92836 4.71194 10.0329 4.50674C10.517 3.55475 11.3073 2.79332 12.2766 2.34495C13.2459 1.89659 14.3379 1.78737 15.3768 2.03488C16.4157 2.28239 17.3411 2.87223 18.0041 3.70948C18.6672 4.54674 19.0292 5.58271 19.0321 6.65069C19.0321 6.66259 19.0312 6.67448 19.0311 6.68638C19.0297 6.82355 19.058 6.9594 19.114 7.08462C19.1701 7.20984 19.2525 7.32146 19.3557 7.41185C19.4589 7.50223 19.5804 7.56923 19.7119 7.60826C19.8434 7.64729 19.9818 7.65743 20.1176 7.63798C20.2308 7.62178 20.3451 7.61363 20.4595 7.61359C21.0904 7.61359 21.6955 7.86424 22.1417 8.31039C22.5878 8.75654 22.8385 9.36165 22.8385 9.9926C22.8385 10.6235 22.5878 11.2287 22.1417 11.6748C21.6955 12.121 21.0904 12.3716 20.4595 12.3716H7.61286C6.60334 12.3716 5.63516 11.9706 4.92132 11.2567C4.20748 10.5429 3.80645 9.57472 3.80645 8.5652C3.80645 7.55567 4.20748 6.5875 4.92132 5.87366C5.63516 5.15982 6.60334 4.75879 7.61286 4.75879Z" fill="white"/>
<path d="M47.5798 28.4299C49.3111 28.4234 51.0002 27.8954 52.4269 26.9148C53.8536 25.9341 54.9517 24.5463 55.578 22.9323C55.6386 22.7744 55.6559 22.6031 55.6283 22.4362C55.6006 22.2692 55.5289 22.1127 55.4206 21.9827C55.3124 21.8527 55.1714 21.7539 55.0122 21.6965C54.853 21.6391 54.6814 21.6252 54.5151 21.6562C53.5532 21.8351 52.5638 21.8002 51.6169 21.5538C50.6701 21.3075 49.7891 20.8558 49.0364 20.2308C48.2837 19.6058 47.6778 18.8228 47.2616 17.9374C46.8454 17.052 46.6292 16.0858 46.6282 15.1074C46.627 14.2921 46.7762 13.4835 47.0683 12.7223C47.129 12.5643 47.1464 12.3931 47.1189 12.2262C47.0914 12.0593 47.0198 11.9027 46.9116 11.7726C46.8035 11.6425 46.6626 11.5437 46.5035 11.4862C46.3444 11.4287 46.1728 11.4146 46.0065 11.4455C43.9081 11.8377 42.0318 12.9994 40.7452 14.703C39.4587 16.4065 38.8548 18.5291 39.0517 20.6548C39.2486 22.7804 40.2322 24.756 41.8097 26.1942C43.3873 27.6324 45.4451 28.4297 47.5798 28.4299ZM44.8247 13.7967C44.64 14.9975 44.7126 16.2237 45.0377 17.3943C45.3628 18.5648 45.933 19.6529 46.7105 20.5863C47.488 21.5198 48.455 22.2773 49.5475 22.8087C50.64 23.34 51.8329 23.6331 53.0472 23.6685C52.4612 24.5096 51.689 25.2041 50.7907 25.6979C49.8924 26.1917 48.8922 26.4716 47.8681 26.5156C46.8439 26.5597 45.8234 26.3668 44.886 25.9519C43.9486 25.537 43.1196 24.9114 42.4635 24.1238C41.8074 23.3361 41.342 22.4077 41.1035 21.4107C40.8649 20.4137 40.8597 19.3752 41.0882 18.3759C41.3166 17.3765 41.7727 16.4434 42.4208 15.6492C43.0689 14.855 43.8915 14.221 44.8247 13.7967Z" fill="white"/>
</svg>
