<svg width="100" height="100" viewBox="0 0 100 100" fill="none" xmlns="http://www.w3.org/2000/svg">
<circle cx="50" cy="50" r="50" fill="#63AC45"/>
<path d="M72.856 70.3414C61.5818 51.8943 62.1418 52.8072 62.1149 52.7693C62.0175 52.6327 61.8664 52.5638 61.7203 52.5638C61.7193 52.5637 61.7186 52.5635 61.7179 52.5635H44.628C44.4713 52.5635 44.324 52.6389 44.2321 52.7658L36.8154 63.0351V58.1372C38.1991 57.904 39.2568 56.698 39.2568 55.249V45.9717C39.2568 44.3562 37.9425 43.042 36.3271 43.042C35.5773 43.042 34.8927 43.3254 34.374 43.7904V42.3096C34.374 40.2902 32.7312 38.6475 30.7119 38.6475C28.6926 38.6475 27.0498 40.2902 27.0498 42.3096V52.5635C27.0498 54.4171 28.4345 55.9524 30.2236 56.192V70.1416H27.5381C27.2684 70.1416 27.0498 70.3602 27.0498 70.6299C27.0498 70.8996 27.2684 71.1182 27.5381 71.1182H72.4619C72.7316 71.1182 72.9502 70.8996 72.9502 70.6299C72.9502 70.5221 72.915 70.4223 72.856 70.3414ZM67.5385 70.1416H62.2061V63.2425C63.2952 66.0082 65.0696 68.5123 67.5385 70.1416ZM44.8776 53.54H60.8103L52.4301 66.2354H35.7088L36.4141 65.2588H48.0459C48.3155 65.2588 48.5342 65.0402 48.5342 64.7705C48.5342 64.5008 48.3155 64.2822 48.0459 64.2822H37.1193L44.8776 53.54ZM36.3271 44.0186C37.404 44.0186 38.2803 44.8947 38.2803 45.9717V55.249C38.2803 56.1571 37.6563 56.9202 36.8154 57.1379V53.7842C36.8154 53.5145 36.5968 53.2959 36.3271 53.2959C36.0574 53.2959 35.8389 53.5145 35.8389 53.7842V57.1379C34.9979 56.9203 34.374 56.1571 34.374 55.249C34.374 54.3117 34.374 46.8548 34.374 45.9717C34.374 44.8947 35.2502 44.0186 36.3271 44.0186ZM28.0264 52.5635V42.3096C28.0264 40.8287 29.2311 39.624 30.7119 39.624C32.1927 39.624 33.3975 40.8287 33.3975 42.3096V52.5635C33.3975 53.8774 32.4485 54.9733 31.2002 55.2037V47.4365C31.2002 47.1669 30.9815 46.9482 30.7119 46.9482C30.4422 46.9482 30.2236 47.1669 30.2236 47.4365V55.2037C28.9753 54.9733 28.0264 53.8774 28.0264 52.5635ZM31.2002 56.192C32.0637 56.0764 32.8327 55.6594 33.3975 55.0498V55.249C33.3975 56.698 34.4551 57.9041 35.8389 58.1372V64.3872L31.683 70.1416H31.2002V56.192ZM35.0035 67.2119H51.7855L49.8517 70.1416H32.8876L35.0035 67.2119ZM61.2295 54.6776V59.8348C60.2995 64.2068 58.3232 66.7799 56.8262 68.1696C55.3953 69.4979 54.1172 70.0296 53.8204 70.1416H51.0218L61.2295 54.6776ZM55.897 70.1416C58.3668 68.5118 60.1406 66.0077 61.2295 63.2425V70.1416H55.897ZM69.6147 70.1416C68.981 69.903 63.89 67.7519 62.2061 59.8349V54.7871L71.5893 70.1415H69.6147V70.1416Z" fill="white"/>
<path d="M52.0995 40.1095C52.1057 40.1097 52.1119 40.1099 52.1182 40.1099C53.4901 40.1102 61.7137 40.112 63.0875 40.1123C64.7553 40.1123 66.1122 38.7555 66.1122 37.0877C66.1122 35.4612 64.8219 34.1305 63.2111 34.0655C63.1461 32.4547 61.8153 31.1643 60.189 31.1643C59.7043 31.1643 59.2282 31.2816 58.802 31.5012C58.1408 30.1946 56.8002 29.3526 55.2974 29.3526C53.1301 29.3526 51.3669 31.1158 51.3669 33.2831C51.3669 33.5793 51.3997 33.8715 51.4649 34.1571C50.1514 34.4913 49.1929 35.6789 49.1929 37.0876C49.1929 38.7193 50.4697 40.0467 52.0995 40.1095ZM52.1211 35.0421C52.2788 35.0348 52.4234 34.9518 52.5089 34.819C52.5945 34.6864 52.6107 34.5205 52.5523 34.3738C52.4137 34.0254 52.3435 33.6584 52.3435 33.2831C52.3435 31.6543 53.6685 30.3292 55.2974 30.3292C56.5867 30.3292 57.7172 31.1537 58.1105 32.3809C58.2158 32.7091 58.6198 32.8281 58.8862 32.6084C59.2515 32.3069 59.7142 32.1408 60.189 32.1408C61.4383 32.1408 62.4066 33.2578 62.2125 34.5064C62.1618 34.8326 62.4433 35.1148 62.7698 35.0641C64.0176 34.8706 65.1357 35.8364 65.1357 37.0875C65.1357 38.2168 64.217 39.1355 63.0878 39.1355L52.1283 39.1331C51.0291 39.0861 50.1694 38.1893 50.1694 37.0875C50.1694 35.9912 51.0269 35.0927 52.1211 35.0421Z" fill="white"/>
<path d="M65.1357 47.4365C65.1357 48.7827 66.231 49.8779 67.5771 49.8779C68.9233 49.8779 70.0186 48.7827 70.0186 47.4365C70.0186 46.0903 68.9233 44.9951 67.5771 44.9951C66.231 44.9951 65.1357 46.0903 65.1357 47.4365ZM67.5771 45.9717C68.3849 45.9717 69.042 46.6288 69.042 47.4365C69.042 48.2442 68.3849 48.9014 67.5771 48.9014C66.7693 48.9014 66.1123 48.2442 66.1123 47.4365C66.1123 46.6288 66.7694 45.9717 67.5771 45.9717Z" fill="white"/>
<path d="M40.2334 37.1826C42.3873 37.1826 44.1396 35.4303 44.1396 33.2764C44.1396 31.1225 42.3873 29.3701 40.2334 29.3701C38.0794 29.3701 36.3271 31.1225 36.3271 33.2764C36.3271 35.4303 38.0795 37.1826 40.2334 37.1826ZM40.2334 30.3467C41.8487 30.3467 43.1631 31.6609 43.1631 33.2764C43.1631 34.8918 41.8487 36.2061 40.2334 36.2061C38.6179 36.2061 37.3037 34.8918 37.3037 33.2764C37.3037 31.6609 38.6179 30.3467 40.2334 30.3467Z" fill="white"/>
<path d="M68.3096 30.835C68.7141 30.835 69.042 30.507 69.042 30.1025C69.042 29.698 68.7141 29.3701 68.3096 29.3701C67.9051 29.3701 67.5771 29.698 67.5771 30.1025C67.5771 30.507 67.9051 30.835 68.3096 30.835Z" fill="white"/>
<path d="M60.0088 45.4834C60.4133 45.4834 60.7412 45.1555 60.7412 44.751C60.7412 44.3465 60.4133 44.0186 60.0088 44.0186C59.6043 44.0186 59.2764 44.3465 59.2764 44.751C59.2764 45.1555 59.6043 45.4834 60.0088 45.4834Z" fill="white"/>
<path d="M69.2861 57.2021C69.6906 57.2021 70.0186 56.8742 70.0186 56.4697C70.0186 56.0652 69.6906 55.7373 69.2861 55.7373C68.8816 55.7373 68.5537 56.0652 68.5537 56.4697C68.5537 56.8742 68.8816 57.2021 69.2861 57.2021Z" fill="white"/>
<path d="M47.3135 48.9014C47.718 48.9014 48.0459 48.5735 48.0459 48.1689C48.0459 47.7644 47.718 47.4365 47.3135 47.4365C46.909 47.4365 46.5811 47.7644 46.5811 48.1689C46.5811 48.5735 46.909 48.9014 47.3135 48.9014Z" fill="white"/>
<path d="M47.8018 30.3467C48.2063 30.3467 48.5342 30.0188 48.5342 29.6143C48.5342 29.2098 48.2063 28.8818 47.8018 28.8818C47.3973 28.8818 47.0693 29.2098 47.0693 29.6143C47.0693 30.0188 47.3973 30.3467 47.8018 30.3467Z" fill="white"/>
<path d="M32.9092 34.2529C33.3137 34.2529 33.6416 33.925 33.6416 33.5205C33.6416 33.116 33.3137 32.7881 32.9092 32.7881C32.5047 32.7881 32.1768 33.116 32.1768 33.5205C32.1768 33.925 32.5047 34.2529 32.9092 34.2529Z" fill="white"/>
</svg>
