<svg width="31" height="31" viewBox="0 0 31 31" fill="none" xmlns="http://www.w3.org/2000/svg">
<path d="M30.468 28.7828C29.936 28.7828 29.1622 28.8795 28.2434 28.9763L26.986 27.0418H29.3073C30.2262 27.0418 30.9516 26.3164 30.9516 25.3975C30.9516 24.4786 30.2262 23.7532 29.3073 23.7532H14.6537L11.6552 9.43804C12.4774 9.38968 13.3479 9.58312 14.1217 10.0667C14.3635 10.2118 14.6537 10.1635 14.7988 9.92166C16.0078 8.13227 18.4259 7.64865 20.2637 8.80933C20.6022 9.05114 21.0858 8.71261 20.9891 8.32571C19.9735 3.29607 15.1373 -0.0892635 9.9142 0.732889L9.86583 0.394356C9.81747 0.152546 9.57566 -0.0409016 9.28549 0.00746037C9.04368 0.0558223 8.85023 0.297632 8.8986 0.587804L8.94696 0.926337C3.86895 2.18375 0.628705 7.11667 1.64431 12.1947C1.74103 12.6299 2.27301 12.7266 2.51482 12.3881C3.72387 10.5987 6.14197 10.1151 7.97972 11.2758C8.22153 11.4209 8.5117 11.3725 8.65679 11.1307C9.14041 10.3569 9.9142 9.82493 10.688 9.58312L13.6381 23.7048H9.23713C8.07644 23.7048 7.06084 23.0277 6.62559 21.9638L3.48206 15.1931C3.24025 14.6128 2.70827 14.2259 2.07956 14.1291C1.45086 14.0808 0.870515 14.3226 0.483619 14.8062C0.145086 15.2898 0.0483619 15.9185 0.290172 16.4989L3.57878 23.7048C4.4493 25.6876 6.33541 26.9934 8.5117 27.0418L7.25429 28.9763C6.4805 28.9279 5.65835 28.9279 4.64275 29.0246L0.435257 29.5566C0.193448 29.605 0 29.8468 0 30.0886C0 30.3304 0.290172 30.5238 0.531981 30.5238L4.73947 29.9919C9.28549 29.605 9.96256 30.9591 16.4914 30.9591C20.7473 30.9591 28.0983 29.7984 30.5164 29.75C30.8066 29.75 31 29.5082 31 29.2664C30.9516 28.9763 30.7582 28.7828 30.468 28.7828ZM7.59282 10.0184C5.75507 9.29295 3.77223 9.72821 2.46646 10.9856C2.17629 7.21339 4.40094 3.73133 7.93136 2.28047C7.15757 4.0215 7.1092 7.01994 7.59282 10.0184ZM11.4134 1.55504C15.1856 1.55504 18.571 3.92478 19.78 7.50356C18.0874 6.87485 16.0562 7.21339 14.6537 8.56752C13.9282 5.66581 12.7676 2.86081 11.4134 1.55504C11.4134 1.55504 11.3651 1.55504 11.4134 1.55504ZM8.56006 9.77657C7.78627 5.08546 8.60842 1.94194 9.62402 1.74849C10.6396 1.55504 12.5741 4.11823 13.6864 8.76097C11.9454 8.0839 9.9142 8.4708 8.56006 9.77657ZM4.4493 23.3179L1.20905 16.1603C1.11232 15.9185 1.11232 15.6284 1.30577 15.3866C1.45086 15.1931 1.69267 15.0964 1.93448 15.0964H2.0312C2.32137 15.1447 2.51482 15.2898 2.65991 15.58L5.75507 22.399C6.33541 23.8015 7.73791 24.7204 9.28549 24.7204H29.3557C29.7426 24.7204 30.0328 25.0106 30.0328 25.3975C30.0328 25.7844 29.7426 26.0745 29.3557 26.0745H8.65679C6.81903 26.0745 5.17473 25.0106 4.4493 23.3179ZM8.31825 29.073L9.62402 27.0418H14.3151L14.9438 29.9435C11.7036 29.8468 10.2044 29.3148 8.31825 29.073ZM16.4431 29.9919C16.2496 29.9919 16.1045 29.9919 15.9594 29.9919L15.3307 27.0418H25.8253L27.131 29.073C24.0359 29.4115 19.3931 29.9919 16.4431 29.9919Z" fill="#1C231F"/>
</svg>
