<svg width="15" height="12" viewBox="0 0 15 12" fill="none" xmlns="http://www.w3.org/2000/svg">
<path d="M14.7465 1.41935C14.1935 1.65898 13.6221 1.82488 13.0138 1.89861C13.6405 1.52995 14.1198 0.940091 14.341 0.221198C13.7511 0.571428 13.106 0.811059 12.4239 0.958524C11.8709 0.368663 11.0783 0 10.212 0C8.53455 0 7.18893 1.36405 7.18893 3.02304C7.18893 3.26267 7.20736 3.48387 7.26266 3.70506C4.75575 3.59446 2.54378 2.37788 1.05069 0.552995C-0.018433 2.47004 1.17972 4.05529 1.97235 4.58985C1.49309 4.58985 1.01382 4.44239 0.608294 4.22119C0.608294 5.71428 1.65898 6.9493 3.02304 7.2258C2.72811 7.31796 2.06451 7.37326 1.65898 7.28109C2.04608 8.47925 3.1705 9.36404 4.47926 9.38247C3.447 10.1935 1.93548 10.8387 0 10.6359C1.34562 11.5023 2.93087 12 4.64515 12C10.212 12 13.235 7.39169 13.235 3.41013C13.235 3.2811 13.235 3.15207 13.2166 3.02304C13.8433 2.56221 14.3594 2.02765 14.7465 1.41935Z" fill="#484848"/>
</svg>
