<svg width="11" height="7" viewBox="0 0 11 7" fill="none" xmlns="http://www.w3.org/2000/svg">
<mask id="path-1-inside-1_50_174" fill="white">
<path fill-rule="evenodd" clip-rule="evenodd" d="M0.2521 0.248341C0.409447 0.0969574 0.620459 0.0142356 0.838766 0.0183546C1.05707 0.0224736 1.26481 0.113096 1.41634 0.270308L5.49117 4.59556L9.566 0.270308C9.64007 0.188653 9.72977 0.122695 9.8298 0.0763444C9.92983 0.0299936 10.0381 0.00419262 10.1483 0.00046984C10.2585 -0.00325294 10.3683 0.0151781 10.4712 0.0546715C10.5742 0.094165 10.6681 0.153917 10.7475 0.230387C10.8269 0.306857 10.8902 0.398488 10.9335 0.499852C10.9769 0.601217 10.9995 0.710251 10.9999 0.820494C11.0003 0.930737 10.9786 1.03995 10.9361 1.14165C10.8935 1.24335 10.831 1.33548 10.7522 1.41258L6.08427 6.3551C6.00743 6.43482 5.9153 6.49824 5.8134 6.54155C5.71149 6.58486 5.6019 6.60719 5.49117 6.60719C5.38044 6.60719 5.27085 6.58486 5.16894 6.54155C5.06704 6.49824 4.97491 6.43482 4.89807 6.3551L0.230134 1.41258C0.0787496 1.25523 -0.00397223 1.04422 0.000146772 0.825914C0.00426578 0.607606 0.0948886 0.399865 0.2521 0.248341Z"/>
</mask>
<path fill-rule="evenodd" clip-rule="evenodd" d="M0.2521 0.248341C0.409447 0.0969574 0.620459 0.0142356 0.838766 0.0183546C1.05707 0.0224736 1.26481 0.113096 1.41634 0.270308L5.49117 4.59556L9.566 0.270308C9.64007 0.188653 9.72977 0.122695 9.8298 0.0763444C9.92983 0.0299936 10.0381 0.00419262 10.1483 0.00046984C10.2585 -0.00325294 10.3683 0.0151781 10.4712 0.0546715C10.5742 0.094165 10.6681 0.153917 10.7475 0.230387C10.8269 0.306857 10.8902 0.398488 10.9335 0.499852C10.9769 0.601217 10.9995 0.710251 10.9999 0.820494C11.0003 0.930737 10.9786 1.03995 10.9361 1.14165C10.8935 1.24335 10.831 1.33548 10.7522 1.41258L6.08427 6.3551C6.00743 6.43482 5.9153 6.49824 5.8134 6.54155C5.71149 6.58486 5.6019 6.60719 5.49117 6.60719C5.38044 6.60719 5.27085 6.58486 5.16894 6.54155C5.06704 6.49824 4.97491 6.43482 4.89807 6.3551L0.230134 1.41258C0.0787496 1.25523 -0.00397223 1.04422 0.000146772 0.825914C0.00426578 0.607606 0.0948886 0.399865 0.2521 0.248341Z" fill="white"/>
<path d="M1.41634 0.270308L3.01522 -1.236L3.00665 -1.2451L2.99797 -1.2541L1.41634 0.270308ZM5.49117 4.59556L3.89229 6.10187L5.49117 7.79901L7.09005 6.10187L5.49117 4.59556ZM9.566 0.270308L11.1649 1.77662L11.1791 1.76152L11.193 1.74616L9.566 0.270308ZM10.7522 1.41258L9.21603 -0.157624L9.185 -0.127267L9.15519 -0.0957091L10.7522 1.41258ZM6.08427 6.3551L7.66588 7.87953L7.67362 7.8715L7.68128 7.86339L6.08427 6.3551ZM4.89807 6.3551L3.30106 7.86339L3.30872 7.8715L3.31646 7.87953L4.89807 6.3551ZM0.230134 1.41258L1.82715 -0.0957091L1.82017 -0.103098L1.81312 -0.110422L0.230134 1.41258ZM1.7751 1.83133C1.51286 2.08363 1.16117 2.2215 0.797327 2.21464L0.880205 -2.17793C0.0797444 -2.19303 -0.693966 -1.88972 -1.2709 -1.33464L1.7751 1.83133ZM0.797327 2.21464C0.433479 2.20777 0.0872444 2.05673 -0.165294 1.79472L2.99797 -1.2541C2.44238 -1.83054 1.68067 -2.16283 0.880205 -2.17793L0.797327 2.21464ZM-0.182542 1.77662L3.89229 6.10187L7.09005 3.08925L3.01522 -1.236L-0.182542 1.77662ZM7.09005 6.10187L11.1649 1.77662L7.96712 -1.236L3.89229 3.08925L7.09005 6.10187ZM11.193 1.74616C11.0696 1.88225 10.9201 1.99218 10.7534 2.06943L8.90623 -1.91674C8.53947 -1.74679 8.21055 -1.50495 7.93897 -1.20554L11.193 1.74616ZM10.7534 2.06943C10.5867 2.14669 10.4061 2.18969 10.2225 2.19589L10.0741 -2.19495C9.67015 -2.1813 9.273 -2.0867 8.90623 -1.91674L10.7534 2.06943ZM10.2225 2.19589C10.0389 2.2021 9.85586 2.17138 9.68431 2.10555L11.2582 -1.99621C10.8808 -2.14102 10.4781 -2.2086 10.0741 -2.19495L10.2225 2.19589ZM9.68431 2.10555C9.51276 2.03973 9.35617 1.94014 9.22382 1.8127L12.2712 -1.35192C11.9801 -1.63231 11.6356 -1.8514 11.2582 -1.99621L9.68431 2.10555ZM9.22382 1.8127C9.09147 1.68525 8.98605 1.53253 8.9138 1.36359L12.9533 -0.363882C12.7943 -0.735552 12.5624 -1.07153 12.2712 -1.35192L9.22382 1.8127ZM8.9138 1.36359C8.84156 1.19465 8.80396 1.01292 8.80323 0.829185L13.1965 0.811803C13.1949 0.407577 13.1122 0.00778552 12.9533 -0.363882L8.9138 1.36359ZM8.80323 0.829185C8.8025 0.645441 8.83867 0.463426 8.90957 0.293924L12.9626 1.98938C13.1186 1.61647 13.1981 1.21603 13.1965 0.811803L8.80323 0.829185ZM8.90957 0.293924C8.98048 0.124421 9.08469 -0.0291285 9.21603 -0.157624L12.2884 2.98278C12.5773 2.7001 12.8066 2.36229 12.9626 1.98938L8.90957 0.293924ZM9.15519 -0.0957091L4.48726 4.84681L7.68128 7.86339L12.3492 2.92087L9.15519 -0.0957091ZM4.50267 4.83066C4.63074 4.69778 4.78429 4.59209 4.95413 4.51991L6.67267 8.56319C7.04632 8.40438 7.38412 8.17186 7.66588 7.87953L4.50267 4.83066ZM4.95413 4.51991C5.12397 4.44772 5.30662 4.41051 5.49117 4.41051V8.80386C5.89718 8.80386 6.29902 8.72201 6.67267 8.56319L4.95413 4.51991ZM5.49117 4.41051C5.67572 4.41051 5.85837 4.44772 6.02821 4.51991L4.30967 8.56319C4.68332 8.72201 5.08516 8.80386 5.49117 8.80386V4.41051ZM6.02821 4.51991C6.19805 4.59209 6.3516 4.69778 6.47967 4.83066L3.31646 7.87953C3.59822 8.17186 3.93602 8.40438 4.30967 8.56319L6.02821 4.51991ZM6.49508 4.84681L1.82715 -0.0957091L-1.36688 2.92087L3.30106 7.86339L6.49508 4.84681ZM1.81312 -0.110422C2.06543 0.151822 2.2033 0.503508 2.19643 0.867353L-2.19614 0.784474C-2.21124 1.58493 -1.90793 2.35864 -1.35285 2.93558L1.81312 -0.110422ZM2.19643 0.867353C2.18957 1.2312 2.03853 1.57744 1.77651 1.82997L-1.27231 -1.33329C-1.84875 -0.777705 -2.18103 -0.0159873 -2.19614 0.784474L2.19643 0.867353Z" fill="white" mask="url(#path-1-inside-1_50_174)"/>
</svg>
