<svg width="15" height="15" viewBox="0 0 15 15" fill="none" xmlns="http://www.w3.org/2000/svg">
<path d="M14.9993 14.9995V9.50595C14.9993 6.80602 14.4181 4.74357 11.2682 4.74357C9.74947 4.74357 8.737 5.56855 8.32451 6.35603H8.28702V4.98732H5.30585V14.9995H8.41826V10.0309C8.41826 8.71847 8.66201 7.46225 10.2745 7.46225C11.8682 7.46225 11.8869 8.94346 11.8869 10.1059V14.9808H14.9993V14.9995Z" fill="#484848"/>
<path d="M0.244134 4.98733H3.35655V14.9996H0.244134V4.98733Z" fill="#484848"/>
<path d="M1.79995 0C0.806228 0 0 0.806228 0 1.79995C0 2.79367 0.806228 3.61865 1.79995 3.61865C2.79367 3.61865 3.5999 2.79367 3.5999 1.79995C3.5999 0.806228 2.79367 0 1.79995 0Z" fill="#484848"/>
</svg>
