<svg width="200" height="151" viewBox="0 0 200 151" fill="none" xmlns="http://www.w3.org/2000/svg">
<path d="M186.568 15.3008C177.53 5.14805 166.562 0 153.967 0C142.647 0 133.051 4.03086 125.443 11.9801C117.883 19.8785 114.05 29.6891 114.05 41.1398C114.05 51.9609 117.922 61.6035 125.558 69.8004C132.294 77.0316 140.78 81.6312 150.825 83.5059C149.068 96.8242 137.294 108.879 115.76 119.383L111.882 121.275L127.781 150.627L131.37 148.807C176.91 125.724 200 93.1008 200 51.8441C200 37.6105 195.481 25.316 186.568 15.3008ZM131.201 139.575L123.235 124.871C147.19 112.32 159.326 97.2309 159.326 79.9793V76.2855L155.656 75.8699C145.771 74.7512 137.906 70.9219 131.61 64.1629C125.36 57.4531 122.321 49.9227 122.321 41.1398C122.321 31.7617 125.297 24.0945 131.418 17.6984C137.49 11.3543 144.866 8.27031 153.967 8.27031C164.242 8.27031 172.885 12.3687 180.39 20.7992C188.02 29.3727 191.73 39.5273 191.73 51.8437C191.73 70.7527 186.405 87.8238 175.905 102.583C165.885 116.665 150.857 129.097 131.201 139.575Z" fill="#1C231F" fill-opacity="0.05"/>
<path d="M74.468 15.2825C65.3301 5.14229 54.3156 0.000488281 41.7301 0.000488281C30.3996 0.000488281 20.8469 4.03877 13.3387 12.0028C5.89492 19.8981 2.12031 29.7013 2.12031 41.1403C2.12031 51.961 5.99219 61.6036 13.6277 69.8009C20.3496 77.0165 28.7332 81.6118 38.5918 83.495C36.8563 96.8235 25.1805 108.884 3.81875 119.39L0 121.268L15.5031 150.64L19.1277 148.811C64.8738 125.729 88.0691 93.1044 88.0691 51.8442C88.0688 37.5997 83.4922 25.2985 74.468 15.2825ZM19.0074 139.562L11.259 124.881C35.0395 112.324 47.0891 97.2317 47.0891 79.9794V76.2938L43.4273 75.8712C33.7453 74.754 25.9766 70.9243 19.6789 64.163C13.4285 57.4536 10.3906 49.9228 10.3906 41.1403C10.3906 31.7501 13.3234 24.0747 19.3559 17.6767C25.3227 11.3478 32.6418 8.2708 41.7301 8.2708C52.0156 8.2708 60.7152 12.3751 68.3234 20.8188C76.0449 29.3876 79.7984 39.5364 79.7984 51.8442C79.7984 70.7501 74.4508 87.8188 63.9027 102.576C53.8398 116.654 38.7477 129.085 19.0074 139.562Z" fill="#1C231F" fill-opacity="0.05"/>
</svg>
