<svg width="30" height="30" viewBox="0 0 30 30" fill="none" xmlns="http://www.w3.org/2000/svg">
<g clip-path="url(#clip0_119_8015)">
<path d="M23.6994 29.5329L23.5598 27.3225C23.506 26.4731 23.2009 25.6701 22.6776 25.0001C22.5282 24.8088 22.2521 24.7748 22.0608 24.9244C21.8695 25.0738 21.8356 25.3499 21.985 25.5412C22.3989 26.0709 22.64 26.7061 22.6826 27.3779L22.7926 29.1211H7.20816L7.31814 27.3781C7.37463 26.4873 7.77535 25.673 8.44642 25.0851C8.84433 24.7367 9.32609 24.4857 9.83978 24.359L12.2131 23.7724C12.5287 23.6943 12.7491 23.4131 12.7491 23.0886V21.3951C13.5103 21.7005 14.2905 21.8657 15.0004 21.8657C15.7008 21.8657 16.4716 21.7043 17.2247 21.4058V23.0815C17.2247 23.4065 17.4449 23.6879 17.7604 23.766L20.1616 24.3591C20.3655 24.4092 20.5665 24.4797 20.759 24.5686C20.8186 24.5962 20.8813 24.6092 20.943 24.6092C21.109 24.6092 21.268 24.5146 21.3422 24.3539C21.444 24.1335 21.3479 23.8724 21.1275 23.7707C20.8841 23.6583 20.6297 23.5691 20.3719 23.5058L18.1037 22.9455V20.9894C19.4045 20.2675 20.4794 19.1797 21.1481 17.9015C21.2606 17.6865 21.1775 17.4209 20.9624 17.3084C20.7473 17.1957 20.4818 17.279 20.3693 17.4941C19.7438 18.6899 18.7122 19.6987 17.4646 20.3346C16.6399 20.7552 15.7648 20.9868 15.0005 20.9868C14.2268 20.9868 13.3429 20.7506 12.5108 20.3213C11.3029 19.7 10.2946 18.7226 9.67167 17.5693C9.55636 17.3557 9.28982 17.2761 9.07619 17.3915C8.86261 17.5069 8.78304 17.7735 8.89841 17.987C9.56322 19.2178 10.6125 20.2702 11.8703 20.9744V22.9519L9.62925 23.5057C8.97998 23.6658 8.37072 23.9832 7.86752 24.424C7.01908 25.1672 6.51254 26.1965 6.44111 27.3227L6.30166 29.5329C6.29398 29.654 6.33682 29.773 6.41984 29.8614C6.50287 29.9498 6.61883 30 6.74023 30H23.2608C23.3822 30 23.4981 29.9499 23.5812 29.8614C23.6643 29.7729 23.7071 29.654 23.6994 29.5329Z" fill="black"/>
<path d="M27.9351 6.8837C27.6924 6.8837 27.4957 7.0804 27.4957 7.32315V16.3364C27.4957 19.419 24.2343 20.9828 22.2902 21.6407C21.2566 21.9905 20.7288 21.8048 20.6262 21.5945C20.5652 21.4694 20.6436 21.3024 20.8171 21.1883C21.5656 20.6961 24.5899 18.3938 24.5899 16.9448C24.5899 16.2903 24.5276 15.6623 24.4752 15.2507C24.4454 15.016 24.3043 14.8071 24.0977 14.6919C23.8908 14.5763 23.6386 14.5661 23.4229 14.6641L21.0764 15.7305C20.9079 15.807 20.7123 15.7652 20.59 15.6264C20.5135 15.5397 20.477 15.4285 20.4872 15.3134C20.4973 15.1983 20.5527 15.0952 20.6431 15.0231C21.0617 14.6896 21.4127 14.4259 21.707 14.2163C21.7104 14.2138 21.7141 14.2115 21.7173 14.2089C22.4146 13.7134 22.7891 13.527 22.972 13.4571C22.9807 13.4542 22.9893 13.4512 22.9977 13.4476C23.0819 13.4175 23.1179 13.4152 23.1228 13.4151H24.5619C24.8046 13.4151 25.0013 13.2184 25.0013 12.9756V7.57305C25.0013 7.3303 24.8046 7.1336 24.5619 7.1336C24.3192 7.1336 24.1224 7.3303 24.1224 7.57305V12.5361H23.4221C23.5426 12.0207 23.6484 11.3598 23.618 10.6998C23.575 9.76539 23.2605 9.05623 22.7043 8.63072C22.6569 7.0784 22.2508 5.81829 21.4957 4.88237C20.9574 4.21517 20.258 3.72773 19.4148 3.42948C19.1421 2.02031 18.0224 0.766872 16.5481 0.254881C15.2777 -0.186212 12.6624 -0.434883 9.41889 2.85679C9.24856 3.02964 9.25061 3.30784 9.42346 3.47818C9.59631 3.64857 9.87457 3.64652 10.0449 3.47361C12.9492 0.526228 15.1853 0.712146 16.2596 1.08515C16.5659 1.1915 16.8416 1.3323 17.0876 1.49677C16.8058 1.48781 16.5196 1.51201 16.2383 1.57107C15.3376 1.76056 14.4667 2.26078 13.5759 3.10042C13.3993 3.26689 13.3911 3.54503 13.5575 3.72169C13.644 3.81339 13.7606 3.85968 13.8774 3.85968C13.9855 3.85968 14.0938 3.82001 14.1787 3.74003C14.9485 3.01452 15.6814 2.58638 16.4191 2.43117C17.0532 2.29804 17.7114 2.39654 18.2031 2.69349C18.4186 3.07206 18.5458 3.462 18.5843 3.81204C18.5987 3.93919 18.6024 4.06382 18.5952 4.18294C18.5857 4.34589 18.5564 4.51118 18.5074 4.67858C18.3533 5.20522 18.0041 5.75348 17.4636 6.31956C17.0274 6.77629 16.5165 7.19389 16.0069 7.56297C16.0067 7.56309 16.0066 7.56321 16.0065 7.56332C14.9665 8.31742 13.6328 9.07797 12.0424 9.82393C10.5097 10.5435 9.17643 11.8681 8.51005 13.2966C7.89669 12.8806 7.51307 12.6923 7.26534 12.6069C7.03114 10.4341 7.16772 7.41625 8.95454 4.79735C9.09129 4.5969 9.03967 4.32351 8.83922 4.18669C8.63872 4.04987 8.36532 4.10155 8.22856 4.30206C6.33774 7.07331 6.14907 10.2256 6.37442 12.536H5.87708V7.57299C5.87708 7.33024 5.68032 7.13354 5.43763 7.13354C5.19493 7.13354 4.99818 7.33024 4.99818 7.57299V12.9756C4.99818 13.2183 5.19493 13.415 5.43763 13.415H6.87628C6.89233 13.4154 7.22222 13.4367 8.4429 14.3245C8.44753 14.328 8.45221 14.3314 8.45696 14.3348C8.71559 14.5232 9.01301 14.7494 9.35649 15.0231C9.4469 15.0951 9.50233 15.1981 9.51247 15.3133C9.5226 15.4283 9.4861 15.5395 9.40963 15.6263C9.28729 15.7651 9.0917 15.8069 8.92325 15.7303L6.57669 14.664C6.36095 14.566 6.10876 14.5763 5.90187 14.6918C5.69527 14.807 5.55411 15.0159 5.52435 15.2506C5.47202 15.6621 5.40968 16.2902 5.40968 16.9447C5.40968 18.3937 8.43387 20.696 9.18252 21.1882C9.35596 21.3022 9.43442 21.4693 9.37336 21.5944C9.27077 21.8046 8.74296 21.9903 7.70936 21.6406C5.76529 20.9827 2.5039 19.4189 2.5039 16.3363V7.32327C2.5039 7.08051 2.30715 6.88381 2.06445 6.88381C1.82176 6.88381 1.625 7.08051 1.625 7.32327V16.3365C1.625 17.9171 2.31998 19.3073 3.69078 20.4686C4.89312 21.4873 6.38655 22.121 7.42765 22.4734C7.92821 22.6427 8.35747 22.7143 8.71946 22.7143C9.49922 22.7142 9.96709 22.3821 10.1633 21.9801C10.4198 21.4542 10.2106 20.8124 9.66545 20.454C9.13618 20.106 8.26928 19.4258 7.52561 18.6911C6.6136 17.7899 6.28864 17.1982 6.28864 16.9449C6.28864 16.4229 6.33171 15.9156 6.37495 15.538L8.55967 16.5307C9.08251 16.7682 9.68918 16.6385 10.069 16.2076C10.3062 15.9385 10.4195 15.5936 10.3881 15.2363C10.3566 14.8791 10.1848 14.5593 9.90428 14.3358C9.6634 14.1438 9.44303 13.9735 9.23913 13.8204C9.78832 12.5305 11.0278 11.2715 12.416 10.6199C13.9621 9.89471 15.2783 9.15221 16.3325 8.4107C19.3106 9.50916 20.3797 11.7535 20.9399 13.6868C20.6884 13.872 20.4088 14.086 20.0953 14.3358C19.8148 14.5593 19.6429 14.8791 19.6115 15.2364C19.58 15.5936 19.6933 15.9385 19.9305 16.2076C20.3103 16.6385 20.9169 16.7682 21.4399 16.5308L23.6245 15.538C23.6677 15.9156 23.7108 16.423 23.7108 16.945C23.7108 17.1982 23.3859 17.79 22.4738 18.6912C21.7302 19.426 20.8633 20.1061 20.334 20.454C19.7889 20.8125 19.5796 21.4543 19.8362 21.9802C20.0324 22.3822 20.5001 22.7144 21.28 22.7144C21.642 22.7144 22.0714 22.6428 22.5718 22.4735C23.613 22.1211 25.1064 21.4874 26.3087 20.4687C27.6795 19.3075 28.3745 17.9172 28.3745 16.3366V7.32332C28.3746 7.08045 28.1778 6.8837 27.9351 6.8837ZM17.1517 7.79248C18.2107 6.92852 19.3048 5.74973 19.4591 4.39288C21.0372 5.10837 21.6138 6.58997 21.7762 7.98309L21.6058 7.86309C21.4074 7.72334 21.1332 7.77092 20.9935 7.96932C20.8537 8.16778 20.9013 8.44188 21.0996 8.58168L22.0162 9.22732C22.0212 9.23084 22.0265 9.23318 22.0316 9.23646C22.0376 9.24033 22.0431 9.24479 22.0494 9.24836C22.9492 9.76791 22.8459 11.398 22.4672 12.7172C22.2718 12.8092 22.0211 12.9487 21.6985 13.158C21.1207 11.31 19.9855 9.03795 17.1517 7.79248Z" fill="black"/>
</g>
<defs>
<clipPath id="clip0_119_8015">
<rect width="30" height="30" fill="white"/>
</clipPath>
</defs>
</svg>
