<svg width="18" height="18" viewBox="0 0 18 18" fill="none" xmlns="http://www.w3.org/2000/svg">
<g clip-path="url(#clip0_151_2944)">
<path d="M13.0656 0H4.93443C2.21358 0 0 2.21358 0 4.93446V13.0656C0 15.7865 2.21358 18 4.93443 18H13.0656C15.7865 18 18 15.7865 18 13.0656V4.93446C18 2.21358 15.7865 0 13.0656 0ZM16.937 13.0656C16.937 15.2003 15.2003 16.937 13.0656 16.937H4.93443C2.7997 16.937 1.06298 15.2003 1.06298 13.0656V4.93446C1.06298 2.7997 2.7997 1.06298 4.93443 1.06298H13.0656C15.2003 1.06298 16.937 2.7997 16.937 4.93446V13.0656Z" fill="#1C231F"/>
<path d="M8.99953 4.06299C6.27724 4.06299 4.0625 6.27773 4.0625 9.00002C4.0625 11.7223 6.2772 13.937 8.99953 13.937C11.7218 13.937 13.9366 11.7223 13.9366 8.99998C13.9366 6.27769 11.7218 4.06299 8.99953 4.06299ZM8.99953 12.8741C6.86336 12.8741 5.12545 11.1361 5.12545 8.99998C5.12545 6.86382 6.86336 5.1259 8.99953 5.1259C11.1357 5.1259 12.8736 6.86385 12.8736 9.00002C12.8736 11.1362 11.1357 12.8741 8.99953 12.8741Z" fill="#1C231F"/>
<path d="M14.2324 2.2677C13.4053 2.2677 12.7324 2.94063 12.7324 3.76771C12.7324 4.5948 13.4053 5.26769 14.2324 5.26769C15.0595 5.26769 15.7324 4.59476 15.7324 3.76768C15.7324 2.94059 15.0595 2.2677 14.2324 2.2677ZM14.2324 4.20467C13.9915 4.20467 13.7954 4.00864 13.7954 3.76768C13.7954 3.52672 13.9915 3.33068 14.2324 3.33068C14.4734 3.33068 14.6694 3.52675 14.6694 3.76768C14.6694 4.0086 14.4734 4.20467 14.2324 4.20467Z" fill="#1C231F"/>
</g>
<defs>
<clipPath id="clip0_151_2944">
<rect width="18" height="18" fill="white"/>
</clipPath>
</defs>
</svg>
