<svg width="45" height="45" viewBox="0 0 45 45" fill="none" xmlns="http://www.w3.org/2000/svg">
<g clip-path="url(#clip0_160_783)">
<path d="M43.3789 27.0819C43.2054 26.7584 42.8027 26.6366 42.479 26.81L38.7877 28.788C38.1347 29.1288 37.5759 29.8796 37.4482 30.6839C37.3302 31.2261 36.9268 31.6621 36.3952 31.8216L34.4523 32.4045L27.3098 17.3318C27.7427 16.967 28.0635 16.4861 28.2343 15.9322C28.4692 15.1703 28.3933 14.3625 28.0206 13.6576C27.2514 12.2026 25.4417 11.6446 23.9866 12.4139L21.0677 13.9572C21.158 12.6041 20.4358 11.2663 19.1421 10.6404L13.7405 8.02772C13.8784 7.45573 13.851 6.85555 13.6529 6.28657C13.3805 5.50382 12.8196 4.87395 12.0735 4.51298C9.75494 3.3915 6.92759 3.93868 5.19778 5.84379C4.95104 6.11561 4.97125 6.53605 5.24307 6.78279C5.51488 7.0297 5.93533 7.00932 6.18197 6.7375C7.51837 5.26586 9.70292 4.84311 11.4946 5.70979C12.3748 6.13555 12.7446 7.19791 12.3191 8.07815C12.319 8.07824 12.3189 8.07833 12.3189 8.07842L7.77946 17.4607C7.57154 17.8765 7.21704 18.1895 6.77719 18.3427C6.32971 18.4983 5.84856 18.4705 5.42209 18.2641C3.17905 17.1792 2.23686 14.4717 3.32183 12.2285L4.70183 9.37555C4.86171 9.04506 4.72336 8.64757 4.39287 8.48769C4.06239 8.32781 3.6649 8.46616 3.5051 8.79664L2.1251 11.6496C0.720909 14.5526 1.94032 18.0567 4.84327 19.4609C5.35908 19.6829 5.94623 19.8488 6.68032 19.7326C6.02688 20.9429 5.84067 22.5597 6.25846 23.9306L6.93193 26.1935C7.03669 26.5453 7.40688 26.7456 7.75863 26.641C8.11048 26.5363 8.31087 26.1662 8.20611 25.8143L7.53264 23.5514C7.29326 22.7469 7.30008 21.8987 7.54496 21.1075L13.2757 23.5334L14.6153 29.3893C14.8158 30.2657 14.6794 31.1776 14.2313 31.9569L10.2328 38.9101L6.33476 36.9001L9.11178 32.0419C9.50776 31.3492 9.60437 30.5131 9.37677 29.7483L9.08555 28.7696C8.98088 28.4177 8.61078 28.2174 8.25884 28.322C7.907 28.4268 7.7067 28.7968 7.81137 29.1486L8.10259 30.1275C8.22711 30.5459 8.17429 31.0032 7.95769 31.3822L2.87816 39.8963C2.4283 40.7725 2.849 42.0442 3.78747 42.5125L8.33533 44.8011C8.59376 44.9336 8.87435 44.9996 9.15459 44.9996C9.4607 44.9996 9.76646 44.9208 10.0424 44.7639C10.5726 44.4626 10.9113 43.9193 10.9483 43.3101L11.1468 39.9876L15.3838 32.6196C15.9702 31.6307 16.1877 30.2442 15.9053 29.0668L19.4466 29.8763C19.952 29.9919 20.3959 30.3124 20.6648 30.7558L24.94 38.4414C25.1154 38.8772 25.4303 39.2226 25.8157 39.4413L21.3008 43.8603C21.0385 44.1171 21.034 44.5379 21.2907 44.8003C21.4209 44.9333 21.5933 45 21.7658 45C21.9334 45 22.1014 44.9369 22.2307 44.8104L27.3337 39.8158C27.4933 39.6595 27.6925 39.5487 27.9095 39.4952L31.1447 38.7017C32.2775 38.4359 33.2359 37.3604 33.3125 36.1366L33.3995 34.9486C33.437 34.4347 33.7939 33.99 34.2875 33.8419L36.7775 33.0949C37.772 32.7966 38.5269 31.9808 38.7474 30.9662C38.7901 30.6393 39.0011 30.1954 39.4159 29.9597L43.1072 27.9818C43.4305 27.8083 43.5522 27.4054 43.3789 27.0819ZM9.38519 43.6083C9.31908 43.646 9.14342 43.7221 8.94109 43.6177C8.93914 43.6167 8.93719 43.6158 8.93524 43.6148L4.39075 41.3279C4.10342 41.1797 3.96135 40.8497 4.0436 40.5413L5.64632 38.0408L9.80315 40.1842L9.62112 43.23C9.60711 43.4583 9.45149 43.5706 9.38519 43.6083ZM24.6079 13.5891C25.4149 13.1626 26.4186 13.4719 26.8453 14.2789C27.052 14.6698 27.0941 15.1178 26.9638 15.5404C26.8335 15.963 26.5464 16.3095 26.1555 16.5163L20.0024 19.7693C18.7811 20.4522 16.9386 19.9873 16.2524 18.6132L15.3831 16.9689L18.2726 15.3499C18.5123 15.9713 19.3665 16.3624 20.0328 16.0079L24.6079 13.5891ZM8.08061 19.8907L11.6162 12.5841C11.6702 12.754 11.739 12.9205 11.8241 13.0815L15.0772 19.2346C15.4321 19.9059 15.9489 20.4366 16.5535 20.8078L15.6166 22.7447L8.08061 19.8907ZM15.3011 10.2593C15.558 10.4096 15.7775 10.6307 15.9265 10.9126L17.651 14.1743L14.7616 15.7932L12.9994 12.46C12.7927 12.0691 12.7506 11.621 12.8809 11.1985C13.0112 10.7759 13.2982 10.4294 13.6892 10.2227C14.0689 10.0203 14.7635 9.92884 15.3011 10.2593ZM19.5378 14.6379L19.4719 14.7741L17.6979 11.4186L18.5632 11.8371C19.604 12.3406 20.0413 13.597 19.5378 14.6379ZM19.7427 28.5803L15.576 27.6279L14.7271 23.9169L22.0406 25.447C22.9739 25.6423 23.7801 26.186 24.3107 26.9781L28.4036 33.0873L24.25 34.1061L21.8014 30.0666C21.3473 29.3174 20.5969 28.7756 19.7427 28.5803ZM24.8936 35.3172L29.2226 34.2553L31.0859 36.6716C31.2253 36.8528 31.1817 37.0398 31.1564 37.1118C31.1313 37.1836 31.0488 37.3564 30.8277 37.4106L27.5934 38.2038C27.5928 38.204 27.5921 38.2042 27.5914 38.2044L26.9718 38.3563C26.6379 38.4383 26.2927 38.2572 26.1689 37.9348C26.1619 37.9168 26.1542 37.899 26.1457 37.8816L24.8936 35.3172ZM32.0734 34.8515L32.0117 35.6951L30.0248 33.1186L25.4152 26.2381C24.6901 25.1556 23.5884 24.4125 22.3129 24.1457L16.9577 23.0254L17.7863 21.3122C18.6226 21.5157 19.7123 21.4294 20.6238 20.9447L26.163 18.0162L33.2144 32.8963C32.5666 33.332 32.132 34.0509 32.0734 34.8515Z" fill="#63AC45"/>
<path d="M18.0416 8.45627C18.0417 8.45627 18.0417 8.45627 18.0416 8.45627C18.6016 8.72711 19.1941 8.85527 19.778 8.85527C21.2659 8.85527 22.6974 8.02262 23.3875 6.59592L23.9233 5.48844C24.3355 4.63621 24.3911 3.67444 24.0801 2.78029C23.7689 1.88623 23.1282 1.16676 22.2761 0.754648L21.4508 0.355475C20.5986 -0.0566375 19.637 -0.112472 18.7427 0.198695C17.8487 0.509862 17.1292 1.15045 16.717 2.00268L16.1813 3.11016C15.2203 5.09698 16.0549 7.4953 18.0416 8.45627ZM17.378 3.68906L17.9137 2.58159C18.2957 1.79202 19.0876 1.33143 19.911 1.33143C20.234 1.33143 20.5621 1.40242 20.8719 1.55228L21.6971 1.95146C22.2296 2.20901 22.63 2.65861 22.8245 3.21722C23.0189 3.77601 22.9841 4.37698 22.7266 4.90963L22.1909 6.0171C21.5491 7.34392 19.9473 7.90147 18.6205 7.25955C17.2936 6.61763 16.7362 5.01598 17.378 3.68906Z" fill="#63AC45"/>
</g>
<defs>
<clipPath id="clip0_160_783">
<rect width="45" height="45" fill="white"/>
</clipPath>
</defs>
</svg>
