<svg width="20" height="20" viewBox="0 0 20 20" fill="none" xmlns="http://www.w3.org/2000/svg">
<path fill-rule="evenodd" clip-rule="evenodd" d="M10.21 14.7699C10.0722 14.6266 9.99685 14.4345 10.0006 14.2357C10.0043 14.037 10.0869 13.8478 10.23 13.7099L14.168 9.99989L10.23 6.28989C10.1556 6.22245 10.0956 6.14077 10.0534 6.0497C10.0112 5.95863 9.9877 5.86002 9.98431 5.7597C9.98093 5.65939 9.99771 5.55941 10.0337 5.4657C10.0696 5.37199 10.124 5.28644 10.1936 5.21414C10.2633 5.14184 10.3467 5.08425 10.439 5.04479C10.5313 5.00532 10.6305 4.98478 10.7309 4.98438C10.8313 4.98398 10.9307 5.00374 11.0233 5.04247C11.1159 5.08121 11.1998 5.13814 11.27 5.20989L15.77 9.45989C15.8426 9.52985 15.9003 9.61373 15.9398 9.70651C15.9792 9.79929 15.9995 9.89907 15.9995 9.99989C15.9995 10.1007 15.9792 10.2005 15.9398 10.2933C15.9003 10.386 15.8426 10.4699 15.77 10.5399L11.27 14.7899C11.1267 14.9277 10.9346 15.003 10.7359 14.9993C10.5371 14.9955 10.348 14.913 10.21 14.7699Z" fill="#63AC45"/>
<path fill-rule="evenodd" clip-rule="evenodd" d="M4.20999 14.7699C4.07216 14.6266 3.99685 14.4345 4.0006 14.2357C4.00435 14.037 4.08686 13.8478 4.22999 13.7099L8.16799 9.99989L4.22999 6.28989C4.15565 6.22245 4.0956 6.14077 4.0534 6.0497C4.0112 5.95863 3.9877 5.86002 3.98431 5.7597C3.98093 5.65939 3.99771 5.55941 4.03366 5.4657C4.06962 5.37199 4.12402 5.28644 4.19365 5.21414C4.26327 5.14184 4.3467 5.08425 4.43899 5.04479C4.53127 5.00532 4.63055 4.98478 4.73092 4.98438C4.83129 4.98398 4.93072 5.00374 5.02332 5.04247C5.11592 5.08121 5.1998 5.13814 5.26999 5.20989L9.76999 9.45989C9.84258 9.52985 9.90032 9.61373 9.93975 9.70651C9.97919 9.79929 9.99951 9.89907 9.99951 9.99989C9.99951 10.1007 9.97919 10.2005 9.93975 10.2933C9.90032 10.386 9.84258 10.4699 9.76999 10.5399L5.26999 14.7899C5.12673 14.9277 4.93462 15.003 4.73585 14.9993C4.53709 14.9955 4.34795 14.913 4.20999 14.7699Z" fill="#63AC45"/>
</svg>
