<svg width="13" height="16" viewBox="0 0 13 16" fill="none" xmlns="http://www.w3.org/2000/svg">
<path fill-rule="evenodd" clip-rule="evenodd" d="M6.13758 15.8371L6.19273 15.8687L6.21479 15.8813C6.30227 15.9286 6.40015 15.9533 6.49961 15.9533C6.59906 15.9533 6.69694 15.9286 6.78442 15.8813L6.80648 15.8695L6.86242 15.8371C7.17058 15.6544 7.47126 15.4594 7.76376 15.2525C8.52097 14.718 9.22846 14.1162 9.87764 13.4546C11.4093 11.8867 13 9.53097 13 6.5C13 4.77609 12.3152 3.12279 11.0962 1.90381C9.87721 0.684819 8.22391 0 6.5 0C4.77609 0 3.12279 0.684819 1.90381 1.90381C0.684819 3.12279 0 4.77609 0 6.5C0 9.53018 1.59152 11.8867 3.12236 13.4546C3.77129 14.1162 4.47852 14.7179 5.23545 15.2525C5.52821 15.4594 5.82916 15.6544 6.13758 15.8371ZM6.5 8.86364C7.12688 8.86364 7.72808 8.61461 8.17134 8.17134C8.61461 7.72807 8.86364 7.12687 8.86364 6.5C8.86364 5.87312 8.61461 5.27192 8.17134 4.82866C7.72808 4.38539 7.12688 4.13636 6.5 4.13636C5.87312 4.13636 5.27192 4.38539 4.82866 4.82866C4.38539 5.27192 4.13636 5.87312 4.13636 6.5C4.13636 7.12687 4.38539 7.72807 4.82866 8.17134C5.27192 8.61461 5.87312 8.86364 6.5 8.86364Z" fill="#F7921E"/>
</svg>
