<svg width="30" height="30" viewBox="0 0 30 30" fill="none" xmlns="http://www.w3.org/2000/svg">
<path d="M26.7402 21.4355C27.0185 21.0465 27.1408 20.5673 27.083 20.0925C27.0252 19.6178 26.7915 19.1819 26.4281 18.871C26.7266 18.6137 26.939 18.2711 27.0368 17.8894C27.1346 17.5077 27.113 17.1051 26.975 16.736C26.8369 16.3669 26.5891 16.049 26.2648 15.8251C25.9405 15.6012 25.5554 15.4822 25.1613 15.4839H22.9568C23.1873 15.0986 23.2736 14.644 23.2005 14.201C23.1273 13.7579 22.8993 13.3553 22.5571 13.0645C22.8307 12.8289 23.0325 12.521 23.1395 12.1761C23.2465 11.8313 23.2544 11.4632 23.1623 11.1141C23.0702 10.7649 22.8817 10.4487 22.6185 10.2015C22.3552 9.95435 22.0278 9.78616 21.6735 9.71616C24.123 9.02187 26.449 7.94909 28.5673 6.53664L29.7769 5.72906C29.8343 5.69206 29.8832 5.64334 29.9204 5.58609C29.9576 5.52885 29.9823 5.46438 29.9928 5.39693C30.0033 5.32947 29.9994 5.26056 29.9814 5.19471C29.9634 5.12886 29.9316 5.06757 29.8882 5.01487L29.3473 4.33745C28.2671 2.98111 26.8943 1.88648 25.3316 1.13538C23.7688 0.384288 22.0565 -0.00383464 20.3226 2.85586e-05H9.67742C7.94313 -0.00382208 6.23041 0.384495 4.66737 1.13594C3.10432 1.88738 1.7314 2.9825 0.65129 4.33938L0.110323 5.0168C0.0669294 5.06951 0.0351797 5.1308 0.0171601 5.19664C-0.000859482 5.26249 -0.00474119 5.33141 0.00577008 5.39886C0.0162814 5.46632 0.0409477 5.53078 0.0781481 5.58803C0.115349 5.64527 0.164241 5.69399 0.221613 5.731L1.43129 6.53858C3.51058 7.92405 5.78995 8.98263 8.19 9.67745H4.83871C4.44465 9.6757 4.05952 9.79479 3.73523 10.0187C3.41093 10.2426 3.16307 10.5605 3.02502 10.9296C2.88698 11.2987 2.8654 11.7012 2.96319 12.0829C3.06098 12.4647 3.27344 12.8073 3.57194 13.0645C3.32291 13.2789 3.13293 13.5535 3.02008 13.8621C2.90724 14.1707 2.8753 14.5031 2.92731 14.8275C2.97931 15.152 3.11353 15.4577 3.31717 15.7156C3.52081 15.9734 3.78709 16.1749 4.09065 16.3007C3.73284 16.6053 3.44259 16.9813 3.23846 17.4046C3.03433 17.8279 2.92082 18.2892 2.9052 18.7588C2.88958 19.2285 2.97218 19.6963 3.14773 20.1322C3.32328 20.5681 3.58791 20.9626 3.92468 21.2904H2.41935C1.91157 21.2904 1.41667 21.4501 1.00473 21.747C0.592801 22.0439 0.284728 22.4629 0.124153 22.9446C-0.0364209 23.4264 -0.0413557 23.9464 0.110048 24.4311C0.261452 24.9158 0.561518 25.3405 0.967742 25.6452C0.561518 25.9499 0.261452 26.3746 0.110048 26.8593C-0.0413557 27.344 -0.0364209 27.864 0.124153 28.3457C0.284728 28.8275 0.592801 29.2465 1.00473 29.5434C1.41667 29.8403 1.91157 30 2.41935 30H25.6452C26.7042 30.0006 27.7271 29.6151 28.5223 28.9155C29.3174 28.216 29.8302 27.2505 29.9645 26.2C30.0988 25.1495 29.8454 24.0861 29.2519 23.209C28.6583 22.3319 27.7653 21.7014 26.7402 21.4355ZM1.96984 5.73148C1.64274 5.51325 1.38919 5.34438 1.18935 5.21471C1.25419 5.13438 1.32629 5.04438 1.40661 4.94374C2.39633 3.70041 3.65436 2.69695 5.08662 2.00844C6.51887 1.31992 8.08827 0.964159 9.67742 0.967771H20.3226C21.9117 0.964159 23.4811 1.31992 24.9134 2.00844C26.3456 2.69695 27.6037 3.70041 28.5934 4.94374C28.6737 5.04438 28.7458 5.13438 28.8106 5.21471C28.6108 5.34438 28.3568 5.51374 28.0302 5.73148C24.1734 8.30812 19.6383 9.68149 15 9.67745C10.3617 9.68149 5.82663 8.30812 1.96984 5.73148ZM3.87097 11.6129C3.87097 11.3563 3.97293 11.1101 4.15441 10.9286C4.3359 10.7471 4.58205 10.6452 4.83871 10.6452H21.2903C21.547 10.6452 21.7931 10.7471 21.9746 10.9286C22.1561 11.1101 22.2581 11.3563 22.2581 11.6129C22.2581 11.8696 22.1561 12.1157 21.9746 12.2972C21.7931 12.4787 21.547 12.5807 21.2903 12.5807H4.83871C4.58205 12.5807 4.3359 12.4787 4.15441 12.2972C3.97293 12.1157 3.87097 11.8696 3.87097 11.6129ZM4.83871 15.4839C4.58205 15.4839 4.3359 15.3819 4.15441 15.2005C3.97293 15.019 3.87097 14.7728 3.87097 14.5162C3.87097 14.2595 3.97293 14.0133 4.15441 13.8319C4.3359 13.6504 4.58205 13.5484 4.83871 13.5484H21.2903C21.547 13.5484 21.7931 13.6504 21.9746 13.8319C22.1561 14.0133 22.2581 14.2595 22.2581 14.5162C22.2581 14.7728 22.1561 15.019 21.9746 15.2005C21.7931 15.3819 21.547 15.4839 21.2903 15.4839H4.83871ZM3.87097 18.871C3.87174 18.2296 4.12688 17.6147 4.58043 17.1611C5.03398 16.7076 5.64891 16.4524 6.29032 16.4516H25.1613C25.418 16.4516 25.6641 16.5536 25.8456 16.7351C26.0271 16.9166 26.129 17.1627 26.129 17.4194C26.129 17.676 26.0271 17.9222 25.8456 18.1037C25.6641 18.2852 25.418 18.3871 25.1613 18.3871H5.32258V19.3549H25.1613C25.418 19.3549 25.6641 19.4568 25.8456 19.6383C26.0271 19.8198 26.129 20.0659 26.129 20.3226C26.129 20.5793 26.0271 20.8254 25.8456 21.0069C25.6641 21.1884 25.418 21.2904 25.1613 21.2904H6.29032C5.64891 21.2896 5.03398 21.0344 4.58043 20.5809C4.12688 20.1273 3.87174 19.5124 3.87097 18.871ZM25.6452 29.0323H2.41935C2.03436 29.0323 1.66514 28.8793 1.39291 28.6071C1.12068 28.3349 0.967742 27.9657 0.967742 27.5807C0.967742 27.1957 1.12068 26.8265 1.39291 26.5542C1.66514 26.282 2.03436 26.1291 2.41935 26.1291H26.6129V25.1613H2.41935C2.03436 25.1613 1.66514 25.0084 1.39291 24.7361C1.12068 24.4639 0.967742 24.0947 0.967742 23.7097C0.967742 23.3247 1.12068 22.9555 1.39291 22.6833C1.66514 22.411 2.03436 22.2581 2.41935 22.2581H25.6452C26.5435 22.2581 27.405 22.6149 28.0402 23.2501C28.6754 23.8854 29.0323 24.7469 29.0323 25.6452C29.0323 26.5435 28.6754 27.405 28.0402 28.0402C27.405 28.6754 26.5435 29.0323 25.6452 29.0323Z" fill="#1C231F"/>
</svg>
