<svg width="50" height="50" viewBox="0 0 50 50" fill="none" xmlns="http://www.w3.org/2000/svg">
<g clip-path="url(#clip0_102_2160)">
<path d="M22.324 42.041L9.25762 48.1738C9.25762 48.1445 9.26739 48.1152 9.26739 48.0859C9.44317 46.8848 9.06231 45.4199 8.54473 44.3164C8.01739 43.1836 7.11895 41.9336 6.0252 41.2988L12.5975 38.2129C12.8611 38.0859 12.9686 37.7832 12.8514 37.5195C12.7342 37.2559 12.4217 37.1484 12.158 37.2656C6.00567 40.166 4.05255 41.0254 3.81817 41.2012C2.63653 41.9922 2.5584 44.2383 3.66192 46.6016C4.18926 47.7149 4.90215 48.6719 5.6834 49.2871C6.3084 49.7754 7.07012 50.1367 7.84161 49.9512C8.07598 49.9316 6.992 50.3711 22.7635 42.9883C23.0272 42.8613 23.1346 42.5586 23.0174 42.2949C22.9002 42.0313 22.5877 41.9238 22.324 42.041ZM4.61895 46.1621C3.69122 44.1895 3.78887 42.3535 4.492 42.0215H4.50176C5.49786 41.5723 6.992 43.5547 7.51934 44.6094C7.54864 44.668 7.57794 44.7168 7.59747 44.7656C8.75958 47.2266 8.46661 50.1465 6.3377 48.4668C5.68341 47.9492 5.07794 47.1387 4.61895 46.1621ZM40.3904 25.1758L42.2752 24.2871C42.451 24.1992 42.6854 24.209 42.949 24.3066C43.7889 24.6094 44.7459 25.6836 45.3807 27.0313C46.0154 28.3789 46.2205 29.7949 45.9178 30.6348C45.8201 30.8984 45.6834 31.084 45.4979 31.1621L37.3924 34.9707C37.1287 35.0977 37.0213 35.4004 37.1385 35.6641C37.2264 35.8496 37.4119 35.9668 37.6072 35.9668C37.6854 35.9668 37.7537 35.9473 37.8318 35.918L45.9373 32.1094C46.367 31.9043 46.699 31.5234 46.8943 30.9961C47.2947 29.8926 47.0799 28.2031 46.3279 26.5918C45.5662 24.9805 44.4139 23.7305 43.3006 23.3301C42.7733 23.1348 42.2654 23.1445 41.826 23.3496L39.9412 24.2383C39.6775 24.3652 39.5701 24.668 39.6873 24.9316C39.824 25.1856 40.1365 25.293 40.3904 25.1758ZM46.1815 41.2109C45.9764 41.0449 45.1365 40.7129 33.0174 35.0098C32.7537 34.8828 32.451 35 32.324 35.2637C32.1971 35.5274 32.3143 35.8301 32.5779 35.957L43.9647 41.2988C43.1639 41.7578 42.4607 42.5879 41.9725 43.3691C41.1326 44.707 40.4783 46.6504 40.742 48.1836L4.50176 31.1621C4.32598 31.0742 4.1795 30.8984 4.08184 30.6348C3.77911 29.7949 3.98419 28.3789 4.61895 27.0313C5.25372 25.6836 6.21075 24.6094 7.05059 24.3066C7.31426 24.209 7.54864 24.1992 7.72442 24.2871L9.53106 25.127C9.79473 25.2441 10.0975 25.1367 10.2244 24.8731C10.3416 24.6094 10.2342 24.3066 9.97051 24.1797L8.17364 23.3399C7.74395 23.1348 7.23614 23.125 6.69903 23.3203C5.58575 23.7207 4.4334 24.9707 3.67169 26.582C2.91973 28.1934 2.69512 29.8828 3.10528 30.9863C3.30059 31.5137 3.63262 31.9043 4.06231 32.0996L41.9822 49.9023C42.0311 49.9219 42.3729 49.9902 42.5682 49.9902C44.16 49.9902 45.6346 48.0957 46.3377 46.5918C47.119 44.9219 47.6463 42.2168 46.1815 41.2109ZM45.3807 46.1621C44.9217 47.1387 44.3162 47.9492 43.6619 48.4668C43.115 48.8965 42.617 49.0527 42.285 48.8965C41.1229 48.3496 42.0213 45.3809 42.7147 44.1797C43.2225 43.291 44.5701 41.6016 45.5076 42.0215H45.5174C46.2108 42.3535 46.3084 44.1895 45.3807 46.1621ZM17.324 33.7207C17.5779 33.8672 17.8904 33.7793 18.0369 33.5254C18.1736 33.2715 18.0955 32.959 17.8416 32.8125C15.0682 31.2402 13.3201 29.0527 12.6365 26.2988C11.4354 21.4551 13.7889 15.9863 15.0877 13.4961C16.074 19.6094 19.6287 20.8106 19.7947 20.8594C19.9998 20.9277 20.2244 20.8594 20.3611 20.6934C20.4979 20.5273 20.5174 20.293 20.41 20.1074C18.0174 15.9668 17.451 12.2461 18.7303 9.04297C20.5076 4.58985 25.4393 2.23633 27.5877 1.39649C26.3279 5.22462 26.8748 9.54102 29.1111 13.0566C32.4022 18.2422 31.6502 19.9219 31.6404 19.9316V19.9414C31.6404 19.9414 31.6404 19.9512 31.6307 19.9512C31.533 20.1465 31.5623 20.3809 31.7186 20.5469C31.9236 20.7617 32.2752 20.7715 32.4998 20.5176C34.2967 18.3887 34.1209 14.1992 33.7986 11.6113C38.8572 19.1406 39.0428 26.377 34.1795 31.2305C33.5643 31.8457 32.8807 32.4024 32.1483 32.8711C31.9041 33.0274 31.8358 33.3496 31.992 33.5938C32.1483 33.8379 32.4705 33.9063 32.7147 33.75C33.5057 33.2422 34.2479 32.6465 34.9217 31.9727C40.576 26.3281 39.99 17.8027 33.3397 9.18946C33.1932 8.99415 32.9295 8.93555 32.7049 9.03321C32.4803 9.14063 32.3631 9.37501 32.4217 9.61915C32.4315 9.67774 33.535 14.7363 32.6072 18.0566C32.324 16.8164 31.6014 15.0195 30.0096 12.5098C27.8318 9.1211 27.2459 4.84376 28.9354 0.722663C29.0135 0.537116 28.9744 0.322272 28.8377 0.175788C28.701 0.0293033 28.4959 -0.0292904 28.3006 0.0195377C27.9686 0.117194 20.2244 2.43165 17.7342 8.64258C16.5232 11.6602 16.7869 15.0586 18.5057 18.7598C17.451 17.6758 16.201 15.6152 15.9178 11.8066C15.8982 11.582 15.742 11.3965 15.5272 11.3379C15.3123 11.2793 15.0779 11.377 14.9607 11.5625C14.7557 11.8848 9.89239 19.6094 11.6111 26.543C12.3729 29.5898 14.2967 32.002 17.324 33.7207ZM20.449 25.2149C20.4295 24.9902 20.2732 24.7949 20.0486 24.7461C19.824 24.6973 19.5994 24.7949 19.4822 24.9902C19.3943 25.1367 17.4022 28.6328 18.6033 31.7773C19.2674 33.5254 20.7713 34.7949 23.076 35.5469C25.5272 36.3477 28.2225 35.7324 29.9412 34.0137C30.9471 33.0078 33.8865 29.2383 29.2381 23.2227C29.0916 23.0274 28.8279 22.9688 28.6033 23.0664C28.3787 23.1738 28.2615 23.418 28.3201 23.6524C28.4275 24.1406 28.5936 25.2441 28.5643 26.2598C28.369 25.8398 28.1053 25.3516 27.7537 24.7949C26.8162 23.3106 26.5916 21.4941 27.1678 19.9414C27.2068 19.8438 27.2459 19.7461 27.285 19.6484C27.3533 19.4922 27.3338 19.3066 27.2361 19.1602C27.1385 19.0137 26.9725 18.9258 26.8065 18.9258C26.6893 18.9258 23.9549 18.9551 22.451 21.1524C21.2791 22.8613 21.2107 25.3418 22.2264 28.5352C21.4549 27.9199 20.5662 26.8652 20.449 25.2149ZM22.9979 30.1953C23.1932 30.2637 23.408 30.2246 23.5545 30.0781C23.701 29.9316 23.74 29.7168 23.6717 29.5215C22.3045 26.0059 22.1775 23.3887 23.3006 21.7383C24.0525 20.625 25.2537 20.2051 26.035 20.0488C25.5565 21.7871 25.8592 23.7305 26.8748 25.3418C28.1541 27.3633 28.0076 28.1152 27.9881 28.1934C27.8807 28.418 27.9393 28.6914 28.1443 28.8477C28.369 29.0039 28.6717 28.9746 28.8475 28.7598C29.492 27.9981 29.6385 26.7578 29.6092 25.6641C31.2205 28.6133 31.1033 31.3672 29.199 33.2715C27.744 34.7266 25.4686 35.2246 23.3982 34.5508C21.4061 33.8965 20.117 32.8418 19.5701 31.4063C18.9744 29.834 19.3455 28.0957 19.7654 26.9141C20.6639 29.2773 22.8904 30.1465 22.9979 30.1953Z" fill="white"/>
</g>
<defs>
<clipPath id="clip0_102_2160">
<rect width="50" height="50" fill="white"/>
</clipPath>
</defs>
</svg>
