<svg width="30" height="30" viewBox="0 0 30 30" fill="none" xmlns="http://www.w3.org/2000/svg">
<path d="M28.281 6.75844H26.729C26.5168 5.18115 26.014 3.72814 25.2602 2.55592C24.2003 0.907735 22.771 0 21.2358 0H18.0098C17.767 0 17.5703 0.196699 17.5703 0.439453C17.5703 0.682207 17.767 0.878906 18.0098 0.878906H21.2358C22.4617 0.878906 23.6284 1.64332 24.5209 3.03129C25.4521 4.47943 25.965 6.41344 25.965 8.47711V17.5655C25.7644 17.6062 25.6134 17.7835 25.6134 17.9961C25.6134 18.2087 25.7644 18.386 25.965 18.4267V24.1588C25.965 24.4016 26.1617 24.5983 26.4044 24.5983C26.6472 24.5983 26.8439 24.4016 26.8439 24.1588V10.196H28.281C29.2287 10.196 29.9997 9.42492 29.9997 8.47717C29.9997 7.52947 29.2287 6.75844 28.281 6.75844ZM28.281 9.31705H26.8439V8.47717C26.8439 8.19492 26.8347 7.91473 26.8169 7.63734H28.2811C28.7441 7.63734 29.1209 8.01416 29.1209 8.47723C29.1209 8.94029 28.7441 9.31705 28.281 9.31705Z" fill="#1C231F"/>
<path d="M26.4047 25.5352C26.1619 25.5352 25.9652 25.7319 25.9652 25.9746V28.8054L24.7544 27.9466C24.4567 27.7356 24.0565 27.7355 23.7586 27.9467L22.1084 29.1171L20.4579 27.9466C20.1602 27.7356 19.76 27.7355 19.4621 27.9467L17.8119 29.1171L16.1613 27.9466C15.8636 27.7355 15.4634 27.7355 15.1655 27.9466L13.9543 28.8054V18.4267C14.155 18.386 14.3059 18.2087 14.3059 17.9961C14.3059 17.7836 14.155 17.6062 13.9543 17.5655V8.47717C13.9543 6.24697 13.3919 4.1441 12.3707 2.55592C11.9237 1.86082 11.4108 1.29803 10.8522 0.878906H16.1944C16.4371 0.878906 16.6338 0.682207 16.6338 0.439453C16.6338 0.196699 16.4371 0 16.1944 0H8.34621C5.66051 0 3.38262 2.82387 2.85275 6.75844H1.71873C0.771035 6.75844 0 7.52947 0 8.47717C0 9.42492 0.771035 10.196 1.71873 10.196H2.85346C3.10676 12.0686 3.77273 13.7626 4.74469 14.9907C4.83141 15.1003 4.95984 15.1575 5.08957 15.1575C5.18508 15.1575 5.28123 15.1266 5.36197 15.0626C5.55229 14.9121 5.58445 14.6357 5.43387 14.4454C4.57846 13.3644 3.98385 11.8666 3.74057 10.196H5.7552C6.20836 11.6938 7.20639 12.6479 8.34621 12.6479C9.1418 12.6479 9.87562 12.1881 10.4124 11.3533C10.9447 10.5255 11.185 9.4732 11.185 8.47723C11.185 7.48359 10.9455 6.43014 10.4124 5.60121C9.87562 4.76631 9.14186 4.30652 8.34621 4.30652C7.20574 4.30652 6.20824 5.26037 5.75514 6.75844H3.74086C3.97564 5.1484 4.5392 3.69064 5.34768 2.61996C6.19547 1.49725 7.26041 0.878906 8.34627 0.878906C9.57217 0.878906 10.7388 1.64332 11.6314 3.03129C12.5626 4.47943 13.0754 6.41344 13.0754 8.47711C13.0754 10.5408 12.5626 12.4749 11.6314 13.923C10.7388 15.311 9.57211 16.0754 8.34627 16.0754C7.79613 16.0754 7.25555 15.9212 6.73928 15.6172C6.53027 15.4942 6.26086 15.5638 6.13758 15.7729C6.01441 15.982 6.08414 16.2514 6.29326 16.3746C6.94641 16.7592 7.63717 16.9543 8.34621 16.9543H13.0754V28.8404C13.0754 29.1637 13.2538 29.4567 13.5409 29.6051C13.828 29.7535 14.1703 29.7296 14.434 29.5427L15.6633 28.671L17.3139 29.8414C17.6117 30.0524 18.012 30.0526 18.3097 29.8414L19.96 28.671L21.6103 29.8414C21.7593 29.947 21.9338 29.9998 22.1082 29.9998C22.2827 29.9998 22.4572 29.947 22.6062 29.8414L24.2565 28.671L25.4853 29.5426C25.749 29.7295 26.0912 29.7536 26.3784 29.6051C26.6656 29.4567 26.844 29.1636 26.844 28.8404V25.9746C26.8441 25.7319 26.6474 25.5352 26.4047 25.5352ZM0.878906 8.47717C0.878906 8.0141 1.25566 7.63734 1.71873 7.63734H10.2382C10.284 7.91783 10.3061 8.20693 10.3061 8.47717C10.3061 8.74775 10.284 9.03639 10.2382 9.31705H1.71873C1.25566 9.31705 0.878906 8.94023 0.878906 8.47717ZM8.34621 11.7689C7.67531 11.7689 7.0398 11.1533 6.68227 10.1959H10.0073C9.6573 11.1318 9.03674 11.7689 8.34621 11.7689ZM8.34621 5.18543C9.03674 5.18543 9.6573 5.82264 10.0073 6.75844H6.68227C7.03975 5.80078 7.67484 5.18543 8.34621 5.18543ZM10.8521 16.0754C11.4107 15.6562 11.9236 15.0935 12.3706 14.3984C12.6379 13.9828 12.8728 13.5312 13.0754 13.052V16.0754H10.8521Z" fill="#1C231F"/>
<path d="M15.7549 17.5566C15.5121 17.5566 15.3154 17.7533 15.3154 17.9961C15.3154 18.2388 15.5121 18.4355 15.7549 18.4355H16.4415C16.6842 18.4355 16.8809 18.2388 16.8809 17.9961C16.8809 17.7533 16.6842 17.5566 16.4415 17.5566H15.7549Z" fill="#1C231F"/>
<path d="M21.5908 18.4355C21.8336 18.4355 22.0303 18.2388 22.0303 17.9961C22.0303 17.7533 21.8336 17.5566 21.5908 17.5566H20.9043C20.6615 17.5566 20.4648 17.7533 20.4648 17.9961C20.4648 18.2388 20.6615 18.4355 20.9043 18.4355H21.5908Z" fill="#1C231F"/>
<path d="M24.1651 18.4355C24.4079 18.4355 24.6046 18.2388 24.6046 17.9961C24.6046 17.7533 24.4079 17.5566 24.1651 17.5566H23.4785C23.2358 17.5566 23.0391 17.7533 23.0391 17.9961C23.0391 18.2388 23.2358 18.4355 23.4785 18.4355H24.1651Z" fill="#1C231F"/>
<path d="M19.0157 18.4355C19.2585 18.4355 19.4552 18.2388 19.4552 17.9961C19.4552 17.7533 19.2585 17.5566 19.0157 17.5566H18.3291C18.0863 17.5566 17.8896 17.7533 17.8896 17.9961C17.8896 18.2388 18.0863 18.4355 18.3291 18.4355H19.0157Z" fill="#1C231F"/>
</svg>
