<svg width="30" height="30" viewBox="0 0 30 30" fill="none" xmlns="http://www.w3.org/2000/svg">
<path d="M30 18.3814C30 17.5811 29.3487 16.9298 28.5484 16.9298H26.6129C25.8126 16.9298 25.1613 17.5811 25.1613 18.3814C25.1613 19.0114 25.5673 19.5436 26.129 19.744V19.833C26.129 20.1001 25.9118 20.3169 25.6452 20.3169H24.6774V17.3449C25.5097 17.1286 26.129 16.3777 26.129 15.4782C26.129 14.5094 25.4115 13.7125 24.4815 13.5717C25.1342 11.8099 23.9831 8.80558 21.526 5.87429L22.3331 5.06719C22.5295 5.16058 22.741 5.21235 22.9544 5.21235C23.3265 5.21235 23.6981 5.07106 23.9811 4.788C24.5468 4.22187 24.5468 3.30106 23.9811 2.73493L21.9281 0.681867C21.3619 0.115738 20.4411 0.116706 19.875 0.681867C19.4298 1.12751 19.3408 1.79042 19.5963 2.32945L18.7892 3.13654C15.3513 0.255577 11.8098 -0.832165 10.2953 0.682835C10.1061 0.872029 10.1061 1.17784 10.2953 1.36703L22.471 13.5427H5.80645C4.73903 13.5427 3.87097 14.4107 3.87097 15.4782C3.87097 16.3777 4.49032 17.1286 5.32258 17.3449V20.3169H4.35484C4.08823 20.3169 3.87097 20.1001 3.87097 19.833V19.744C4.43274 19.5436 4.83871 19.0114 4.83871 18.3814C4.83871 17.5811 4.18742 16.9298 3.3871 16.9298H1.45161C0.65129 16.9298 0 17.5811 0 18.3814C0 19.0114 0.405968 19.5436 0.967742 19.744V20.3169C0.967742 21.918 2.26984 23.2201 3.87097 23.2201H5.32258V26.6072C5.32258 28.4744 6.84194 29.9943 8.70968 29.9943H21.2903C23.1581 29.9943 24.6774 28.4744 24.6774 26.6072V23.2201H26.129C27.7302 23.2201 29.0323 21.918 29.0323 20.3169V19.744C29.594 19.5436 30 19.0114 30 18.3814ZM20.5597 1.36703C20.7479 1.17832 21.0552 1.17784 21.2444 1.36703L23.2969 3.42009C23.4856 3.6088 23.4856 3.91558 23.2969 4.10429C23.1077 4.29348 22.8005 4.293 22.6123 4.10429L20.5597 2.05122C20.371 1.86251 20.371 1.55574 20.5597 1.36703ZM20.2176 3.078L21.5865 4.44687L20.8868 5.14606C20.6715 4.91138 20.4489 4.67816 20.2176 4.44687C19.9863 4.21558 19.7526 3.993 19.5184 3.77767L20.2176 3.078ZM19.5334 5.13058C22.2048 7.80203 24.329 11.5801 23.5742 13.277L11.3865 1.08977C13.0844 0.335416 16.8619 2.45913 19.5334 5.13058ZM4.83871 15.4782C4.83871 14.9444 5.27274 14.5104 5.80645 14.5104H24.1935C24.7273 14.5104 25.1613 14.9444 25.1613 15.4782C25.1613 16.0119 24.7273 16.4459 24.1935 16.4459H5.80645C5.27274 16.4459 4.83871 16.0119 4.83871 15.4782ZM1.45161 17.8975H3.3871C3.65371 17.8975 3.87097 18.1143 3.87097 18.3814C3.87097 18.6485 3.65371 18.8653 3.3871 18.8653H1.45161C1.185 18.8653 0.967742 18.6485 0.967742 18.3814C0.967742 18.1143 1.185 17.8975 1.45161 17.8975ZM3.87097 22.2524C2.80355 22.2524 1.93548 21.3843 1.93548 20.3169V19.833H2.90323C2.90323 20.6333 3.55452 21.2846 4.35484 21.2846H5.32258V22.2524H3.87097ZM21.2903 29.0265H8.70968C7.37565 29.0265 6.29032 27.9412 6.29032 26.6072V17.4136H23.7097V26.6072C23.7097 27.9412 22.6244 29.0265 21.2903 29.0265ZM26.129 22.2524H24.6774V21.2846H25.6452C26.4455 21.2846 27.0968 20.6333 27.0968 19.833H28.0645V20.3169C28.0645 21.3843 27.1965 22.2524 26.129 22.2524ZM28.5484 18.8653H26.6129C26.3463 18.8653 26.129 18.6485 26.129 18.3814C26.129 18.1143 26.3463 17.8975 26.6129 17.8975H28.5484C28.815 17.8975 29.0323 18.1143 29.0323 18.3814C29.0323 18.6485 28.815 18.8653 28.5484 18.8653Z" fill="#1C231F"/>
<path d="M22.2581 26.6072C22.2581 27.1409 21.824 27.5749 21.2903 27.5749V28.5427C22.3577 28.5427 23.2258 27.6746 23.2258 26.6072V19.833H22.2581V26.6072Z" fill="#1C231F"/>
<path d="M7.85419 9.50044C8.09419 9.74044 8.22581 10.0588 8.22581 10.3975C8.22581 10.7362 8.09419 11.0546 7.85419 11.2946L6.91597 12.2329L7.60016 12.9171L8.53839 11.9788C8.96129 11.5564 9.19355 10.9946 9.19355 10.3975C9.19355 9.80044 8.96129 9.23867 8.53839 8.81625L8.11306 8.39093C7.87355 8.15141 7.74194 7.83302 7.74194 7.49431C7.74194 7.1556 7.87355 6.83722 8.11355 6.59722L9.05177 5.65899L8.36758 4.9748L7.42935 5.91302C7.00645 6.33544 6.77419 6.89722 6.77419 7.49431C6.77419 8.09141 7.00645 8.65319 7.42935 9.0756L7.85419 9.50044Z" fill="#1C231F"/>
<path d="M13.4066 5.65899L12.7224 4.9748L11.7842 5.91302C11.3613 6.33544 11.129 6.89722 11.129 7.49431C11.129 8.09141 11.3613 8.65319 11.7842 9.0756L12.2095 9.50093C12.449 9.74044 12.5806 10.0588 12.5806 10.3975C12.5806 10.7362 12.449 11.0546 12.209 11.2946L11.2708 12.2329L11.955 12.9171L12.8932 11.9788C13.3161 11.5564 13.5484 10.9946 13.5484 10.3975C13.5484 9.80044 13.3161 9.23867 12.8932 8.81625L12.4679 8.39093C12.2284 8.15141 12.0968 7.83302 12.0968 7.49431C12.0968 7.1556 12.2284 6.83722 12.4684 6.59722L13.4066 5.65899Z" fill="#1C231F"/>
</svg>
