<svg width="100" height="100" viewBox="0 0 100 100" fill="none" xmlns="http://www.w3.org/2000/svg">
<circle cx="50" cy="50" r="50" fill="#FF702A"/>
<path d="M74.9981 67.9856C74.9478 66.7324 73.7913 65.7107 72.4894 65.8979C71.8559 64.7293 70.5101 64.0985 69.186 64.4165C68.8687 63.923 68.4362 63.5246 67.9359 63.2479V59.2559H72.8605C73.6021 59.2559 74.1398 58.5496 73.94 57.8358C73.94 57.8357 73.9399 57.8356 73.9399 57.8355C73.4543 56.103 72.7474 54.3876 71.9267 52.9395H72.7607C73.5801 52.9395 74.1233 52.0883 73.7761 51.3457C73.3459 50.4249 72.277 48.2108 71.095 46.3157H71.7277C72.5807 46.3157 73.1196 45.4022 72.7097 44.6561C71.9344 43.2447 69.7989 39.6123 66.7252 36.3712C66.2857 35.908 65.5428 35.907 65.1029 36.3712C64.2015 37.3217 63.3117 38.381 62.4485 39.5268C61.4819 38.1778 60.3194 36.7128 58.9871 35.3147C58.5692 34.876 57.8655 34.8756 57.4474 35.3146C54.363 38.5512 52.1876 42.1473 51.2508 43.8271L49.0217 40.1499C48.621 39.489 47.9202 39.0941 47.1473 39.0941H47.1471C46.3943 39.0941 45.6833 39.4725 45.2727 40.15L27.8992 68.8101H25.7324C25.3278 68.8101 25 69.138 25 69.5425C25 69.947 25.3278 70.2749 25.7324 70.2749C27.1361 70.2749 63.9233 70.2749 65.9822 70.2749H67.8404C68.245 70.2749 68.5729 69.947 68.5729 69.5425C68.5729 69.138 68.245 68.8101 67.8404 68.8101H66.3947C65.2158 66.8652 65.5714 67.4518 64.3907 65.504C64.7091 64.7618 65.442 64.2765 66.2499 64.2765C66.9658 64.2765 67.6508 64.6633 68.0158 65.3118C68.2948 65.8077 68.885 66.0427 69.4194 65.8713C70.1794 65.6272 70.9733 66.0241 71.2688 66.7375C71.4843 67.258 72.0547 67.5297 72.5962 67.3701C73.0579 67.2339 73.516 67.5855 73.5344 68.0443C73.5513 68.4655 73.2164 68.81 72.8004 68.81H71.2587C70.8541 68.81 70.5263 69.1379 70.5263 69.5424C70.5263 69.9469 70.8541 70.2748 71.2587 70.2748H72.8004C74.0487 70.275 75.0484 69.2398 74.9981 67.9856ZM46.4145 68.8101H42.0271L46.4145 64.4226V68.8101ZM40.9912 67.7741V63.459C40.9912 63.4191 41.0236 63.3867 41.0635 63.3867H45.3787L40.9912 67.7741ZM46.4145 61.9219H41.0635C40.2158 61.9219 39.5263 62.6114 39.5263 63.4591V68.8101H29.6123L46.4146 41.0919V61.9219H46.4145ZM64.6817 68.8101H47.8794V41.0917C48.5089 42.1299 63.9938 67.6753 64.6817 68.8101ZM52.3971 45.7184H52.8576C52.7811 45.8406 52.7035 45.9667 52.6256 46.0952L52.3971 45.7184ZM60.6032 59.2558H63.8917V63.7327C63.7666 63.8476 63.6498 63.9717 63.5422 64.1041L60.6032 59.2558ZM59.7152 57.7908C59.5482 57.5153 53.6536 47.7911 53.4867 47.5158C53.8311 46.9196 54.1635 46.3807 54.4776 45.9101C54.9499 45.2025 54.4424 44.2534 53.593 44.2534H52.6918C53.6363 42.5936 55.5599 39.4969 58.2168 36.6343C60.3139 38.8935 62.2339 41.6094 63.7415 44.2533H62.8407C61.9899 44.2533 61.4847 45.2034 61.956 45.9101C63.1261 47.6638 64.2497 49.8992 64.8636 51.183H63.7427C62.9067 51.183 62.398 52.1055 62.84 52.8112C63.7794 54.3111 64.5396 56.1027 65.0479 57.7908C63.9757 57.7908 60.8247 57.7908 59.7152 57.7908ZM66.4711 62.8185C66.1062 62.7956 65.7157 62.8317 65.3566 62.9266V59.2558H65.5811H66.4711V62.8185ZM66.5749 57.7908C66.0461 55.9104 65.2833 54.1078 64.4493 52.6479H65.4955C66.2729 52.6479 66.7887 51.84 66.4612 51.135C65.9973 50.1364 64.8496 47.7495 63.5765 45.7184H64.4235C65.2313 45.7184 65.7449 44.8548 65.3589 44.1453C64.8141 43.1443 64.1135 41.9768 63.3271 40.7977C64.1675 39.6539 65.0351 38.5976 65.9141 37.648C68.423 40.358 70.2536 43.3019 71.1393 44.8508H70.4646C70.0521 44.8508 69.6742 45.0763 69.4786 45.4393C69.2828 45.8027 69.3024 46.2429 69.5297 46.5877C70.6146 48.2342 71.6553 50.3048 72.2162 51.4746H71.3221C70.9169 51.4746 70.5424 51.6942 70.3445 52.0478C70.1469 52.4013 70.1558 52.8352 70.368 53.1805C71.1802 54.5011 71.8945 56.1233 72.4009 57.7908C71.7003 57.7908 67.2362 57.7908 66.5749 57.7908Z" fill="white"/>
<path d="M35.4932 32.4908C35.8978 32.4908 36.2256 32.1629 36.2256 31.7584V30.4574C36.2256 30.0529 35.8978 29.725 35.4932 29.725C35.0886 29.725 34.7607 30.0529 34.7607 30.4574V31.7584C34.7606 32.1629 35.0886 32.4908 35.4932 32.4908Z" fill="white"/>
<path d="M34.7607 42.4208V43.7219C34.7607 44.1264 35.0886 44.4543 35.4932 44.4543C35.8978 44.4543 36.2256 44.1264 36.2256 43.7219V42.4209C36.2256 42.0164 35.8978 41.6885 35.4932 41.6885C35.0886 41.6885 34.7607 42.0162 34.7607 42.4208Z" fill="white"/>
<path d="M31.2049 33.8378C31.491 34.1238 31.9547 34.1238 32.2408 33.8378C32.5268 33.5518 32.5268 33.088 32.2408 32.802L31.3208 31.8819C31.0346 31.5959 30.571 31.5959 30.2848 31.8819C29.9988 32.168 29.9988 32.6318 30.2848 32.9178L31.2049 33.8378Z" fill="white"/>
<path d="M39.7807 40.3414C39.4947 40.0554 39.0309 40.0554 38.7449 40.3414C38.4588 40.6275 38.4588 41.0911 38.7448 41.3773L39.6647 42.2972C39.9507 42.5832 40.4145 42.5832 40.7005 42.2972C40.9867 42.0111 40.9867 41.5475 40.7006 41.2613L39.7807 40.3414Z" fill="white"/>
<path d="M28.8604 37.8222H30.1613C30.5659 37.8222 30.8937 37.4942 30.8937 37.0898C30.8937 36.6853 30.5659 36.3573 30.1613 36.3573H28.8604C28.4558 36.3573 28.1279 36.6853 28.1279 37.0898C28.1279 37.4942 28.4559 37.8222 28.8604 37.8222Z" fill="white"/>
<path d="M40.0918 37.0897C40.0918 37.4942 40.4196 37.8221 40.8242 37.8221H42.1252C42.5298 37.8221 42.8576 37.4942 42.8576 37.0897C42.8576 36.6852 42.5298 36.3572 42.1252 36.3572H40.8242C40.4198 36.3572 40.0918 36.6851 40.0918 37.0897Z" fill="white"/>
<path d="M31.2049 40.3414L30.2849 41.2613C29.9988 41.5474 29.9988 42.011 30.2848 42.2972C30.5709 42.5832 31.0346 42.5832 31.3207 42.2972L32.2407 41.3773C32.5268 41.0912 32.5268 40.6276 32.2408 40.3414C31.9547 40.0554 31.491 40.0554 31.2049 40.3414Z" fill="white"/>
<path d="M39.7807 33.8378L40.7006 32.9178C40.9867 32.6318 40.9867 32.168 40.7005 31.8818C40.4146 31.5958 39.9508 31.5959 39.6647 31.8818L38.7448 32.8019C38.4588 33.0879 38.4588 33.5517 38.7449 33.8378C39.0306 34.1237 39.4945 34.1239 39.7807 33.8378Z" fill="white"/>
<path d="M35.493 41.2301C36.9278 41.2301 38.24 40.5029 39.003 39.285C39.2178 38.9422 39.1141 38.4901 38.7712 38.2754C38.4285 38.0605 37.9762 38.1645 37.7616 38.5072C37.2681 39.2948 36.42 39.7652 35.493 39.7652C34.0177 39.7652 32.8174 38.5649 32.8174 37.0896C32.8174 35.6144 34.0177 34.4141 35.493 34.4141C36.4796 34.4141 37.3831 34.9546 37.851 35.8248C38.0427 36.1811 38.4867 36.3145 38.843 36.1229C39.1992 35.9313 39.3328 35.4872 39.1412 35.1309C38.4175 33.7852 37.0194 32.9492 35.4931 32.9492C33.21 32.9492 31.3525 34.8066 31.3525 37.0897C31.3524 39.3727 33.2098 41.2301 35.493 41.2301Z" fill="white"/>
</svg>
