<svg width="11" height="7" viewBox="0 0 11 7" fill="none" xmlns="http://www.w3.org/2000/svg">
<mask id="path-1-inside-1_143_1080" fill="white">
<path fill-rule="evenodd" clip-rule="evenodd" d="M0.252088 0.248329C0.409427 0.0969527 0.620428 0.0142349 0.838725 0.0183537C1.05702 0.0224725 1.26475 0.113091 1.41627 0.270295L5.4909 4.59534L9.56554 0.270295C9.6396 0.188643 9.7293 0.122689 9.82932 0.0763407C9.92934 0.0299921 10.0377 0.00419242 10.1478 0.000469817C10.258 -0.00325279 10.3678 0.0151773 10.4707 0.0546688C10.5737 0.0941604 10.6676 0.15391 10.747 0.230376C10.8264 0.306842 10.8897 0.398469 10.933 0.499828C10.9764 0.601187 10.9989 0.710216 10.9994 0.820454C10.9998 0.930692 10.9781 1.0399 10.9355 1.14159C10.893 1.24329 10.8305 1.33542 10.7517 1.41251L6.08398 6.35479C6.00714 6.43451 5.91501 6.49792 5.81311 6.54123C5.71121 6.58454 5.60163 6.60687 5.4909 6.60687C5.38018 6.60687 5.27059 6.58454 5.16869 6.54123C5.06679 6.49792 4.97467 6.43451 4.89783 6.35479L0.230122 1.41251C0.0787458 1.25517 -0.00397204 1.04417 0.000146765 0.825873C0.00426557 0.607577 0.094884 0.399846 0.252088 0.248329Z"/>
</mask>
<path fill-rule="evenodd" clip-rule="evenodd" d="M0.252088 0.248329C0.409427 0.0969527 0.620428 0.0142349 0.838725 0.0183537C1.05702 0.0224725 1.26475 0.113091 1.41627 0.270295L5.4909 4.59534L9.56554 0.270295C9.6396 0.188643 9.7293 0.122689 9.82932 0.0763407C9.92934 0.0299921 10.0377 0.00419242 10.1478 0.000469817C10.258 -0.00325279 10.3678 0.0151773 10.4707 0.0546688C10.5737 0.0941604 10.6676 0.15391 10.747 0.230376C10.8264 0.306842 10.8897 0.398469 10.933 0.499828C10.9764 0.601187 10.9989 0.710216 10.9994 0.820454C10.9998 0.930692 10.9781 1.0399 10.9355 1.14159C10.893 1.24329 10.8305 1.33542 10.7517 1.41251L6.08398 6.35479C6.00714 6.43451 5.91501 6.49792 5.81311 6.54123C5.71121 6.58454 5.60163 6.60687 5.4909 6.60687C5.38018 6.60687 5.27059 6.58454 5.16869 6.54123C5.06679 6.49792 4.97467 6.43451 4.89783 6.35479L0.230122 1.41251C0.0787458 1.25517 -0.00397204 1.04417 0.000146765 0.825873C0.00426557 0.607577 0.094884 0.399846 0.252088 0.248329Z" fill="#1C231F"/>
<path d="M1.41627 0.270295L3.01507 -1.23594L3.0065 -1.24504L2.99782 -1.25404L1.41627 0.270295ZM5.4909 4.59534L3.8921 6.10157L5.4909 7.79863L7.0897 6.10157L5.4909 4.59534ZM9.56554 0.270295L11.1643 1.77653L11.1786 1.76144L11.1925 1.74608L9.56554 0.270295ZM10.7517 1.41251L9.21558 -0.157616L9.18455 -0.127261L9.15475 -0.0957045L10.7517 1.41251ZM6.08398 6.35479L7.6655 7.87915L7.67325 7.87112L7.68091 7.863L6.08398 6.35479ZM4.89783 6.35479L3.3009 7.863L3.30856 7.87112L3.3163 7.87915L4.89783 6.35479ZM0.230122 1.41251L1.82706 -0.0957044L1.82008 -0.103093L1.81303 -0.110417L0.230122 1.41251ZM1.77502 1.83124C1.51279 2.08353 1.16112 2.2214 0.797288 2.21453L0.880162 -2.17782C0.0797405 -2.19293 -0.693932 -1.88963 -1.27084 -1.33458L1.77502 1.83124ZM0.797288 2.21453C0.433458 2.20767 0.0872402 2.05663 -0.165286 1.79463L2.99782 -1.25404C2.44226 -1.83045 1.68058 -2.16272 0.880162 -2.17782L0.797288 2.21453ZM-0.182533 1.77653L3.8921 6.10157L7.0897 3.0891L3.01507 -1.23594L-0.182533 1.77653ZM7.0897 6.10157L11.1643 1.77653L7.96673 -1.23594L3.8921 3.0891L7.0897 6.10157ZM11.1925 1.74608C11.0691 1.88216 10.9196 1.99208 10.7528 2.06933L8.9058 -1.91665C8.53905 -1.74671 8.21015 -1.50487 7.93858 -1.20549L11.1925 1.74608ZM10.7528 2.06933C10.5861 2.14658 10.4056 2.18958 10.222 2.19578L10.0737 -2.19485C9.66968 -2.1812 9.27255 -2.0866 8.9058 -1.91665L10.7528 2.06933ZM10.222 2.19578C10.0384 2.20199 9.85538 2.17127 9.68384 2.10545L11.2576 -1.99611C10.8802 -2.14092 10.4776 -2.20849 10.0737 -2.19485L10.222 2.19578ZM9.68384 2.10545C9.5123 2.03963 9.35572 1.94005 9.22337 1.81261L12.2706 -1.35186C11.9795 -1.63223 11.635 -1.85131 11.2576 -1.99611L9.68384 2.10545ZM9.22337 1.81261C9.09103 1.68517 8.98561 1.53245 8.91337 1.36352L12.9526 -0.363864C12.7937 -0.735516 12.5618 -1.07148 12.2706 -1.35186L9.22337 1.81261ZM8.91337 1.36352C8.84113 1.19459 8.80353 1.01288 8.8028 0.829144L13.1959 0.811764C13.1943 0.407557 13.1116 0.00778514 12.9526 -0.363864L8.91337 1.36352ZM8.8028 0.829144C8.80207 0.645409 8.83823 0.463403 8.90914 0.29391L12.962 1.98928C13.1179 1.61639 13.1975 1.21597 13.1959 0.811764L8.8028 0.829144ZM8.90914 0.29391C8.98004 0.124414 9.08424 -0.0291271 9.21558 -0.157616L12.2878 2.98264C12.5767 2.69996 12.806 2.36217 12.962 1.98928L8.90914 0.29391ZM9.15475 -0.0957045L4.48704 4.84657L7.68091 7.863L12.3486 2.92073L9.15475 -0.0957045ZM4.50245 4.83043C4.63052 4.69755 4.78406 4.59187 4.95388 4.51969L6.67234 8.56277C7.04597 8.40397 7.38376 8.17146 7.6655 7.87915L4.50245 4.83043ZM4.95388 4.51969C5.12372 4.4475 5.30636 4.4103 5.4909 4.4103V8.80343C5.89689 8.80343 6.29871 8.72158 6.67234 8.56277L4.95388 4.51969ZM5.4909 4.4103C5.67544 4.4103 5.85809 4.4475 6.02792 4.51969L4.30946 8.56277C4.6831 8.72158 5.08491 8.80343 5.4909 8.80343V4.4103ZM6.02792 4.51969C6.19775 4.59187 6.35129 4.69755 6.47936 4.83043L3.3163 7.87915C3.59805 8.17146 3.93583 8.40397 4.30946 8.56277L6.02792 4.51969ZM6.49476 4.84657L1.82706 -0.0957044L-1.36681 2.92073L3.3009 7.863L6.49476 4.84657ZM1.81303 -0.110417C2.06533 0.151814 2.20319 0.503483 2.19632 0.867311L-2.19603 0.784436C-2.21113 1.58486 -1.90783 2.35853 -1.35279 2.93544L1.81303 -0.110417ZM2.19632 0.867311C2.18946 1.23114 2.03843 1.57736 1.77642 1.82988L-1.27225 -1.33323C-1.84866 -0.777667 -2.18093 -0.0159865 -2.19603 0.784436L2.19632 0.867311Z" fill="#1C231F" mask="url(#path-1-inside-1_143_1080)"/>
</svg>
