<svg width="61" height="59" viewBox="0 0 61 59" fill="none" xmlns="http://www.w3.org/2000/svg">
<path d="M10 18.0001H8.00003C7.44775 18.0001 7.00003 18.4478 7.00003 19.0001C7.00003 19.5524 7.44775 20.0001 8.00003 20.0001H10C10.5523 20.0001 11 19.5524 11 19.0001C11 18.4478 10.5523 18.0001 10 18.0001Z" fill="#63AC45"/>
<path d="M43.0002 11C43.0002 14.3138 45.6865 17.0001 49.0002 17.0001C52.3139 17.0001 55.0002 14.3138 55.0002 11C55.0002 7.68632 52.3139 5.00002 49.0002 5.00002C45.6879 5.00333 43.0035 7.68769 43.0002 11ZM49.0002 7.00003C51.2094 7.00003 53.0002 8.7909 53.0002 11C53.0002 13.2092 51.2094 15.0001 49.0002 15.0001C46.7911 15.0001 45.0002 13.2092 45.0002 11C45.0002 8.7909 46.7911 7.00003 49.0002 7.00003Z" fill="#63AC45"/>
<path d="M50.0002 1.90901V1C50.0002 0.447717 49.5525 0 49.0002 0C48.4479 0 48.0002 0.447717 48.0002 1V1.90901C48.0002 2.4613 48.4479 2.90901 49.0002 2.90901C49.5525 2.90901 50.0002 2.4613 50.0002 1.90901Z" fill="#63AC45"/>
<path d="M48.0002 20.0911V21.0002C48.0002 21.5524 48.4479 22.0002 49.0002 22.0002C49.5525 22.0002 50.0002 21.5524 50.0002 21.0002V20.0911C50.0002 19.5389 49.5525 19.0911 49.0002 19.0911C48.4479 19.0911 48.0002 19.5389 48.0002 20.0911Z" fill="#63AC45"/>
<path d="M59.0001 10H58.0911C57.5388 10 57.0911 10.4478 57.0911 11C57.0911 11.5523 57.5388 12 58.0911 12H59.0001C59.5524 12 60.0001 11.5523 60.0001 11C60.0001 10.4478 59.5524 10 59.0001 10Z" fill="#63AC45"/>
<path d="M39.9092 12C40.4615 12 40.9092 11.5523 40.9092 11C40.9092 10.4478 40.4615 10 39.9092 10H39.0002C38.4479 10 38.0002 10.4478 38.0002 11C38.0002 11.5523 38.4479 12 39.0002 12H39.9092Z" fill="#63AC45"/>
<path d="M56.7783 3.222C56.3877 2.83162 55.7547 2.83162 55.3642 3.222L54.7222 3.864C54.4363 4.15 54.3508 4.58004 54.5056 4.95366C54.6603 5.32728 55.0248 5.57092 55.4292 5.57101C55.9292 5.57101 56.0992 5.31501 56.7783 4.63601C57.1686 4.2455 57.1686 3.6125 56.7783 3.222Z" fill="#63AC45"/>
<path d="M41.2222 18.7782C41.6127 19.1686 42.2457 19.1686 42.6362 18.7782L43.2782 18.1362C43.6571 17.7438 43.6517 17.1201 43.266 16.7344C42.8802 16.3486 42.2565 16.3432 41.8642 16.7222L41.2222 17.3642C40.8318 17.7547 40.8318 18.3877 41.2222 18.7782Z" fill="#63AC45"/>
<path d="M56.1364 16.7222C55.744 16.3432 55.1203 16.3486 54.7345 16.7344C54.3488 17.1201 54.3434 17.7438 54.7223 18.1362C55.2983 18.7122 55.5383 19.0712 56.0714 19.0712C56.4757 19.0711 56.8403 18.8275 56.995 18.4539C57.1498 18.0802 57.0643 17.6502 56.7784 17.3642L56.1364 16.7222Z" fill="#63AC45"/>
<path d="M42.6363 3.22213C42.2439 2.84316 41.6202 2.84858 41.2345 3.23431C40.8487 3.62005 40.8433 4.24376 41.2223 4.63614C41.7983 5.21214 42.0383 5.57114 42.5713 5.57114C42.9757 5.57106 43.3402 5.32741 43.495 4.95379C43.6497 4.58017 43.5642 4.15013 43.2783 3.86413L42.6363 3.22213Z" fill="#63AC45"/>
<path d="M59.0003 55.0001C46.6592 55.0001 47.4342 55.0791 47.0622 54.8161L41.1002 50.5541C40.5922 50.1924 39.9838 49.9986 39.3602 50.0001H36.8132C37.0592 49.3111 36.9972 49.4371 36.9972 44.521L42.4382 35H51.5642L58.1322 46.5C58.3048 46.8193 58.6368 47.02 58.9997 47.0245C59.3625 47.029 59.6994 46.8365 59.8797 46.5216C60.0601 46.2067 60.0557 45.8188 59.8683 45.508L48.7342 26.017C48.3769 25.3949 47.7138 25.0118 46.9965 25.0131C46.2791 25.0143 45.6173 25.3997 45.2622 26.023L37.0002 40.489V23.889C37.98 22.8895 38.2622 21.3986 37.7152 20.1102C37.1683 18.8218 35.8998 17.9892 34.5001 17.9999H26.9601L21.4201 12.4599C20.4626 11.5105 19.1644 10.9845 17.8161 10.9999C17.7721 10.8785 17.7207 10.7599 17.6621 10.6449C19.7011 8.19714 19.662 4.63134 17.5698 2.22886C15.4777 -0.173624 11.9511 -0.702357 9.24632 0.980936C6.54158 2.66423 5.4585 6.06179 6.69003 8.99989H3.00001C1.34315 8.99989 0 10.343 0 11.9999V14.9999C0.00214501 15.7112 0.38325 16.3675 1 16.7219V29C1 30.6568 2.34316 32 4.00002 32V57.0001H1C0.447717 57.0001 0 57.4478 0 58.0001C0 58.5524 0.447717 59.0001 1 59.0001H14.0801C14.9563 58.9996 15.7885 58.616 16.3581 57.9501L21.1581 52.3501C21.3505 52.13 21.6278 52.0026 21.9201 52.0001C40.8552 52.0001 39.5522 51.9111 39.9382 52.1841L45.9002 56.4461C46.4082 56.8078 47.0166 57.0015 47.6402 57.0001H59.0003C59.5525 57.0001 60.0003 56.5524 60.0003 56.0001C60.0003 55.4478 59.5525 55.0001 59.0003 55.0001ZM47.0002 27.016L50.4212 33H43.5822L47.0002 27.016ZM33.2841 49.6931C33.0995 49.5101 32.997 49.26 33.0001 49.0001V25C33.6672 25.0429 34.3368 25.0231 35.0001 24.941V49.0001C34.9981 49.4059 34.7509 49.7702 34.3746 49.9222C33.9983 50.0742 33.5675 49.9837 33.2841 49.6931ZM35.6132 20.4929C36.0165 20.9565 36.1002 21.6178 35.8249 22.1672C35.5497 22.7166 34.97 23.0455 34.3571 23H33.0001V19.9999C34.6171 19.9999 35.0681 19.8939 35.6132 20.4939V20.4929ZM31.0001 19.9999V23H26.1201C25.1041 22.9625 24.158 22.4733 23.5401 21.6659L25.4321 19.3059L25.5431 19.4169C25.9172 19.7887 26.4227 19.9981 26.9501 19.9999H31.0001ZM24.0091 17.8829L22.1181 20.2439L20.7081 18.8339C20.4223 18.5474 19.992 18.4614 19.6181 18.616C19.2441 18.7706 19.0002 19.1353 19.0001 19.5399V29H17.0001V16.7219C17.6168 16.3675 17.9979 15.7112 18.0001 14.9999V13.0119C18.7512 13.041 19.4645 13.3495 20.0001 13.8769L24.0091 17.8829ZM5.00002 21.9999C3.89545 21.9999 3.00001 21.1045 3.00001 19.9999V16.9999H15.0001V19.9999C15.0001 21.1045 14.1046 21.9999 13.0001 21.9999H5.00002ZM12.6701 1.99986C14.3866 2.00091 15.9521 2.98095 16.7031 4.5245C17.454 6.06805 17.2587 7.90472 16.2001 9.25589C15.4281 8.91489 15.5871 8.99989 8.94204 8.99989C8.01574 7.62226 7.92456 5.84612 8.70491 4.38087C9.48526 2.91562 11.01 2.00006 12.6701 1.99986ZM2.00001 11.9999C2.00001 11.4476 2.44773 10.9999 3.00001 10.9999H15.0001C15.5524 10.9999 16.0001 11.4476 16.0001 11.9999V14.9999H2.00001V11.9999ZM3.00001 29V23.444C3.60536 23.8039 4.29577 23.9958 5.00002 24V26C5.00002 26.5523 5.44774 27 6.00003 27C6.55231 27 7.00003 26.5523 7.00003 26V24H11V26C11 26.5523 11.4478 27 12.0001 27C12.5523 27 13.0001 26.5523 13.0001 26V24C13.7043 23.9958 14.3947 23.8039 15.0001 23.444C15.0001 29.437 15.0561 29.174 14.8671 29.495C14.6895 29.8066 14.3587 29.9993 14.0001 30H4.00002C3.44773 30 3.00001 29.5523 3.00001 29ZM15.3831 31.65C15.6956 31.4736 15.9823 31.2548 16.2351 31H19.0001C21.7601 31.0033 23.9968 33.2399 24.0001 36V45H18.8831L18.0001 37.928C17.9613 36.8517 17.0771 35.9993 16.0001 36H14.0001C12.9178 35.992 12.0284 36.8521 12.0001 37.934L11.064 52.0001H6.00003V32C14.7851 32 14.5251 32.1 15.3831 31.65ZM6.00003 57.0001V54.0001H12.0001C13.1046 54.0001 14.0001 54.8955 14.0001 56.0001V57.0001H6.00003ZM15.9361 55.3711C15.688 53.8297 14.5632 52.5748 13.0581 52.1601L14.0001 38H16.0001C16.0002 38.0415 16.0029 38.0829 16.0081 38.124C17.2001 47.6481 17.0001 45.041 17.0001 50.0001C17.0051 51.0393 17.8052 51.9015 18.8411 51.9841L15.9361 55.3711ZM19.0001 50.0001V47H25.0001C26.1047 47 27.0001 47.8955 27.0001 49.0001V50.0001H19.0001ZM26.0001 45.142V36C25.9914 32.9126 23.9594 30.1962 21.0001 29.316V21.9539L22.5831 23.537C23.5235 24.4712 24.7945 24.9969 26.1201 25H31.0001C31.0001 51.2601 30.9231 49.2671 31.1811 50.0001H29.0001V49.0001C28.9933 47.1816 27.7608 45.5966 26.0001 45.142Z" fill="#63AC45"/>
</svg>
