<svg width="18" height="14" viewBox="0 0 18 14" fill="none" xmlns="http://www.w3.org/2000/svg">
<path d="M17 2.625V11.375C17 11.8723 16.8025 12.3492 16.4508 12.7008C16.0992 13.0525 15.6223 13.25 15.125 13.25H2.625C2.12772 13.25 1.65081 13.0525 1.29917 12.7008C0.947544 12.3492 0.75 11.8723 0.75 11.375V2.625M17 2.625C17 2.12772 16.8025 1.65081 16.4508 1.29917C16.0992 0.947544 15.6223 0.75 15.125 0.75H2.625C2.12772 0.75 1.65081 0.947544 1.29917 1.29917C0.947544 1.65081 0.75 2.12772 0.75 2.625M17 2.625V2.8275C17 3.14762 16.9181 3.46242 16.762 3.74191C16.6059 4.0214 16.3809 4.25628 16.1083 4.42417L9.85833 8.27C9.56267 8.45211 9.22225 8.54854 8.875 8.54854C8.52775 8.54854 8.18733 8.45211 7.89167 8.27L1.64167 4.425C1.3691 4.25711 1.14406 4.02224 0.987974 3.74275C0.83189 3.46325 0.749965 3.14845 0.75 2.82833V2.625" stroke="#63AC45" stroke-width="1.5" stroke-linecap="round" stroke-linejoin="round"/>
</svg>
