<svg width="15" height="18" viewBox="0 0 15 18" fill="none" xmlns="http://www.w3.org/2000/svg">
<path d="M2.79485 0.280873C2.51909 0.107012 2.20175 0.0102869 1.8759 0.000776086C1.55005 -0.00873471 1.22762 0.0693169 0.942189 0.226798C0.656763 0.384279 0.418794 0.615426 0.253079 0.896152C0.0873647 1.17688 -3.09064e-05 1.49691 8.19877e-09 1.8229V16.1374C-3.09064e-05 16.4634 0.0873647 16.7834 0.253079 17.0641C0.418794 17.3448 0.656763 17.576 0.942189 17.7335C1.22762 17.8909 1.55005 17.969 1.8759 17.9595C2.20175 17.95 2.51909 17.8533 2.79485 17.6794L14.1492 10.5222C14.4098 10.3579 14.6245 10.1304 14.7733 9.86073C14.922 9.59108 15.0001 9.28812 15.0001 8.98013C15.0001 8.67215 14.922 8.36919 14.7733 8.09953C14.6245 7.82987 14.4098 7.60232 14.1492 7.43811L2.79485 0.279657V0.280873Z" fill="#F7921E"/>
</svg>
