<svg width="45" height="45" viewBox="0 0 45 45" fill="none" xmlns="http://www.w3.org/2000/svg">
<path d="M38.8023 4.5088C35.2314 2.86577 30.5944 5.28021 28.4655 9.89069C27.2599 12.5016 27.0614 15.335 27.9211 17.6644C28.5363 19.3311 29.6289 20.5653 31.0814 21.2335C31.8314 21.5769 32.6472 21.7528 33.472 21.7491C36.5131 21.7491 39.7425 19.4806 41.4182 15.8516C42.6237 13.2407 42.8222 10.4072 41.9625 8.07786C41.3477 6.41154 40.2549 5.17738 38.8023 4.5088ZM38.8258 5.71448C39.5644 6.17181 40.1694 6.81585 40.5796 7.58163L40.4159 7.93583L38.2587 6.94337L38.8258 5.71448ZM31.3732 13.6736L32.1876 11.9098L34.3451 12.9024L33.5307 14.6662L31.3732 13.6736ZM33.0886 15.6238L32.2742 17.3875L30.1166 16.3949L30.931 14.6312L33.0886 15.6238ZM32.6297 10.9523L33.4442 9.18853L35.6016 10.1812L34.7871 11.9453L32.6297 10.9523ZM35.3033 13.3429L37.4608 14.3356L36.6464 16.0994L34.4889 15.1067L35.3033 13.3429ZM35.7454 12.3849L36.5598 10.6212L38.7174 11.6139L37.9029 13.3777L35.7454 12.3849ZM37.0019 9.66481L37.8163 7.90138L39.9738 8.89401L39.1595 10.6577L37.0019 9.66481ZM35.3056 5.15708C35.6629 5.08277 36.0268 5.04467 36.3917 5.04335C36.8927 5.04189 37.3908 5.11985 37.8674 5.27432L37.3007 6.50277L35.1428 5.51005L35.3056 5.15708ZM34.7005 6.46762L36.858 7.46025L36.0439 9.22404L33.8863 8.2314L34.7005 6.46762ZM33.4072 5.87242L33.7427 6.02676L32.9283 7.79054L31.6338 7.195C32.1652 6.67923 32.7613 6.23465 33.4072 5.87242ZM30.8801 8.00922L32.486 8.74811L31.6716 10.5117L29.7748 9.63906C30.0915 9.06242 30.4615 8.51674 30.8801 8.00922ZM29.3103 10.5863L31.2294 11.4697L30.415 13.2335L28.6984 12.4437C28.8457 11.8073 29.0505 11.1856 29.3103 10.5863ZM28.514 15.6576C28.4264 14.9472 28.4255 14.2287 28.5113 13.518L29.9729 14.1905L29.1586 15.9543L28.514 15.6576ZM31.0557 20.0266C30.3173 19.5687 29.7126 18.9243 29.3027 18.1582L29.6746 17.3528L31.8321 18.3454L31.0557 20.0266ZM34.5742 20.5876C33.7248 20.7713 32.8422 20.73 32.0138 20.4675L32.7902 18.7861L34.9476 19.7787L34.5742 20.5876ZM35.3898 18.821L33.2323 17.8287L34.0468 16.0649L36.2042 17.0576L35.3898 18.821ZM36.9919 19.5581L36.3479 19.2619L37.1623 17.4981L38.6221 18.1696C38.1359 18.6958 37.5886 19.1621 36.9919 19.5585V19.5581ZM39.321 17.3305L37.6045 16.541L38.4189 14.7772L40.3403 15.6612C40.0523 16.2477 39.7113 16.8065 39.3214 17.3308L39.321 17.3305ZM40.7608 14.6937L38.8605 13.8194L39.675 12.0556L41.2873 12.7975C41.1715 13.4447 40.9954 14.0796 40.7613 14.6939L40.7608 14.6937ZM41.4186 11.6967L40.1171 11.0979L40.9315 9.33417L41.2701 9.48991C41.4167 10.2159 41.4667 10.958 41.419 11.6971L41.4186 11.6967Z" fill="#63AC45"/>
<path d="M39.8046 2.33854C35.2315 0.234611 29.3297 3.24741 26.6485 9.05479C25.1461 12.3085 24.9058 15.8585 25.9893 18.7943C26.5462 20.3036 27.4106 21.5376 28.527 22.4396L26.4318 26.9774L26.2043 26.9288C25.9569 26.8758 25.7056 26.843 25.4528 26.8305L25.0684 26.2734C24.757 25.8229 24.6235 25.273 24.6937 24.7298C24.7973 23.9285 24.6004 23.1171 24.141 22.4524L12.5468 5.65263C12.0376 4.91768 11.258 4.41431 10.3787 4.25265C9.49933 4.09098 8.59173 4.28418 7.85445 4.78998C7.48961 5.04061 7.17777 5.36074 6.9368 5.73204C6.69583 6.10334 6.53046 6.51852 6.45014 6.95381C6.36983 7.3891 6.37615 7.83596 6.46875 8.2688C6.56135 8.70165 6.73841 9.11198 6.98979 9.47631L13.77 19.3007C11.8654 18.9509 9.90272 19.0987 8.07192 19.7297C6.24112 20.3607 4.60417 21.4535 3.31947 22.9025C2.03477 24.3514 1.14581 26.1075 0.738612 28.0007C0.331411 29.8938 0.419754 31.8601 0.995093 33.7091C1.57043 35.5582 2.61329 37.2274 4.02275 38.5553C5.43222 39.8833 7.16057 40.8249 9.04058 41.2891C10.9206 41.7534 12.8886 41.7245 14.7542 41.2054C16.6198 40.6862 18.3198 39.6943 19.6897 38.3256C19.7701 38.2455 19.8486 38.1639 19.9261 38.0817C19.6773 38.7909 19.636 39.5564 19.8071 40.2883C19.9782 41.0201 20.3546 41.6879 20.8921 42.2133C21.4297 42.7386 22.1059 43.0996 22.8415 43.2539C23.5771 43.4082 24.3414 43.3494 25.0447 43.0844C25.748 42.8194 26.3611 42.3591 26.8119 41.7577C27.2627 41.1563 27.5325 40.4388 27.5897 39.6894C27.6468 38.94 27.4889 38.1898 27.1344 37.527C26.78 36.8643 26.2438 36.3164 25.5888 35.9478L26.4406 36.1236L27.3905 36.6381L29.7568 40.0671L29.6875 40.1146C29.5569 40.2044 29.4452 40.3191 29.359 40.4522C29.2727 40.5852 29.2135 40.7339 29.1847 40.8898C29.156 41.0457 29.1583 41.2058 29.1914 41.3608C29.2246 41.5159 29.288 41.6628 29.3781 41.7933C29.7494 42.3296 30.3179 42.6969 30.9594 42.8149C31.6008 42.9329 32.2629 42.792 32.8007 42.423L34.1876 41.4693C34.4779 41.2694 34.7218 41.0095 34.903 40.7072L35.4918 41.0261C36.091 41.3516 36.7926 41.4339 37.4508 41.2557L39.7426 40.639C39.8801 40.602 40.0067 40.5324 40.1116 40.4361C40.2165 40.3397 40.2966 40.2194 40.3451 40.0855C40.3935 39.9516 40.4089 39.8079 40.3899 39.6667C40.371 39.5256 40.3182 39.3911 40.2361 39.2747L38.4961 36.8078L41.7511 35.4324C41.7548 35.4309 41.7584 35.4293 41.762 35.4277C41.8954 35.3679 42.0118 35.276 42.1009 35.1602C42.1901 35.0444 42.2491 34.9083 42.2728 34.7641C42.2965 34.6199 42.2842 34.4721 42.2368 34.3339C42.1894 34.1956 42.1085 34.0713 42.0014 33.972L39.6789 31.7034L42.2282 30.0787C42.3493 30.0016 42.4497 29.8962 42.5209 29.7716C42.5921 29.647 42.632 29.5069 42.637 29.3635C42.642 29.2201 42.6121 29.0776 42.5497 28.9483C42.4874 28.8191 42.3945 28.7069 42.2792 28.6215L40.4004 27.2303C39.8888 26.8511 39.258 26.6683 38.6229 26.7153L30.2997 27.2527L31.8231 23.9532C32.273 24.0346 32.7293 24.0753 33.1865 24.0749C37.0544 24.0749 41.1349 21.2396 43.2366 16.6881C44.739 13.4344 44.9793 9.88439 43.8958 6.94858C43.1016 4.79877 41.6874 3.20487 39.8046 2.33854ZM25.4987 27.8908L24.0627 34.5854C23.5818 34.5327 22.8918 34.4009 22.4474 33.8405C22.8101 32.7178 22.9942 31.545 22.9929 30.3652C22.9927 29.9564 22.9706 29.548 22.9267 29.1416C23.2008 28.315 24.2992 27.7997 25.4987 27.8908ZM23.123 35.4749C22.501 35.5586 21.9081 35.7903 21.3942 36.1506C21.6335 35.7539 21.8478 35.3427 22.0358 34.9193C22.3576 35.175 22.7272 35.3639 23.123 35.4749ZM13.3989 20.306C14.0469 20.413 14.6831 20.582 15.2987 20.8107C15.4114 20.8531 15.5353 20.8557 15.6496 20.8179C15.764 20.7802 15.862 20.7044 15.9274 20.6033V20.6026C15.97 20.5365 15.9972 20.4617 16.0071 20.3837C16.017 20.3057 16.0094 20.2265 15.9847 20.1518C15.9601 20.0771 15.919 20.0089 15.8646 19.9521C15.8101 19.8954 15.7437 19.8515 15.6701 19.8238C15.5571 19.7817 15.4434 19.7421 15.3293 19.7038L7.85788 8.8769C7.68524 8.62668 7.56365 8.34487 7.50007 8.04761C7.43649 7.75034 7.43217 7.44344 7.48736 7.1445C7.54255 6.84556 7.65616 6.56044 7.82169 6.30547C7.98722 6.0505 8.20142 5.83068 8.45202 5.65861C8.95902 5.31085 9.58309 5.17802 10.1878 5.28916C10.7924 5.40031 11.3285 5.74638 11.6787 6.25169L23.2723 23.0515C23.5838 23.5021 23.7173 24.0521 23.647 24.5953C23.5434 25.3966 23.7404 26.2078 24.1997 26.8725L24.2425 26.934C23.6653 27.0583 23.1277 27.323 22.6773 27.7047C22.1906 25.6957 21.1564 23.861 19.6897 22.4043C19.4712 22.1861 19.2459 21.9788 19.0139 21.7827C18.9613 21.7357 18.8999 21.6998 18.8331 21.677C18.7664 21.6542 18.6958 21.645 18.6255 21.65C18.5552 21.6549 18.4865 21.674 18.4237 21.7059C18.3608 21.7379 18.305 21.7821 18.2596 21.836C18.2141 21.8899 18.1799 21.9524 18.159 22.0197C18.1381 22.087 18.131 22.1579 18.1379 22.228C18.1449 22.2982 18.1658 22.3662 18.1995 22.4282C18.2332 22.4901 18.279 22.5446 18.3342 22.5885C18.4105 22.6533 18.4852 22.7204 18.56 22.7882L15.0451 26.2968C14.3373 25.4867 13.8216 24.5271 13.5366 23.4898C13.2515 22.4524 13.2045 21.3641 13.3989 20.306ZM21.8002 28.6834C20.7397 28.8789 19.6488 28.8328 18.6086 28.5487C17.5684 28.2645 16.6055 27.7496 15.7917 27.0421L19.3073 23.5325C20.6173 24.9733 21.4831 26.762 21.8002 28.6834ZM11.7158 20.1672C11.9271 20.1672 12.1383 20.1738 12.3494 20.187C12.136 21.4028 12.2004 22.6511 12.5376 23.8385C12.8748 25.0259 13.4762 26.1217 14.2967 27.0439L11.7158 29.62L4.87092 22.7874C6.74926 21.0963 9.18841 20.1626 11.7158 20.1672ZM1.49416 30.3652C1.48733 27.8391 2.42571 25.4018 4.12482 23.5325L10.9697 30.3652L8.40333 32.9269C7.47036 32.1133 6.36825 31.5172 5.17671 31.1817C3.98516 30.8461 2.73394 30.7795 1.5135 30.9867C1.50111 30.7806 1.49416 30.5734 1.49416 30.3652ZM1.6303 32.0351C2.69312 31.8365 3.78709 31.8807 4.83041 32.1645C5.87373 32.4482 6.83943 32.9641 7.65529 33.6736L4.12464 37.198C2.81206 35.7541 1.94572 33.961 1.6303 32.0354V32.0351ZM10.045 40.4265C8.11779 40.1123 6.32169 39.2501 4.87127 37.9427L8.40201 34.4183C9.11205 35.2306 9.62877 36.1932 9.91334 37.2339C10.1979 38.2745 10.2429 39.3662 10.045 40.4267V40.4265ZM11.0937 40.5434C11.2998 39.3256 11.2324 38.0772 10.8961 36.8887C10.5598 35.7002 9.96314 34.6014 9.14944 33.6722L11.7158 31.1103L18.5608 37.9429C17.5514 38.851 16.3712 39.5487 15.0891 39.9953C13.807 40.4419 12.4487 40.6284 11.0937 40.5439V40.5434ZM19.3077 37.1975L12.4629 30.3652L15.0447 27.7881C16.5464 29.1204 18.4843 29.8562 20.4918 29.8564C20.97 29.856 21.4472 29.8146 21.9183 29.7326C21.931 29.9424 21.9382 30.1533 21.9382 30.3655C21.945 32.8914 21.0066 35.3286 19.3077 37.1978V37.1975ZM26.5464 39.3871C26.5464 39.9595 26.3766 40.519 26.0586 40.9949C25.7406 41.4709 25.2886 41.8418 24.7598 42.0608C24.2309 42.2799 23.649 42.3372 23.0876 42.2255C22.5262 42.1138 22.0105 41.8382 21.6058 41.4335C21.201 41.0287 20.9254 40.513 20.8137 39.9516C20.7021 39.3902 20.7594 38.8083 20.9784 38.2795C21.1974 37.7506 21.5684 37.2986 22.0443 36.9806C22.5202 36.6626 23.0798 36.4929 23.6522 36.4928C24.4196 36.4937 25.1553 36.7989 25.6979 37.3416C26.2405 37.8842 26.5457 38.6199 26.5464 39.3873V39.3871ZM26.2198 34.998L25.104 34.7595L26.5367 28.0788L27.6524 28.3173L26.2198 34.998ZM29.4371 37.7466L31.5035 38.866L30.6259 39.4694L29.4371 37.7466ZM33.5901 40.6003L32.2031 41.5539C31.8957 41.7648 31.5172 41.8454 31.1505 41.778C30.7837 41.7106 30.4586 41.5008 30.2462 41.1944C30.2348 41.178 30.2268 41.1595 30.2226 41.14C30.2184 41.1205 30.2181 41.1004 30.2218 41.0808C30.2254 41.0612 30.2329 41.0425 30.2437 41.0258C30.2546 41.009 30.2687 40.9947 30.2852 40.9834L32.5448 39.4297L33.9734 40.2031C33.8731 40.3594 33.7428 40.4943 33.5901 40.6V40.6003ZM39.2338 39.6838L37.1766 40.2375C36.7793 40.3452 36.3557 40.2956 35.994 40.0989L27.2234 35.3483L27.6189 33.5026L37.0241 36.9128C37.2467 36.993 37.4391 37.1399 37.5752 37.3334L39.2338 39.6838ZM41.0971 34.564L37.6296 36.0289L27.8425 32.4616L28.0686 31.407L38.3222 32.154C38.4187 32.1538 38.5151 32.1472 38.6107 32.1343L41.0971 34.564ZM38.6958 27.7678C39.0803 27.7385 39.4624 27.8487 39.7722 28.0784L41.4522 29.3224L38.9481 30.9185C38.7373 31.0523 38.489 31.1149 38.2399 31.097L28.292 30.3662L28.7112 28.4119L38.6958 27.7678ZM29.1015 27.3301L28.3179 27.3807L27.4885 27.2034L29.4056 23.0514C29.6239 23.1805 29.8488 23.2983 30.0792 23.4043C30.3093 23.51 30.5448 23.6036 30.7847 23.6847L29.1015 27.3301ZM42.2782 16.246C39.8402 21.5259 34.5657 24.3074 30.52 22.4462C28.8971 21.6991 27.6724 20.3104 26.9781 18.4296C25.991 15.7543 26.2196 12.4986 27.6055 9.49714C29.5298 5.32963 33.2213 2.71875 36.6808 2.71875C37.6064 2.71451 38.5219 2.91182 39.3636 3.29698C40.9866 4.04405 42.2113 5.43273 42.9056 7.31359C43.8926 9.9888 43.6641 13.2445 42.2782 16.246Z" fill="#63AC45"/>
<path d="M9.51167 7.49638L9.41121 7.34556C9.37333 7.28682 9.32414 7.23619 9.26652 7.19662C9.2089 7.15705 9.14398 7.12934 9.07555 7.11508C9.00712 7.10083 8.93654 7.10032 8.86791 7.11359C8.79929 7.12686 8.73398 7.15364 8.67579 7.19238C8.61761 7.23111 8.5677 7.28102 8.52898 7.33922C8.49026 7.39741 8.46349 7.46272 8.45024 7.53135C8.43699 7.59999 8.43751 7.67057 8.45178 7.73899C8.46605 7.80742 8.49378 7.87233 8.53336 7.92994L8.63373 8.08077C8.67181 8.13906 8.72106 8.18924 8.77864 8.2284C8.83622 8.26756 8.90098 8.29493 8.9692 8.30893C9.03741 8.32293 9.10772 8.32328 9.17607 8.30996C9.24441 8.29665 9.30945 8.26992 9.36741 8.23134C9.42538 8.19275 9.47513 8.14307 9.5138 8.08516C9.55246 8.02724 9.57927 7.96225 9.59268 7.89392C9.60609 7.82559 9.60584 7.75528 9.59193 7.68705C9.57803 7.61881 9.55075 7.55401 9.51167 7.49638Z" fill="#63AC45"/>
<path d="M10.4025 8.83478C10.3243 8.72005 10.204 8.6408 10.0677 8.61424C9.9314 8.58767 9.79013 8.61593 9.67454 8.69289C9.55896 8.76984 9.4784 8.88928 9.45034 9.02527C9.42227 9.16126 9.44898 9.30283 9.52466 9.41925L13.2834 15.0657C13.3213 15.1244 13.3705 15.1751 13.4281 15.2146C13.4857 15.2542 13.5506 15.2819 13.619 15.2962C13.6875 15.3104 13.7581 15.3109 13.8267 15.2977C13.8953 15.2844 13.9606 15.2576 14.0188 15.2189C14.077 15.1802 14.1269 15.1302 14.1656 15.072C14.2043 15.0138 14.2311 14.9485 14.2444 14.8799C14.2576 14.8113 14.2571 14.7407 14.2428 14.6723C14.2286 14.6038 14.2008 14.5389 14.1612 14.4813L10.4025 8.83478Z" fill="#63AC45"/>
</svg>
