<svg width="65" height="65" viewBox="0 0 65 65" fill="none" xmlns="http://www.w3.org/2000/svg">
<path d="M63.8823 63.0956H53.8293V40.8847L56.4927 38.8393C57.3621 38.1728 58.4435 37.8056 59.5378 37.8056H63.8822C64.4082 37.8056 64.8343 37.3793 64.8343 36.8535C64.8343 36.3277 64.4082 35.9014 63.8822 35.9014H59.5378C58.027 35.9014 56.534 36.408 55.3334 37.3285L53.8292 38.4837V23.3074C53.8292 22.0672 53.1461 20.9405 52.0464 20.367L50.0423 19.3219C49.5762 19.0786 49.001 19.2596 48.7579 19.7258C48.5147 20.192 48.6956 20.7672 49.1619 21.0103L51.1659 22.0554C51.6341 22.2995 51.9249 22.7794 51.9249 23.3074V24.1086C51.7666 24.0623 48.3986 23.3239 48.2897 23.2956C48.2464 23.2912 48.2517 23.2792 48.0827 23.2729H40.9827L41.6346 20.6619C42.0462 19.014 41.7914 17.3048 40.9173 15.8489C40.4447 15.0615 39.8205 14.4007 39.0872 13.8937C40.4936 13.1461 41.5907 11.8295 42.0058 10.1663L42.4768 8.27965L43.877 8.62915C43.9543 8.64845 44.032 8.65772 44.1083 8.65772C44.5349 8.65772 44.9233 8.36877 45.0313 7.93587C45.1588 7.42565 44.8484 6.90883 44.3382 6.7815L42.938 6.432L43.0332 6.05077C43.6025 3.77021 42.2097 1.45145 39.9285 0.88207L36.9106 0.12874C35.8056 -0.147125 34.6593 0.0236247 33.683 0.609505C32.7066 1.19551 32.0168 2.12683 31.741 3.23194L30.7136 7.34745C30.3403 8.85843 30.5931 10.6302 31.5361 12.0123C30.5728 12.1265 29.6569 12.4605 28.8536 12.9741C28.8142 12.533 28.6757 12.1032 28.4411 11.7124C28.0327 11.0323 27.3839 10.552 26.6142 10.3599L24.5442 9.84319C22.9546 9.44697 21.3402 10.4166 20.9437 12.0053L19.0812 19.4665L18.1523 19.2236C16.5187 18.7968 14.8367 19.7771 14.4039 21.4097L13.4112 25.1543C12.9809 26.7772 13.9059 28.4187 15.517 28.8914L22.8241 30.7923V33.4884C22.8241 34.7665 23.1901 35.9929 23.8351 37.0453L25.6582 41.9776C25.784 42.3171 25.6857 42.7053 25.4128 42.9442L14.2748 52.7124L0.63502 57.5338C0.139275 57.7091 -0.120595 58.2531 0.0547252 58.7488C0.192975 59.1397 0.560119 59.3838 0.952399 59.3838C1.05764 59.3838 1.16492 59.3662 1.26978 59.3291L11.1974 55.8194C10.8365 56.7425 10.9875 57.8304 11.6849 58.6257L15.605 63.0955H0.952399C0.426439 63.0955 0.000263046 63.5218 0.000263046 64.0476C0.000263046 64.5735 0.426439 64.9998 0.952399 64.9998H63.8823C64.4083 64.9998 64.8345 64.5735 64.8345 64.0476C64.8345 63.5218 64.4083 63.0956 63.8823 63.0956ZM49.035 25.4125L51.4306 25.9458C51.7217 26.0107 51.925 26.2642 51.925 26.5624V27.5146C51.925 27.8448 51.6564 28.1133 51.3262 28.1133H49.035V25.4125ZM39.2849 16.8291C39.897 17.8487 40.0756 19.046 39.7872 20.2004L39.1271 22.8445L35.3 14.4902L36.5463 14.8015C37.7001 15.0895 38.6727 15.8095 39.2849 16.8291ZM33.5886 3.69303C33.893 2.57878 35.0663 1.61699 36.4494 1.97626L39.4673 2.72959C40.7297 3.04469 41.5007 4.32766 41.1857 5.58943L41.0905 5.97066L33.4933 4.07426L33.5886 3.69303ZM32.5613 7.80854L33.0323 5.92191L40.6295 7.81844L40.1585 9.70506C39.6358 11.7996 37.5063 13.0785 35.4117 12.5554C34.3979 12.3022 33.5422 11.6689 33.0031 10.7726C32.4649 9.87594 32.3079 8.82326 32.5613 7.80854ZM32.9274 13.92L34.1063 16.4263C33.6259 16.4209 33.1457 16.5191 32.6941 16.721C31.8718 17.0888 31.242 17.7548 30.9205 18.5962C30.5991 19.4377 30.6247 20.354 30.9924 21.1763L32.8101 25.2402C30.8102 25.7253 27.8421 25.1001 26.1214 24.596L27.9574 17.2412C28.5193 15.0049 30.6913 13.5883 32.9274 13.92ZM33.6597 26.9777C34.522 28.3443 35.8615 29.3352 37.3986 29.7708L36.7627 32.3197L31.3801 30.9765L24.9303 29.3665L25.6604 26.4427C26.8798 26.7948 29.0311 27.3141 31.1144 27.3141C32.001 27.3141 32.8751 27.219 33.6597 26.9777ZM17.1075 27.3729L16.053 27.0635C15.4401 26.8837 15.0881 26.2593 15.2518 25.6418L16.2446 21.8972C16.4082 21.4182 16.9531 20.8737 17.6706 21.0656L18.6198 21.3138L17.1075 27.3729ZM23.3394 27.8773C23.2696 28.1509 23.0982 28.3815 22.8558 28.5271C22.6117 28.6736 22.3252 28.7162 22.0492 28.6474L18.9453 27.8726L19.6031 25.2376L20.4511 21.8402L21.5731 22.1902C21.6674 22.2197 21.763 22.2336 21.8568 22.2336C22.2625 22.2336 22.6384 21.9724 22.7656 21.5647C22.9221 21.0628 22.642 20.5288 22.1401 20.3723L20.9131 19.9895L22.7911 12.4663C22.9334 11.8961 23.5132 11.548 24.0829 11.6906L26.153 12.2073C26.4291 12.2762 26.662 12.4485 26.8085 12.6925C26.9548 12.9365 26.9976 13.2229 26.9287 13.499L23.3394 27.8773ZM26.6678 44.3757C27.5306 43.6203 27.8424 42.3902 27.444 41.3158L26.851 39.7114C27.1149 39.8462 32.292 41.7991 32.6308 41.9385L32.594 44.3794C32.5788 45.4367 32.1134 46.4442 31.3173 47.143L19.3902 57.6019L15.9979 53.7335L26.6678 44.3757ZM34.4979 44.4076L34.5242 42.6639L36.7498 43.5164C37.0881 43.646 37.3155 43.9765 37.3155 44.3388V49.06H32.0194L32.5731 48.5745C33.7735 47.5206 34.4751 46.0015 34.4979 44.4076ZM17.2603 62.0949L13.1165 57.3701C12.8132 57.0243 12.848 56.4962 13.1937 56.193L14.5659 54.9896L18.2274 59.1646L17.2603 62.0949ZM38.2677 53.5418C37.7418 53.5418 37.3156 53.9681 37.3156 54.4939V63.0956H18.9287C18.9405 63.0654 20.1254 59.4901 20.1254 59.4901L29.8481 50.9641H38.2628C38.2644 50.9641 38.2661 50.9644 38.2677 50.9644C38.7937 50.9644 39.2199 50.5381 39.2199 50.0123V44.3387C39.2199 43.1929 38.5009 42.1477 37.431 41.7379L27.8892 38.0831C25.9985 37.359 24.7284 35.5123 24.7284 33.4878V31.2793L30.6467 32.7561L36.9939 34.3405L43.1295 39.886C43.9148 40.5956 44.3651 41.6099 44.3651 42.6685V58.5321H39.2199V54.4939C39.2199 53.9681 38.7936 53.5418 38.2677 53.5418ZM40.0539 63.0956C39.594 63.0956 39.2199 62.7215 39.2199 62.2615V60.4364H44.7729L46.3384 63.0956H40.0539ZM51.925 63.0956H48.3756C48.3489 62.8605 48.2734 62.6289 48.1471 62.4145L46.2694 59.2249V46.6903L51.925 42.3471V63.0956ZM46.2694 44.2893V42.6685C46.2694 41.0725 45.5902 39.5432 44.4062 38.4733L38.5178 33.1513L39.2996 30.0177H43.606C44.132 30.0177 44.5582 29.5914 44.5582 29.0655C44.5582 28.5397 44.132 28.1134 43.606 28.1134H39.169C37.3562 28.1134 35.7053 27.0446 34.9637 25.3914L32.7307 20.3989C32.5705 20.0409 32.5595 19.6421 32.6994 19.2758C32.8394 18.9094 33.1135 18.6196 33.4715 18.4594C33.8295 18.2992 34.2285 18.2882 34.5946 18.428C34.9591 18.5672 35.2478 18.8396 35.4084 19.1948L35.4148 19.2084L37.6434 24.1912C37.9123 24.7901 38.5111 25.1771 39.1691 25.1771H47.1308V29.0655C47.1308 29.5914 47.557 30.0177 48.083 30.0177H51.9252V39.946L46.2694 44.2893Z" fill="white"/>
</svg>
