<svg width="30" height="30" viewBox="0 0 30 30" fill="none" xmlns="http://www.w3.org/2000/svg">
<path d="M11.2977 25.733V29.5598C11.3011 29.8023 11.1 30 10.8592 30C10.6184 30 10.4157 29.8023 10.4191 29.5598V25.733C8.10203 25.6549 6.00755 24.9656 4.46296 23.8893C3.70054 23.3595 3.06937 22.735 2.60765 22.0423V29.5614C2.60765 29.8039 2.40996 29.9999 2.1675 29.9999C1.92668 29.9999 1.724 29.8022 1.72734 29.5597V19.6921H1.36529C0.989881 19.6921 0.647694 19.5393 0.400253 19.2918C0.154453 19.0443 0 18.7039 0 18.3285V16.4766C0 16.1012 0.154453 15.759 0.400253 15.5115C0.647753 15.2657 0.989939 15.1113 1.36529 15.1113H1.72734V4.81675C1.72734 4.18224 1.85355 3.56103 2.09607 2.97638C2.32031 2.4399 2.63917 1.9466 3.03615 1.52144C3.2022 1.34537 3.47958 1.33711 3.65566 1.50316C3.83337 1.66922 3.84169 1.9466 3.67558 2.12267C3.35003 2.46978 3.08929 2.87337 2.90654 3.31353C2.7089 3.78855 2.60759 4.30013 2.60759 4.81669V10.3111H3.42808V4.81675C3.42808 4.40812 3.50613 4.00458 3.66392 3.62753C3.81837 3.25382 4.05591 2.90003 4.34161 2.61433C4.62896 2.32869 4.98104 2.09115 5.35475 1.935C5.7318 1.7789 6.1354 1.69916 6.54397 1.69916C6.9509 1.69916 7.3562 1.7789 7.73155 1.935C8.11188 2.09279 8.4557 2.32535 8.74475 2.61433C9.03045 2.89997 9.26963 3.25376 9.42408 3.62753C9.58023 4.00458 9.65992 4.40817 9.65992 4.81675V5.47616H10.4805V4.81675C10.4805 4.30019 10.3775 3.78861 10.1798 3.31359C9.98049 2.83025 9.69484 2.40339 9.32441 2.03466C8.95568 1.66593 8.52877 1.37859 8.04713 1.17926C7.57047 0.981619 7.05889 0.87867 6.54397 0.87867C6.06397 0.87867 5.60389 0.963396 5.15542 1.13279C4.92784 1.21916 4.67542 1.10455 4.59069 0.877029C4.50433 0.651151 4.61888 0.398671 4.84645 0.312304C5.38475 0.107988 5.9677 0 6.54409 0C7.1769 0 7.79811 0.126211 8.38276 0.36873C8.96242 0.60955 9.50389 0.970018 9.94738 1.41351C10.3892 1.85695 10.7513 2.39847 10.9905 2.97644C11.2347 3.56109 11.3593 4.1823 11.3593 4.81681V5.55427C11.5387 5.61901 11.698 5.72366 11.8309 5.85485C12.0651 6.08905 12.2096 6.41126 12.2096 6.76669C12.2096 7.12047 12.0651 7.44432 11.8309 7.67688C11.5967 7.91108 11.2745 8.05557 10.9207 8.05557H9.21994C8.86615 8.05557 8.54389 7.91108 8.30975 7.67688C8.07555 7.44432 7.93106 7.12047 7.93106 6.76669C7.93106 6.41126 8.07555 6.08905 8.30975 5.85485C8.44094 5.72366 8.60207 5.61901 8.78143 5.55427V4.81675C8.78143 4.52273 8.72664 4.23374 8.61367 3.96304C8.49912 3.6873 8.33629 3.44812 8.12371 3.23554C7.91272 3.02624 7.66698 2.85849 7.39622 2.74558C7.12545 2.63261 6.83647 2.57953 6.54415 2.57953C6.25012 2.57953 5.96284 2.63267 5.69208 2.74558C5.4147 2.86019 5.17552 3.0246 4.96458 3.23554C4.752 3.44812 4.58923 3.6873 4.47292 3.96304C4.36165 4.2338 4.30681 4.52278 4.30681 4.81675V10.3111H5.00442C5.24694 10.3111 5.44458 10.5071 5.44458 10.7496V12.7112H6.26512V12.0385C6.26512 11.7961 6.46112 11.6001 6.70358 11.6001C6.9461 11.6001 7.14374 11.7961 7.14374 12.0385V13.1497V14.2626C7.14374 14.5051 6.9461 14.701 6.70358 14.701C6.46106 14.701 6.26512 14.505 6.26512 14.2626V13.5899H5.44452V15.1113H20.3531C20.7285 15.1113 21.069 15.2657 21.3164 15.5115C21.564 15.759 21.7167 16.1012 21.7167 16.4766V18.3285C21.7167 18.7039 21.564 19.0444 21.3164 19.2918C21.069 19.5393 20.7286 19.6921 20.3531 19.6921H19.9694C19.9047 20.3798 19.6904 21.0375 19.3482 21.652C18.9264 22.4094 18.3101 23.0954 17.5445 23.6784C17.3517 23.8245 17.0761 23.788 16.9299 23.5953C16.7821 23.4043 16.8203 23.1286 17.0129 22.9808C17.684 22.4693 18.2205 21.8746 18.5825 21.2251C18.8517 20.7435 19.0244 20.2286 19.0858 19.6921H2.63255C2.78706 21.0374 3.64904 22.2549 4.96288 23.1684C6.46604 24.2149 8.55045 24.861 10.8592 24.861C11.6864 24.861 12.4803 24.7796 13.226 24.6268C14.0001 24.469 14.7259 24.2348 15.387 23.9375C15.6079 23.8395 15.8669 23.9391 15.9649 24.16C16.0646 24.3809 15.9649 24.64 15.744 24.7381C15.0265 25.0603 14.2392 25.3144 13.4021 25.4855C12.7261 25.6233 12.0219 25.708 11.2977 25.733ZM29.5614 7.47256C29.8039 7.47256 29.9998 7.66856 29.9998 7.91108C29.9998 8.15524 29.8039 8.35123 29.5614 8.35123H26.5235V11.992H29.5597C29.8022 11.9887 29.9998 12.1897 29.9998 12.4305C29.9998 12.673 29.8039 12.8706 29.5614 12.8706H26.4471C26.3824 13.0483 26.2777 13.2095 26.1465 13.3423C25.9123 13.5749 25.5901 13.7193 25.2347 13.7193H23.6966C23.3412 13.7193 23.019 13.5749 22.7848 13.3423C22.5871 13.143 22.4527 12.8806 22.416 12.5866H21.5158C21.2501 12.5866 21.0226 12.6297 20.8232 12.7128C20.6239 12.7975 20.4412 12.9287 20.2635 13.1064L19.8831 13.4851C19.639 13.7309 19.3633 13.9236 19.0477 14.0565C18.7337 14.191 18.39 14.2625 18.0096 14.2625H11.1316C10.7014 14.2625 10.3111 14.0864 10.0287 13.8041C9.74635 13.5217 9.57027 13.1314 9.57027 12.7012C9.57027 12.271 9.74635 11.8807 10.0287 11.5983C10.3111 11.316 10.7014 11.1399 11.1316 11.1399H14.4003C14.4069 10.9771 14.4385 10.816 14.495 10.6649C14.6212 10.321 14.8604 10.0354 15.1776 9.85269L15.6958 9.55369C15.9051 9.43246 16.1742 9.50389 16.2954 9.71318C16.4166 9.92242 16.3452 10.1915 16.1359 10.3128L15.631 10.6034C15.4816 10.6898 15.3802 10.801 15.3188 10.9671C15.2507 11.1548 15.2656 11.3724 15.3653 11.5468C15.4484 11.688 15.5779 11.791 15.7257 11.8441C15.91 11.9122 16.1293 11.899 16.2987 11.796L19.8266 9.75795C20.0375 9.63672 20.3049 9.70814 20.4261 9.91738C20.5474 10.1267 20.476 10.3957 20.2667 10.517L16.7372 12.5533C16.3419 12.7841 15.8602 12.824 15.43 12.6679C15.1044 12.5516 14.8187 12.3274 14.6294 12.0185H11.1316C10.9439 12.0185 10.7745 12.0965 10.6499 12.2195C10.527 12.344 10.4489 12.5135 10.4489 12.7012C10.4489 12.8888 10.527 13.0583 10.6499 13.1829C10.7745 13.3058 10.9439 13.3838 11.1316 13.3838H18.0095C18.2703 13.3838 18.5012 13.3373 18.7054 13.2509C18.9098 13.1629 19.0942 13.0333 19.2618 12.8639L19.6422 12.4836C19.8947 12.2311 20.1704 12.0385 20.4843 11.9073C20.7966 11.7744 21.1353 11.708 21.5157 11.708H22.4077V8.63524H19.8116C19.5542 8.63524 19.3051 8.66846 19.0692 8.73162C18.825 8.79637 18.5926 8.8927 18.3782 9.01733L17.86 9.31633C17.6507 9.43756 17.3816 9.36613 17.2605 9.1569C17.1392 8.9476 17.2105 8.68018 17.4199 8.55889L17.9381 8.25824C18.2222 8.09553 18.5244 7.96762 18.8434 7.88289C19.154 7.79987 19.4778 7.75498 19.8116 7.75498H22.4159C22.4526 7.46266 22.5871 7.20022 22.7847 7.00094C23.019 6.76838 23.3411 6.62225 23.6966 6.62225H25.2346C25.59 6.62225 25.9123 6.76838 26.1464 7.00094C26.2777 7.13383 26.3822 7.29327 26.4471 7.47262H29.5614V7.47256ZM25.2347 7.50081H23.6966C23.5836 7.50081 23.4824 7.54733 23.4076 7.62203C23.3329 7.69674 23.2863 7.79975 23.2863 7.91108V12.4305C23.2863 12.5434 23.3329 12.6464 23.4076 12.7194C23.4823 12.7942 23.5836 12.8407 23.6966 12.8407H25.2347C25.3475 12.8407 25.4506 12.7942 25.5237 12.7194C25.5984 12.6464 25.6449 12.5434 25.6449 12.4305V7.91108C25.6449 7.79981 25.5984 7.6968 25.5237 7.62203C25.4506 7.54733 25.3475 7.50081 25.2347 7.50081ZM2.60765 15.1112H4.56591V11.1897H2.60765V15.1112ZM1.36529 15.9899C1.23234 15.9899 1.11111 16.0448 1.0214 16.1328C0.933397 16.2225 0.878553 16.3438 0.878553 16.4766V18.3286C0.878553 18.4614 0.933397 18.5827 1.0214 18.6707C1.11111 18.7587 1.23234 18.8135 1.36529 18.8135H2.1675H20.3531C20.486 18.8135 20.6072 18.7587 20.6952 18.6707C20.7833 18.5827 20.8381 18.4614 20.8381 18.3286V16.4766C20.8381 16.3438 20.7833 16.2225 20.6952 16.1328C20.6072 16.0448 20.486 15.9899 20.3531 15.9899C14.0233 15.9899 7.69346 15.9899 1.36529 15.9899ZM24.0255 8.47908C24.0255 8.23492 24.2231 8.03893 24.4657 8.03893C24.7082 8.03893 24.9058 8.23492 24.9058 8.47908V9.10193C24.9058 9.34445 24.7082 9.54039 24.4657 9.54039C24.2231 9.54039 24.0255 9.34439 24.0255 9.10193V8.47908ZM8.21494 9.03221C8.21494 8.78969 8.41094 8.59205 8.6534 8.59205C8.89592 8.59205 9.09361 8.78975 9.09361 9.03221V9.954C9.09361 10.1982 8.89592 10.3942 8.6534 10.3942C8.41094 10.3942 8.21494 10.1982 8.21494 9.954V9.03221ZM11.0469 9.03221C11.0469 8.78969 11.2446 8.59205 11.487 8.59205C11.7296 8.59205 11.9255 8.78975 11.9255 9.03221V9.954C11.9255 10.1982 11.7295 10.3942 11.487 10.3942C11.2445 10.3942 11.0469 10.1982 11.0469 9.954V9.03221ZM9.6301 9.03221C9.6301 8.78969 9.82773 8.59205 10.0703 8.59205C10.3128 8.59205 10.5104 8.78975 10.5104 9.03221V9.954C10.5104 10.1982 10.3128 10.3942 10.0703 10.3942C9.82773 10.3942 9.6301 10.1982 9.6301 9.954V9.03221ZM9.21988 6.35641C9.10861 6.35641 9.00561 6.40294 8.9309 6.476C8.85613 6.55077 8.80967 6.65372 8.80967 6.76669C8.80967 6.87795 8.85613 6.98096 8.9309 7.05573C9.00561 7.13043 9.10861 7.17696 9.21988 7.17696H10.9207C11.0319 7.17696 11.1349 7.13043 11.2097 7.05573C11.2844 6.98102 11.331 6.87801 11.331 6.76669C11.331 6.65378 11.2844 6.55077 11.2097 6.476C11.1349 6.40294 11.0319 6.35641 10.9207 6.35641H9.21988Z" fill="#1C231F"/>
</svg>
