<svg width="15" height="18" viewBox="0 0 15 18" fill="none" xmlns="http://www.w3.org/2000/svg">
<path d="M10.5004 3.92307C10.5004 4.76463 10.158 5.57171 9.5484 6.16678C8.93883 6.76184 8.11207 7.09615 7.25 7.09615C6.38793 7.09615 5.56117 6.76184 4.9516 6.16678C4.34202 5.57171 3.99957 4.76463 3.99957 3.92307C3.99957 3.08152 4.34202 2.27444 4.9516 1.67937C5.56117 1.08431 6.38793 0.75 7.25 0.75C8.11207 0.75 8.93883 1.08431 9.5484 1.67937C10.158 2.27444 10.5004 3.08152 10.5004 3.92307V3.92307ZM0.75 15.8691C0.777854 14.2041 1.47492 12.6166 2.69088 11.4488C3.90684 10.281 5.54425 9.62654 7.25 9.62654C8.95575 9.62654 10.5932 10.281 11.8091 11.4488C13.0251 12.6166 13.7221 14.2041 13.75 15.8691C11.7108 16.7819 9.49336 17.253 7.25 17.25C4.93049 17.25 2.72886 16.7558 0.75 15.8691Z" stroke="#63AC45" stroke-width="1.5" stroke-linecap="round" stroke-linejoin="round"/>
</svg>
