<svg width="30" height="30" viewBox="0 0 30 30" fill="none" xmlns="http://www.w3.org/2000/svg">
<g clip-path="url(#clip0_119_7978)">
<path d="M29.1862 24.5666C28.8878 24.4412 28.5443 24.5812 28.4189 24.8795C27.5956 26.8363 25.692 28.1006 23.5692 28.1006C21.0223 28.1006 18.8928 26.2806 18.4121 23.8729C18.4125 23.8636 18.4135 23.8546 18.4135 23.8452C18.4135 23.5871 18.3797 23.3368 18.3167 23.0982C18.3126 23.0132 18.3103 22.9277 18.3103 22.8418C18.3103 20.6422 19.6679 18.754 21.5891 17.9703L23.0052 23.0006C23.078 23.259 23.3131 23.4279 23.5689 23.4279C23.6215 23.4279 23.6749 23.4207 23.728 23.4058C24.0395 23.3181 24.221 22.9945 24.1333 22.683L22.7171 17.6523C22.9945 17.6069 23.2791 17.5829 23.5692 17.5829C25.6617 17.5829 27.5546 18.8224 28.3917 20.7406C28.5211 21.0372 28.8664 21.1727 29.163 21.0432C29.4597 20.9138 29.5952 20.5684 29.4657 20.2718C28.4422 17.9265 26.1277 16.4111 23.5692 16.4111C23.1693 16.4111 22.7778 16.4481 22.3978 16.5183L22.3476 16.3399C22.1781 15.7378 22.0516 15.1251 21.9682 14.5066C21.9682 14.5064 21.9681 14.5062 21.9681 14.5059C21.9198 14.1479 21.8858 13.7881 21.8667 13.427C21.92 13.6957 22.1571 13.8983 22.4414 13.8983H23.242C24.3503 13.8983 25.2521 12.9965 25.2521 11.8882C25.2521 10.7798 24.3503 9.87804 23.242 9.87804H21.4844L16.9906 5.89602C17.2238 5.96369 17.4698 6.00072 17.7245 6.00072C19.1783 6.00072 20.3612 4.81789 20.3612 3.36401C20.3612 1.91012 19.1783 0.727295 17.7245 0.727295C16.2706 0.727295 15.0877 1.91012 15.0877 3.36401C15.0877 3.85942 15.2253 4.32313 15.4639 4.71951C15.0446 4.52856 14.5859 4.42731 14.1115 4.42731C13.2392 4.42731 12.4192 4.76703 11.8023 5.38379L7.00458 10.1815C7.00329 10.1828 7.00229 10.1843 7.001 10.1856C6.98559 10.2013 6.97094 10.218 6.95717 10.2356C6.95559 10.2377 6.95383 10.2396 6.95231 10.2416C6.95173 10.2424 6.95108 10.243 6.95055 10.2438C6.64593 10.649 6.47196 11.1343 6.4351 11.6578H5.28356C4.95995 11.6578 4.69763 11.9201 4.69763 12.2437V12.9607C4.69763 14.1807 5.6902 15.1734 6.9103 15.1734H7.60499L7.30452 16.4708C7.01864 16.4318 6.72702 16.4112 6.43065 16.4112C2.8848 16.411 0 19.2959 0 22.8417C0 25.0126 1.08146 26.9355 2.7338 28.1005H0.585936C0.262324 28.1005 0 28.3629 0 28.6865C0 29.01 0.262324 29.2724 0.585936 29.2724H6.43071C9.61 29.2724 12.2574 26.9531 12.771 23.9177C12.8068 24.207 13.053 24.4311 13.3519 24.4311H17.3374C17.7214 25.9357 18.6373 27.2298 19.8723 28.1005H16.1523C15.8287 28.1005 15.5664 28.3629 15.5664 28.6865C15.5664 29.01 15.8287 29.2724 16.1523 29.2724H23.5693C26.1649 29.2724 28.4924 27.7265 29.4991 25.3339C29.6245 25.0357 29.4844 24.6922 29.1862 24.5666ZM21.848 11.0499H23.2419C23.7041 11.0498 24.0802 11.4258 24.0802 11.888C24.0802 12.3502 23.7042 12.7263 23.2419 12.7263H22.4414C22.1382 12.7263 21.8888 12.9565 21.8585 13.2516C21.8515 13.075 21.848 12.8982 21.848 12.7212V11.0499ZM20.7329 14.0013H14.8604C14.7665 13.8894 14.668 13.7806 14.5638 13.6763L12.7172 11.8296L15.15 9.39675L20.6929 13.4118C20.7023 13.6086 20.7155 13.8053 20.7329 14.0013ZM19.8682 15.1732L16.2778 18.4256L15.9357 16.2998C15.9351 16.2957 15.9344 16.2916 15.9336 16.2875C15.8628 15.9002 15.7471 15.5271 15.5907 15.1732H19.8682ZM17.7245 1.89905C18.5322 1.89905 19.1893 2.55618 19.1893 3.36389C19.1893 4.1716 18.5322 4.82873 17.7245 4.82873C16.9167 4.82873 16.2596 4.1716 16.2596 3.36389C16.2596 2.55618 16.9167 1.89905 17.7245 1.89905ZM12.631 6.21236C13.0264 5.81686 13.5522 5.59906 14.1115 5.59906C14.6707 5.59906 15.1965 5.81686 15.5921 6.21242L20.6762 10.7276V11.9527L15.4328 8.15462C15.3296 8.07992 15.2092 8.04324 15.0893 8.04324C14.9383 8.04324 14.7882 8.10136 14.6748 8.21486L11.7156 11.1741L9.76012 10.6342L8.54471 10.2987L12.631 6.21236ZM6.9103 14.0014C6.33643 14.0013 5.8695 13.5345 5.8695 12.9606V12.8295H6.5728C6.70305 13.2614 6.91522 13.6612 7.1895 14.0014H6.9103ZM6.43071 28.1005C3.53097 28.1005 1.17187 25.7415 1.17187 22.8417C1.17187 19.9419 3.53097 17.5829 6.43071 17.5829C6.63637 17.5829 6.83923 17.5951 7.03885 17.6183L5.85989 22.7096C5.81958 22.8836 5.86089 23.0665 5.97204 23.2064C6.08319 23.3463 6.25206 23.4277 6.43071 23.4277H11.6567C11.3644 26.0526 9.1324 28.1005 6.43071 28.1005ZM7.16782 22.2558L8.18049 17.8826C10.0457 18.5426 11.4307 20.2267 11.6567 22.2558H7.16782ZM8.44633 16.7349L8.80604 15.1813L11.6144 16.803L12.5366 20.823C11.8982 18.8972 10.3726 17.3723 8.44633 16.7349ZM12.6995 16.2922C12.6631 16.1336 12.5624 15.9972 12.4214 15.9158L8.62815 13.7254C8.14416 13.4459 7.76647 12.895 7.64254 12.2875C7.56807 11.9225 7.59022 11.5768 7.70325 11.2821L9.40961 11.7532L11.5836 12.3533L13.7352 14.505C14.2792 15.0489 14.6403 15.7359 14.7798 16.4923L15.4917 20.9157C15.4891 20.9157 15.4865 20.9155 15.4839 20.9155H13.7601V20.9154L12.6995 16.2922ZM13.9378 23.2592V22.0873H15.4838C16.2478 22.0873 16.8994 22.5771 17.1413 23.2592H13.9378ZM17.2736 21.5281C17.1038 21.3966 16.9194 21.2833 16.723 21.1912L16.5 19.8056L20.9928 15.7358C21.0584 16.0451 21.1338 16.3525 21.2196 16.6574L21.27 16.8363C19.2533 17.6111 17.7226 19.3734 17.2736 21.5281Z" fill="#1C231F"/>
<path d="M29.4141 22.2558C29.0905 22.2558 28.8282 22.5182 28.8282 22.8417L28.8281 22.8692C28.8272 23.1928 29.0888 23.4559 29.4124 23.4568C29.413 23.4568 29.4135 23.4568 29.4141 23.4568C29.7369 23.4568 29.9991 23.1956 30.0001 22.8726L30.0001 22.8417C30.0001 22.5182 29.7377 22.2558 29.4141 22.2558Z" fill="#1C231F"/>
<path d="M14.2619 28.2724C14.1529 28.1628 14.0023 28.1007 13.8477 28.1007C13.6936 28.1007 13.5424 28.1628 13.4334 28.2724C13.3244 28.3814 13.2617 28.532 13.2617 28.6866C13.2617 28.8407 13.3244 28.9919 13.4334 29.1009C13.5424 29.2098 13.6936 29.2726 13.8477 29.2726C14.0018 29.2726 14.1529 29.2099 14.2619 29.1009C14.3715 28.9919 14.4336 28.8407 14.4336 28.6866C14.4336 28.532 14.3715 28.3814 14.2619 28.2724Z" fill="#1C231F"/>
</g>
<defs>
<clipPath id="clip0_119_7978">
<rect width="30" height="30" fill="white"/>
</clipPath>
</defs>
</svg>
