<svg width="20" height="20" viewBox="0 0 20 20" fill="none" xmlns="http://www.w3.org/2000/svg">
<path fill-rule="evenodd" clip-rule="evenodd" d="M6.5159 1.58872C6.94868 1.08947 7.48382 0.689186 8.08499 0.415058C8.68616 0.14093 9.33928 -0.000625961 10 2.0807e-06C11.3918 2.0807e-06 12.639 0.615387 13.4841 1.58872C14.1433 1.54165 14.8049 1.63701 15.4239 1.86832C16.043 2.09962 16.605 2.46145 17.0718 2.92923C17.5394 3.39596 17.9011 3.95782 18.1324 4.57667C18.3637 5.19553 18.4592 5.8569 18.4123 6.5159C18.9114 6.94877 19.3115 7.48396 19.5854 8.08512C19.8594 8.68629 20.0008 9.33936 20 10C20.0006 10.6607 19.8591 11.3138 19.5849 11.915C19.3108 12.5162 18.9105 13.0513 18.4113 13.4841C18.4581 14.1431 18.3627 14.8045 18.1314 15.4233C17.9001 16.0422 17.5384 16.604 17.0708 17.0708C16.604 17.5384 16.0422 17.9001 15.4233 18.1314C14.8045 18.3627 14.1431 18.4581 13.4841 18.4113C13.0513 18.9105 12.5162 19.3108 11.915 19.5849C11.3138 19.8591 10.6607 20.0006 10 20C9.33928 20.0006 8.68616 19.8591 8.08499 19.5849C7.48382 19.3108 6.94868 18.9105 6.5159 18.4113C5.8568 18.4585 5.19526 18.3633 4.57621 18.1322C3.95716 17.901 3.39511 17.5394 2.92821 17.0718C2.46048 16.605 2.09869 16.0429 1.86739 15.4239C1.63609 14.8048 1.5407 14.1433 1.5877 13.4841C1.08863 13.0512 0.688541 12.516 0.414592 11.9149C0.140644 11.3137 -0.000752423 10.6606 3.01113e-06 10C3.01113e-06 8.60821 0.615388 7.36103 1.58872 6.5159C1.5418 5.85689 1.63724 5.1955 1.86854 4.57664C2.09984 3.95777 2.46159 3.39592 2.92923 2.92923C3.39592 2.46159 3.95778 2.09983 4.57664 1.86853C5.1955 1.63723 5.85689 1.5418 6.5159 1.58872ZM13.7026 8.13949C13.7641 8.05749 13.8086 7.96402 13.8335 7.86456C13.8584 7.76511 13.8632 7.66169 13.8475 7.56037C13.8319 7.45904 13.7962 7.36187 13.7424 7.27456C13.6887 7.18725 13.618 7.11157 13.5346 7.05195C13.4512 6.99234 13.3567 6.94999 13.2567 6.92742C13.1567 6.90484 13.0532 6.90248 12.9523 6.92048C12.8514 6.93847 12.755 6.97647 12.669 7.03222C12.583 7.08797 12.5089 7.16036 12.4513 7.24513L9.13231 11.8913L7.46667 10.2256C7.32085 10.0898 7.12798 10.0158 6.9287 10.0193C6.72942 10.0228 6.53928 10.1036 6.39834 10.2445C6.2574 10.3854 6.17667 10.5756 6.17316 10.7749C6.16964 10.9741 6.24361 11.167 6.37949 11.3128L8.68718 13.6205C8.76615 13.6994 8.86134 13.7602 8.96614 13.7986C9.07095 13.837 9.18287 13.8522 9.29412 13.843C9.40537 13.8338 9.51329 13.8006 9.61039 13.7455C9.70749 13.6904 9.79144 13.6149 9.85641 13.5241L13.7026 8.13949Z" fill="#63AC45"/>
</svg>
