<svg width="54" height="60" viewBox="0 0 54 60" fill="none" xmlns="http://www.w3.org/2000/svg">
<path d="M46.8867 0H6.32801C2.83875 0 0 2.83887 0 6.32812V53.6719C0 57.1611 2.83875 60 6.32801 60H46.8867C50.376 60 53.2148 57.1611 53.2148 53.6719V6.32812C53.2148 2.83887 50.376 0 46.8867 0ZM6.32801 1.875H46.8867C49.3421 1.875 51.3398 3.8727 51.3398 6.32812V13.3281H1.875V6.32812C1.875 3.8727 3.87258 1.875 6.32801 1.875ZM1.875 53.4282V15.2031H51.3398V53.4282H1.875ZM46.8867 58.125H6.32801C4.44832 58.125 2.83816 56.9537 2.1859 55.3032H51.0289C50.3766 56.9537 48.7664 58.125 46.8867 58.125ZM7.23422 11.9023C7.61789 12.0052 8.00719 12.056 8.39391 12.056C9.16535 12.056 9.92684 11.8536 10.613 11.4575C12.7392 10.2299 13.4702 7.50141 12.2427 5.37539C11.6481 4.34543 10.6879 3.60867 9.53906 3.30082C8.39027 2.99309 7.19051 3.15094 6.16043 3.74578V3.74566C5.13047 4.34027 4.39371 5.30051 4.08586 6.4493C3.77813 7.59809 3.93609 8.79797 4.53082 9.82793C5.12531 10.8578 6.08543 11.5945 7.23422 11.9023ZM9.67547 9.83379C9.07922 10.178 8.38453 10.2695 7.71961 10.0912C7.36969 9.9975 7.05129 9.83332 6.77672 9.61359L10.9327 7.21418C11.0861 8.2323 10.6196 9.28863 9.67547 9.83379ZM5.89699 6.93445C6.07523 6.26941 6.50168 5.71359 7.09793 5.36953V5.36941C7.49519 5.1402 7.93582 5.02301 8.38254 5.02301C8.60649 5.02301 8.83184 5.05242 9.05391 5.11195C9.40383 5.2057 9.72223 5.36977 9.9968 5.58961L5.83922 7.98984C5.78613 7.64215 5.80324 7.28438 5.89699 6.93445ZM17.2538 11.9023C17.6374 12.0052 18.0267 12.056 18.4134 12.056C19.1849 12.056 19.9464 11.8536 20.6325 11.4575C22.7588 10.2299 23.4898 7.50141 22.2622 5.37539C21.6676 4.34543 20.7074 3.60867 19.5586 3.30082C18.4098 2.99309 17.2099 3.15094 16.18 3.74578V3.74566C15.15 4.34027 14.4132 5.30051 14.1054 6.4493C13.7977 7.59809 13.9556 8.79797 14.5504 9.82793C15.1448 10.8578 16.105 11.5945 17.2538 11.9023ZM19.695 9.83379C19.0988 10.178 18.4041 10.2695 17.7391 10.0912C17.3892 9.9975 17.0708 9.83332 16.7962 9.61359L20.9522 7.21418C21.1056 8.2323 20.6392 9.28863 19.695 9.83379ZM15.9165 6.93445C16.0948 6.26941 16.5212 5.71359 17.1175 5.36953V5.36941C17.5147 5.1402 17.9554 5.02301 18.4021 5.02301C18.626 5.02301 18.8514 5.05242 19.0734 5.11195C19.4234 5.2057 19.7418 5.36977 20.0163 5.58961L15.8588 7.98984C15.8057 7.64215 15.8228 7.28438 15.9165 6.93445ZM27.2733 11.9023C27.657 12.0052 28.0463 12.056 28.433 12.056C29.2044 12.056 29.9659 11.8536 30.652 11.4575C32.7783 10.2299 33.5093 7.50141 32.2818 5.37539C31.6871 4.34543 30.7269 3.60867 29.5781 3.30082C28.4293 2.99309 27.2295 3.15094 26.1995 3.74578V3.74566C25.1695 4.34027 24.4328 5.30051 24.1249 6.4493C23.8172 7.59809 23.9752 8.79797 24.5699 9.82793C25.1644 10.8578 26.1245 11.5945 27.2733 11.9023ZM29.7145 9.83379C29.1183 10.178 28.4237 10.2695 27.7587 10.0912C27.4088 9.9975 27.0904 9.83332 26.8158 9.61359L30.9717 7.21418C31.1251 8.2323 30.6587 9.28863 29.7145 9.83379ZM25.9361 6.93445C26.1143 6.26941 26.5407 5.71359 27.137 5.36953V5.36941C27.5343 5.1402 27.9749 5.02301 28.4216 5.02301C28.6455 5.02301 28.8709 5.05242 29.093 5.11195C29.4429 5.2057 29.7613 5.36977 30.0359 5.58961L25.8783 7.98984C25.8252 7.64215 25.8423 7.28438 25.9361 6.93445ZM36.5079 11.703H48.3438C48.8616 11.703 49.2813 11.2833 49.2813 10.7655V4.43742C49.2813 3.91969 48.8616 3.49992 48.3438 3.49992H36.5079C35.9902 3.49992 35.5704 3.91969 35.5704 4.43742V10.7655C35.5704 11.2833 35.9902 11.703 36.5079 11.703ZM37.4454 5.37492H47.4063V9.82805H37.4454V5.37492ZM26.6074 17.6439C17.4145 17.6439 9.93551 25.1228 9.93551 34.3158C9.93551 43.5088 17.4145 50.9876 26.6074 50.9876C35.8003 50.9876 43.2795 43.5087 43.2795 34.3157C43.2795 25.1227 35.8003 17.6439 26.6074 17.6439ZM26.6074 49.1126C18.4484 49.1126 11.8105 42.4747 11.8105 34.3157C11.8105 26.1566 18.4484 19.5189 26.6074 19.5189C34.7665 19.5189 41.4045 26.1567 41.4045 34.3158C41.4045 42.4748 34.7665 49.1126 26.6074 49.1126ZM48.3438 16.6966H41.5979C41.0802 16.6966 40.6604 17.1164 40.6604 17.6341V21.2408C40.6604 21.7586 41.0802 22.1783 41.5979 22.1783H48.3438C48.8616 22.1783 49.2813 21.7586 49.2813 21.2408V17.6341C49.2813 17.1164 48.8616 16.6966 48.3438 16.6966ZM47.4063 20.3033H42.5354V18.5716H47.4063V20.3033ZM26.6074 26.6685C30.9022 26.6685 34.9402 28.341 37.9772 31.378C38.3433 31.7442 38.3433 32.3377 37.9772 32.7039C37.611 33.0698 37.0175 33.0698 36.6513 32.7039C33.9684 30.0209 30.4015 28.5435 26.6074 28.5435C22.8132 28.5435 19.2463 30.0209 16.5635 32.7039C16.3804 32.8869 16.1406 32.9784 15.9006 32.9784C15.6607 32.9784 15.4207 32.8869 15.2377 32.7039C14.8716 32.3378 14.8716 31.7442 15.2377 31.378C18.2747 28.3411 22.3125 26.6685 26.6074 26.6685ZM27.5452 42.7479C27.5452 43.2656 27.1254 43.6854 26.6077 43.6854C26.0899 43.6854 25.6699 43.2656 25.6699 42.7479C25.6699 42.2302 26.0895 41.8104 26.6072 41.8104H26.6077C27.1254 41.8104 27.5452 42.2302 27.5452 42.7479ZM34.5203 34.8349C34.8864 35.2011 34.8864 35.7946 34.5203 36.1608C34.1542 36.5266 33.5607 36.5269 33.1944 36.1608C29.5625 32.5287 23.6525 32.5288 20.0202 36.1608C19.8371 36.3438 19.5973 36.4354 19.3574 36.4354C19.1174 36.4354 18.8775 36.3438 18.6945 36.1608C18.3284 35.7946 18.3284 35.201 18.6945 34.8349C23.0575 30.4718 30.1568 30.4716 34.5203 34.8349ZM31.0634 38.2921C31.4295 38.6582 31.4295 39.2517 31.0632 39.6178C30.8802 39.8009 30.6403 39.8924 30.4004 39.8924C30.1604 39.8924 29.9205 39.8009 29.7375 39.6177C28.9014 38.7816 27.7898 38.3211 26.6074 38.3211C25.425 38.3211 24.3135 38.7817 23.4773 39.6177C23.1111 39.9841 22.5176 39.9838 22.1516 39.6178C21.7854 39.2517 21.7854 38.6582 22.1515 38.2921C23.3418 37.1018 24.9243 36.4463 26.6074 36.4463C28.2906 36.4463 29.8731 37.1018 31.0634 38.2921Z" fill="#63AC45"/>
</svg>
