<svg width="36" height="45" viewBox="0 0 36 45" fill="none" xmlns="http://www.w3.org/2000/svg">
<path d="M24.899 18C24.899 19.8297 24.1721 21.5845 22.8783 22.8783C21.5845 24.1721 19.8297 24.899 18 24.899C16.1703 24.899 14.4155 24.1721 13.1217 22.8783C11.8279 21.5845 11.101 19.8297 11.101 18C11.101 16.1703 11.8279 14.4155 13.1217 13.1217C14.4155 11.8279 16.1703 11.101 18 11.101C19.8297 11.101 21.5845 11.8279 22.8783 13.1217C24.1721 14.4155 24.899 16.1703 24.899 18V18Z" stroke="#63AC45" stroke-width="1.5" stroke-linecap="round" stroke-linejoin="round"/>
<path d="M35.2474 18C35.2474 34.4241 18 43.8711 18 43.8711C18 43.8711 0.752613 34.4241 0.752613 18C0.752613 13.4257 2.56974 9.03877 5.80426 5.80426C9.03877 2.56974 13.4257 0.752613 18 0.752613C22.5743 0.752613 26.9612 2.56974 30.1957 5.80426C33.4303 9.03877 35.2474 13.4257 35.2474 18V18Z" stroke="#63AC45" stroke-width="1.5" stroke-linecap="round" stroke-linejoin="round"/>
</svg>
