<svg width="85" height="85" viewBox="0 0 85 85" fill="none" xmlns="http://www.w3.org/2000/svg">
<g clip-path="url(#clip0_151_2987)">
<path d="M75.5123 33.0119C75.5123 59.4458 45.6708 83.9272 45.6708 83.9272C43.9271 85.3578 41.0735 85.3578 39.3298 83.9272C39.3298 83.9272 9.48828 59.4458 9.48828 33.0119C9.48861 14.7799 24.2685 0 42.5004 0C60.7323 0 75.5123 14.7799 75.5123 33.0119Z" fill="#EE3840"/>
<path d="M42.501 49.6205C33.3429 49.6205 25.8926 42.1698 25.8926 33.0121C25.8926 23.8543 33.3432 16.4033 42.501 16.4033C51.6588 16.4033 59.1094 23.854 59.1094 33.0117C59.1094 42.1695 51.6591 49.6205 42.501 49.6205Z" fill="#FFE1D6"/>
</g>
<defs>
<clipPath id="clip0_151_2987">
<rect width="85" height="85" fill="white"/>
</clipPath>
</defs>
</svg>
