<svg width="59" height="59" viewBox="0 0 59 59" fill="none" xmlns="http://www.w3.org/2000/svg">
<path d="M58.0477 51.3872C57.7953 51.3872 57.5532 51.4874 57.3748 51.6659C57.1963 51.8444 57.0961 52.0864 57.0961 52.3388V55.3078L50.5312 46.9908H50.53L30.4512 21.5569V18.0812C30.4512 17.8288 30.351 17.5867 30.1725 17.4083C29.9941 17.2298 29.752 17.1296 29.4996 17.1296C29.2472 17.1296 29.0052 17.2298 28.8267 17.4083C28.6483 17.5867 28.548 17.8288 28.548 18.0812V21.5569L7.82216 47.8104C7.82097 47.8127 7.81859 47.8139 7.8174 47.8163L1.9032 55.3078V52.3388C1.9032 52.0864 1.80294 51.8444 1.62448 51.6659C1.44602 51.4874 1.20398 51.3872 0.951601 51.3872C0.699221 51.3872 0.457177 51.4874 0.278717 51.6659C0.100258 51.8444 1.05433e-08 52.0864 1.05433e-08 52.3388V58.0484C-2.94276e-05 58.2462 0.0615879 58.4391 0.176282 58.6003C0.290977 58.7615 0.453047 58.8829 0.639952 58.9477C0.740147 58.9825 0.845512 59.0002 0.951601 59C1.09534 59.0001 1.23722 58.9675 1.3666 58.9049C1.49598 58.8423 1.60949 58.7512 1.69861 58.6384L5.70961 53.5568V58.0484C5.70961 58.3008 5.80986 58.5428 5.98832 58.7213C6.16678 58.8997 6.40883 59 6.66121 59H52.3381C52.5904 59 52.8325 58.8997 53.0109 58.7213C53.1894 58.5428 53.2897 58.3008 53.2897 58.0484V53.5568L57.3006 58.6384C57.3898 58.7512 57.5033 58.8423 57.6327 58.9049C57.762 58.9675 57.9039 59.0001 58.0477 59C58.1537 59.0002 58.2591 58.9825 58.3593 58.9477C58.5462 58.8829 58.7083 58.7615 58.823 58.6003C58.9377 58.4391 58.9993 58.2462 58.9993 58.0484V52.3388C58.9993 52.0864 58.899 51.8444 58.7205 51.6659C58.5421 51.4874 58.3 51.3872 58.0477 51.3872ZM15.1602 56.207L12.6396 52.3495L23.0335 42.0353L15.1602 56.207ZM16.8433 57.0968L29.4996 34.3143L42.1559 57.0968H16.8433ZM35.9658 42.0353L46.3596 52.3495L43.8391 56.207L35.9658 42.0353ZM51.3864 57.0968H45.5317L48.377 52.7397C48.4966 52.5562 48.5492 52.3371 48.5261 52.1193C48.5029 51.9015 48.4053 51.6984 48.2497 51.5442L32.6673 36.0807L32.6613 36.0866L30.4512 32.1089V29.5004C30.4512 29.248 30.351 29.0059 30.1725 28.8275C29.9941 28.649 29.752 28.5488 29.4996 28.5488C29.2472 28.5488 29.0052 28.649 28.8267 28.8275C28.6483 29.0059 28.548 29.248 28.548 29.5004V32.1089L26.3379 36.0866L26.332 36.0807L10.7495 51.5442C10.594 51.6984 10.4964 51.9015 10.4732 52.1193C10.45 52.3371 10.5027 52.5562 10.6222 52.7397L13.4675 57.0968H7.61281V51.1469L7.67347 51.0708L7.70916 51.0256L29.2391 23.7539C29.4093 23.8031 29.5899 23.8031 29.7601 23.7539L51.2901 51.0256L51.3864 51.1469V57.0968Z" fill="#63AC45"/>
<path d="M7.61286 14.2748H20.4595C21.56 14.2755 22.6186 13.8524 23.4155 13.0933C24.2124 12.3343 24.6865 11.2975 24.7393 10.1983C24.7922 9.09897 24.4198 8.02154 23.6994 7.18953C22.9789 6.35753 21.9659 5.83483 20.8703 5.7299C20.6816 4.39329 20.0912 3.14555 19.1775 2.15199C18.2637 1.15843 17.0696 0.465932 15.7534 0.166242C14.4372 -0.133448 13.0611 -0.0261887 11.8072 0.47381C10.5533 0.97381 9.48098 1.84295 8.73218 2.96609C7.9505 2.81003 7.14481 2.81937 6.36697 2.9935C5.58912 3.16764 4.85635 3.50271 4.21583 3.97716C3.57531 4.45161 3.04123 5.05492 2.64796 5.74826C2.2547 6.44159 2.01097 7.20959 1.93245 8.00281C1.85394 8.79604 1.94239 9.59692 2.1921 10.3539C2.44182 11.1109 2.84727 11.8072 3.38235 12.398C3.91743 12.9888 4.57029 13.461 5.29891 13.7843C6.02753 14.1075 6.81576 14.2746 7.61286 14.2748ZM7.61286 4.75879C8.04115 4.75871 8.46638 4.8311 8.87052 4.9729C9.08787 5.04901 9.32546 5.04371 9.5392 4.95799C9.75295 4.87226 9.92836 4.71194 10.0329 4.50674C10.517 3.55475 11.3073 2.79332 12.2766 2.34495C13.2459 1.89659 14.3379 1.78737 15.3768 2.03488C16.4157 2.28239 17.3411 2.87223 18.0041 3.70948C18.6672 4.54674 19.0292 5.58271 19.0321 6.65069C19.0321 6.66259 19.0312 6.67448 19.0311 6.68638C19.0297 6.82355 19.058 6.9594 19.114 7.08462C19.1701 7.20984 19.2525 7.32146 19.3557 7.41185C19.4589 7.50223 19.5804 7.56923 19.7119 7.60826C19.8434 7.64729 19.9818 7.65743 20.1176 7.63798C20.2308 7.62178 20.3451 7.61363 20.4595 7.61359C21.0904 7.61359 21.6955 7.86424 22.1417 8.31039C22.5878 8.75654 22.8385 9.36165 22.8385 9.9926C22.8385 10.6235 22.5878 11.2287 22.1417 11.6748C21.6955 12.121 21.0904 12.3716 20.4595 12.3716H7.61286C6.60334 12.3716 5.63516 11.9706 4.92132 11.2567C4.20748 10.5429 3.80645 9.57472 3.80645 8.5652C3.80645 7.55567 4.20748 6.5875 4.92132 5.87366C5.63516 5.15982 6.60334 4.75879 7.61286 4.75879Z" fill="#63AC45"/>
<path d="M47.5801 28.43C49.3113 28.4235 51.0004 27.8956 52.4271 26.9149C53.8539 25.9343 54.952 24.5465 55.5783 22.9325C55.6388 22.7745 55.6562 22.6032 55.6285 22.4363C55.6009 22.2694 55.5292 22.1128 55.4209 21.9828C55.3126 21.8528 55.1716 21.754 55.0124 21.6966C54.8533 21.6393 54.6817 21.6254 54.5153 21.6564C53.5535 21.8353 52.564 21.8003 51.6172 21.554C50.6704 21.3076 49.7893 20.8559 49.0366 20.2309C48.2839 19.6059 47.678 18.8229 47.2618 17.9375C46.8456 17.0521 46.6294 16.0859 46.6285 15.1076C46.6272 14.2922 46.7764 13.4836 47.0686 12.7224C47.1292 12.5645 47.1467 12.3932 47.1191 12.2263C47.0916 12.0594 47.0201 11.9028 46.9119 11.7727C46.8037 11.6427 46.6628 11.5438 46.5037 11.4863C46.3446 11.4288 46.1731 11.4147 46.0067 11.4456C43.9083 11.8378 42.032 12.9996 40.7455 14.7031C39.459 16.4067 38.855 18.5293 39.0519 20.6549C39.2488 22.7806 40.2324 24.7561 41.81 26.1943C43.3875 27.6326 45.4453 28.4299 47.5801 28.43ZM44.8249 13.7969C44.6402 14.9976 44.7128 16.2238 45.0379 17.3944C45.363 18.5649 45.9332 19.653 46.7107 20.5864C47.4883 21.5199 48.4553 22.2774 49.5478 22.8088C50.6402 23.3402 51.8332 23.6333 53.0475 23.6687C52.4615 24.5097 51.6893 25.2042 50.7909 25.698C49.8926 26.1919 48.8925 26.4717 47.8683 26.5157C46.8441 26.5598 45.8236 26.3669 44.8862 25.952C43.9488 25.5372 43.1198 24.9116 42.4638 24.1239C41.8077 23.3362 41.3423 22.4078 41.1037 21.4108C40.8652 20.4139 40.8599 19.3753 41.0884 18.376C41.3169 17.3767 41.7729 16.4436 42.421 15.6493C43.0691 14.8551 43.8918 14.2212 44.8249 13.7969Z" fill="#63AC45"/>
</svg>
