<svg width="27" height="27" viewBox="0 0 27 27" fill="none" xmlns="http://www.w3.org/2000/svg">
<g clip-path="url(#clip0_127_574)">
<path d="M26.1562 24.0469H26.0483L22.3417 11.6915C22.3182 11.6134 22.2726 11.5438 22.2105 11.4911L13.773 4.31921C13.698 4.25561 13.6032 4.22018 13.5049 4.21902C13.4067 4.21787 13.3111 4.25107 13.2346 4.31288L4.37527 11.4848C4.3057 11.5407 4.25587 11.6174 4.23309 11.7037L0.941625 24.0469H0.84375C0.731862 24.0469 0.624556 24.0914 0.545439 24.1705C0.466322 24.2496 0.421875 24.3569 0.421875 24.4688V26.1563C0.421875 26.2682 0.466322 26.3755 0.545439 26.4546C0.624556 26.5337 0.731862 26.5782 0.84375 26.5782H26.1562C26.2681 26.5782 26.3754 26.5337 26.4546 26.4546C26.5337 26.3755 26.5781 26.2682 26.5781 26.1563V24.4688C26.5781 24.3569 26.5337 24.2496 26.4546 24.1705C26.3754 24.0914 26.2681 24.0469 26.1562 24.0469ZM23.9941 24.0469L23.0559 17.0092L25.1653 24.0469H23.9941ZM13.4932 5.18912L21.5409 12.029L23.1432 24.0469H18.0849L20.1791 20.9061C20.2332 20.8249 20.2576 20.7275 20.2479 20.6304C20.2383 20.5334 20.1954 20.4426 20.1264 20.3737L13.8004 14.0485C13.7487 14.0024 13.6869 13.9692 13.62 13.9514C13.5531 13.9337 13.4829 13.9319 13.4152 13.9463C13.3475 13.9607 13.2841 13.9908 13.2301 14.0342C13.1762 14.0776 13.1332 14.1331 13.1047 14.1961L9.41077 24.0469H3.84117L5.04309 12.0294L13.4932 5.18912ZM16.6881 24.0469H10.3119L13.5 15.5453L16.6881 24.0469ZM14.5787 16.0195L19.2852 20.7255L17.4028 23.5495L14.5787 16.0195ZM3.70027 16.975L2.99531 24.0469H1.81406L3.70027 16.975ZM25.7344 25.7344H1.26562V24.8907H25.7344V25.7344Z" fill="#484848"/>
<path d="M11.3906 11.3906H12.2344V12.2344C12.2344 12.3463 12.2788 12.4536 12.3579 12.5327C12.4371 12.6118 12.5444 12.6562 12.6562 12.6562H14.3438C14.4556 12.6562 14.5629 12.6118 14.6421 12.5327C14.7212 12.4536 14.7656 12.3463 14.7656 12.2344V11.3906H15.6094C15.7213 11.3906 15.8286 11.3462 15.9077 11.2671C15.9868 11.1879 16.0312 11.0806 16.0312 10.9688V9.28125C16.0312 9.16936 15.9868 9.06206 15.9077 8.98294C15.8286 8.90382 15.7213 8.85938 15.6094 8.85938H14.7656V8.01562C14.7656 7.90374 14.7212 7.79643 14.6421 7.71731C14.5629 7.6382 14.4556 7.59375 14.3438 7.59375H12.6562C12.5444 7.59375 12.4371 7.6382 12.3579 7.71731C12.2788 7.79643 12.2344 7.90374 12.2344 8.01562V8.85938H11.3906C11.2787 8.85938 11.1714 8.90382 11.0923 8.98294C11.0132 9.06206 10.9688 9.16936 10.9688 9.28125V10.9688C10.9688 11.0806 11.0132 11.1879 11.0923 11.2671C11.1714 11.3462 11.2787 11.3906 11.3906 11.3906ZM11.8125 9.70312H12.6562C12.7681 9.70312 12.8754 9.65868 12.9546 9.57956C13.0337 9.50044 13.0781 9.39314 13.0781 9.28125V8.4375H13.9219V9.28125C13.9219 9.39314 13.9663 9.50044 14.0454 9.57956C14.1246 9.65868 14.2319 9.70312 14.3438 9.70312H15.1875V10.5469H14.3438C14.2319 10.5469 14.1246 10.5913 14.0454 10.6704C13.9663 10.7496 13.9219 10.8569 13.9219 10.9688V11.8125H13.0781V10.9688C13.0781 10.8569 13.0337 10.7496 12.9546 10.6704C12.8754 10.5913 12.7681 10.5469 12.6562 10.5469H11.8125V9.70312Z" fill="#484848"/>
<path d="M20.6714 5.48444H23.2027C23.5049 5.48457 23.7972 5.37655 24.0266 5.17993C24.2561 4.9833 24.4077 4.71105 24.4539 4.4124C24.5002 4.11375 24.438 3.80842 24.2787 3.55162C24.1194 3.29482 23.8734 3.1035 23.5853 3.01225C23.5028 2.63649 23.2945 2.30019 22.9947 2.05908C22.6949 1.81797 22.3218 1.68652 21.937 1.68652C21.5523 1.68652 21.1792 1.81797 20.8794 2.05908C20.5796 2.30019 20.3713 2.63649 20.2888 3.01225C20.0007 3.1035 19.7547 3.29482 19.5954 3.55162C19.4361 3.80842 19.3739 4.11375 19.4202 4.4124C19.4664 4.71105 19.618 4.9833 19.8474 5.17993C20.0769 5.37655 20.3692 5.48457 20.6714 5.48444ZM20.6714 3.79694C20.7833 3.79694 20.8906 3.75249 20.9697 3.67338C21.0489 3.59426 21.0933 3.48696 21.0933 3.37507C21.0933 3.15129 21.1822 2.93668 21.3404 2.77845C21.4987 2.62021 21.7133 2.53132 21.937 2.53132C22.1608 2.53132 22.3754 2.62021 22.5337 2.77845C22.6919 2.93668 22.7808 3.15129 22.7808 3.37507C22.7808 3.48696 22.8252 3.59426 22.9044 3.67338C22.9835 3.75249 23.0908 3.79694 23.2027 3.79694C23.3146 3.79694 23.4219 3.84139 23.501 3.92051C23.5801 3.99962 23.6245 4.10693 23.6245 4.21882C23.6245 4.33071 23.5801 4.43801 23.501 4.51713C23.4219 4.59624 23.3146 4.64069 23.2027 4.64069H20.6714C20.5595 4.64069 20.4522 4.59624 20.3731 4.51713C20.294 4.43801 20.2495 4.33071 20.2495 4.21882C20.2495 4.10693 20.294 3.99962 20.3731 3.92051C20.4522 3.84139 20.5595 3.79694 20.6714 3.79694Z" fill="#484848"/>
<path d="M3.79643 4.21882H6.32768C6.62988 4.21894 6.92216 4.11093 7.15165 3.9143C7.38114 3.71768 7.53271 3.44543 7.57893 3.14678C7.62516 2.84813 7.56299 2.5428 7.40368 2.28599C7.24436 2.02919 6.99842 1.83787 6.71032 1.74663C6.62784 1.37087 6.41945 1.03457 6.11968 0.793457C5.81991 0.552346 5.44675 0.420898 5.06205 0.420898C4.67735 0.420898 4.30419 0.552346 4.00442 0.793457C3.70465 1.03457 3.49626 1.37087 3.41378 1.74663C3.12568 1.83787 2.87974 2.02919 2.72042 2.28599C2.56111 2.5428 2.49894 2.84813 2.54517 3.14678C2.59139 3.44543 2.74296 3.71768 2.97245 3.9143C3.20194 4.11093 3.49422 4.21894 3.79643 4.21882ZM3.79643 2.53132C3.90831 2.53132 4.01562 2.48687 4.09474 2.40775C4.17385 2.32864 4.2183 2.22133 4.2183 2.10944C4.2183 1.88567 4.3072 1.67105 4.46543 1.51282C4.62366 1.35459 4.83827 1.26569 5.06205 1.26569C5.28583 1.26569 5.50044 1.35459 5.65867 1.51282C5.81691 1.67105 5.9058 1.88567 5.9058 2.10944C5.9058 2.22133 5.95025 2.32864 6.02936 2.40775C6.10848 2.48687 6.21579 2.53132 6.32768 2.53132C6.43956 2.53132 6.54687 2.57576 6.62599 2.65488C6.7051 2.734 6.74955 2.8413 6.74955 2.95319C6.74955 3.06508 6.7051 3.17239 6.62599 3.2515C6.54687 3.33062 6.43956 3.37507 6.32768 3.37507H3.79643C3.68454 3.37507 3.57723 3.33062 3.49811 3.2515C3.419 3.17239 3.37455 3.06508 3.37455 2.95319C3.37455 2.8413 3.419 2.734 3.49811 2.65488C3.57723 2.57576 3.68454 2.53132 3.79643 2.53132Z" fill="#484848"/>
</g>
<defs>
<clipPath id="clip0_127_574">
<rect width="27" height="27" fill="white"/>
</clipPath>
</defs>
</svg>
