<svg width="20" height="20" viewBox="0 0 20 20" fill="none" xmlns="http://www.w3.org/2000/svg">
<path fill-rule="evenodd" clip-rule="evenodd" d="M10.2105 14.77C10.0727 14.6267 9.99734 14.4346 10.0011 14.2359C10.0048 14.0371 10.0873 13.848 10.2305 13.71L14.1685 10L10.2305 6.29001C10.1561 6.22257 10.0961 6.1409 10.0539 6.04983C10.0117 5.95875 9.98819 5.86014 9.9848 5.75982C9.98141 5.65951 9.9982 5.55953 10.0342 5.46582C10.0701 5.37211 10.1245 5.28657 10.1941 5.21427C10.2638 5.14196 10.3472 5.08437 10.4395 5.04491C10.5318 5.00544 10.631 4.9849 10.7314 4.9845C10.8318 4.98411 10.9312 5.00386 11.0238 5.0426C11.1164 5.08133 11.2003 5.13826 11.2705 5.21001L15.7705 9.46001C15.8431 9.52997 15.9008 9.61385 15.9402 9.70663C15.9797 9.79941 16 9.89919 16 10C16 10.1008 15.9797 10.2006 15.9402 10.2934C15.9008 10.3862 15.8431 10.47 15.7705 10.54L11.2705 14.79C11.1272 14.9278 10.9351 15.0032 10.7363 14.9994C10.5376 14.9957 10.3484 14.9131 10.2105 14.77Z" fill="white"/>
<path fill-rule="evenodd" clip-rule="evenodd" d="M4.21048 14.77C4.07265 14.6267 3.99734 14.4346 4.00109 14.2359C4.00484 14.0371 4.08735 13.848 4.23048 13.71L8.16848 10L4.23048 6.29001C4.15614 6.22257 4.09609 6.1409 4.05388 6.04983C4.01168 5.95875 3.98819 5.86014 3.9848 5.75982C3.98141 5.65951 3.99819 5.55953 4.03415 5.46582C4.07011 5.37211 4.12451 5.28657 4.19413 5.21427C4.26376 5.14196 4.34719 5.08437 4.43947 5.04491C4.53176 5.00544 4.63104 4.9849 4.73141 4.9845C4.83178 4.98411 4.93121 5.00386 5.02381 5.0426C5.11641 5.08133 5.20029 5.13826 5.27048 5.21001L9.77048 9.46001C9.84307 9.52997 9.9008 9.61385 9.94024 9.70663C9.97968 9.79941 10 9.89919 10 10C10 10.1008 9.97968 10.2006 9.94024 10.2934C9.9008 10.3862 9.84307 10.47 9.77048 10.54L5.27048 14.79C5.12722 14.9278 4.9351 15.0032 4.73634 14.9994C4.53758 14.9957 4.34844 14.9131 4.21048 14.77Z" fill="white"/>
</svg>
