<svg width="17" height="17" viewBox="0 0 17 17" fill="none" xmlns="http://www.w3.org/2000/svg">
<path fill-rule="evenodd" clip-rule="evenodd" d="M7.42888 1.59128C5.88082 1.59128 4.39616 2.20624 3.30152 3.30089C2.20687 4.39554 1.5919 5.8802 1.5919 7.42826C1.5919 8.97632 2.20687 10.461 3.30152 11.5556C4.39616 12.6503 5.88082 13.2652 7.42888 13.2652C8.97695 13.2652 10.4616 12.6503 11.5563 11.5556C12.6509 10.461 13.2659 8.97632 13.2659 7.42826C13.2659 5.8802 12.6509 4.39554 11.5563 3.30089C10.4616 2.20624 8.97695 1.59128 7.42888 1.59128ZM1.71495e-08 7.42826C0.000100223 6.24035 0.28507 5.06978 0.831005 4.01475C1.37694 2.95972 2.16792 2.051 3.13759 1.3648C4.10727 0.678603 5.22736 0.234948 6.40391 0.07105C7.58046 -0.0928483 8.77916 0.0277898 9.89945 0.422845C11.0198 0.817899 12.029 1.47585 12.8425 2.34151C13.656 3.20716 14.25 4.25528 14.5748 5.39794C14.8995 6.54059 14.9455 7.74447 14.7089 8.90858C14.4723 10.0727 13.96 11.1631 13.2149 12.0883L16.7468 15.6213C16.825 15.6941 16.8878 15.782 16.9313 15.8796C16.9748 15.9773 16.9982 16.0827 17 16.1895C17.0019 16.2964 16.9823 16.4026 16.9422 16.5017C16.9022 16.6008 16.8426 16.6908 16.767 16.7664C16.6915 16.842 16.6014 16.9016 16.5023 16.9416C16.4032 16.9816 16.297 17.0013 16.1902 16.9994C16.0833 16.9975 15.9779 16.9741 15.8803 16.9306C15.7826 16.8871 15.6948 16.8244 15.6219 16.7462L12.0889 13.2143C10.9974 14.0934 9.67956 14.6459 8.28746 14.8079C6.89536 14.9698 5.48583 14.7347 4.22167 14.1297C2.95752 13.5246 1.8903 12.5743 1.14328 11.3885C0.396256 10.2027 -9.51938e-05 8.82975 1.71495e-08 7.42826Z" fill="white"/>
</svg>
