<svg width="210" height="45" viewBox="0 0 210 45" fill="none" xmlns="http://www.w3.org/2000/svg">
<circle cx="22.5" cy="22.5" r="22.5" fill="#63AC45"/>
<path d="M23.3936 32V23.79H26.1482L26.5615 20.5894H23.3936V18.5463C23.3936 17.62 23.6498 16.9887 24.9796 16.9887L26.673 16.988V14.1253C26.3802 14.0873 25.3749 14 24.2049 14C21.7618 14 20.0892 15.4913 20.0892 18.2293V20.5894H17.3262V23.79H20.0892V32H23.3936Z" fill="white"/>
<circle cx="77.5" cy="22.5" r="22.5" fill="white" fill-opacity="0.1"/>
<path d="M84.1822 18.5359C83.6422 18.7699 83.0842 18.9319 82.4902 19.0039C83.1022 18.6439 83.5702 18.0679 83.7862 17.3659C83.2102 17.7079 82.5802 17.9419 81.9142 18.0859C81.3742 17.5099 80.6002 17.1499 79.7542 17.1499C78.1162 17.1499 76.8022 18.4819 76.8022 20.1019C76.8022 20.3359 76.8202 20.5519 76.8742 20.7679C74.4262 20.6599 72.2662 19.4719 70.8082 17.6899C69.7642 19.5619 70.9342 21.1099 71.7082 21.6319C71.2402 21.6319 70.7722 21.4879 70.3762 21.2719C70.3762 22.7299 71.4022 23.9359 72.7342 24.2059C72.4462 24.2959 71.7982 24.3499 71.4022 24.2599C71.7802 25.4299 72.8782 26.2939 74.1562 26.3119C73.1482 27.1039 71.6722 27.7339 69.7822 27.5359C71.0962 28.3819 72.6442 28.8679 74.3182 28.8679C79.7542 28.8679 82.7062 24.3679 82.7062 20.4799C82.7062 20.3539 82.7062 20.2279 82.6882 20.1019C83.3002 19.6519 83.8042 19.1299 84.1822 18.5359Z" fill="#B1B6B3"/>
<circle cx="132.5" cy="22.5" r="22.5" fill="white" fill-opacity="0.1"/>
<g clip-path="url(#clip0_113_5496)">
<path d="M136.066 14H127.934C125.214 14 123 16.2136 123 18.9345V27.0656C123 29.7865 125.214 32 127.934 32H136.066C138.786 32 141 29.7865 141 27.0656V18.9345C141 16.2136 138.786 14 136.066 14ZM139.937 27.0656C139.937 29.2003 138.2 30.937 136.066 30.937H127.934C125.8 30.937 124.063 29.2003 124.063 27.0656V18.9345C124.063 16.7997 125.8 15.063 127.934 15.063H136.066C138.2 15.063 139.937 16.7997 139.937 18.9345V27.0656Z" fill="#B1B6B3"/>
<path d="M132 18.063C129.277 18.063 127.062 20.2777 127.062 23C127.062 25.7223 129.277 27.937 132 27.937C134.722 27.937 136.937 25.7223 136.937 23C136.937 20.2777 134.722 18.063 132 18.063ZM132 26.8741C129.863 26.8741 128.125 25.1361 128.125 23C128.125 20.8638 129.863 19.1259 132 19.1259C134.136 19.1259 135.874 20.8639 135.874 23C135.874 25.1362 134.136 26.8741 132 26.8741Z" fill="#B1B6B3"/>
<path d="M137.232 16.2676C136.405 16.2676 135.732 16.9405 135.732 17.7676C135.732 18.5947 136.405 19.2676 137.232 19.2676C138.059 19.2676 138.732 18.5946 138.732 17.7676C138.732 16.9405 138.059 16.2676 137.232 16.2676ZM137.232 18.2045C136.991 18.2045 136.795 18.0085 136.795 17.7676C136.795 17.5266 136.991 17.3306 137.232 17.3306C137.473 17.3306 137.669 17.5266 137.669 17.7676C137.669 18.0085 137.473 18.2045 137.232 18.2045Z" fill="#B1B6B3"/>
</g>
<circle cx="187.5" cy="22.5" r="22.5" fill="white" fill-opacity="0.1"/>
<path d="M194.2 30.2V24.926C194.2 22.334 193.642 20.354 190.618 20.354C189.16 20.354 188.188 21.146 187.792 21.902H187.756V20.588H184.894V30.2H187.882V25.43C187.882 24.17 188.116 22.964 189.664 22.964C191.194 22.964 191.212 24.386 191.212 25.502V30.182H194.2V30.2Z" fill="#B1B6B3"/>
<path d="M180.034 20.5879H183.022V30.1999H180.034V20.5879Z" fill="#B1B6B3"/>
<path d="M181.528 15.8C180.574 15.8 179.8 16.574 179.8 17.528C179.8 18.482 180.574 19.274 181.528 19.274C182.482 19.274 183.256 18.482 183.256 17.528C183.256 16.574 182.482 15.8 181.528 15.8Z" fill="#B1B6B3"/>
<defs>
<clipPath id="clip0_113_5496">
<rect width="18" height="18" fill="white" transform="translate(123 14)"/>
</clipPath>
</defs>
</svg>
