<svg width="49" height="38" viewBox="0 0 49 38" fill="none" xmlns="http://www.w3.org/2000/svg">
<path d="M16.761 18.1622C15.4171 21.2981 14.9691 26.5992 15.1931 30.0337C15.1931 30.3323 15.4918 30.5563 15.7157 30.5563C24.0034 30.5563 32.1417 29.287 40.2053 28.4657C40.3546 28.4657 40.504 28.3164 40.6533 28.2418C40.8773 27.9431 40.6533 27.6444 40.5786 27.4205C38.4134 21.5221 37.4428 20.2528 37.2934 19.9541C35.9495 17.4902 34.5309 15.0263 32.5896 13.1598C26.6912 7.63468 19.9716 10.5466 16.761 18.1622ZM16.313 29.4364C16.2384 27.2711 16.3877 24.3593 16.9104 21.8954L30.4244 20.6261C30.5737 20.6261 30.6484 20.6261 30.7977 20.7008C33.5603 22.5673 36.3975 25.1806 38.936 27.5698C31.3204 28.3164 23.854 29.3617 16.313 29.4364ZM36.4721 20.7008C37.4428 22.4927 38.1894 24.1353 38.8614 25.9272C36.4721 23.762 33.9336 21.5221 31.395 19.7301L31.3204 19.6555L31.395 13.5331C33.6349 15.3997 35.0535 18.0875 36.4721 20.7008ZM30.3497 12.7865L30.2004 19.5061L17.1343 20.7754C17.3583 20.0288 17.5823 19.2822 17.8063 18.6849C19.0756 15.549 21.7635 12.0398 25.2726 11.5172C27.0646 11.2185 28.8565 11.8158 30.3497 12.7865Z" fill="white"/>
<path d="M34.6052 0.392343L34.0079 2.55758C33.9332 2.85623 34.0825 3.15489 34.3812 3.22955C34.6798 3.30421 34.9785 3.15489 35.0531 2.85623L35.6504 0.690997C35.7251 0.392344 35.5758 0.09369 35.2771 0.0190267C34.9785 -0.0556365 34.6798 0.0936901 34.6052 0.392343Z" fill="white"/>
<path d="M39.085 0.765661C38.861 0.541672 38.4877 0.541672 38.2637 0.765661C37.517 1.58696 36.8451 2.48292 36.3971 3.45354C36.2478 3.75219 36.3971 4.05085 36.6211 4.20017C36.9197 4.3495 37.2184 4.20017 37.3677 3.97618C37.8157 3.08022 38.413 2.25893 39.085 1.58696C39.3836 1.36297 39.309 0.989651 39.085 0.765661Z" fill="white"/>
<path d="M38.5624 6.51473C39.3091 6.36541 39.981 6.06675 40.653 5.69344C40.9517 5.54411 41.0263 5.17079 40.877 4.9468C40.7277 4.64815 40.3543 4.57349 40.1304 4.72281C39.6077 5.02147 38.9357 5.24546 38.3384 5.39478C38.0398 5.46945 37.8158 5.7681 37.8905 6.06675C37.9651 6.44007 38.2638 6.5894 38.5624 6.51473Z" fill="white"/>
<path d="M0.409455 25.1806C0.708108 25.2552 1.00676 25.1059 1.08142 24.8072C1.08142 24.7326 1.15609 24.6579 1.15609 24.6579C1.38008 25.4046 0.932098 23.762 3.24666 30.855C3.84397 32.6469 4.29195 34.5135 5.11324 36.3054C5.03858 36.5294 4.96392 36.828 4.96392 37.1267C4.88925 37.4253 5.11324 37.724 5.4119 37.7987H5.56122C5.78521 37.7987 6.08386 37.6493 6.08386 37.3507C6.08386 37.2014 6.15853 37.052 6.23319 36.9027C20.1206 35.4841 34.0826 34.1402 47.97 32.7216C48.1193 33.0202 48.418 33.0949 48.6419 33.0202C48.9406 32.9455 49.0899 32.5722 48.9406 32.2736C45.7301 23.9113 41.3996 16.221 36.0985 9.50127C33.1866 5.7681 29.5281 2.03494 24.8243 1.88561C24.7497 1.88561 24.675 1.81095 24.6004 1.81095C21.6138 1.5123 18.1047 2.63225 15.2674 4.12551C8.77174 7.18671 4.66526 13.2344 1.82806 19.8795C1.30541 20.9994 0.782771 22.1194 0.260128 23.2393C0.0361386 23.6126 -0.113188 24.5833 0.110802 24.9566C0.185465 25.1059 0.334792 25.1806 0.409455 25.1806ZM2.05205 22.7167C2.05205 22.642 1.97738 22.642 1.97738 22.5673C4.44127 16.221 8.39843 10.6959 13.3262 6.73873C14.3715 5.91743 15.5661 5.24546 16.8354 4.64816C16.9847 4.94681 17.2834 5.46945 17.6567 5.91743C16.9847 6.81339 16.3874 7.78401 15.8648 8.75464C11.4596 16.3703 8.17444 24.6579 5.93454 33.3935C4.44127 28.9137 2.64935 24.2099 2.05205 22.7167ZM18.254 4.94681C18.03 4.64816 17.8807 4.3495 17.7313 4.12551C18.4033 3.82686 19.0753 3.60287 19.7472 3.45354C19.2246 3.90152 18.7766 4.42417 18.254 4.94681ZM35.2025 10.1732C40.0557 16.3703 44.0875 23.3886 47.2233 31.0043L22.2111 33.3189C6.15853 34.8121 8.54775 35.4094 6.53184 35.2601C8.77174 26.0019 12.2063 17.1916 16.7607 9.20262C17.2834 8.30666 17.806 7.4107 18.478 6.51474C22.7338 8.23199 28.3335 7.48536 30.9467 5.61878C32.5893 6.96272 34.0079 8.67997 35.2025 10.1732ZM29.9761 4.94681C27.6616 6.44007 22.8831 7.03738 19.1499 5.69344C19.7472 5.02147 20.4192 4.3495 21.1658 3.90152C23.4057 2.55758 26.6163 2.55758 29.9761 4.94681Z" fill="white"/>
</svg>
