<svg width="65" height="65" viewBox="0 0 65 65" fill="none" xmlns="http://www.w3.org/2000/svg">
<path d="M32.5 14.6775C35.3904 14.6775 37.7419 12.3259 37.7419 9.43554C37.7419 6.54514 35.3904 4.1936 32.5 4.1936C29.6096 4.1936 27.2581 6.54514 27.2581 9.43554C27.2581 12.3259 29.6096 14.6775 32.5 14.6775ZM32.5 6.29038C34.234 6.29038 35.6452 7.70151 35.6452 9.43554C35.6452 11.1696 34.234 12.5807 32.5 12.5807C30.766 12.5807 29.3548 11.1696 29.3548 9.43554C29.3548 7.70151 30.766 6.29038 32.5 6.29038Z" fill="#63AC45"/>
<path d="M32.4999 24.743L39.868 15.5329C41.2015 13.867 41.9354 11.7734 41.9354 9.63887V9.43548C41.9354 4.23339 37.702 0 32.4999 0C27.2978 0 23.0645 4.23339 23.0645 9.43548V9.63887C23.0645 11.7734 23.7983 13.867 25.1319 15.5329L32.4999 24.743ZM25.1612 9.43548C25.1612 5.38871 28.4532 2.09677 32.4999 2.09677C36.5467 2.09677 39.8386 5.38871 39.8386 9.43548V9.63887C39.8386 11.2985 39.2673 12.9277 38.2304 14.2235L32.4999 21.386L26.7695 14.2224C25.7326 12.9277 25.1612 11.2985 25.1612 9.63887V9.43548Z" fill="#63AC45"/>
<path d="M55.5644 4.1936C52.674 4.1936 50.3225 6.54514 50.3225 9.43554C50.3225 12.3259 52.674 14.6775 55.5644 14.6775C58.4548 14.6775 60.8064 12.3259 60.8064 9.43554C60.8064 6.54514 58.4548 4.1936 55.5644 4.1936ZM55.5644 12.5807C53.8304 12.5807 52.4193 11.1696 52.4193 9.43554C52.4193 7.70151 53.8304 6.29038 55.5644 6.29038C57.2985 6.29038 58.7096 7.70151 58.7096 9.43554C58.7096 11.1696 57.2985 12.5807 55.5644 12.5807Z" fill="#63AC45"/>
<path d="M55.5646 0C50.3625 0 46.1292 4.23339 46.1292 9.43548V9.63887C46.1292 11.7734 46.863 13.867 48.1966 15.5329L55.5646 24.743L62.9327 15.5329C64.2662 13.867 65.0001 11.7734 65.0001 9.63887V9.43548C65.0001 4.23339 60.7667 0 55.5646 0V0ZM62.9033 9.63887C62.9033 11.2985 62.332 12.9277 61.2951 14.2235L55.5646 21.386L49.8342 14.2224C48.7973 12.9277 48.2259 11.2985 48.2259 9.63887V9.43548C48.2259 5.38871 51.5179 2.09677 55.5646 2.09677C59.6114 2.09677 62.9033 5.38871 62.9033 9.43548V9.63887Z" fill="#63AC45"/>
<path d="M9.43554 14.6775C12.3259 14.6775 14.6775 12.3259 14.6775 9.43554C14.6775 6.54514 12.3259 4.1936 9.43554 4.1936C6.54514 4.1936 4.1936 6.54514 4.1936 9.43554C4.1936 12.3259 6.54514 14.6775 9.43554 14.6775ZM9.43554 6.29038C11.1696 6.29038 12.5807 7.70151 12.5807 9.43554C12.5807 11.1696 11.1696 12.5807 9.43554 12.5807C7.70151 12.5807 6.29038 11.1696 6.29038 9.43554C6.29038 7.70151 7.70151 6.29038 9.43554 6.29038Z" fill="#63AC45"/>
<path d="M9.43548 24.743L16.8035 15.5329C18.1371 13.867 18.871 11.7734 18.871 9.63887V9.43548C18.871 4.23339 14.6376 0 9.43548 0C4.23339 0 0 4.23339 0 9.43548V9.63887C0 11.7734 0.733871 13.867 2.06742 15.5329L9.43548 24.743ZM2.09677 9.43548C2.09677 5.38871 5.38871 2.09677 9.43548 2.09677C13.4823 2.09677 16.7742 5.38871 16.7742 9.43548V9.63887C16.7742 11.2985 16.2028 12.9277 15.166 14.2235L9.43548 21.386L3.705 14.2224C2.66814 12.9277 2.09677 11.2985 2.09677 9.63887V9.43548Z" fill="#63AC45"/>
<path d="M62.9032 42.013V30.1348C62.9032 28.8201 62.0121 27.7214 60.8064 27.3786V23.0645H58.7097V27.5264L56.6129 28.1554V26.2096H54.5161V28.7845L50.2754 30.0572C49.0498 30.4252 48.2258 31.5323 48.2258 32.8124V33.5483H41.9355V31.4515C41.9355 30.2952 40.9951 29.3548 39.8387 29.3548H37.7419V27.258H35.6452V29.3548H33.5484V25.1612H31.4516V29.3548H29.3548V27.258H27.2581V29.3548H25.1613C24.0049 29.3548 23.0645 30.2952 23.0645 31.4515V33.5483H16.7742V32.8124C16.7742 31.5323 15.9502 30.4252 14.7235 30.0561L10.4839 28.7845V26.2096H8.3871V28.1554L6.29032 27.5264V23.0645H4.19355V27.3796C2.9879 27.7224 2.09677 28.8211 2.09677 30.1358V42.013C0.897419 42.294 0 43.3665 0 44.6497C0 45.1089 0.117419 45.5649 0.341774 45.9675L0.432984 46.1321C6.89944 57.7703 19.1865 64.9999 32.5 64.9999C45.8135 64.9999 58.1006 57.7703 64.567 46.1321L64.6593 45.9665C64.8826 45.5639 65 45.1089 65 44.6486C65 43.3654 64.1026 42.294 62.9032 42.013ZM50.3226 32.8124C50.3226 32.4653 50.5459 32.1645 50.8782 32.0649L59.8031 29.3873C60.2896 29.2436 60.8064 29.6295 60.8064 30.1348V41.9354H54.5161V35.6451C54.5161 34.4887 53.5757 33.5483 52.4194 33.5483H50.3226V32.8124ZM52.4194 35.6451V41.9354H41.9355V35.6451H52.4194ZM25.1613 31.4515H39.8387V35.6451V41.9354H25.1613V35.6451V31.4515ZM23.0645 41.9354H12.5806V35.6451H23.0645V41.9354ZM5.1979 29.3883L14.1207 32.0649C14.4541 32.1645 14.6774 32.4653 14.6774 32.8124V33.5483H12.5806C11.4243 33.5483 10.4839 34.4887 10.4839 35.6451V41.9354H4.19355V30.1348C4.19355 29.6295 4.70935 29.2395 5.1979 29.3883ZM2.26556 45.1131L2.17435 44.9485C2.12298 44.8573 2.09677 44.7535 2.09677 44.6486C2.09677 44.309 2.37355 44.0322 2.71323 44.0322H20.9677V45.0806C20.9677 45.6582 20.497 46.129 19.9194 46.129H13.629C11.895 46.129 10.4839 47.5401 10.4839 49.2741C10.4839 51.0082 11.895 52.4193 13.629 52.4193H26.2097C26.7873 52.4193 27.2581 52.89 27.2581 53.4677C27.2581 54.0453 26.7873 54.5161 26.2097 54.5161H24.1129C22.3789 54.5161 20.9677 55.9272 20.9677 57.6612C20.9677 59.3953 22.3789 60.8064 24.1129 60.8064C24.6906 60.8064 25.1613 61.2771 25.1613 61.8548V62.1032C15.5581 60.0149 7.14895 53.9028 2.26556 45.1131ZM27.2581 62.489V61.8548C27.2581 60.1207 25.8469 58.7096 24.1129 58.7096C23.5352 58.7096 23.0645 58.2389 23.0645 57.6612C23.0645 57.0836 23.5352 56.6128 24.1129 56.6128H26.2097C27.9437 56.6128 29.3548 55.2017 29.3548 53.4677C29.3548 51.7336 27.9437 50.3225 26.2097 50.3225H13.629C13.0514 50.3225 12.5806 49.8518 12.5806 49.2741C12.5806 48.6965 13.0514 48.2257 13.629 48.2257H19.9194C21.6534 48.2257 23.0645 46.8146 23.0645 45.0806V44.0322H37.7419V45.0806C37.7419 46.8146 39.1531 48.2257 40.8871 48.2257H51.371C51.9486 48.2257 52.4194 48.6965 52.4194 49.2741C52.4194 49.8518 51.9486 50.3225 51.371 50.3225H45.0806C43.3466 50.3225 41.9355 51.7336 41.9355 53.4677C41.9355 54.0453 41.4648 54.5161 40.8871 54.5161H36.6935C34.9595 54.5161 33.5484 55.9272 33.5484 57.6612C33.5484 59.3953 34.9595 60.8064 36.6935 60.8064C37.2712 60.8064 37.7419 61.2771 37.7419 61.8548V62.489C36.0215 62.7532 34.2718 62.9032 32.5 62.9032C30.7282 62.9032 28.9785 62.7532 27.2581 62.489ZM62.8256 44.9485L62.7344 45.1131C57.851 53.9028 49.4419 60.0149 39.8387 62.1032V61.8548C39.8387 60.1207 38.4276 58.7096 36.6935 58.7096C36.1159 58.7096 35.6452 58.2389 35.6452 57.6612C35.6452 57.0836 36.1159 56.6128 36.6935 56.6128H40.8871C42.6211 56.6128 44.0323 55.2017 44.0323 53.4677C44.0323 52.89 44.503 52.4193 45.0806 52.4193H51.371C53.105 52.4193 54.5161 51.0082 54.5161 49.2741C54.5161 47.5401 53.105 46.129 51.371 46.129H40.8871C40.3094 46.129 39.8387 45.6582 39.8387 45.0806V44.0322H62.2868C62.6264 44.0322 62.9032 44.309 62.9032 44.6486C62.9032 44.7535 62.877 44.8573 62.8256 44.9485Z" fill="#63AC45"/>
<path d="M14.6775 37.7419H16.7743V39.8387H14.6775V37.7419Z" fill="#63AC45"/>
<path d="M18.8708 37.7419H20.9676V39.8387H18.8708V37.7419Z" fill="#63AC45"/>
<path d="M27.2581 33.5483H29.3548V35.6451H27.2581V33.5483Z" fill="#63AC45"/>
<path d="M31.4517 33.5483H33.5484V35.6451H31.4517V33.5483Z" fill="#63AC45"/>
<path d="M27.2581 37.7419H29.3548V39.8387H27.2581V37.7419Z" fill="#63AC45"/>
<path d="M31.4517 37.7419H33.5484V39.8387H31.4517V37.7419Z" fill="#63AC45"/>
<path d="M35.6453 33.5483H37.742V35.6451H35.6453V33.5483Z" fill="#63AC45"/>
<path d="M35.6453 37.7419H37.742V39.8387H35.6453V37.7419Z" fill="#63AC45"/>
<path d="M6.29028 37.7419H8.38706V39.8387H6.29028V37.7419Z" fill="#63AC45"/>
<path d="M6.29028 33.5483H8.38706V35.6451H6.29028V33.5483Z" fill="#63AC45"/>
<path d="M48.2258 37.7419H50.3226V39.8387H48.2258V37.7419Z" fill="#63AC45"/>
<path d="M44.0322 37.7419H46.129V39.8387H44.0322V37.7419Z" fill="#63AC45"/>
<path d="M56.6128 37.7419H58.7096V39.8387H56.6128V37.7419Z" fill="#63AC45"/>
<path d="M56.6128 33.5483H58.7096V35.6451H56.6128V33.5483Z" fill="#63AC45"/>
</svg>
