<svg width="17" height="17" viewBox="0 0 17 17" fill="none" xmlns="http://www.w3.org/2000/svg">
<path fill-rule="evenodd" clip-rule="evenodd" d="M7.42877 1.59125C5.88073 1.59125 4.3961 2.20621 3.30147 3.30084C2.20684 4.39547 1.59188 5.88011 1.59188 7.42815C1.59188 8.97619 2.20684 10.4608 3.30147 11.5555C4.3961 12.6501 5.88073 13.265 7.42877 13.265C8.97681 13.265 10.4614 12.6501 11.5561 11.5555C12.6507 10.4608 13.2657 8.97619 13.2657 7.42815C13.2657 5.88011 12.6507 4.39547 11.5561 3.30084C10.4614 2.20621 8.97681 1.59125 7.42877 1.59125ZM1.71493e-08 7.42815C0.000100222 6.24025 0.285066 5.06971 0.830992 4.01469C1.37692 2.95968 2.16789 2.05096 3.13755 1.36478C4.10721 0.678593 5.22728 0.234945 6.40381 0.0710489C7.58034 -0.0928468 8.77902 0.0277894 9.8993 0.422838C11.0196 0.817887 12.0288 1.47583 12.8423 2.34147C13.6558 3.20711 14.2498 4.25521 14.5745 5.39785C14.8993 6.54049 14.9453 7.74435 14.7087 8.90844C14.4721 10.0725 13.9598 11.1629 13.2147 12.0881L16.7466 15.621C16.8248 15.6939 16.8875 15.7818 16.931 15.8794C16.9745 15.977 16.9979 16.0824 16.9998 16.1893C17.0017 16.2962 16.982 16.4023 16.942 16.5014C16.9019 16.6005 16.8424 16.6906 16.7668 16.7662C16.6912 16.8417 16.6012 16.9013 16.5021 16.9413C16.4029 16.9814 16.2968 17.001 16.1899 16.9992C16.0831 16.9973 15.9777 16.9739 15.88 16.9304C15.7824 16.8869 15.6945 16.8241 15.6216 16.7459L12.0887 13.2141C10.9973 14.0932 9.67941 14.6457 8.28733 14.8076C6.89525 14.9696 5.48575 14.7345 4.22161 14.1295C2.95747 13.5244 1.89027 12.5741 1.14326 11.3883C0.39625 10.2025 -9.51923e-05 8.82962 1.71493e-08 7.42815Z" fill="#1C231F"/>
</svg>
