<svg width="57" height="57" viewBox="0 0 57 57" fill="none" xmlns="http://www.w3.org/2000/svg">
<path d="M0 52.25C0 54.8691 1.70466 57 3.8 57C4.36197 56.9975 4.91311 56.8453 5.39659 56.5588L23.757 50.995C23.7523 51.0961 23.75 51.1978 23.75 51.3C23.75 54.4429 25.8808 57 28.5 57C31.1192 57 33.25 54.4429 33.25 51.3C33.25 51.1978 33.2477 51.0961 33.243 50.995L51.6034 56.5588C52.0869 56.8453 52.638 56.9975 53.2 57C55.2953 57 57 54.8691 57 52.25C57 49.6968 55.3799 47.6085 53.3572 47.5049L42.078 44.087C42.1594 43.9977 42.2399 43.9077 42.3195 43.8167C45.0476 40.691 46.55 36.6008 46.55 32.3V28.5C46.55 25.3245 45.608 21.7556 45.5683 21.6069C44.5233 17.6609 41.8169 12.8036 38.3418 11.4636C38.1507 11.3899 37.9409 11.38 37.7438 11.4352C37.5466 11.4904 37.3725 11.6079 37.2475 11.7701C37.1225 11.9323 37.0533 12.1305 37.0501 12.3353C37.0469 12.54 37.11 12.7403 37.2299 12.9063C37.9719 13.9333 38.0297 15.9167 38.0164 17.5613C37.2408 17.0897 36.4555 16.6469 35.6782 16.2095C31.6677 13.9521 28.5 12.1687 28.5 7.59996C28.5 5.44868 29.2234 2.88558 30.2201 1.5063C30.34 1.34031 30.4031 1.14002 30.3999 0.935271C30.3967 0.730524 30.3275 0.532283 30.2025 0.37009C30.0775 0.207897 29.9034 0.0904336 29.7062 0.0352051C29.509 -0.0200234 29.2993 -0.0100611 29.1082 0.0636077C25.6975 1.379 23.1578 5.12616 21.9171 8.19929C21.8755 8.30379 20.9012 10.7871 20.9012 13.371C20.9089 14.999 21.4177 18.0067 21.9094 19.3308C22.4011 20.6885 23.0837 21.9693 23.9367 23.1345C22.4812 24.7934 21.1633 26.8935 20.1448 29.0118C18.2592 28.369 16.3915 26.9436 16.1448 24.6006C16.072 23.7132 16.0725 22.8213 16.1463 21.934C16.2449 20.8243 16.7288 18.404 17.0544 17.3907C17.1206 17.1844 17.1142 16.9617 17.0365 16.7595C16.9587 16.5573 16.8142 16.3877 16.6268 16.279C16.4395 16.1702 16.2206 16.1287 16.0064 16.1614C15.7923 16.1941 15.5957 16.299 15.4494 16.4587C14.7078 17.2699 12.8429 20.5607 12.4356 21.4565C11.21 24.1537 10.45 26.5896 10.45 30.4C10.45 34.8827 11.9508 39.2146 14.6757 42.5977C15.0213 43.0268 15.3843 43.4381 15.7649 43.8317L3.64277 47.5049C1.62011 47.6085 0 49.6968 0 52.25ZM7.33614 53.9857C7.51202 53.424 7.601 52.8386 7.6 52.25C7.6 50.8299 7.09828 49.5543 6.30563 48.6833L17.3925 45.3237C19.3998 46.955 21.7321 48.1392 24.2336 48.7973C24.223 48.8229 24.2128 48.8488 24.2027 48.8747L7.33614 53.9857ZM28.5 55.1C26.9285 55.1 25.65 53.3953 25.65 51.3C25.65 49.2046 26.9285 47.5 28.5 47.5C30.0715 47.5 31.35 49.2046 31.35 51.3C31.35 53.3953 30.0715 55.1 28.5 55.1ZM40.5056 45.5957L50.6944 48.6832C49.9017 49.5543 49.4 50.8299 49.4 52.25C49.399 52.8386 49.488 53.424 49.6639 53.9857L33.3841 49.0525C36.0068 48.5056 38.4534 47.318 40.5056 45.5957ZM39.7907 14.7326C41.4494 16.4085 42.9486 19.1322 43.7327 22.0951C43.735 22.104 43.7986 22.3444 43.8907 22.7453C43.6051 22.3327 43.2976 21.9356 42.9694 21.5559C42.0594 20.5198 41.03 19.595 39.9025 18.8009C39.9038 18.6095 39.9066 18.4083 39.9095 18.1997C39.9238 17.1134 39.9412 15.8911 39.7902 14.7328L39.7907 14.7326ZM22.8012 13.3665C22.8012 11.159 23.6745 8.92212 23.6809 8.90561C24.6413 6.52669 25.9371 4.76694 27.2027 3.57231C26.8129 4.87974 26.61 6.23571 26.6 7.59996C26.6 13.2795 30.7412 15.611 34.7463 17.8657C39.615 20.607 44.65 23.4412 44.65 32.3C44.65 36.1414 43.3139 39.7877 40.888 42.5674C40.0494 43.5288 39.0871 44.3748 38.0261 45.0832C38.4022 44.434 38.6989 43.742 38.91 43.022C38.9159 43.002 38.9213 42.9817 38.926 42.9612C41.0097 33.8246 35.7401 31.5167 35.5148 31.4229C35.3704 31.3628 35.2135 31.3394 35.0579 31.3545C34.9023 31.3697 34.7529 31.423 34.6228 31.5097C34.4928 31.5965 34.3861 31.714 34.3124 31.8519C34.2386 31.9897 34.2 32.1436 34.2 32.3C34.2 32.9685 34.063 35.15 32.3 35.15C29.675 35.15 28.5 30.8557 28.5 26.6C28.5 25.075 28.9763 22.4898 29.4025 21.1968C29.4568 21.0319 29.4649 20.8552 29.4259 20.686C29.3869 20.5167 29.3022 20.3615 29.181 20.237C29.0599 20.1125 28.907 20.0237 28.7389 19.98C28.5708 19.9364 28.394 19.9397 28.2276 19.9895C27.2409 20.2852 26.2489 20.9112 25.2915 21.7614C24.6261 20.8044 24.088 19.765 23.6906 18.6692C23.2732 17.5456 22.8077 14.7681 22.8012 13.3665ZM27.0574 22.7536C26.7967 24.0608 26.6 25.5295 26.6 26.6C26.6 29.439 27.0433 31.8996 27.8825 33.7156C29.1548 36.4715 30.987 37.05 32.3 37.05C34.2739 37.05 35.4279 35.7008 35.879 34.0265C36.9276 35.1606 38.1882 37.6182 37.0809 42.5076C36.3124 45.0458 34.5779 46.5814 31.7875 47.1916C30.9334 46.2071 29.775 45.6 28.5 45.6C27.3838 45.6 26.3566 46.0657 25.5448 46.8423C24.3541 46.3696 23.2941 45.7005 22.5218 44.9282C20.7964 43.2029 19.8349 39.9134 19.9496 36.1288C20.0127 34.0434 21.1919 30.7613 22.9534 27.7677C24.2606 25.5465 25.7069 23.7948 27.0574 22.7536ZM12.35 30.4C12.35 26.9171 13.015 24.7712 14.1649 22.2431C14.1831 22.2028 14.2041 22.1583 14.2277 22.1098C14.1697 23.0057 14.1789 23.9048 14.2552 24.7994C14.5417 27.5203 16.4693 29.7299 19.3743 30.7585C18.5812 32.7354 18.0942 34.6248 18.0504 36.0712C17.9425 39.6312 18.6822 42.7616 20.1098 44.9449C18.6081 43.9881 17.2725 42.7928 16.1555 41.4062C13.7015 38.3593 12.35 34.4506 12.35 30.4ZM5.7 52.25C5.7 53.824 4.84939 55.1 3.8 55.1C2.75061 55.1 1.9 53.824 1.9 52.25C1.9 50.6759 2.75061 49.4 3.8 49.4C4.84939 49.4 5.7 50.6759 5.7 52.25ZM55.1 52.25C55.1 53.824 54.2494 55.1 53.2 55.1C52.1506 55.1 51.3 53.824 51.3 52.25C51.3 50.6759 52.1506 49.4 53.2 49.4C54.2494 49.4 55.1 50.6759 55.1 52.25Z" fill="white"/>
</svg>
