<svg width="17" height="21" viewBox="0 0 17 21" fill="none" xmlns="http://www.w3.org/2000/svg">
<path d="M11.5909 8.5C11.5909 9.31976 11.2653 10.1059 10.6856 10.6856C10.1059 11.2653 9.31976 11.5909 8.5 11.5909C7.68024 11.5909 6.89405 11.2653 6.3144 10.6856C5.73474 10.1059 5.40909 9.31976 5.40909 8.5C5.40909 7.68024 5.73474 6.89405 6.3144 6.3144C6.89405 5.73474 7.68024 5.40909 8.5 5.40909C9.31976 5.40909 10.1059 5.73474 10.6856 6.3144C11.2653 6.89405 11.5909 7.68024 11.5909 8.5V8.5Z" stroke="white" stroke-width="1.5" stroke-linecap="round" stroke-linejoin="round"/>
<path d="M16.2273 8.5C16.2273 15.8584 8.5 20.0909 8.5 20.0909C8.5 20.0909 0.772727 15.8584 0.772727 8.5C0.772727 6.4506 1.58685 4.48514 3.03599 3.03599C4.48514 1.58685 6.4506 0.772727 8.5 0.772727C10.5494 0.772727 12.5149 1.58685 13.964 3.03599C15.4132 4.48514 16.2273 6.4506 16.2273 8.5V8.5Z" stroke="white" stroke-width="1.5" stroke-linecap="round" stroke-linejoin="round"/>
</svg>
