<svg width="20" height="30" viewBox="0 0 20 30" fill="none" xmlns="http://www.w3.org/2000/svg">
<path d="M19.5938 25.2536C19.3622 24.4449 18.7956 23.7661 18.0392 23.3902C18.8321 22.9947 19.6779 21.9291 19.6672 20.8885C19.6598 20.1608 19.1711 19.5288 18.4225 19.2784C18.1923 19.2013 17.9432 19.3255 17.8661 19.5558C17.789 19.786 17.9133 20.0352 18.1435 20.1122C18.4381 20.2108 18.7837 20.4756 18.788 20.8975C18.7946 21.5382 18.1774 22.3419 17.6421 22.6059C17.0142 22.9155 16.3474 22.9619 15.8647 22.9388C15.7673 22.4744 15.5224 22.0636 15.1815 21.7578C15.402 21.3289 15.7756 20.7752 16.3634 20.3835C16.4094 20.3529 16.4573 20.3236 16.5058 20.2966C16.7177 20.1781 16.7937 19.9103 16.6752 19.6984C16.5568 19.4863 16.289 19.4105 16.077 19.5289C16.0102 19.5662 15.9442 19.6066 15.8806 19.6488C15.9345 18.7645 15.4345 17.4992 14.528 16.9882C13.8458 16.6036 12.9898 16.757 12.3977 17.3698C11.8131 17.9747 11.5085 18.8048 11.5611 19.6478C11.3461 19.5056 11.0795 19.388 10.7877 19.3056V16.0244C10.7877 15.4902 10.6062 14.9645 10.2765 14.5442L8.73303 12.576V10.9864H9.04511C9.49723 10.9864 9.86512 10.6186 9.86512 10.1664V7.87703C9.86512 7.42491 9.49729 7.05702 9.04511 7.05702H7.43364V2.03979C7.43359 0.915027 6.51856 0 5.3938 0C4.26903 0 3.35401 0.915027 3.35401 2.03979V7.05714H1.74254C1.29042 7.05714 0.92253 7.42497 0.92253 7.87715V10.1665C0.92253 10.6187 1.29036 10.9865 1.74254 10.9865H2.05462V12.576L1.46891 13.3229C1.31908 13.514 1.35249 13.7904 1.54359 13.9402C1.73462 14.09 2.01095 14.0566 2.16084 13.8655L2.70024 13.1777H8.08735L9.58457 15.0869C9.79337 15.3531 9.90838 15.6861 9.90838 16.0245V19.1757C9.43861 19.1677 8.96756 19.2601 8.58051 19.4889C7.9064 19.8874 7.61114 20.7055 7.84585 21.5247C8.0775 22.3333 8.64399 23.0122 9.40046 23.3881C8.60759 23.7836 7.76179 24.8492 7.77246 25.8898C7.78049 26.6729 8.3414 27.3376 9.16815 27.544C9.40632 27.6035 9.64905 27.6327 9.89103 27.6327C9.89683 27.6327 9.90264 27.6324 9.90838 27.6324V28.1841C9.90838 28.7 9.48862 29.1198 8.97272 29.1198H1.81493C1.29898 29.1198 0.87927 28.7 0.87927 28.1841V24.7502H5.09918C5.66397 24.7502 6.12347 24.2907 6.12347 23.7259V18.5717C6.12347 18.0069 5.66397 17.5474 5.09918 17.5474H0.87927V16.0246C0.87927 15.8134 0.922237 15.6083 1.00694 15.4149C1.10436 15.1925 1.00301 14.9332 0.780616 14.8358C0.55822 14.7384 0.298894 14.8397 0.201529 15.0621C0.0678213 15.3674 0 15.6913 0 16.0245V28.184C0 29.1848 0.814204 29.999 1.81493 29.999H8.97266C9.97345 29.999 10.7876 29.1848 10.7876 28.184V27.4958C11.0583 27.4115 11.3186 27.2892 11.5591 27.1295C11.5052 28.0138 12.0052 29.2791 12.9117 29.7901C13.1622 29.9314 13.4362 30 13.712 30C14.187 30 14.6674 29.7962 15.042 29.4085C15.6266 28.8035 15.9311 27.9735 15.8786 27.1304C16.3108 27.4164 16.9503 27.6035 17.5864 27.6035C18.0378 27.6035 18.4872 27.5093 18.8591 27.2894C19.5332 26.891 19.8285 26.0728 19.5938 25.2536ZM4.23328 2.03979C4.23328 1.39986 4.75386 0.87927 5.3938 0.87927C6.03373 0.87927 6.55432 1.39986 6.55432 2.03979V7.05714H4.23328V2.03979ZM7.8537 12.2984H2.93395V10.9865H7.8537V12.2984ZM1.8018 10.1072V7.93641H8.98573V10.1072H1.8018ZM0.87927 18.4265H5.09918C5.17914 18.4265 5.2442 18.4916 5.2442 18.5715V23.7258C5.2442 23.8057 5.17914 23.8708 5.09918 23.8708H0.87927V18.4265ZM8.69106 21.2824C8.58889 20.9259 8.65343 20.4671 9.02788 20.2458C9.57947 19.9198 10.5841 20.0523 11.0804 20.3839C11.663 20.7732 12.0366 21.3282 12.258 21.758C11.917 22.0639 11.6721 22.4747 11.5748 22.9392C11.0932 22.9625 10.4274 22.9154 9.79513 22.6025C9.25766 22.3366 8.85525 21.8555 8.69106 21.2824ZM11.0762 26.3948C10.5773 26.7273 9.95938 26.8352 9.38105 26.6908C9.0212 26.601 8.65606 26.3157 8.65161 25.8808C8.64504 25.2401 9.26223 24.4364 9.79753 24.1724C10.4252 23.8629 11.0922 23.8163 11.5749 23.8392C11.6723 24.3037 11.9172 24.7145 12.2582 25.0204C12.0377 25.4494 11.6641 26.003 11.0762 26.3948ZM13.0298 17.9808C13.2875 17.7141 13.7173 17.5407 14.0961 17.7542C14.6542 18.0688 15.0417 19.0052 15.0026 19.6008C14.9568 20.2998 14.6634 20.9006 14.4021 21.3068C14.1872 21.2363 13.958 21.1975 13.7198 21.1975C13.4822 21.1975 13.2536 21.236 13.0392 21.3062C12.7774 20.8988 12.4836 20.2969 12.4386 19.597C12.4002 18.9985 12.6157 18.4095 13.0298 17.9808ZM14.4098 28.7975C14.1521 29.0642 13.7224 29.2377 13.3435 29.0241C12.7854 28.7095 12.3979 27.7731 12.437 27.1775C12.4828 26.4786 12.7763 25.8777 13.0375 25.4715C13.2524 25.542 13.4816 25.5808 13.7198 25.5808C13.9574 25.5808 14.186 25.5423 14.4003 25.4721C14.6622 25.8794 14.956 26.4812 15.001 27.1814C15.0394 27.7798 14.8239 28.3688 14.4098 28.7975ZM13.7198 24.7015C12.9961 24.7015 12.4074 24.1128 12.4074 23.3891C12.4074 22.6655 12.9961 22.0768 13.7198 22.0768C14.4434 22.0768 15.0321 22.6655 15.0321 23.3891C15.0321 24.1128 14.4434 24.7015 13.7198 24.7015ZM18.4117 26.5325C17.8601 26.8585 16.8555 26.726 16.3592 26.3943C15.7765 26.0049 15.4029 25.45 15.1816 25.0203C15.5225 24.7144 15.7674 24.3037 15.8647 23.8392C16.3463 23.8159 17.012 23.8629 17.6444 24.1757C18.1818 24.4417 18.5843 24.9228 18.7484 25.4958C18.8507 25.8524 18.7861 26.3112 18.4117 26.5325Z" fill="black"/>
</svg>
