<svg width="30" height="30" viewBox="0 0 30 30" fill="none" xmlns="http://www.w3.org/2000/svg">
<g clip-path="url(#clip0_119_7924)">
<path d="M0.827787 10.3594C1.05552 10.4691 1.31325 10.5245 1.58905 10.5245C1.74698 10.5245 1.91086 10.5064 2.07863 10.4698C3.08593 10.25 3.65402 9.47595 3.46039 8.58721C3.46039 8.58698 3.46039 8.58698 3.46039 8.58698L2.35237 3.50718L7.01103 2.49095L7.83226 6.25559C7.56996 6.20592 7.2747 6.21279 6.95633 6.28214C5.92659 6.50667 5.36354 7.24939 5.55557 8.1299C5.71739 8.87194 6.32896 9.32009 7.11265 9.32009C7.26761 9.32009 7.42965 9.30246 7.59605 9.2663C8.60336 9.04657 9.17167 8.27227 8.97781 7.38352C8.97781 7.38352 8.97781 7.38352 8.97781 7.38329L7.50129 0.613889C7.40974 0.193662 6.99295 -0.0736716 6.57226 0.0181099L1.72111 1.07623C1.51764 1.12063 1.34369 1.24148 1.23108 1.41658C1.11824 1.5919 1.0807 1.80064 1.1251 2.00412L2.31483 7.45928C2.05253 7.40961 1.75705 7.41625 1.4389 7.4856C0.97862 7.58608 0.600965 7.79139 0.347135 8.07909C0.0459264 8.42058 -0.0639369 8.86598 0.0381444 9.33336C0.139539 9.79822 0.419919 10.1626 0.827787 10.3594ZM7.4086 8.40753C7.20878 8.45102 6.54594 8.54669 6.41433 7.94268C6.29783 7.40892 6.82129 7.21117 7.14378 7.1409C7.25204 7.11733 7.36831 7.10085 7.48161 7.10085C7.76977 7.10085 8.03962 7.20682 8.11905 7.57051V7.57074C8.25088 8.17453 7.60864 8.36382 7.4086 8.40753ZM6.66359 0.897702L6.8238 1.63218L2.16514 2.64842L2.00493 1.91416L6.66359 0.897702ZM1.00631 8.66068C1.1338 8.51625 1.35399 8.40387 1.62636 8.34436C1.73462 8.32079 1.85089 8.30431 1.96418 8.30431C2.25235 8.30431 2.5222 8.41051 2.60162 8.77397V8.7742C2.73323 9.37822 2.09121 9.56751 1.89117 9.61099C1.62864 9.66821 1.38649 9.65288 1.20933 9.56751C1.04339 9.48763 0.941083 9.34961 0.896909 9.14614C0.85365 8.94838 0.88844 8.79412 1.00631 8.66068Z" fill="black"/>
<path d="M29.9336 21.9868C29.8496 21.7959 29.6962 21.6494 29.5021 21.5739L24.8735 19.7754C24.4722 19.6195 24.0195 19.8191 23.8636 20.2201L21.8405 25.4278C21.6464 25.2367 21.3958 25.0779 21.0974 24.9618C20.6581 24.7913 20.2301 24.7538 19.8593 24.8533C19.4197 24.9714 19.0823 25.2823 18.909 25.7281C18.7367 26.1717 18.7692 26.6304 19.0003 27.0195C19.2034 27.3612 19.5428 27.6322 19.982 27.8027C20.2464 27.9055 20.5059 27.9547 20.7506 27.9547C21.3956 27.9547 21.9351 27.6116 22.174 26.9968L24.0568 22.1505L28.5012 23.8774L27.1044 27.4729C26.9103 27.282 26.6599 27.1232 26.3612 27.0071C25.3788 26.6253 24.4992 26.9334 24.1728 27.7734C24.0005 28.217 24.033 28.6754 24.2644 29.0648C24.4674 29.4065 24.8068 29.6772 25.2458 29.848C25.5102 29.9505 25.77 30 26.0147 30C26.6596 30 27.1991 29.6566 27.4378 29.0419L29.9468 22.5837C30.0222 22.3894 30.0176 22.1775 29.9336 21.9868ZM20.3002 26.9833C20.0495 26.886 19.8561 26.7395 19.7559 26.5706C19.6618 26.412 19.6527 26.2406 19.7282 26.0465C19.8014 25.8577 19.9156 25.7485 20.0875 25.7023C20.1477 25.686 20.2143 25.678 20.2855 25.678C20.4341 25.678 20.6034 25.7128 20.779 25.7812C21.0356 25.8808 21.231 26.0229 21.3297 26.1815C21.4212 26.3287 21.429 26.4866 21.3546 26.6784C21.1308 27.2545 20.4911 27.0575 20.3002 26.9833ZM24.3749 21.3311L24.6471 20.6305L29.0917 22.3574L28.8196 23.058L24.3749 21.3311ZM25.564 29.0286C25.3134 28.9313 25.1202 28.7846 25.0199 28.6157C24.9256 28.4573 24.9167 28.2859 24.992 28.0918C25.1028 27.8068 25.3223 27.7203 25.5482 27.7203C25.7258 27.7203 25.9075 27.7739 26.0428 27.8265C26.2994 27.9261 26.4949 28.0682 26.5935 28.2268C26.6851 28.374 26.6928 28.5319 26.6184 28.7235C26.3946 29.2998 25.7549 29.1027 25.564 29.0286Z" fill="black"/>
<path d="M12.9064 27.9901C10.2042 29.9539 6.09185 29.3115 3.34047 26.4958C1.73578 24.8535 0.838788 22.6984 0.880215 20.5831C0.913174 18.8928 1.55496 17.3719 2.68724 16.3002C3.49359 15.5381 4.52195 15.024 5.66133 14.8134C7.20948 14.5276 8.58026 13.78 9.62533 12.6519C9.79036 12.4738 9.77983 12.1957 9.60176 12.0309C9.42369 11.8657 9.14582 11.8764 8.9808 12.0545C8.06504 13.0428 6.86227 13.6979 5.5018 13.9492C4.19534 14.1904 3.01339 14.7825 2.08322 15.6617C0.778363 16.8967 0.0390745 18.6383 0.00153784 20.5659C-0.0444674 22.9154 0.943615 25.3006 2.71196 27.1101C4.56132 29.0027 6.97854 30 9.27606 30C10.7727 30 12.219 29.5763 13.4229 28.7013C13.6193 28.5587 13.6628 28.2838 13.5202 28.0874C13.3774 27.891 13.1025 27.8475 12.9064 27.9901Z" fill="black"/>
<path d="M20.4956 19.1535C21.4141 18.2348 21.8531 17.0512 21.7645 15.7306C21.6945 14.6825 21.2967 13.569 20.6117 12.4907L23.4162 9.68626C23.5878 9.5146 23.5878 9.23628 23.4164 9.06485C23.2447 8.89318 22.9664 8.89318 22.795 9.06485L15.0189 16.8406C14.8516 16.4259 14.6015 16.045 14.2758 15.7193C13.9501 15.3936 13.5694 15.1433 13.1547 14.9762L22.3077 5.82251L24.1724 7.68721L24.1204 7.73916C23.9488 7.9106 23.9488 8.18892 24.1204 8.36058C24.2063 8.44641 24.3186 8.48921 24.4312 8.48921C24.5436 8.48921 24.6562 8.44641 24.7418 8.36058L24.8531 8.24957C24.9229 8.27154 24.9959 8.28321 25.0701 8.28321C25.0776 8.28321 25.0852 8.28299 25.0927 8.28276C25.293 8.27658 25.4836 8.18663 25.6159 8.03625L26.0824 7.50662L26.5825 8.00673C26.6683 8.09256 26.7809 8.13559 26.8933 8.13559C27.0057 8.13559 27.1183 8.09256 27.2041 8.00673C27.3758 7.83506 27.3758 7.55697 27.2041 7.38531L26.6644 6.84561L27.3985 6.01202L27.9208 6.53433C28.0066 6.62016 28.1192 6.66296 28.2316 6.66296C28.344 6.66296 28.4566 6.62016 28.5424 6.53433C28.7141 6.36267 28.7141 6.08435 28.5424 5.91269L27.9805 5.35101L28.709 4.52383L29.0874 4.9024C29.1732 4.98823 29.2858 5.03104 29.3982 5.03104C29.5106 5.03104 29.6232 4.98823 29.709 4.9024C29.8807 4.73074 29.8807 4.45242 29.709 4.28076L29.2909 3.86282L29.8182 3.26407C30.0714 2.97659 30.0576 2.5392 29.7868 2.26821L27.7317 0.213078C27.4607 -0.0579174 27.0233 -0.0716503 26.7359 0.181493L26.1369 0.709065L25.7185 0.290898C25.5468 0.119466 25.2685 0.119466 25.0971 0.291127C24.9254 0.462788 24.9256 0.741108 25.0973 0.912769L25.4759 1.29111L24.6489 2.01918L24.082 1.45247C23.9105 1.28081 23.6322 1.28081 23.4606 1.45247C23.2889 1.6239 23.2889 1.90222 23.4606 2.07389L23.9881 2.60123L23.1543 3.33548L22.6148 2.79601C22.4434 2.62435 22.1651 2.62435 21.9934 2.79601C21.8218 2.96767 21.8218 3.24599 21.9934 3.41742L22.4935 3.91753L21.9637 4.38399C21.8135 4.51628 21.7238 4.70694 21.7174 4.90721C21.7149 4.98618 21.7259 5.06445 21.7483 5.13907L17.5092 9.37841C15.0386 7.79089 12.5507 7.78151 10.9538 9.37864C10.5427 9.7888 10.228 10.1893 9.99155 10.6029C9.87093 10.8137 9.94417 11.0822 10.1547 11.2026C10.2236 11.242 10.2985 11.2607 10.3726 11.2607C10.5251 11.2607 10.6734 11.1811 10.7544 11.0392C10.9517 10.6945 11.2197 10.3548 11.575 10.0003C13.3218 8.25323 15.715 9.32051 16.8704 10.0172L12.1451 14.7427C12.0618 14.7365 11.978 14.7324 11.8936 14.7324C10.9938 14.7324 10.1476 15.0828 9.51135 15.7193C8.87483 16.3556 8.52441 17.2018 8.52441 18.1018C8.52441 19.0017 8.87483 19.8479 9.51135 20.4842C10.1476 21.1205 10.9938 21.4711 11.8936 21.4711C12.7935 21.4711 13.6397 21.1205 14.276 20.4842C14.9123 19.8479 15.2627 19.0017 15.2627 18.1018C15.2627 18.0173 15.2586 17.9335 15.2524 17.8502L19.9722 13.1305C20.6616 14.292 21.7016 16.7047 19.874 18.5323C19.5863 18.8207 19.2576 19.067 18.8973 19.2643C16.8992 20.3572 15.5774 22.156 15.1757 24.3292C15.0084 25.2365 14.6587 26.0568 14.1359 26.7677C13.9922 26.9634 14.0341 27.2385 14.2295 27.3822C14.308 27.4399 14.3991 27.4676 14.4895 27.4676C14.6246 27.4676 14.7578 27.4056 14.8438 27.2884C15.446 26.4695 15.8484 25.5276 16.04 24.4887C16.3927 22.5805 17.5572 20.999 19.3192 20.0351C19.7529 19.7976 20.1489 19.5009 20.4956 19.1535ZM27.2103 0.934742L29.065 2.78937L25.0625 7.33473L22.6654 4.93719L27.2103 0.934742ZM13.6543 19.8626C13.184 20.3329 12.5587 20.592 11.8936 20.592C11.2284 20.592 10.6031 20.3329 10.1328 19.8626C9.66241 19.3922 9.40332 18.7669 9.40332 18.1018C9.40332 17.4364 9.66241 16.8111 10.1328 16.3408C10.6029 15.8704 11.2284 15.6113 11.8936 15.6113C12.5587 15.6113 13.184 15.8704 13.6543 16.3408C14.1245 16.8111 14.3836 17.4364 14.3836 18.1018C14.3836 18.7669 14.1247 19.3922 13.6543 19.8626Z" fill="black"/>
<path d="M3.73872 19.6181C3.14569 20.2112 3.14569 21.1763 3.73872 21.7694L8.22595 26.2568C8.52258 26.5532 8.91214 26.7015 9.30146 26.7015C9.69102 26.7015 10.0806 26.5532 10.3772 26.2566C10.9702 25.6636 10.9702 24.6986 10.3772 24.1053L5.88998 19.6179C5.60273 19.3306 5.22073 19.1725 4.81446 19.1725C4.4082 19.1725 4.0262 19.3309 3.73872 19.6181ZM9.75557 24.727C10.006 24.9774 10.006 25.3848 9.75557 25.6352C9.5054 25.8856 9.09799 25.8858 8.84736 25.6352L4.36036 21.148C4.10997 20.8976 4.10997 20.4899 4.36036 20.2395C4.48144 20.1185 4.6428 20.0514 4.81446 20.0514C4.9859 20.0514 5.14726 20.1182 5.26857 20.2395L9.75557 24.727Z" fill="black"/>
<path d="M22.09 9.27747C22.2023 9.27747 22.3149 9.23467 22.4008 9.14884C22.5722 8.97717 22.5722 8.69886 22.4008 8.52742L21.4633 7.58969C21.2916 7.41826 21.0133 7.41826 20.8416 7.58969C20.67 7.76136 20.67 8.03968 20.8416 8.21134L21.7791 9.14884C21.865 9.23467 21.9776 9.27747 22.09 9.27747Z" fill="black"/>
<path d="M20.7909 10.5764C20.9035 10.5764 21.0159 10.5336 21.1017 10.4478C21.2734 10.2761 21.2734 9.99781 21.1017 9.82637L20.1642 8.88865C19.9926 8.71721 19.7145 8.71721 19.5428 8.88865C19.3711 9.06031 19.3711 9.33863 19.5428 9.51029L20.4803 10.4478C20.5661 10.5336 20.6785 10.5764 20.7909 10.5764Z" fill="black"/>
<path d="M19.4923 11.8753C19.6047 11.8753 19.7171 11.8325 19.8029 11.7467C19.9746 11.575 19.9746 11.2967 19.8029 11.125L18.8654 10.1875C18.6937 10.0159 18.4156 10.0159 18.244 10.1875C18.0723 10.3592 18.0723 10.6375 18.244 10.8089L19.1815 11.7467C19.2673 11.8325 19.3797 11.8753 19.4923 11.8753Z" fill="black"/>
<path d="M18.1932 13.1742C18.3056 13.1742 18.4182 13.1314 18.5041 13.0456C18.6757 12.8739 18.6757 12.5956 18.5041 12.4239L17.5666 11.4864C17.3949 11.3148 17.1166 11.3148 16.9452 11.4864C16.7735 11.6581 16.7735 11.9364 16.9452 12.1078L17.8827 13.0456C17.9685 13.1314 18.0809 13.1742 18.1932 13.1742Z" fill="black"/>
<path d="M15.6463 12.7853C15.4747 12.957 15.4747 13.2353 15.6463 13.4069L16.5838 14.3444C16.6697 14.4303 16.782 14.4731 16.8946 14.4731C17.007 14.4731 17.1194 14.4303 17.2052 14.3444C17.3769 14.1728 17.3769 13.8945 17.2052 13.7228L16.2677 12.7853C16.0961 12.6136 15.818 12.6136 15.6463 12.7853Z" fill="black"/>
<path d="M24.4699 4.48495C24.2982 4.31329 24.0201 4.31329 23.8485 4.48495C23.6768 4.65661 23.6768 4.9347 23.8485 5.10636C24.0201 5.27802 24.2982 5.27802 24.4699 5.10636C24.6415 4.9347 24.6415 4.65661 24.4699 4.48495Z" fill="black"/>
<path d="M25.5237 5.52981C25.352 5.35815 25.0737 5.35815 24.902 5.52981C24.7306 5.70124 24.7306 5.97956 24.902 6.15122C25.0737 6.32288 25.352 6.32288 25.5237 6.15122C25.6951 5.97956 25.6951 5.70124 25.5237 5.52981Z" fill="black"/>
<path d="M25.7892 3.16409C25.6176 2.99242 25.3392 2.99242 25.1678 3.16409C24.9961 3.33575 24.9961 3.61407 25.1678 3.7855C25.3392 3.95716 25.6176 3.95716 25.7892 3.7855C25.9609 3.61407 25.9609 3.33575 25.7892 3.16409Z" fill="black"/>
<path d="M26.8439 4.21004C26.6722 4.03838 26.3939 4.03838 26.2225 4.21004C26.0508 4.38171 26.0508 4.66003 26.2225 4.83146C26.3939 5.00312 26.6722 5.00312 26.8439 4.83146C27.0156 4.66003 27.0156 4.38171 26.8439 4.21004Z" fill="black"/>
<path d="M27.1086 1.84457C26.9369 1.67291 26.6588 1.67291 26.4871 1.84457C26.3155 2.01623 26.3155 2.29432 26.4871 2.46598C26.6588 2.63764 26.9369 2.63764 27.1086 2.46598C27.2802 2.29432 27.2802 2.01623 27.1086 1.84457Z" fill="black"/>
<path d="M28.1632 2.89034C27.9916 2.71868 27.7133 2.71868 27.5418 2.89034C27.3702 3.06177 27.3702 3.34009 27.5418 3.51176C27.7133 3.68342 27.9916 3.68342 28.1632 3.51176C28.3349 3.34009 28.3349 3.06177 28.1632 2.89034Z" fill="black"/>
</g>
<defs>
<clipPath id="clip0_119_7924">
<rect width="30" height="30" fill="white"/>
</clipPath>
</defs>
</svg>
