<svg width="45" height="45" viewBox="0 0 45 45" fill="none" xmlns="http://www.w3.org/2000/svg">
<g clip-path="url(#clip0_45_231)">
<path d="M3.74219 34.5068C1.68216 31.1575 0.494019 27.2145 0.494019 22.994C0.494019 10.8404 10.3464 0.988037 22.5 0.988037C34.6536 0.988037 44.506 10.8404 44.506 22.994C44.506 27.2145 43.3178 31.1575 41.2578 34.5068C35.4909 33.3976 29.1526 32.7844 22.5 32.7844C15.8474 32.7844 9.50911 33.3976 3.74219 34.5068Z" fill="#024C67"/>
<path d="M16.5718 6.28742C16.5718 6.7835 16.1697 7.18563 15.6736 7.18563C15.1775 7.18563 14.7754 6.7835 14.7754 6.28742C14.7754 5.79135 15.1775 5.38922 15.6736 5.38922C16.1697 5.38922 16.5718 5.79135 16.5718 6.28742Z" fill="#3691BB"/>
<path d="M30.9431 5.38923C30.9431 5.88531 30.541 6.28743 30.0449 6.28743C29.5489 6.28743 29.1467 5.88531 29.1467 5.38923C29.1467 4.89315 29.5489 4.49103 30.0449 4.49103C30.541 4.49103 30.9431 4.89315 30.9431 5.38923Z" fill="#FFF5F5"/>
<path d="M41.7215 17.9641C41.7215 18.4601 41.3194 18.8623 40.8233 18.8623C40.3272 18.8623 39.9251 18.4601 39.9251 17.9641C39.9251 17.468 40.3272 17.0659 40.8233 17.0659C41.3194 17.0659 41.7215 17.468 41.7215 17.9641ZM4.89515 13.4731C4.39907 13.4731 3.99695 13.8752 3.99695 14.3713C3.99695 14.8673 4.39907 15.2695 4.89515 15.2695C5.39123 15.2695 5.79336 14.8673 5.79336 14.3713C5.79336 13.8752 5.39123 13.4731 4.89515 13.4731Z" fill="#FDF061"/>
<path d="M36.8217 35.04C37.6222 28.9538 39.3207 20.3245 41.2867 20.3245C42.3887 20.3245 43.4067 23.0361 44.2296 26.4914C43.8114 29.1103 42.931 31.5751 41.6749 33.7994C41.0597 34.8887 39.8408 35.4936 38.6047 35.3008C38.0153 35.209 37.421 35.122 36.8217 35.04ZM6.69153 35.2551C6.6742 31.9123 4.54052 15.8547 1.88219 15.285C0.984707 17.6841 0.494019 20.2818 0.494019 22.994C0.494019 26.9147 1.51941 30.5959 3.31653 33.784C3.94159 34.893 5.19818 35.4867 6.45611 35.2914C6.53444 35.2792 6.61294 35.2672 6.69153 35.2551Z" fill="#025F80"/>
<path d="M39.7455 33.5273V33.5525C39.742 34.868 38.393 35.9281 36.7478 35.9281H29.9888C28.5822 35.9281 27.3923 35.1533 27.0744 34.1065C26.9169 34.1231 26.7564 34.1317 26.5935 34.1317H18.4066C18.2436 34.1317 18.0831 34.1231 17.9257 34.1065C17.6078 35.1533 16.4178 35.9281 15.0113 35.9281H8.25227C6.60703 35.9281 5.25802 34.868 5.25452 33.5525C5.25452 33.5441 5.25452 33.5357 5.25452 33.5273C5.25452 29.2662 8.10973 7.74961 11.6318 7.74961C13.3813 7.74961 14.9663 13.0585 16.1185 18.9245C17.5096 10.0654 19.8488 0 22.5 0C25.1513 0 27.4904 10.0654 28.8816 18.9245C30.0338 13.0585 31.6188 7.74961 33.3683 7.74961C36.8903 7.74961 39.7455 29.2662 39.7455 33.5273Z" fill="#22B27F"/>
<path d="M23.6237 0.592096C20.0636 7.40892 17.453 27.879 17.453 32.5721V32.6054C17.4545 33.1499 17.6297 33.6614 17.9363 34.1076C16.1629 33.9244 14.7793 32.7203 14.7755 31.2542C14.7755 31.244 14.7755 31.2339 14.7755 31.2237C14.7755 26.0623 18.2339 0 22.5 0C22.8817 0 23.2569 0.208563 23.6237 0.592096ZM22.5 9.88024C22.0039 9.88024 21.6018 10.2824 21.6018 10.7784V34.1317H23.3982V10.7784C23.3982 10.2824 22.9961 9.88024 22.5 9.88024ZM29.2015 34.6406C29.2015 30.7661 31.3568 13.8663 34.296 8.2385C33.9931 7.92189 33.6834 7.7497 33.3683 7.7497C29.8463 7.7497 26.991 29.2663 26.991 33.5274V33.5526C26.9943 34.763 28.1365 35.7571 29.6006 35.9084C29.3474 35.54 29.2027 35.1178 29.2015 34.6682C29.2015 34.6589 29.2015 34.6497 29.2015 34.6406ZM33.3683 15.9066C32.9587 15.9066 32.6267 16.2385 32.6267 16.6481V35.9281H34.1098V16.6481C34.1098 16.2385 33.7779 15.9066 33.3683 15.9066ZM11.6318 7.74961C8.10973 7.74961 5.25452 29.2662 5.25452 33.5273V33.5525C5.25775 34.7629 6.4 35.757 7.86407 35.9083C7.61086 35.5399 7.46616 35.1177 7.465 34.6681C7.465 34.659 7.465 34.6497 7.465 34.6406C7.465 30.7661 9.62024 13.8663 12.5594 8.2385C12.2566 7.9218 11.9469 7.74961 11.6318 7.74961ZM11.6318 15.9066C11.2222 15.9066 10.8902 16.2385 10.8902 16.6481V31.0334L12.3733 35.9281V16.6481C12.3733 16.2385 12.0413 15.9066 11.6318 15.9066Z" fill="#059B7E"/>
<path d="M41.6921 33.769C41.3887 34.3082 41.0633 34.8333 40.717 35.3431L33.1525 27.5582C32.8068 27.2026 32.8149 26.6339 33.1708 26.2882C33.5266 25.9425 34.0905 25.9515 34.4362 26.3072L41.6921 33.769ZM11.8352 26.2883C11.4794 25.9426 10.9108 25.9507 10.5652 26.3065L3.31018 33.7728C3.61359 34.3119 3.93919 34.837 4.28554 35.3467L11.8535 27.5583C12.1991 27.2026 12.191 26.6339 11.8352 26.2883Z" fill="#CFF09A"/>
<path d="M23.1352 15.0064L34.735 26.6062C34.9474 26.8186 35.0395 27.1231 34.9807 27.4175L33.4229 35.2061C33.3389 35.6259 32.9703 35.9281 32.5421 35.9281H12.4579C12.0298 35.9281 11.6612 35.6259 11.5772 35.2061L10.0194 27.4175C9.96049 27.123 10.0527 26.8186 10.2651 26.6062L21.8649 15.0064C22.2157 14.6556 22.7844 14.6556 23.1352 15.0064Z" fill="#FCB30B"/>
<path d="M27.8781 33.9457H17.122C16.7906 33.9457 16.5733 33.599 16.7179 33.3007L22.0959 22.2047C22.2596 21.867 22.7405 21.867 22.9042 22.2047L28.2822 33.3007C28.4267 33.599 28.2095 33.9457 27.8781 33.9457Z" fill="#FC5426"/>
<path d="M19.7161 33.9457H17.1219C16.7905 33.9457 16.5732 33.599 16.7177 33.3007L22.0957 22.2047C22.2594 21.867 22.7404 21.867 22.904 22.2047L23.7969 24.047L19.3118 33.3006C19.1674 33.599 19.3847 33.9457 19.7161 33.9457Z" fill="#E55920"/>
<path d="M14.149 35.9281H12.4579C12.0298 35.9281 11.6612 35.6259 11.5772 35.2061L10.0194 27.4175C9.96049 27.123 10.0527 26.8186 10.2651 26.6062L21.8649 15.0064C22.2157 14.6556 22.7844 14.6556 23.1352 15.0064L24.2522 16.1234L18.4876 21.888C14.8086 25.5668 13.1882 30.8228 14.149 35.9281Z" fill="#FD9D01"/>
<path d="M3.4707 34.0533C9.32196 32.9469 15.7518 32.3353 22.5 32.3353C29.2482 32.3353 35.678 32.9469 41.5292 34.0533C39.9992 36.6803 37.9407 38.9616 35.4996 40.7518C31.3594 40.2424 27.0005 39.9703 22.5 39.9703C17.9994 39.9703 13.6404 40.2424 9.50034 40.7518C7.05912 38.9616 5.0007 36.6803 3.4707 34.0533Z" fill="#509C49"/>
<path d="M19.5639 40.3725C20.879 40.1989 22.2076 40.0422 23.5487 39.9031C27.5516 40.1007 31.4448 40.4619 35.1944 40.9716C37.7694 39.1499 39.9358 36.7891 41.5292 34.0533C37.2676 33.2475 32.6991 32.7041 27.9242 32.4684C26.6354 32.6021 25.3617 32.7572 24.105 32.9327C22.8254 33.1115 21.7887 33.6409 21.008 34.3789C20.4188 34.936 20.8171 35.9281 21.628 35.9281H21.9302C22.4086 35.9281 22.8264 36.2892 22.8573 36.7665C22.8911 37.2896 22.4769 37.7246 21.961 37.7246H20.1659C19.6681 37.7246 19.2594 38.1294 19.2673 38.6271C19.2768 39.219 19.3748 39.8094 19.5639 40.3725ZM34.5359 34.1317H36.3323C36.8284 34.1317 37.2305 34.5339 37.2305 35.0299C37.2305 35.526 36.8284 35.9281 36.3323 35.9281H34.5359C34.0398 35.9281 33.6377 35.526 33.6377 35.0299C33.6377 34.5339 34.0398 34.1317 34.5359 34.1317ZM25.5539 34.1317H27.3503C27.8463 34.1317 28.2485 34.5339 28.2485 35.0299C28.2485 35.526 27.8463 35.9281 27.3503 35.9281H25.5539C25.0578 35.9281 24.6556 35.526 24.6556 35.0299C24.6556 34.5339 25.0578 34.1317 25.5539 34.1317Z" fill="#7ECD00"/>
<path d="M8.23792 39.7533C9.07863 39.7212 9.86887 39.4918 10.5636 39.1104C11.9648 38.341 13.6745 38.341 15.0757 39.1104C15.8267 39.5227 16.6891 39.7573 17.6064 39.7573C18.5236 39.7573 19.3861 39.5227 20.137 39.1104C21.5382 38.341 23.2479 38.341 24.6491 39.1104C25.4001 39.5227 26.2625 39.7573 27.1798 39.7573C28.097 39.7573 28.9595 39.5227 29.7105 39.1104C31.1117 38.341 32.8213 38.341 34.2225 39.1104C34.9735 39.5227 35.8359 39.7573 36.7532 39.7573H36.7575C32.917 43.0268 27.9388 45 22.5 45C17.0588 45 12.079 43.0252 8.23792 39.7533Z" fill="#0680AE"/>
<path d="M36.7573 39.7573C33.8803 42.2066 30.3649 43.9283 26.4955 44.6381C25.3373 44.4539 24.2066 44.1786 23.1118 43.819C20.8734 43.084 19.6429 41.3455 19.3407 39.4649C19.6173 39.3684 19.8835 39.2495 20.137 39.1104C21.5382 38.341 23.2478 38.341 24.649 39.1104C25.4 39.5227 26.2624 39.7573 27.1797 39.7573C28.0969 39.7573 28.9594 39.5227 29.7104 39.1104C31.1116 38.341 32.8212 38.341 34.2224 39.1104C34.9734 39.5227 35.8358 39.7573 36.7531 39.7573H36.7573Z" fill="#08A8F0"/>
<path d="M17.4701 35.0299C17.4701 35.526 17.068 35.9282 16.5719 35.9282H14.7755C14.2794 35.9282 13.8773 35.526 13.8773 35.0299C13.8773 34.5339 14.2794 34.1317 14.7755 34.1317H16.5719C17.068 34.1317 17.4701 34.5339 17.4701 35.0299ZM10.2845 35.9282H8.48805C7.99197 35.9282 7.58984 36.3303 7.58984 36.8264C7.58984 37.3224 7.99197 37.7246 8.48805 37.7246H10.2845C10.7805 37.7246 11.1827 37.3224 11.1827 36.8264C11.1827 36.3303 10.7805 35.9282 10.2845 35.9282Z" fill="#387232"/>
<path d="M35.4608 33.7742C35.1484 34.7645 34.5186 35.4698 33.9824 35.4751C33.9351 35.4412 33.8917 35.4001 33.8521 35.3522C33.6582 35.6192 33.4326 35.8051 33.1886 35.8848C32.9445 35.8052 32.719 35.6192 32.5251 35.3522C32.4856 35.4001 32.4421 35.4412 32.3947 35.4751C31.8586 35.4698 31.2288 34.7646 30.9164 33.7742C30.604 32.7838 30.7151 31.8448 31.1513 31.5329C31.3948 31.5352 31.6575 31.682 31.9011 31.9342C32.0682 30.7749 32.5686 29.8865 33.1886 29.6842C33.8086 29.8865 34.3089 30.7749 34.4761 31.9342C34.7197 31.682 34.9824 31.5352 35.2259 31.5329C35.6621 31.8448 35.7732 32.7838 35.4608 33.7742Z" fill="#FDE803"/>
<path d="M35.4608 33.7742C35.3115 34.2474 35.0897 34.6556 34.8404 34.9533C33.6378 34.6378 32.7395 33.3844 32.7395 31.8862C32.7395 31.0836 32.9974 30.3512 33.4217 29.7957C33.932 30.1198 34.3305 30.9242 34.4761 31.9343C34.7197 31.6821 34.9824 31.5353 35.2259 31.533C35.6621 31.8448 35.7732 32.7838 35.4608 33.7742Z" fill="#FDF061"/>
<path d="M36.4239 37.2772C36.234 37.7355 35.7087 37.9531 35.2503 37.7633L33.0757 36.8625L30.4887 37.78C30.0212 37.9458 29.5078 37.7012 29.3419 37.2337C29.1761 36.7661 29.4207 36.2528 29.8882 36.0869L30.7483 35.7818C30.547 35.5341 30.4844 35.1866 30.6151 34.871C30.805 34.4126 31.3304 34.1951 31.7887 34.3848L33.1256 34.9387L34.1209 34.5857C34.5884 34.4199 35.1019 34.6645 35.2677 35.132C35.3498 35.3634 35.3312 35.6061 35.2349 35.8124L35.9379 36.1036C36.3962 36.2934 36.6138 36.8189 36.4239 37.2772Z" fill="#AA695D"/>
<path d="M35.2349 35.8124L34.3652 35.4521L34.4213 35.4322C34.7346 35.3211 34.9478 35.0538 35.0044 34.7489C35.1206 34.8479 35.2131 34.9778 35.2677 35.132C35.3498 35.3635 35.3312 35.6061 35.2349 35.8124ZM36.4848 36.8163C36.2386 37.0049 35.9013 37.0607 35.5941 36.9334L31.445 35.2147C31.1378 35.0874 30.9388 34.8095 30.8981 34.5021C30.7769 34.5949 30.6777 34.7198 30.6151 34.871C30.4252 35.3293 30.6429 35.8547 31.1012 36.0446L31.8362 36.3491L30.1885 36.9334C29.8751 37.0445 29.5412 36.9713 29.3051 36.7702C29.2772 36.9202 29.2872 37.0795 29.3419 37.2337C29.5077 37.7012 30.0211 37.9458 30.4887 37.78L33.0757 36.8625L35.2504 37.7633C35.7087 37.9532 36.2341 37.7355 36.424 37.2772C36.4866 37.126 36.5049 36.9676 36.4848 36.8163Z" fill="#5A443D"/>
<path d="M30.4887 37.78C30.0212 37.9458 29.5078 37.7012 29.3419 37.2337C29.1761 36.7662 29.4207 36.2528 29.8882 36.087C30.3557 35.9211 30.8692 36.1657 31.035 36.6332C31.2008 37.1007 30.9562 37.6142 30.4887 37.78ZM35.2503 37.7633C35.7086 37.9532 36.234 37.7355 36.4239 37.2772C36.6138 36.8189 36.3962 36.2935 35.9378 36.1036C35.4795 35.9137 34.9541 36.1313 34.7642 36.5897C34.5744 37.0479 34.7921 37.5734 35.2503 37.7633Z" fill="#FFF2B4"/>
<path d="M30.0384 36.5101C30.2722 36.4272 30.5289 36.5495 30.6118 36.7832C30.6947 37.017 30.5723 37.2737 30.3386 37.3566C30.1048 37.4395 29.8481 37.3173 29.7652 37.0835C29.6823 36.8498 29.8046 36.5931 30.0384 36.5101ZM35.766 36.5185C35.5369 36.4236 35.2742 36.5324 35.1792 36.7616C35.0843 36.9907 35.1932 37.2534 35.4223 37.3484C35.6514 37.4433 35.9141 37.3344 36.0091 37.1053C36.104 36.8762 35.9952 36.6134 35.766 36.5185Z" fill="#F1CA50"/>
</g>
<defs>
<clipPath id="clip0_45_231">
<rect width="45" height="45" fill="white"/>
</clipPath>
</defs>
</svg>
