<svg width="20" height="30" viewBox="0 0 20 30" fill="none" xmlns="http://www.w3.org/2000/svg">
<path d="M17.5474 12.8274C16.6803 12.8274 15.9512 13.4307 15.7541 14.2408H11.8332V12.8983C12.6264 12.7268 13.2521 12.1011 13.4236 11.3079H14.4863C14.6645 11.3079 14.825 11.2003 14.8928 11.0356L17.4866 4.72914C17.6078 4.44244 17.3885 4.1125 17.0759 4.11742H14.4249C14.1821 4.11742 13.9854 4.31418 13.9854 4.55687C13.9854 4.79957 14.1821 4.99633 14.4249 4.99633H16.4263L14.1919 10.429H13.4708V10.0629C13.4708 9.5043 13.1081 9.0291 12.606 8.85959C13.0202 7.72269 13.0398 6.35008 12.6424 5.06746C12.2035 3.65072 11.0473 1.63029 8.03183 0.0501937C7.88494 -0.0267399 7.70734 -0.0144938 7.5724 0.0818343C7.43752 0.178162 7.36832 0.342225 7.39345 0.506053C7.59625 1.82775 7.01365 2.72992 6.33906 3.77459C5.51716 5.0473 4.59519 6.47775 5.22642 8.79678C4.56976 8.84482 4.05004 9.39414 4.05004 10.0629V10.429H3.32892L1.09451 4.99633H3.09601C3.33877 4.99633 3.53547 4.79957 3.53547 4.55687C3.53547 4.31418 3.33877 4.11742 3.09601 4.11742H0.445056C0.133337 4.11279 -0.08803 4.44244 0.0341966 4.72908L2.62808 11.0356C2.69588 11.2003 2.85636 11.3079 3.03455 11.3079H4.09726C4.26883 12.1011 4.89449 12.7267 5.68761 12.8983V17.0661H3.32851C1.7967 17.0661 0.550525 18.3123 0.550525 19.8441V27.226C0.253044 27.3874 0.0506028 27.7025 0.0506028 28.064V29.0473C0.0506028 29.5726 0.477985 30 1.00328 30H16.5176C17.0429 30 17.4703 29.5726 17.4703 29.0473V28.0641C17.4703 27.7026 17.2678 27.3875 16.9704 27.2261V19.8442C16.9704 18.3123 15.7241 17.0661 14.1924 17.0661H11.8332V15.1198H15.754C15.951 15.9309 16.6801 16.5349 17.5473 16.5349C18.5663 16.5349 19.3952 15.7029 19.3952 14.6804C19.3953 13.6587 18.5663 12.8274 17.5474 12.8274ZM7.07746 4.25142C7.65742 3.3533 8.25355 2.43021 8.30933 1.21598C10.55 2.58103 11.4476 4.18053 11.8029 5.32762C12.1732 6.52281 12.1262 7.79658 11.6857 8.79303H10.8994C11.1161 7.84885 11.0169 6.94721 10.6022 6.15695C10.1283 5.25379 9.41804 4.79482 9.19843 4.66908C9.18408 4.66053 9.16926 4.65291 9.15408 4.64605C9.09607 4.61986 9.03484 4.60732 8.97426 4.60732C8.97396 4.60732 8.97361 4.60726 8.97343 4.60732C8.91314 4.60732 8.85209 4.61974 8.79426 4.64576C8.77896 4.65256 8.76408 4.66029 8.74961 4.66885C8.52982 4.79435 7.81896 5.25273 7.34476 6.15701C6.93039 6.94709 6.83136 7.84873 7.04822 8.79297H6.14066C5.48904 6.71347 6.26107 5.51564 7.07746 4.25142ZM7.95543 8.79297C7.43582 6.97299 8.49402 5.93646 8.97361 5.57517C9.45308 5.93693 10.5112 6.97463 9.99232 8.79297H7.95543ZM4.929 10.8685V10.0629C4.929 9.8473 5.10437 9.67193 5.32 9.67193H5.82349C5.82402 9.67193 5.82449 9.67205 5.82496 9.67205C5.82584 9.67205 5.82672 9.67193 5.82759 9.67193H10.3098C10.3107 9.67193 10.3116 9.67205 10.3125 9.67205C10.313 9.67205 10.3135 9.67193 10.3139 9.67193H11.963H11.9679H12.201C12.4166 9.67193 12.592 9.84736 12.592 10.0629V10.8685C12.592 11.5292 12.0544 12.0667 11.3938 12.0667H6.12707C5.46642 12.0667 4.929 11.5292 4.929 10.8685ZM16.0915 19.8442V21.1537H9.75947C9.51672 21.1537 9.32002 21.3504 9.32002 21.5931C9.32002 21.8358 9.51672 22.0326 9.75947 22.0326H16.0915V27.1114H9.85914C9.61638 27.1114 9.41968 27.3082 9.41968 27.5509C9.41968 27.7936 9.61638 27.9903 9.85914 27.9903H16.5177C16.5577 27.9903 16.5914 28.0241 16.5914 28.0641V29.0474C16.5914 29.0874 16.5577 29.1211 16.5177 29.1211H1.00328C0.963259 29.1211 0.929509 29.0873 0.929509 29.0474V28.0641C0.929509 28.0241 0.963259 27.9903 1.00328 27.9903H7.7299C7.97265 27.9903 8.16935 27.7936 8.16935 27.5509C8.16935 27.3082 7.97265 27.1114 7.7299 27.1114H1.42949V22.0326H7.7299C7.97265 22.0326 8.16935 21.8358 8.16935 21.5931C8.16935 21.3504 7.97265 21.1537 7.7299 21.1537H1.42949V19.8442C1.42949 18.797 2.28144 17.945 3.32857 17.945H6.12713H11.3938H14.1924C15.2396 17.945 16.0915 18.797 16.0915 19.8442ZM6.56658 17.0661V12.9456H10.9544V17.0661H6.56658ZM17.5474 15.6559C17.014 15.6559 16.5801 15.2182 16.5801 14.6803C16.5801 14.1432 17.014 13.7063 17.5474 13.7063C18.0817 13.7063 18.5164 14.1432 18.5164 14.6803C18.5164 15.2183 18.0817 15.6559 17.5474 15.6559Z" fill="#1C231F"/>
</svg>
