<svg width="27" height="27" viewBox="0 0 27 27" fill="none" xmlns="http://www.w3.org/2000/svg">
<g clip-path="url(#clip0_127_579)">
<path d="M22.9651 23.6074L17.5819 20.9025L22.9649 18.1976C23.0941 18.1328 23.2092 18.043 23.3038 17.9336C23.3983 17.8242 23.4703 17.6973 23.5158 17.56C23.5613 17.4228 23.5792 17.2779 23.5687 17.1337C23.5582 16.9895 23.5194 16.8488 23.4544 16.7196L22.7974 15.4118C22.7325 15.2826 22.6427 15.1674 22.5333 15.0729C22.4239 14.9784 22.2969 14.9063 22.1597 14.8608C22.0224 14.8154 21.8775 14.7974 21.7333 14.8079C21.5891 14.8185 21.4483 14.8573 21.3191 14.9222L20.118 15.5251C21.2362 14.0863 22.0925 12.462 22.6478 10.7265C22.6703 10.6559 22.671 10.5802 22.65 10.5093C22.6289 10.4383 22.587 10.3753 22.5296 10.3285C22.4723 10.2817 22.4022 10.2531 22.3284 10.2467C22.2547 10.2402 22.1807 10.256 22.116 10.2921L19.2112 11.9164C19.531 11.0871 19.6581 10.196 19.5829 9.31043C19.5076 8.42485 19.2321 7.56795 18.7771 6.80449L18.3974 6.17337C18.3618 6.11398 18.3101 6.06581 18.2484 6.03438C18.1866 6.00294 18.1173 5.9895 18.0483 5.9956C17.9793 6.00169 17.9134 6.02707 17.8581 6.06884C17.8028 6.1106 17.7604 6.16707 17.7357 6.2318L17.4761 6.91313C17.2401 7.53534 16.878 8.10203 16.4126 8.57758C15.9471 9.05312 15.3882 9.42723 14.7712 9.67641C13.5826 7.74008 12.9445 5.51626 12.9257 3.24429L12.9004 0.365837C12.8997 0.287725 12.8742 0.211848 12.8277 0.149125C12.7811 0.0864008 12.7159 0.0400634 12.6413 0.0167796C12.5667 -0.00650409 12.4867 -0.00553377 12.4127 0.019551C12.3388 0.0446357 12.2746 0.0925417 12.2296 0.156376L10.219 3.00403C8.58243 5.31859 7.76863 8.11476 7.90751 10.946L4.93667 8.52195C4.88055 8.47619 4.81221 8.44794 4.74016 8.44073C4.66812 8.43352 4.59554 8.44765 4.53146 8.48137C4.46739 8.5151 4.41464 8.56692 4.3798 8.6304C4.34495 8.69387 4.32955 8.76619 4.33549 8.83835C4.53189 11.2341 5.38027 13.5305 6.7887 15.4785L5.68001 14.9214C5.55082 14.8565 5.4101 14.8176 5.2659 14.8071C5.1217 14.7966 4.97683 14.8145 4.83958 14.86C4.70233 14.9055 4.57538 14.9775 4.46598 15.0721C4.35657 15.1666 4.26686 15.2817 4.20197 15.411L3.54469 16.7188C3.41405 16.9798 3.39222 17.2819 3.484 17.559C3.57577 17.836 3.77366 18.0654 4.03428 18.1968L9.41761 20.9025L4.03428 23.6074C3.77341 23.7385 3.57531 23.9679 3.48354 24.245C3.39177 24.5222 3.41384 24.8245 3.5449 25.0854L4.20197 26.3932C4.26655 26.5226 4.35616 26.638 4.46562 26.7326C4.57507 26.8271 4.7022 26.8991 4.83963 26.9442C4.95163 26.9813 5.06884 27.0003 5.18684 27.0005C5.3582 27.0004 5.52714 26.96 5.68001 26.8826L13.4997 22.9537L21.3191 26.8826C21.4721 26.96 21.6411 27.0004 21.8125 27.0005C21.9305 27.0003 22.0477 26.9813 22.1597 26.9442C22.2972 26.8991 22.4243 26.8271 22.5337 26.7326C22.6432 26.638 22.7328 26.5226 22.7974 26.3932L23.4544 25.0854C23.5855 24.8245 23.6076 24.5222 23.5158 24.245C23.424 23.9679 23.2259 23.7385 22.9651 23.6074ZM5.34863 26.223C5.26267 26.2662 5.16307 26.2735 5.07173 26.2433C4.98039 26.213 4.9048 26.1478 4.86157 26.0618L4.2045 24.754C4.1613 24.668 4.15401 24.5684 4.18423 24.4771C4.21445 24.3858 4.27971 24.3102 4.36566 24.267L10.2396 21.3155L12.677 22.5404L5.34863 26.223ZM15.2926 17.9509L13.4997 18.8513L11.7067 17.9509C11.6974 17.8477 11.6928 17.7427 11.6928 17.6344C11.6928 16.4224 12.9422 14.8836 13.499 14.258C14.0559 14.8836 15.3051 16.4224 15.3051 17.6344C15.3057 17.7429 15.3013 17.8479 15.2926 17.9509ZM21.6516 15.582C21.6941 15.5606 21.7405 15.5479 21.788 15.5444C21.8355 15.5409 21.8832 15.5469 21.9284 15.5619C21.9736 15.5768 22.0154 15.6006 22.0515 15.6317C22.0875 15.6629 22.117 15.7008 22.1384 15.7434L22.7955 17.0512C22.8387 17.1372 22.8459 17.2368 22.8157 17.3281C22.7854 17.4195 22.7201 17.4951 22.6341 17.5383L16.7597 20.4893L14.3223 19.2644L21.6516 15.582ZM7.90097 15.7149C6.46349 13.9842 5.52234 11.8961 5.17777 9.67282L8.11423 12.0674C8.17121 12.1139 8.24078 12.1423 8.31401 12.149C8.38725 12.1556 8.46081 12.1403 8.52526 12.1049C8.58972 12.0695 8.64213 12.0156 8.67578 11.9503C8.70943 11.8849 8.72279 11.8109 8.71414 11.7379C8.36483 8.8031 9.11585 5.843 10.822 3.4297L12.172 1.51756L12.1872 3.25104C12.2085 5.76329 12.9446 8.21757 14.3093 10.3269C14.3539 10.3958 14.4202 10.4478 14.4977 10.4749C14.5752 10.5019 14.6594 10.5024 14.7372 10.4763C15.5126 10.2158 16.2209 9.7875 16.8118 9.22197C17.4027 8.65645 17.8616 7.96758 18.1559 7.20443C18.6436 8.03133 18.8889 8.97875 18.8638 9.93844C18.8387 10.8981 18.5441 11.8314 18.0137 12.6316C17.9676 12.7006 17.946 12.7831 17.9525 12.8658C17.9589 12.9485 17.9931 13.0266 18.0494 13.0875C18.1057 13.1484 18.1808 13.1886 18.2628 13.2016C18.3447 13.2146 18.4286 13.1996 18.501 13.159L21.6208 11.416C20.8846 13.2816 19.7781 14.9788 18.3681 16.4051L16.8939 17.1457L16.0419 17.5739C15.9965 15.7305 13.854 13.5467 13.7619 13.4537C13.6912 13.3862 13.5973 13.3486 13.4997 13.3486C13.402 13.3486 13.3081 13.3862 13.2375 13.4537C13.1453 13.5467 11.0028 15.7305 10.9575 17.5739L8.36081 16.269L7.90097 15.7149ZM22.7948 24.7549L22.1378 26.0627C22.1164 26.1052 22.0868 26.1431 22.0508 26.1743C22.0148 26.2054 21.9729 26.2291 21.9277 26.2441C21.8825 26.259 21.8348 26.265 21.7873 26.2615C21.7398 26.258 21.6935 26.2452 21.6509 26.2238L4.36608 17.538C4.28025 17.4947 4.2151 17.4191 4.1849 17.3278C4.15469 17.2365 4.16189 17.137 4.20492 17.051L4.86221 15.7432C4.95312 15.6523 5.03096 15.4624 5.34905 15.582L22.6333 24.267C22.7192 24.3102 22.7845 24.3858 22.8147 24.4771C22.8449 24.5684 22.8376 24.668 22.7944 24.754L22.7948 24.7549Z" fill="#484848"/>
</g>
<defs>
<clipPath id="clip0_127_579">
<rect width="27" height="27" fill="white"/>
</clipPath>
</defs>
</svg>
