<svg width="18" height="18" viewBox="0 0 18 18" fill="none" xmlns="http://www.w3.org/2000/svg">
<path d="M16.1812 4.5359C15.6412 4.7699 15.0832 4.9319 14.4892 5.0039C15.1012 4.6439 15.5692 4.0679 15.7852 3.3659C15.2092 3.7079 14.5792 3.9419 13.9132 4.0859C13.3733 3.5099 12.5992 3.1499 11.7533 3.1499C10.1152 3.1499 8.80125 4.4819 8.80125 6.1019C8.80125 6.3359 8.81925 6.5519 8.87325 6.7679C6.42525 6.6599 4.26525 5.4719 2.80725 3.6899C1.76325 5.5619 2.93325 7.1099 3.70725 7.6319C3.23925 7.6319 2.77125 7.4879 2.37525 7.2719C2.37525 8.7299 3.40125 9.9359 4.73325 10.2059C4.44525 10.2959 3.79725 10.3499 3.40125 10.2599C3.77925 11.4299 4.87725 12.2939 6.15525 12.3119C5.14725 13.1039 3.67125 13.7339 1.78125 13.5359C3.09525 14.3819 4.64325 14.8679 6.31725 14.8679C11.7532 14.8679 14.7052 10.3679 14.7052 6.4799C14.7052 6.3539 14.7052 6.2279 14.6872 6.1019C15.2992 5.6519 15.8032 5.1299 16.1812 4.5359Z" fill="white"/>
</svg>
