<svg width="740" height="535" viewBox="0 0 740 535" fill="none" xmlns="http://www.w3.org/2000/svg">
<mask id="mask0_66_13980" style="mask-type:alpha" maskUnits="userSpaceOnUse" x="0" y="0" width="380" height="535">
<path d="M0 0H380V535H0V0Z" fill="#D9D9D9"/>
</mask>
<g mask="url(#mask0_66_13980)">
<rect x="-37" y="-102" width="427" height="642" fill="#484848"/>
</g>
<mask id="mask1_66_13980" style="mask-type:alpha" maskUnits="userSpaceOnUse" x="410" y="0" width="330" height="535">
<rect x="410" width="330" height="535" fill="#D9D9D9"/>
</mask>
<g mask="url(#mask1_66_13980)">
<rect x="-72" y="-92" width="960" height="641" fill="#484848"/>
</g>
<circle cx="395" cy="247" r="80" fill="#63AC45"/>
<g clip-path="url(#clip0_66_13980)">
<path d="M433.666 284.333H433.125L408.837 239.697C408.803 239.65 408.766 239.606 408.726 239.565C408.674 239.486 408.613 239.413 408.545 239.348C408.481 239.296 408.413 239.249 408.34 239.21L408.333 239.205V237.668C408.333 236.932 407.736 236.335 407 236.335C406.264 236.335 405.667 236.932 405.667 237.668V239.001H383.001V237.668C383.001 236.932 382.404 236.335 381.668 236.335C380.931 236.335 380.334 236.932 380.334 237.668V240.003L356.865 284.333H356.335C355.598 284.333 355.001 284.93 355.001 285.667C355.001 286.403 355.598 287 356.335 287H433.666C434.403 287 434.999 286.403 434.999 285.667C434.999 284.93 434.403 284.333 433.666 284.333ZM380.334 284.333H373.667L376.067 281.134C376.509 280.545 376.39 279.709 375.801 279.267C375.212 278.825 374.376 278.944 373.934 279.533L372.334 281.667V277.667C372.334 276.93 371.737 276.334 371.001 276.334C370.265 276.334 369.668 276.931 369.668 277.667V281.667L368.067 279.533C367.626 278.944 366.79 278.825 366.201 279.267C365.612 279.709 365.493 280.545 365.935 281.134L368.334 284.333H359.882L380.334 245.702V284.333ZM395 284.333L397.4 281.134C397.842 280.545 397.723 279.709 397.134 279.267C396.545 278.825 395.709 278.944 395.267 279.533L393.667 281.667V277.667C393.667 276.93 393.07 276.334 392.334 276.334C391.597 276.334 391.001 276.931 391.001 277.667V281.667L389.4 279.533C388.958 278.944 388.123 278.825 387.534 279.267C386.945 279.709 386.826 280.545 387.268 281.134L389.667 284.333H383.001V245.702L403.452 284.333H395ZM419 284.333L421.4 281.134C421.841 280.545 421.722 279.709 421.133 279.267C420.544 278.825 419.709 278.944 419.267 279.533L417.667 281.667V277.667C417.667 276.93 417.07 276.334 416.333 276.334C415.597 276.334 415 276.931 415 277.667V281.667L413.4 279.533C412.958 278.944 412.122 278.825 411.533 279.267C410.944 279.709 410.825 280.545 411.267 281.134L413.667 284.333H406.469L383.882 241.668H406.875L430.09 284.334H419V284.333Z" fill="white"/>
<path d="M405.667 249.668H395C394.529 249.667 394.094 249.915 393.853 250.32C393.613 250.725 393.604 251.226 393.83 251.64L401.829 266.306C402.063 266.734 402.512 267.001 403 267.001H413.667C414.137 267.001 414.573 266.753 414.813 266.348C415.054 265.943 415.063 265.442 414.837 265.029L406.837 250.362C406.604 249.934 406.155 249.667 405.667 249.668ZM403.792 264.334L397.246 252.334H404.875L411.42 264.334H403.792Z" fill="white"/>
<path d="M416.483 235.492C416.434 235.52 416.388 235.552 416.344 235.587C416.127 235.682 415.955 235.855 415.86 236.072C415.829 236.113 415.8 236.155 415.773 236.199L415.771 236.208C415.713 236.354 415.681 236.508 415.677 236.665C415.676 236.683 415.666 236.701 415.666 236.719C415.666 236.732 415.674 236.745 415.674 236.759C415.677 236.919 415.709 237.079 415.768 237.228L415.771 237.239C415.831 237.378 415.916 237.506 416.021 237.617C416.047 237.646 416.079 237.667 416.108 237.694C416.2 237.778 416.303 237.85 416.415 237.905C416.438 237.916 416.453 237.937 416.477 237.948C418.118 238.647 419.883 239.005 421.666 239.001C429.03 239.001 434.999 233.032 434.999 225.668C434.999 218.305 429.03 212.335 421.666 212.335C419.883 212.331 418.118 212.69 416.477 213.388C416.418 213.422 416.362 213.461 416.309 213.504C416.219 213.551 416.135 213.609 416.058 213.676C415.981 213.762 415.916 213.858 415.864 213.961C415.829 214.004 415.798 214.05 415.77 214.097L415.768 214.108C415.709 214.257 415.676 214.417 415.674 214.577C415.673 214.591 415.666 214.604 415.666 214.617C415.666 214.635 415.676 214.653 415.677 214.671C415.681 214.828 415.713 214.982 415.771 215.128L415.773 215.137C415.799 215.181 415.829 215.223 415.86 215.264C415.914 215.37 415.981 215.469 416.061 215.557C416.147 215.634 416.242 215.698 416.344 215.749C416.388 215.784 416.434 215.816 416.483 215.844C420.432 217.511 423 221.381 423 225.668C423 229.955 420.432 233.825 416.483 235.492ZM425.666 225.668C425.666 221.509 423.716 217.591 420.398 215.084C424.332 214.612 428.203 216.359 430.451 219.622C432.699 222.885 432.952 227.125 431.108 230.633C429.265 234.14 425.629 236.336 421.666 236.334C421.242 236.332 420.818 236.304 420.397 236.252C423.716 233.745 425.666 229.827 425.666 225.668Z" fill="white"/>
<path d="M360.334 229.668H388.334C391.11 229.668 393.422 227.537 393.649 224.77C393.876 222.003 391.941 219.524 389.202 219.072C390.269 214.018 387.313 208.982 382.379 207.451C377.446 205.92 372.158 208.397 370.176 213.168C368.088 211.06 364.932 210.423 362.189 211.556C359.446 212.689 357.66 215.367 357.668 218.335C357.668 218.777 357.711 219.218 357.795 219.652C355.649 220.813 354.565 223.283 355.164 225.649C355.764 228.014 357.894 229.67 360.334 229.668ZM359.716 221.751C360.089 221.662 360.405 221.416 360.584 221.077C360.763 220.738 360.788 220.339 360.652 219.98C360.037 218.377 360.357 216.564 361.483 215.268C362.609 213.971 364.359 213.402 366.033 213.787C367.707 214.172 369.032 215.448 369.479 217.107C369.654 217.743 370.268 218.156 370.924 218.077C371.579 217.998 372.078 217.452 372.097 216.792C372.182 213.853 374.015 211.249 376.753 210.178C379.492 209.107 382.605 209.776 384.661 211.878C386.717 213.98 387.318 217.107 386.187 219.821C386.015 220.233 386.061 220.703 386.308 221.074C386.555 221.445 386.971 221.668 387.417 221.668H388.334C389.807 221.668 391 222.862 391 224.335C391 225.808 389.807 227.002 388.334 227.002H360.334C358.983 227.005 357.844 225.994 357.686 224.652C357.528 223.31 358.401 222.062 359.716 221.751Z" fill="white"/>
</g>
<defs>
<clipPath id="clip0_66_13980">
<rect width="80" height="80" fill="white" transform="translate(355 207)"/>
</clipPath>
</defs>
</svg>
