<svg width="40" height="41" viewBox="0 0 40 41" fill="none" xmlns="http://www.w3.org/2000/svg">
<path d="M39.5 32.0349H38.8972V23.3638C38.897 19.179 38.5056 15.2566 37.8503 12.8706C37.3328 10.988 35.5935 9.67334 33.6206 9.67334H30.5837V7.73242H33.154C34.3921 7.73242 35.3994 6.72534 35.3994 5.4873C35.3994 4.24927 34.3921 3.24194 33.154 3.24194H32.0801V0.5C32.0801 0.223877 31.8562 0 31.5801 0C29.1909 0 28.0543 1.9321 27.6915 3.24194H7.64453C6.40649 3.24194 5.39941 4.24927 5.39941 5.4873C5.39941 6.72534 6.40649 7.73242 7.64453 7.73242H10.0193V9.67334H7.71533C6.38989 9.67334 5.15576 10.2522 4.32935 11.2617C1.28687 14.9785 0.955078 23.0081 0.942139 23.3667V32.0349H0.5C0.223877 32.0349 0 32.2588 0 32.5349V36.6511C0 36.9272 0.223877 37.1511 0.5 37.1511H4.12427C5.07013 38.8614 6.88513 40.0225 8.96655 40.0225C11.0478 40.0225 12.8628 38.8614 13.8086 37.1511H25.853C26.7989 38.8614 28.6139 40.0225 30.6953 40.0225C32.7765 40.0225 34.5915 38.8614 35.5373 37.1511H39.5C39.7761 37.1511 40 36.9272 40 36.6511V32.5349C40 32.2588 39.7761 32.0349 39.5 32.0349ZM31.0801 1.03955V3.24194H28.7437C29.007 2.49457 29.6489 1.27396 31.0801 1.03955ZM6.39941 5.4873C6.39941 4.80054 6.95801 4.24194 7.64453 4.24194H33.154C33.8408 4.24194 34.3994 4.80054 34.3994 5.4873C34.3994 6.17383 33.8408 6.73242 33.154 6.73242H7.64453C6.95801 6.73242 6.39941 6.17383 6.39941 5.4873ZM11.0193 7.73242H29.5837V9.67334H11.0193V7.73242ZM5.10327 11.895C5.73877 11.1187 6.69092 10.6733 7.71533 10.6733H33.6206C35.1448 10.6733 36.4875 11.6858 36.886 13.1355C37.1223 13.9958 37.8904 17.2643 37.8966 23.2944H1.94614C1.95837 23.0503 2.00134 22.319 2.11343 21.3176H7.6748C8.59058 21.3176 9.33545 20.5728 9.33545 19.657V14.9915C9.33545 14.0757 8.59058 13.3308 7.6748 13.3308H4.18024C4.45389 12.8011 4.75983 12.3146 5.10327 11.895ZM3.72125 14.3308H7.6748C8.03906 14.3308 8.33545 14.6272 8.33545 14.9915V19.657C8.33545 20.0212 8.03906 20.3176 7.6748 20.3176H2.23874C2.48611 18.5306 2.93155 16.259 3.72125 14.3308ZM1.94192 24.2944H37.8972V32.0349H35.6723C34.7736 30.1791 32.8834 28.8938 30.6953 28.8938C28.507 28.8938 26.6168 30.1791 25.7181 32.0349H13.9435C13.0449 30.1791 11.1547 28.8938 8.96655 28.8938C6.77823 28.8938 4.888 30.1791 3.98932 32.0349H1.94214L1.94192 24.2944ZM1 36.1511V33.0349H3.61941C3.49927 33.4901 3.42895 33.9654 3.42895 34.458C3.42895 35.0484 3.52274 35.6168 3.69302 36.1511H1ZM8.96655 39.0225C6.4646 39.0225 4.42895 36.9749 4.42895 34.458C4.42895 31.9414 6.4646 29.8938 8.96655 29.8938C11.4685 29.8938 13.5039 31.9414 13.5039 34.458C13.5039 36.9749 11.4685 39.0225 8.96655 39.0225ZM14.2398 36.1511C14.4101 35.6168 14.5039 35.0484 14.5039 34.458C14.5039 33.9654 14.4336 33.4901 14.3134 33.0349H25.3482C25.228 33.4901 25.1577 33.9654 25.1577 34.458C25.1577 35.0484 25.2515 35.6168 25.4218 36.1511H14.2398ZM30.6953 39.0225C28.1934 39.0225 26.1577 36.9749 26.1577 34.458C26.1577 31.9414 28.1934 29.8938 30.6953 29.8938C33.1973 29.8938 35.2327 31.9414 35.2327 34.458C35.2327 36.9749 33.1973 39.0225 30.6953 39.0225ZM39 36.1511H35.9686C36.1389 35.6168 36.2327 35.0484 36.2327 34.458C36.2327 33.9654 36.1623 33.4901 36.0422 33.0349H39V36.1511Z" fill="#63AC45"/>
<path d="M13.981 21.3176H20.0566C20.9722 21.3176 21.717 20.5728 21.717 19.657V14.9915C21.717 14.0757 20.9722 13.3308 20.0566 13.3308H13.981C13.0652 13.3308 12.3203 14.0757 12.3203 14.9915V19.657C12.3203 20.5728 13.0652 21.3176 13.981 21.3176ZM13.3203 14.9915C13.3203 14.6272 13.6167 14.3308 13.981 14.3308H20.0566C20.4209 14.3308 20.717 14.6272 20.717 14.9915V19.657C20.717 20.0212 20.4209 20.3176 20.0566 20.3176H13.981C13.6167 20.3176 13.3203 20.0212 13.3203 19.657V14.9915Z" fill="#63AC45"/>
<path d="M26.3655 21.3176H32.4412C33.3567 21.3176 34.1016 20.5728 34.1016 19.657V14.9915C34.1016 14.0757 33.3567 13.3308 32.4412 13.3308H26.3655C25.45 13.3308 24.7051 14.0757 24.7051 14.9915V19.657C24.7051 20.5728 25.45 21.3176 26.3655 21.3176ZM25.7051 14.9915C25.7051 14.6272 26.0012 14.3308 26.3655 14.3308H32.4412C32.8054 14.3308 33.1016 14.6272 33.1016 14.9915V19.657C33.1016 20.0212 32.8054 20.3176 32.4412 20.3176H26.3655C26.0012 20.3176 25.7051 20.0212 25.7051 19.657V14.9915Z" fill="#63AC45"/>
</svg>
