<svg width="13" height="15" viewBox="0 0 13 15" fill="none" xmlns="http://www.w3.org/2000/svg">
<path d="M2.33419 0.234579C2.10389 0.0893742 1.83886 0.00859138 1.56671 0.00064817C1.29457 -0.00729504 1.02528 0.057892 0.786895 0.189417C0.548514 0.320941 0.349767 0.51399 0.211366 0.748446C0.072965 0.982902 -2.58124e-05 1.25019 6.84743e-09 1.52244V13.4776C-2.58124e-05 13.7498 0.072965 14.0171 0.211366 14.2516C0.349767 14.486 0.548514 14.6791 0.786895 14.8106C1.02528 14.9421 1.29457 15.0073 1.56671 14.9994C1.83886 14.9914 2.10389 14.9106 2.33419 14.7654L11.8171 8.78787C12.0347 8.65073 12.214 8.46068 12.3383 8.23546C12.4626 8.01025 12.5277 7.75723 12.5277 7.50001C12.5277 7.24278 12.4626 6.98976 12.3383 6.76455C12.214 6.53934 12.0347 6.34929 11.8171 6.21214L2.33419 0.233564V0.234579Z" fill="#F7921E"/>
</svg>
