<svg width="43" height="43" viewBox="0 0 43 43" fill="none" xmlns="http://www.w3.org/2000/svg">
<path d="M39.0445 3.95549V13.5252M39.0445 3.95549H29.4748M39.0445 3.95549L26.2849 16.7151M32.6647 42.2344C15.0479 42.2344 0.765579 27.9521 0.765579 10.3353V5.55044C0.765579 4.28142 1.2697 3.06437 2.16703 2.16703C3.06437 1.2697 4.28142 0.765579 5.55044 0.765579H8.46815C9.56548 0.765579 10.5225 1.51202 10.7883 2.57745L13.1403 11.9834C13.3742 12.9191 13.0255 13.9016 12.2535 14.4779L9.50381 16.5408C9.11024 16.8257 8.81904 17.2299 8.67346 17.6935C8.52788 18.157 8.53568 18.6552 8.6957 19.1139C9.97565 22.5955 11.9971 25.7571 14.62 28.38C17.2429 31.0029 20.4045 33.0244 23.8861 34.3043C24.8239 34.6488 25.8595 34.2958 26.4592 33.4962L28.5221 30.7465C28.8044 30.3696 29.1917 30.0843 29.6355 29.9266C30.0792 29.7688 30.5597 29.7456 31.0166 29.8597L40.4226 32.2117C41.4859 32.4775 42.2344 33.4345 42.2344 34.5318V37.4496C42.2344 38.7186 41.7303 39.9356 40.833 40.833C39.9356 41.7303 38.7186 42.2344 37.4496 42.2344H32.6647V42.2344Z" stroke="#63AC45" stroke-width="1.5" stroke-linecap="round" stroke-linejoin="round"/>
</svg>
