<svg width="45" height="45" viewBox="0 0 45 45" fill="none" xmlns="http://www.w3.org/2000/svg">
<g clip-path="url(#clip0_45_12028)">
<path d="M3.74219 34.5066C1.68216 31.1573 0.494019 27.2143 0.494019 22.9938C0.494019 10.8402 10.3464 0.987793 22.5 0.987793C34.6536 0.987793 44.506 10.8402 44.506 22.9938C44.506 27.2143 43.3178 31.1573 41.2578 34.5066C35.4909 33.3974 29.1526 32.7842 22.5 32.7842C15.8474 32.7842 9.50911 33.3974 3.74219 34.5066Z" fill="#024C67"/>
<path d="M16.5718 6.28736C16.5718 6.78344 16.1697 7.18557 15.6736 7.18557C15.1775 7.18557 14.7754 6.78344 14.7754 6.28736C14.7754 5.79129 15.1775 5.38916 15.6736 5.38916C16.1697 5.38916 16.5718 5.79129 16.5718 6.28736Z" fill="#3691BB"/>
<path d="M30.9431 5.38941C30.9431 5.88549 30.541 6.28762 30.0449 6.28762C29.5489 6.28762 29.1467 5.88549 29.1467 5.38941C29.1467 4.89334 29.5489 4.49121 30.0449 4.49121C30.541 4.49121 30.9431 4.89334 30.9431 5.38941Z" fill="#FFF5F5"/>
<path d="M41.7215 17.9642C41.7215 18.4602 41.3194 18.8624 40.8233 18.8624C40.3272 18.8624 39.9251 18.4602 39.9251 17.9642C39.9251 17.4681 40.3272 17.066 40.8233 17.066C41.3194 17.066 41.7215 17.4681 41.7215 17.9642ZM4.89515 13.4731C4.39907 13.4731 3.99695 13.8753 3.99695 14.3713C3.99695 14.8674 4.39907 15.2696 4.89515 15.2696C5.39123 15.2696 5.79336 14.8674 5.79336 14.3713C5.79336 13.8753 5.39123 13.4731 4.89515 13.4731Z" fill="#FDF061"/>
<path d="M36.8217 35.0402C37.6222 28.9539 39.3207 20.3246 41.2867 20.3246C42.3887 20.3246 43.4067 23.0362 44.2296 26.4915C43.8114 29.1105 42.931 31.5752 41.6749 33.7996C41.0597 34.8889 39.8408 35.4937 38.6047 35.301C38.0153 35.2091 37.421 35.1222 36.8217 35.0402ZM6.69153 35.2553C6.6742 31.9124 4.54052 15.8549 1.88219 15.2852C0.984707 17.6843 0.494019 20.282 0.494019 22.9942C0.494019 26.9148 1.51941 30.596 3.31653 33.7842C3.94159 34.8931 5.19818 35.4868 6.45611 35.2916C6.53444 35.2793 6.61294 35.2673 6.69153 35.2553Z" fill="#025F80"/>
<path d="M39.7455 33.5273V33.5525C39.742 34.868 38.393 35.9281 36.7478 35.9281H29.9888C28.5822 35.9281 27.3923 35.1533 27.0744 34.1065C26.9169 34.1231 26.7564 34.1317 26.5935 34.1317H18.4066C18.2436 34.1317 18.0831 34.1231 17.9257 34.1065C17.6078 35.1533 16.4178 35.9281 15.0113 35.9281H8.25227C6.60703 35.9281 5.25802 34.868 5.25452 33.5525C5.25452 33.5441 5.25452 33.5357 5.25452 33.5273C5.25452 29.2662 8.10973 7.74961 11.6318 7.74961C13.3813 7.74961 14.9663 13.0585 16.1185 18.9245C17.5096 10.0654 19.8488 0 22.5 0C25.1513 0 27.4904 10.0654 28.8816 18.9245C30.0338 13.0585 31.6188 7.74961 33.3683 7.74961C36.8903 7.74961 39.7455 29.2662 39.7455 33.5273Z" fill="#22B27F"/>
<path d="M23.6237 0.592096C20.0636 7.40892 17.453 27.879 17.453 32.5721V32.6054C17.4545 33.1499 17.6297 33.6614 17.9363 34.1076C16.1629 33.9244 14.7793 32.7203 14.7755 31.2542C14.7755 31.244 14.7755 31.2339 14.7755 31.2237C14.7755 26.0623 18.2339 0 22.5 0C22.8817 0 23.2569 0.208563 23.6237 0.592096ZM22.5 9.88024C22.0039 9.88024 21.6018 10.2824 21.6018 10.7784V34.1317H23.3982V10.7784C23.3982 10.2824 22.9961 9.88024 22.5 9.88024ZM29.2015 34.6406C29.2015 30.7661 31.3568 13.8663 34.296 8.2385C33.9931 7.92189 33.6834 7.7497 33.3683 7.7497C29.8463 7.7497 26.991 29.2663 26.991 33.5274V33.5526C26.9943 34.763 28.1365 35.7571 29.6006 35.9084C29.3474 35.54 29.2027 35.1178 29.2015 34.6682C29.2015 34.6589 29.2015 34.6497 29.2015 34.6406ZM33.3683 15.9066C32.9587 15.9066 32.6267 16.2385 32.6267 16.6481V35.9281H34.1098V16.6481C34.1098 16.2385 33.7779 15.9066 33.3683 15.9066ZM11.6318 7.74961C8.10973 7.74961 5.25452 29.2662 5.25452 33.5273V33.5525C5.25775 34.7629 6.4 35.757 7.86407 35.9083C7.61086 35.5399 7.46616 35.1177 7.465 34.6681C7.465 34.659 7.465 34.6497 7.465 34.6406C7.465 30.7661 9.62024 13.8663 12.5594 8.2385C12.2566 7.9218 11.9469 7.74961 11.6318 7.74961ZM11.6318 15.9066C11.2222 15.9066 10.8902 16.2385 10.8902 16.6481V31.0334L12.3733 35.9281V16.6481C12.3733 16.2385 12.0413 15.9066 11.6318 15.9066Z" fill="#059B7E"/>
<path d="M41.6921 33.7689C41.3887 34.3081 41.0633 34.8333 40.717 35.343L33.1525 27.5582C32.8068 27.2025 32.8149 26.6338 33.1708 26.2881C33.5266 25.9424 34.0905 25.9515 34.4362 26.3072L41.6921 33.7689ZM11.8352 26.2882C11.4794 25.9425 10.9108 25.9507 10.5652 26.3065L3.31018 33.7728C3.61359 34.3119 3.93919 34.837 4.28554 35.3466L11.8535 27.5583C12.1991 27.2025 12.191 26.6338 11.8352 26.2882Z" fill="#CFF09A"/>
<path d="M23.1352 15.0062L34.735 26.6061C34.9474 26.8184 35.0395 27.1229 34.9807 27.4173L33.4229 35.2059C33.3389 35.6257 32.9703 35.928 32.5421 35.928H12.4579C12.0298 35.928 11.6612 35.6257 11.5772 35.2059L10.0194 27.4173C9.96049 27.1228 10.0527 26.8184 10.2651 26.6061L21.8649 15.0062C22.2157 14.6555 22.7844 14.6555 23.1352 15.0062Z" fill="#FCB30B"/>
<path d="M27.8781 33.9459H17.122C16.7906 33.9459 16.5733 33.5992 16.7179 33.3009L22.0959 22.2049C22.2596 21.8673 22.7405 21.8673 22.9042 22.2049L28.2822 33.3009C28.4267 33.5992 28.2095 33.9459 27.8781 33.9459Z" fill="#FC5426"/>
<path d="M19.7161 33.9459H17.1219C16.7905 33.9459 16.5732 33.5992 16.7177 33.3009L22.0957 22.2049C22.2594 21.8673 22.7404 21.8673 22.904 22.2049L23.7969 24.0472L19.3118 33.3008C19.1674 33.5992 19.3847 33.9459 19.7161 33.9459Z" fill="#E55920"/>
<path d="M14.149 35.928H12.4579C12.0298 35.928 11.6612 35.6257 11.5772 35.2059L10.0194 27.4173C9.96049 27.1228 10.0527 26.8184 10.2651 26.6061L21.8649 15.0062C22.2157 14.6555 22.7844 14.6555 23.1352 15.0062L24.2522 16.1232L18.4876 21.8878C14.8086 25.5667 13.1882 30.8226 14.149 35.928Z" fill="#FD9D01"/>
<path d="M3.4707 34.0534C9.32196 32.947 15.7518 32.3354 22.5 32.3354C29.2482 32.3354 35.678 32.947 41.5292 34.0534C39.9992 36.6804 37.9407 38.9618 35.4996 40.7519C31.3594 40.2425 27.0005 39.9704 22.5 39.9704C17.9994 39.9704 13.6404 40.2425 9.50034 40.7519C7.05912 38.9618 5.0007 36.6804 3.4707 34.0534Z" fill="#509C49"/>
<path d="M19.5639 40.3723C20.879 40.1987 22.2076 40.042 23.5487 39.9029C27.5516 40.1005 31.4448 40.4617 35.1944 40.9714C37.7694 39.1497 39.9358 36.7889 41.5292 34.0531C37.2676 33.2473 32.6991 32.704 27.9242 32.4683C26.6354 32.6019 25.3617 32.757 24.105 32.9325C22.8254 33.1113 21.7887 33.6407 21.008 34.3787C20.4188 34.9358 20.8171 35.928 21.628 35.928H21.9302C22.4086 35.928 22.8264 36.289 22.8573 36.7663C22.8911 37.2895 22.4769 37.7244 21.961 37.7244H20.1659C19.6681 37.7244 19.2594 38.1292 19.2673 38.6269C19.2768 39.2188 19.3748 39.8092 19.5639 40.3723ZM34.5359 34.1316H36.3323C36.8284 34.1316 37.2305 34.5337 37.2305 35.0298C37.2305 35.5258 36.8284 35.928 36.3323 35.928H34.5359C34.0398 35.928 33.6377 35.5258 33.6377 35.0298C33.6377 34.5337 34.0398 34.1316 34.5359 34.1316ZM25.5539 34.1316H27.3503C27.8463 34.1316 28.2485 34.5337 28.2485 35.0298C28.2485 35.5258 27.8463 35.928 27.3503 35.928H25.5539C25.0578 35.928 24.6556 35.5258 24.6556 35.0298C24.6556 34.5337 25.0578 34.1316 25.5539 34.1316Z" fill="#7ECD00"/>
<path d="M8.23792 39.7532C9.07863 39.721 9.86887 39.4917 10.5636 39.1103C11.9648 38.3409 13.6745 38.3409 15.0757 39.1103C15.8267 39.5226 16.6891 39.7571 17.6064 39.7571C18.5236 39.7571 19.3861 39.5226 20.137 39.1103C21.5382 38.3409 23.2479 38.3409 24.6491 39.1103C25.4001 39.5226 26.2625 39.7571 27.1798 39.7571C28.097 39.7571 28.9595 39.5226 29.7105 39.1103C31.1117 38.3409 32.8213 38.3409 34.2225 39.1103C34.9735 39.5226 35.8359 39.7571 36.7532 39.7571H36.7575C32.917 43.0267 27.9388 44.9999 22.5 44.9999C17.0588 44.9999 12.079 43.0251 8.23792 39.7532Z" fill="#0680AE"/>
<path d="M36.7573 39.7571C33.8803 42.2065 30.3649 43.9282 26.4955 44.638C25.3373 44.4538 24.2066 44.1785 23.1118 43.8189C20.8734 43.0839 19.6429 41.3453 19.3407 39.4648C19.6173 39.3683 19.8835 39.2494 20.137 39.1103C21.5382 38.3409 23.2478 38.3409 24.649 39.1103C25.4 39.5226 26.2624 39.7571 27.1797 39.7571C28.0969 39.7571 28.9594 39.5226 29.7104 39.1103C31.1116 38.3409 32.8212 38.3409 34.2224 39.1103C34.9734 39.5226 35.8358 39.7571 36.7531 39.7571H36.7573Z" fill="#08A8F0"/>
<path d="M17.4701 35.03C17.4701 35.5261 17.068 35.9282 16.5719 35.9282H14.7755C14.2794 35.9282 13.8773 35.5261 13.8773 35.03C13.8773 34.534 14.2794 34.1318 14.7755 34.1318H16.5719C17.068 34.1318 17.4701 34.534 17.4701 35.03ZM10.2845 35.9282H8.48805C7.99197 35.9282 7.58984 36.3304 7.58984 36.8264C7.58984 37.3225 7.99197 37.7247 8.48805 37.7247H10.2845C10.7805 37.7247 11.1827 37.3225 11.1827 36.8264C11.1827 36.3304 10.7805 35.9282 10.2845 35.9282Z" fill="#387232"/>
<path d="M35.4608 33.7741C35.1484 34.7644 34.5186 35.4697 33.9824 35.475C33.9351 35.4411 33.8917 35.4 33.8521 35.3521C33.6582 35.6191 33.4326 35.805 33.1886 35.8846C32.9445 35.8051 32.719 35.6191 32.5251 35.3521C32.4856 35.4 32.4421 35.4411 32.3947 35.475C31.8586 35.4697 31.2288 34.7645 30.9164 33.7741C30.604 32.7837 30.7151 31.8447 31.1513 31.5328C31.3948 31.5351 31.6575 31.6819 31.9011 31.9341C32.0682 30.7748 32.5686 29.8864 33.1886 29.6841C33.8086 29.8864 34.3089 30.7748 34.4761 31.9341C34.7197 31.6819 34.9824 31.5351 35.2259 31.5328C35.6621 31.8447 35.7732 32.7837 35.4608 33.7741Z" fill="#FDE803"/>
<path d="M35.4608 33.7744C35.3115 34.2477 35.0897 34.6558 34.8404 34.9536C33.6378 34.638 32.7395 33.3847 32.7395 31.8865C32.7395 31.0838 32.9974 30.3514 33.4217 29.7959C33.932 30.1201 34.3305 30.9245 34.4761 31.9345C34.7197 31.6823 34.9824 31.5355 35.2259 31.5332C35.6621 31.8451 35.7732 32.784 35.4608 33.7744Z" fill="#FDF061"/>
<path d="M36.4239 37.2773C36.234 37.7357 35.7087 37.9532 35.2503 37.7634L33.0757 36.8626L30.4887 37.7801C30.0212 37.9459 29.5078 37.7013 29.3419 37.2338C29.1761 36.7662 29.4207 36.2529 29.8882 36.087L30.7483 35.782C30.547 35.5343 30.4844 35.1867 30.6151 34.8711C30.805 34.4128 31.3304 34.1952 31.7887 34.385L33.1256 34.9388L34.1209 34.5858C34.5884 34.42 35.1019 34.6646 35.2677 35.1321C35.3498 35.3636 35.3312 35.6063 35.2349 35.8125L35.9379 36.1037C36.3962 36.2936 36.6138 36.819 36.4239 37.2773Z" fill="#AA695D"/>
<path d="M35.2349 35.8123L34.3652 35.452L34.4213 35.432C34.7346 35.3209 34.9478 35.0536 35.0044 34.7488C35.1206 34.8478 35.2131 34.9776 35.2677 35.1319C35.3498 35.3633 35.3312 35.606 35.2349 35.8123ZM36.4848 36.8162C36.2386 37.0048 35.9013 37.0606 35.5941 36.9333L31.445 35.2146C31.1378 35.0873 30.9388 34.8094 30.8981 34.502C30.7769 34.5947 30.6777 34.7197 30.6151 34.8708C30.4252 35.3292 30.6429 35.8546 31.1012 36.0444L31.8362 36.3489L30.1885 36.9333C29.8751 37.0444 29.5412 36.9712 29.3051 36.7701C29.2772 36.9201 29.2872 37.0793 29.3419 37.2336C29.5077 37.7011 30.0211 37.9457 30.4887 37.7799L33.0757 36.8623L35.2504 37.7632C35.7087 37.953 36.2341 37.7354 36.424 37.277C36.4866 37.1259 36.5049 36.9674 36.4848 36.8162Z" fill="#5A443D"/>
<path d="M30.4887 37.7802C30.0212 37.946 29.5078 37.7014 29.3419 37.2339C29.1761 36.7664 29.4207 36.253 29.8882 36.0872C30.3557 35.9214 30.8692 36.1659 31.035 36.6335C31.2008 37.1009 30.9562 37.6144 30.4887 37.7802ZM35.2503 37.7635C35.7086 37.9534 36.234 37.7357 36.4239 37.2774C36.6138 36.8191 36.3962 36.2937 35.9378 36.1038C35.4795 35.9139 34.9541 36.1315 34.7642 36.5899C34.5744 37.0482 34.7921 37.5736 35.2503 37.7635Z" fill="#FFF2B4"/>
<path d="M30.0384 36.5103C30.2722 36.4274 30.5289 36.5498 30.6118 36.7835C30.6947 37.0173 30.5723 37.274 30.3386 37.3569C30.1048 37.4398 29.8481 37.3175 29.7652 37.0837C29.6823 36.85 29.8046 36.5933 30.0384 36.5103ZM35.766 36.5188C35.5369 36.4238 35.2742 36.5327 35.1792 36.7618C35.0843 36.991 35.1932 37.2537 35.4223 37.3486C35.6514 37.4436 35.9141 37.3347 36.0091 37.1056C36.104 36.8764 35.9952 36.6136 35.766 36.5188Z" fill="#F1CA50"/>
</g>
<defs>
<clipPath id="clip0_45_12028">
<rect width="45" height="45" fill="white"/>
</clipPath>
</defs>
</svg>
