<svg width="30" height="30" viewBox="0 0 30 30" fill="none" xmlns="http://www.w3.org/2000/svg">
<path d="M7.29688 7.9978C7.05403 7.9978 6.85742 8.19464 6.85742 8.43726V8.99207C6.85742 9.23468 7.05403 9.43152 7.29688 9.43152C7.53949 9.43152 7.73633 9.23491 7.73633 8.99207V8.43726C7.73633 8.19464 7.53949 7.9978 7.29688 7.9978Z" fill="#1C231F"/>
<path d="M9.66699 7.9978C9.42438 7.9978 9.22754 8.19464 9.22754 8.43726V8.99207C9.22754 9.23468 9.42438 9.43152 9.66699 9.43152C9.90984 9.43152 10.1064 9.23491 10.1064 8.99207V8.43726C10.1064 8.19464 9.90984 7.9978 9.66699 7.9978Z" fill="#1C231F"/>
<path d="M12.0371 7.9978C11.7943 7.9978 11.5977 8.19464 11.5977 8.43726V8.99207C11.5977 9.23468 11.7943 9.43152 12.0371 9.43152C12.2797 9.43152 12.4766 9.23491 12.4766 8.99207V8.43726C12.4766 8.19464 12.2797 7.9978 12.0371 7.9978Z" fill="#1C231F"/>
<path d="M14.4072 7.9978C14.1646 7.9978 13.9678 8.19464 13.9678 8.43726V8.99207C13.9678 9.23468 14.1646 9.43152 14.4072 9.43152C14.6501 9.43152 14.8467 9.23491 14.8467 8.99207V8.43726C14.8467 8.19464 14.6501 7.9978 14.4072 7.9978Z" fill="#1C231F"/>
<path d="M16.7773 7.9978C16.5345 7.9978 16.3379 8.19464 16.3379 8.43726V8.99207C16.3379 9.23468 16.5345 9.43152 16.7773 9.43152C17.02 9.43152 17.2168 9.23491 17.2168 8.99207V8.43726C17.2168 8.19464 17.02 7.9978 16.7773 7.9978Z" fill="#1C231F"/>
<path d="M8.48145 10.4631C8.2386 10.4631 8.04199 10.66 8.04199 10.9026V11.4574C8.04199 11.7002 8.2386 11.8969 8.48145 11.8969C8.72406 11.8969 8.9209 11.7002 8.9209 11.4574V10.9026C8.9209 10.66 8.72406 10.4631 8.48145 10.4631Z" fill="#1C231F"/>
<path d="M10.8516 10.4631C10.6087 10.4631 10.4121 10.66 10.4121 10.9026V11.4574C10.4121 11.7002 10.6087 11.8969 10.8516 11.8969C11.0942 11.8969 11.291 11.7002 11.291 11.4574V10.9026C11.291 10.66 11.0942 10.4631 10.8516 10.4631Z" fill="#1C231F"/>
<path d="M13.2217 10.4631C12.9791 10.4631 12.7822 10.66 12.7822 10.9026V11.4574C12.7822 11.7002 12.9791 11.8969 13.2217 11.8969C13.4645 11.8969 13.6611 11.7002 13.6611 11.4574V10.9026C13.6611 10.66 13.4645 10.4631 13.2217 10.4631Z" fill="#1C231F"/>
<path d="M15.5918 10.4631C15.349 10.4631 15.1523 10.66 15.1523 10.9026V11.4574C15.1523 11.7002 15.349 11.8969 15.5918 11.8969C15.8344 11.8969 16.0312 11.7002 16.0312 11.4574V10.9026C16.0312 10.66 15.8344 10.4631 15.5918 10.4631Z" fill="#1C231F"/>
<path d="M7.29688 12.6204C7.05403 12.6204 6.85742 12.817 6.85742 13.0598V13.6144C6.85742 13.8572 7.05403 14.0538 7.29688 14.0538C7.53949 14.0538 7.73633 13.8572 7.73633 13.6144V13.0598C7.73633 12.817 7.53949 12.6204 7.29688 12.6204Z" fill="#1C231F"/>
<path d="M9.66699 12.6204C9.42438 12.6204 9.22754 12.817 9.22754 13.0598V13.6144C9.22754 13.8572 9.42438 14.0538 9.66699 14.0538C9.90984 14.0538 10.1064 13.8572 10.1064 13.6144V13.0598C10.1064 12.817 9.90984 12.6204 9.66699 12.6204Z" fill="#1C231F"/>
<path d="M12.0371 12.6204C11.7943 12.6204 11.5977 12.817 11.5977 13.0598V13.6144C11.5977 13.8572 11.7943 14.0538 12.0371 14.0538C12.2797 14.0538 12.4766 13.8572 12.4766 13.6144V13.0598C12.4766 12.817 12.2797 12.6204 12.0371 12.6204Z" fill="#1C231F"/>
<path d="M14.4072 12.6204C14.1646 12.6204 13.9678 12.817 13.9678 13.0598V13.6144C13.9678 13.8572 14.1646 14.0538 14.4072 14.0538C14.6501 14.0538 14.8467 13.8572 14.8467 13.6144V13.0598C14.8467 12.817 14.6501 12.6204 14.4072 12.6204Z" fill="#1C231F"/>
<path d="M16.7773 12.6204C16.5345 12.6204 16.3379 12.817 16.3379 13.0598V13.6144C16.3379 13.8572 16.5345 14.0538 16.7773 14.0538C17.02 14.0538 17.2168 13.8572 17.2168 13.6144V13.0598C17.2168 12.817 17.02 12.6204 16.7773 12.6204Z" fill="#1C231F"/>
<path d="M8.48145 15.0856C8.2386 15.0856 8.04199 15.2822 8.04199 15.525V16.0796C8.04199 16.3224 8.2386 16.5191 8.48145 16.5191C8.72406 16.5191 8.9209 16.3224 8.9209 16.0796V15.525C8.9209 15.2822 8.72406 15.0856 8.48145 15.0856Z" fill="#1C231F"/>
<path d="M10.8516 15.0856C10.6087 15.0856 10.4121 15.2822 10.4121 15.525V16.0796C10.4121 16.3224 10.6087 16.5191 10.8516 16.5191C11.0942 16.5191 11.291 16.3224 11.291 16.0796V15.525C11.291 15.2822 11.0942 15.0856 10.8516 15.0856Z" fill="#1C231F"/>
<path d="M13.2217 15.0856C12.9791 15.0856 12.7822 15.2822 12.7822 15.525V16.0796C12.7822 16.3224 12.9791 16.5191 13.2217 16.5191C13.4645 16.5191 13.6611 16.3224 13.6611 16.0796V15.525C13.6611 15.2822 13.4645 15.0856 13.2217 15.0856Z" fill="#1C231F"/>
<path d="M15.5918 15.0856C15.349 15.0856 15.1523 15.2822 15.1523 15.525V16.0796C15.1523 16.3224 15.349 16.5191 15.5918 16.5191C15.8344 16.5191 16.0312 16.3224 16.0312 16.0796V15.525C16.0312 15.2822 15.8344 15.0856 15.5918 15.0856Z" fill="#1C231F"/>
<path d="M7.29688 17.2426C7.05403 17.2426 6.85742 17.4394 6.85742 17.682V18.2368C6.85742 18.4794 7.05403 18.6763 7.29688 18.6763C7.53949 18.6763 7.73633 18.4794 7.73633 18.2368V17.682C7.73633 17.4394 7.53949 17.2426 7.29688 17.2426Z" fill="#1C231F"/>
<path d="M9.66699 17.2426C9.42438 17.2426 9.22754 17.4394 9.22754 17.682V18.2368C9.22754 18.4794 9.42438 18.6763 9.66699 18.6763C9.90984 18.6763 10.1064 18.4794 10.1064 18.2368V17.682C10.1064 17.4394 9.90984 17.2426 9.66699 17.2426Z" fill="#1C231F"/>
<path d="M12.0371 17.2426C11.7943 17.2426 11.5977 17.4394 11.5977 17.682V18.2368C11.5977 18.4794 11.7943 18.6763 12.0371 18.6763C12.2797 18.6763 12.4766 18.4794 12.4766 18.2368V17.682C12.4766 17.4394 12.2797 17.2426 12.0371 17.2426Z" fill="#1C231F"/>
<path d="M14.4072 17.2426C14.1646 17.2426 13.9678 17.4394 13.9678 17.682V18.2368C13.9678 18.4794 14.1646 18.6763 14.4072 18.6763C14.6501 18.6763 14.8467 18.4794 14.8467 18.2368V17.682C14.8467 17.4394 14.6501 17.2426 14.4072 17.2426Z" fill="#1C231F"/>
<path d="M16.7773 17.2426C16.5345 17.2426 16.3379 17.4394 16.3379 17.682V18.2368C16.3379 18.4794 16.5345 18.6763 16.7773 18.6763C17.02 18.6763 17.2168 18.4794 17.2168 18.2368V17.682C17.2168 17.4394 17.02 17.2426 16.7773 17.2426Z" fill="#1C231F"/>
<path d="M9.66699 22.2773C9.42438 22.2773 9.22754 22.4742 9.22754 22.7168V23.2716C9.22754 23.5142 9.42438 23.7111 9.66699 23.7111C9.90984 23.7111 10.1064 23.5142 10.1064 23.2716V22.7168C10.1064 22.4742 9.90984 22.2773 9.66699 22.2773Z" fill="#1C231F"/>
<path d="M12.0371 22.2773C11.7943 22.2773 11.5977 22.4742 11.5977 22.7168V23.2716C11.5977 23.5142 11.7943 23.7111 12.0371 23.7111C12.2797 23.7111 12.4766 23.5142 12.4766 23.2716V22.7168C12.4766 22.4742 12.2797 22.2773 12.0371 22.2773Z" fill="#1C231F"/>
<path d="M14.4072 22.2773C14.1646 22.2773 13.9678 22.4742 13.9678 22.7168V23.2716C13.9678 23.5142 14.1646 23.7111 14.4072 23.7111C14.6501 23.7111 14.8467 23.5142 14.8467 23.2716V22.7168C14.8467 22.4742 14.6501 22.2773 14.4072 22.2773Z" fill="#1C231F"/>
<path d="M8.48145 19.7694C8.2386 19.7694 8.04199 19.9662 8.04199 20.2089V20.7637C8.04199 21.0063 8.2386 21.2031 8.48145 21.2031C8.72406 21.2031 8.9209 21.0063 8.9209 20.7637V20.2089C8.9209 19.9662 8.72406 19.7694 8.48145 19.7694Z" fill="#1C231F"/>
<path d="M10.8516 19.7694C10.6087 19.7694 10.4121 19.9662 10.4121 20.2089V20.7637C10.4121 21.0063 10.6087 21.2031 10.8516 21.2031C11.0942 21.2031 11.291 21.0063 11.291 20.7637V20.2089C11.291 19.9662 11.0942 19.7694 10.8516 19.7694Z" fill="#1C231F"/>
<path d="M13.2217 19.7694C12.9791 19.7694 12.7822 19.9662 12.7822 20.2089V20.7637C12.7822 21.0063 12.9791 21.2031 13.2217 21.2031C13.4645 21.2031 13.6611 21.0063 13.6611 20.7637V20.2089C13.6611 19.9662 13.4645 19.7694 13.2217 19.7694Z" fill="#1C231F"/>
<path d="M15.5918 19.7694C15.349 19.7694 15.1523 19.9662 15.1523 20.2089V20.7637C15.1523 21.0063 15.349 21.2031 15.5918 21.2031C15.8344 21.2031 16.0312 21.0063 16.0312 20.7637V20.2089C16.0312 19.9662 15.8344 19.7694 15.5918 19.7694Z" fill="#1C231F"/>
<path d="M27.0879 26.3319H25.3075V23.7305C25.3075 23.4876 25.1109 23.291 24.868 23.291C24.6254 23.291 24.4286 23.4876 24.4286 23.7305V26.3319H23.0461V0.878906H24.4286V21.5918C24.4286 21.8346 24.6254 22.0312 24.868 22.0312C25.1109 22.0312 25.3075 21.8346 25.3075 21.5918V0.732422C25.3075 0.328445 24.979 0 24.575 0H12.3299C11.9259 0 11.5974 0.328445 11.5974 0.732422V1.7601C10.1795 1.96381 9.07288 3.1382 8.97789 4.58405H8.70964C8.30589 4.58405 7.97722 4.91249 7.97722 5.31647V6.39748C7.97722 6.80145 8.30589 7.1299 8.70964 7.1299H15.3637C15.7677 7.1299 16.0961 6.80145 16.0961 6.39748V5.31647C16.0961 4.91249 15.7677 4.58405 15.3637 4.58405H15.0954C15.0007 3.1382 13.894 1.96381 12.4763 1.7601V0.878906H22.1674V13.61H21.541C21.137 13.61 20.8086 13.9387 20.8086 14.3424V18.8567C20.8086 19.2606 21.137 19.5891 21.541 19.5891H22.1674V26.3319H9.33975C9.09714 26.3319 8.9003 26.5288 8.9003 26.7714C8.9003 27.0142 9.09714 27.2108 9.33975 27.2108H26.9415V29.1211H3.10547V27.2108H7.31827C7.56111 27.2108 7.75772 27.0142 7.75772 26.7714C7.75772 26.5288 7.56111 26.3319 7.31827 26.3319H2.95898C2.55501 26.3319 2.22656 26.6606 2.22656 27.0644V29.2676C2.22656 29.6716 2.55501 30 2.95898 30H27.0879C27.4917 30 27.8204 29.6716 27.8204 29.2676V27.0644C27.8204 26.6606 27.4917 26.3319 27.0879 26.3319ZM14.2142 4.58405H13.8515C13.6089 4.58405 13.412 4.78065 13.412 5.0235C13.412 5.26634 13.6089 5.46295 13.8515 5.46295H15.2172V6.25099H8.85612V5.46295H11.7421C11.9849 5.46295 12.1815 5.26634 12.1815 5.0235C12.1815 4.78065 11.9849 4.58405 11.7421 4.58405H9.85909C9.96162 3.47694 10.8989 2.60696 12.0369 2.60696C13.1747 2.60696 14.1119 3.47694 14.2142 4.58405ZM22.1674 18.7102H21.6875V14.4889H22.1674V18.7102Z" fill="#1C231F"/>
</svg>
