<svg width="21" height="30" viewBox="0 0 21 30" fill="none" xmlns="http://www.w3.org/2000/svg">
<path d="M2.03516 5.26187V7.839C2.03516 8.54535 2.60978 9.11998 3.31607 9.11998C4.02236 9.11998 4.59705 8.54529 4.59705 7.839V5.26187C4.59705 4.55553 4.02236 3.98096 3.31607 3.98096C2.60978 3.98096 2.03516 4.55553 2.03516 5.26187ZM3.7182 5.26187V7.839C3.7182 8.06072 3.53785 8.24107 3.31613 8.24107C3.09447 8.24107 2.91412 8.06072 2.91412 7.839V5.26187C2.91412 5.04021 3.09447 4.85986 3.31613 4.85986C3.53785 4.8598 3.7182 5.04021 3.7182 5.26187Z" fill="#1C231F"/>
<path d="M3.31607 12.7026C2.60973 12.7026 2.03516 13.2773 2.03516 13.9836V16.5607C2.03516 17.1292 2.40752 17.6121 2.92104 17.779V19.3517C2.92104 19.5944 3.11773 19.7911 3.36049 19.7911C3.60324 19.7911 3.79994 19.5944 3.79994 19.3517V17.7464C4.26705 17.5551 4.59705 17.0958 4.59705 16.5606V13.9836C4.59711 13.2773 4.02242 12.7026 3.31607 12.7026ZM2.91406 13.9836C2.91406 13.7619 3.09441 13.5815 3.31607 13.5815C3.53779 13.5815 3.71814 13.7619 3.71814 13.9836V16.5607C3.71814 16.7824 3.53779 16.9628 3.31607 16.9628C3.09441 16.9628 2.91406 16.7824 2.91406 16.5607V13.9836Z" fill="#1C231F"/>
<path d="M20.1596 10.7546H19.1698L19.4356 10.4889C19.6072 10.3172 19.6072 10.039 19.4356 9.86742C19.2639 9.69586 18.9857 9.69586 18.8141 9.86742L17.9268 10.7547H15.8679L17.3981 9.22459H18.6528C18.8955 9.22459 19.0922 9.02789 19.0922 8.78514C19.0922 8.54238 18.8955 8.34568 18.6528 8.34568H18.277L18.9769 7.64578C19.1485 7.4741 19.1485 7.1959 18.9769 7.02428C18.8052 6.85271 18.527 6.85271 18.3554 7.02428L17.6555 7.72412V7.34836C17.6555 7.10561 17.4588 6.90891 17.2161 6.90891C16.9733 6.90891 16.7766 7.10561 16.7766 7.34836V8.60303L15.2465 10.1332V8.07439L16.1338 7.18711C16.3054 7.01543 16.3054 6.73723 16.1338 6.56561C15.9621 6.39404 15.6839 6.39404 15.5123 6.56561L15.2466 6.83139V5.84139C15.2466 5.59863 15.0499 5.40193 14.8071 5.40193C14.5644 5.40193 14.3677 5.59863 14.3677 5.84139V6.83127L14.1018 6.56543C13.9303 6.39387 13.652 6.39381 13.4804 6.56549C13.3088 6.73711 13.3087 7.01537 13.4804 7.18693L14.3677 8.07416V10.1331L12.8242 8.58955V7.33488C12.8242 7.09213 12.6275 6.89543 12.3847 6.89543C12.142 6.89543 11.9453 7.09213 11.9453 7.33488V7.71064L11.4072 7.17258C11.2356 7.00107 10.9574 7.00096 10.7857 7.17258C10.6141 7.34426 10.6141 7.62246 10.7857 7.79408L11.3238 8.33221H10.948C10.7053 8.33221 10.5086 8.52891 10.5086 8.77166C10.5086 9.01441 10.7053 9.21111 10.948 9.21111H12.2027L13.7462 10.7546H11.4585L10.5712 9.8673C10.3996 9.69574 10.1214 9.69574 9.94975 9.8673C9.77812 10.039 9.77812 10.3172 9.94975 10.4888L10.2155 10.7545H0.878906V1.43754C0.878906 1.12951 1.12951 0.878906 1.43754 0.878906H13.8089C14.1169 0.878906 14.3675 1.12951 14.3675 1.43754V3.6934C14.3675 3.93615 14.5642 4.13285 14.807 4.13285C15.0497 4.13285 15.2464 3.93615 15.2464 3.6934V1.43754C15.2464 0.644883 14.6016 0 13.8089 0H1.43754C0.644883 0 0 0.644883 0 1.43754V28.8709C0 29.4935 0.506543 30 1.1291 30H2.09432C2.55604 30 2.9666 29.7236 3.14039 29.2958L3.82353 27.6141C3.93586 27.383 3.7674 26.9965 3.41936 27.0021H0.878906V11.6335H10.2152L9.94945 11.8992C9.77783 12.0709 9.77783 12.3491 9.94945 12.5207C10.0353 12.6065 10.1478 12.6494 10.2602 12.6494C10.3727 12.6494 10.4852 12.6065 10.571 12.5207L11.4583 11.6334H13.746L12.2025 13.1769H10.9478C10.705 13.1769 10.5083 13.3736 10.5083 13.6164C10.5083 13.8591 10.705 14.0558 10.9478 14.0558H11.3236L10.7855 14.5939C10.6138 14.7656 10.6138 15.0438 10.7855 15.2154C10.8713 15.3012 10.9838 15.3441 11.0962 15.3441C11.2087 15.3441 11.3212 15.3012 11.407 15.2154L11.9451 14.6774V15.0531C11.9451 15.2959 12.1418 15.4926 12.3846 15.4926C12.6273 15.4926 12.824 15.2959 12.824 15.0531V13.7985L14.3675 12.2549V14.5427L13.4803 15.43C13.3086 15.6016 13.3086 15.8798 13.4802 16.0514C13.6518 16.223 13.9301 16.2231 14.1016 16.0515L14.3675 15.7856V27.0019H5.59172C5.34896 27.0019 5.15227 27.1986 5.15227 27.4414C5.15227 27.6841 5.34896 27.8808 5.59172 27.8808H11.5314L12.1061 29.2957C12.2799 29.7234 12.6905 29.9998 13.1522 29.9998H14.1174C14.74 29.9998 15.2465 29.4933 15.2465 28.8707V15.7859L15.5122 16.0516C15.5981 16.1374 15.7106 16.1803 15.823 16.1803C15.9354 16.1803 16.0479 16.1374 16.1338 16.0516C16.3054 15.88 16.3054 15.6018 16.1338 15.4301L15.2465 14.5429V12.2552L16.7766 13.7854V15.04C16.7766 15.2828 16.9733 15.4795 17.2161 15.4795C17.4588 15.4795 17.6555 15.2828 17.6555 15.04V14.6643L18.3554 15.3641C18.4412 15.4499 18.5537 15.4928 18.6662 15.4928C18.7786 15.4928 18.8911 15.4499 18.9769 15.3641C19.1486 15.1924 19.1486 14.9142 18.9769 14.7426L18.277 14.0427H18.6529C18.8956 14.0427 19.0923 13.846 19.0923 13.6032C19.0923 13.3605 18.8956 13.1638 18.6529 13.1638H17.3981L15.868 11.6337H17.9269L18.8142 12.521C18.9 12.6067 19.0125 12.6496 19.1249 12.6496C19.2374 12.6496 19.3499 12.6067 19.4357 12.521C19.6073 12.3493 19.6073 12.0711 19.4357 11.8995L19.1699 11.6337H20.1598C20.4025 11.6337 20.5992 11.437 20.5992 11.1943C20.5992 10.9515 20.4024 10.7546 20.1596 10.7546ZM2.76645 27.881L2.32605 28.9651C2.28756 29.0599 2.19656 29.1211 2.09426 29.1211H1.12904C0.991113 29.1211 0.878848 29.0089 0.878848 28.8709V27.881H2.76645V27.881ZM14.3675 28.8709C14.3675 29.0088 14.2553 29.1211 14.1173 29.1211H13.1521C13.0498 29.1211 12.9588 29.0599 12.9203 28.9651L12.4799 27.881H14.3675V28.8709H14.3675Z" fill="#1C231F"/>
</svg>
