<svg width="11" height="7" viewBox="0 0 11 7" fill="none" xmlns="http://www.w3.org/2000/svg">
<path fill-rule="evenodd" clip-rule="evenodd" d="M0.2521 0.248341C0.409447 0.0969574 0.620459 0.0142356 0.838766 0.0183546C1.05707 0.0224736 1.26481 0.113096 1.41634 0.270308L5.49117 4.59556L9.566 0.270308C9.64007 0.188653 9.72977 0.122695 9.8298 0.0763444C9.92983 0.0299936 10.0381 0.00419262 10.1483 0.00046984C10.2585 -0.00325294 10.3683 0.0151781 10.4712 0.0546715C10.5742 0.094165 10.6681 0.153917 10.7475 0.230387C10.8269 0.306857 10.8902 0.398488 10.9335 0.499852C10.9769 0.601217 10.9995 0.710251 10.9999 0.820494C11.0003 0.930737 10.9786 1.03995 10.9361 1.14165C10.8935 1.24335 10.831 1.33548 10.7522 1.41258L6.08427 6.3551C6.00743 6.43482 5.9153 6.49824 5.8134 6.54155C5.71149 6.58486 5.6019 6.60719 5.49117 6.60719C5.38044 6.60719 5.27085 6.58486 5.16894 6.54155C5.06704 6.49824 4.97491 6.43482 4.89807 6.3551L0.230134 1.41258C0.0787496 1.25523 -0.00397223 1.04422 0.000146772 0.825914C0.00426578 0.607606 0.0948886 0.399865 0.2521 0.248341Z" fill="#63AC45"/>
</svg>
