<svg width="30" height="30" viewBox="0 0 30 30" fill="none" xmlns="http://www.w3.org/2000/svg">
<path d="M25 18.0249V12.9994C25 11.0259 18.7145 10.4994 15 10.4994C11.2855 10.4994 5 11.0259 5 12.9994V18.0249C2.17011 18.2856 0.00376256 20.6575 0 23.4994C0 24.604 0.89543 25.4994 2 25.4994V28.4994C2 29.3278 2.67157 29.9994 3.5 29.9994H4.5C5.28812 29.9958 5.93904 29.3829 5.99 28.5964C6.4735 28.1374 9.8745 27.4994 15 27.4994C20.1255 27.4994 23.5265 28.1374 24.0095 28.5949C24.0597 29.3822 24.7111 29.996 25.5 29.9994H26.5C27.3284 29.9994 28 29.3278 28 28.4994V25.4994C29.1046 25.4994 30 24.604 30 23.4994C29.9962 20.6575 27.8299 18.2856 25 18.0249ZM15 11.4994C20.544 11.4994 23.7945 12.4794 24 13.0099V17.9994H22.908C22.9672 17.8393 22.9983 17.6701 23 17.4994V14.9994C23 14.171 22.3284 13.4994 21.5 13.4994H17C16.1716 13.4994 15.5 14.171 15.5 14.9994V17.4994C15.5017 17.6701 15.5328 17.8393 15.592 17.9994H14.408C14.4672 17.8393 14.4983 17.6701 14.5 17.4994V14.9994C14.5 14.171 13.8284 13.4994 13 13.4994H8.5C7.67157 13.4994 7 14.171 7 14.9994V17.4994C7.00166 17.6701 7.03278 17.8393 7.092 17.9994H6V13.0154C6.182 12.4864 9.4365 11.4994 15 11.4994ZM16.5 17.4994V14.9994C16.5 14.7232 16.7239 14.4994 17 14.4994H21.5C21.7761 14.4994 22 14.7232 22 14.9994V17.4994C22 17.7755 21.7761 17.9994 21.5 17.9994H17C16.7239 17.9994 16.5 17.7755 16.5 17.4994ZM8 17.4994V14.9994C8 14.7232 8.22386 14.4994 8.5 14.4994H13C13.2761 14.4994 13.5 14.7232 13.5 14.9994V17.4994C13.5 17.7755 13.2761 17.9994 13 17.9994H8.5C8.22386 17.9994 8 17.7755 8 17.4994ZM4.5 28.9994H3.5C3.22386 28.9994 3 28.7755 3 28.4994V25.4994H5V28.4994C5 28.7755 4.77614 28.9994 4.5 28.9994ZM6 27.5094V25.4994H24V27.5094C21.737 26.5594 16.3125 26.4994 15 26.4994C13.6875 26.4994 8.263 26.5594 6 27.5094ZM27 28.4994C27 28.7755 26.7761 28.9994 26.5 28.9994H25.5C25.2239 28.9994 25 28.7755 25 28.4994V25.4994H27V28.4994ZM28 24.4994H2C1.44772 24.4994 1 24.0517 1 23.4994C1.00276 21.0153 3.01586 19.0021 5.5 18.9994H24.5C26.9841 19.0021 28.9972 21.0153 29 23.4994C29 24.0517 28.5523 24.4994 28 24.4994Z" fill="#1C231F"/>
<path d="M5.49998 19.9994C3.79078 19.9956 2.33039 21.2304 2.04998 22.9164C2.00417 23.1887 2.18772 23.4465 2.45998 23.4924C2.48706 23.4971 2.51449 23.4994 2.54198 23.4994C2.78588 23.4991 2.99399 23.3229 3.03448 23.0824C3.2351 21.8779 4.27885 20.996 5.49998 20.9994C5.77612 20.9994 5.99998 20.7755 5.99998 20.4994C5.99998 20.2233 5.77612 19.9994 5.49998 19.9994Z" fill="#1C231F"/>
<path d="M7.5 20.9994C7.77614 20.9994 8 20.7755 8 20.4994C8 20.2232 7.77614 19.9994 7.5 19.9994C7.22386 19.9994 7 20.2232 7 20.4994C7 20.7755 7.22386 20.9994 7.5 20.9994Z" fill="#1C231F"/>
<path d="M21 8.99944C21.5523 8.99944 22 8.55172 22 7.99944V1.55194C22 1.11731 21.7192 0.732465 21.3053 0.599757C20.8915 0.467048 20.4393 0.616866 20.1865 0.970436L19.047 2.56594L17.868 0.503436C17.6899 0.1921 17.3587 0 17 0C16.6413 0 16.3101 0.1921 16.132 0.503436L15 2.48394L13.868 0.503436C13.6899 0.1921 13.3587 0 13 0C12.6413 0 12.3101 0.1921 12.132 0.503436L10.953 2.56594L9.8135 0.970436C9.56074 0.616866 9.10853 0.467048 8.69466 0.599757C8.28079 0.732465 8.00003 1.11731 8 1.55194V7.99944C8 8.55172 8.44772 8.99944 9 8.99944H21ZM9 1.54944L10.5935 3.77994C10.6901 3.92143 10.8546 4.001 11.0255 3.98894C11.1953 3.98048 11.3492 3.88631 11.434 3.73894L13 0.999436L14.566 3.73944C14.6621 3.88548 14.8252 3.97341 15 3.97341C15.1748 3.97341 15.3379 3.88548 15.434 3.73944L17 0.999436L18.566 3.73944C18.6508 3.88681 18.8047 3.98098 18.9745 3.98944C19.145 3.99958 19.3086 3.92045 19.4065 3.78044L21 1.55194V7.99944H9V1.54944Z" fill="#1C231F"/>
<path d="M13.5 5.99939C13.7761 5.99939 14 5.77553 14 5.49939C14 5.22325 13.7761 4.99939 13.5 4.99939C13.2239 4.99939 13 5.22325 13 5.49939C13 5.77553 13.2239 5.99939 13.5 5.99939Z" fill="#1C231F"/>
<path d="M10.5 5.99939C10.7761 5.99939 11 5.77553 11 5.49939C11 5.22325 10.7761 4.99939 10.5 4.99939C10.2239 4.99939 10 5.22325 10 5.49939C10 5.77553 10.2239 5.99939 10.5 5.99939Z" fill="#1C231F"/>
<path d="M19.5 5.99939C19.7761 5.99939 20 5.77553 20 5.49939C20 5.22325 19.7761 4.99939 19.5 4.99939C19.2239 4.99939 19 5.22325 19 5.49939C19 5.77553 19.2239 5.99939 19.5 5.99939Z" fill="#1C231F"/>
<path d="M16.5 5.99939C16.7761 5.99939 17 5.77553 17 5.49939C17 5.22325 16.7761 4.99939 16.5 4.99939C16.2239 4.99939 16 5.22325 16 5.49939C16 5.77553 16.2239 5.99939 16.5 5.99939Z" fill="#1C231F"/>
</svg>
