<svg width="27" height="27" viewBox="0 0 27 27" fill="none" xmlns="http://www.w3.org/2000/svg">
<g clip-path="url(#clip0_45_7929)">
<path d="M2.70023 19.5748C2.94874 19.5748 3.15021 19.3733 3.15021 19.1248C3.15021 18.8763 2.94874 18.6748 2.70023 18.6748C2.45171 18.6748 2.25024 18.8763 2.25024 19.1248C2.25024 19.3733 2.45171 19.5748 2.70023 19.5748Z" fill="#484848"/>
<path d="M6.30008 19.5748C6.5486 19.5748 6.75006 19.3733 6.75006 19.1248C6.75006 18.8763 6.5486 18.6748 6.30008 18.6748C6.05156 18.6748 5.8501 18.8763 5.8501 19.1248C5.8501 19.3733 6.05156 19.5748 6.30008 19.5748Z" fill="#484848"/>
<path d="M9.90006 19.5748C10.1486 19.5748 10.35 19.3733 10.35 19.1248C10.35 18.8763 10.1486 18.6748 9.90006 18.6748C9.65154 18.6748 9.45007 18.8763 9.45007 19.1248C9.45007 19.3733 9.65154 19.5748 9.90006 19.5748Z" fill="#484848"/>
<path d="M4.50015 21.3746C4.74867 21.3746 4.95014 21.1731 4.95014 20.9246C4.95014 20.6761 4.74867 20.4746 4.50015 20.4746C4.25163 20.4746 4.05017 20.6761 4.05017 20.9246C4.05017 21.1731 4.25163 21.3746 4.50015 21.3746Z" fill="#484848"/>
<path d="M8.10013 21.3746C8.34865 21.3746 8.55011 21.1731 8.55011 20.9246C8.55011 20.6761 8.34865 20.4746 8.10013 20.4746C7.85161 20.4746 7.65015 20.6761 7.65015 20.9246C7.65015 21.1731 7.85161 21.3746 8.10013 21.3746Z" fill="#484848"/>
<path d="M2.70023 23.1749C2.94874 23.1749 3.15021 22.9734 3.15021 22.7249C3.15021 22.4764 2.94874 22.2749 2.70023 22.2749C2.45171 22.2749 2.25024 22.4764 2.25024 22.7249C2.25024 22.9734 2.45171 23.1749 2.70023 23.1749Z" fill="#484848"/>
<path d="M6.30008 23.1749C6.5486 23.1749 6.75006 22.9734 6.75006 22.7249C6.75006 22.4764 6.5486 22.2749 6.30008 22.2749C6.05156 22.2749 5.8501 22.4764 5.8501 22.7249C5.8501 22.9734 6.05156 23.1749 6.30008 23.1749Z" fill="#484848"/>
<path d="M9.90006 23.1749C10.1486 23.1749 10.35 22.9734 10.35 22.7249C10.35 22.4764 10.1486 22.2749 9.90006 22.2749C9.65154 22.2749 9.45007 22.4764 9.45007 22.7249C9.45007 22.9734 9.65154 23.1749 9.90006 23.1749Z" fill="#484848"/>
<path d="M13.5 19.5748C13.7485 19.5748 13.95 19.3733 13.95 19.1248C13.95 18.8763 13.7485 18.6748 13.5 18.6748C13.2515 18.6748 13.05 18.8763 13.05 19.1248C13.05 19.3733 13.2515 19.5748 13.5 19.5748Z" fill="#484848"/>
<path d="M17.0999 19.5748C17.3484 19.5748 17.5499 19.3733 17.5499 19.1248C17.5499 18.8763 17.3484 18.6748 17.0999 18.6748C16.8514 18.6748 16.6499 18.8763 16.6499 19.1248C16.6499 19.3733 16.8514 19.5748 17.0999 19.5748Z" fill="#484848"/>
<path d="M11.7 21.3746C11.9485 21.3746 12.15 21.1731 12.15 20.9246C12.15 20.6761 11.9485 20.4746 11.7 20.4746C11.4515 20.4746 11.25 20.6761 11.25 20.9246C11.25 21.1731 11.4515 21.3746 11.7 21.3746Z" fill="#484848"/>
<path d="M15.3 21.3746C15.5485 21.3746 15.7499 21.1731 15.7499 20.9246C15.7499 20.6761 15.5485 20.4746 15.3 20.4746C15.0514 20.4746 14.85 20.6761 14.85 20.9246C14.85 21.1731 15.0514 21.3746 15.3 21.3746Z" fill="#484848"/>
<path d="M13.5 23.1749C13.7485 23.1749 13.95 22.9734 13.95 22.7249C13.95 22.4764 13.7485 22.2749 13.5 22.2749C13.2515 22.2749 13.05 22.4764 13.05 22.7249C13.05 22.9734 13.2515 23.1749 13.5 23.1749Z" fill="#484848"/>
<path d="M17.0999 23.1749C17.3484 23.1749 17.5499 22.9734 17.5499 22.7249C17.5499 22.4764 17.3484 22.2749 17.0999 22.2749C16.8514 22.2749 16.6499 22.4764 16.6499 22.7249C16.6499 22.9734 16.8514 23.1749 17.0999 23.1749Z" fill="#484848"/>
<path d="M20.6999 19.5748C20.9484 19.5748 21.1498 19.3733 21.1498 19.1248C21.1498 18.8763 20.9484 18.6748 20.6999 18.6748C20.4513 18.6748 20.2499 18.8763 20.2499 19.1248C20.2499 19.3733 20.4513 19.5748 20.6999 19.5748Z" fill="#484848"/>
<path d="M24.2998 19.5748C24.5484 19.5748 24.7498 19.3733 24.7498 19.1248C24.7498 18.8763 24.5484 18.6748 24.2998 18.6748C24.0513 18.6748 23.8499 18.8763 23.8499 19.1248C23.8499 19.3733 24.0513 19.5748 24.2998 19.5748Z" fill="#484848"/>
<path d="M18.8999 21.3746C19.1485 21.3746 19.3499 21.1731 19.3499 20.9246C19.3499 20.6761 19.1485 20.4746 18.8999 20.4746C18.6514 20.4746 18.45 20.6761 18.45 20.9246C18.45 21.1731 18.6514 21.3746 18.8999 21.3746Z" fill="#484848"/>
<path d="M22.4998 21.3746C22.7483 21.3746 22.9498 21.1731 22.9498 20.9246C22.9498 20.6761 22.7483 20.4746 22.4998 20.4746C22.2513 20.4746 22.0498 20.6761 22.0498 20.9246C22.0498 21.1731 22.2513 21.3746 22.4998 21.3746Z" fill="#484848"/>
<path d="M20.6999 23.1749C20.9484 23.1749 21.1498 22.9734 21.1498 22.7249C21.1498 22.4764 20.9484 22.2749 20.6999 22.2749C20.4513 22.2749 20.2499 22.4764 20.2499 22.7249C20.2499 22.9734 20.4513 23.1749 20.6999 23.1749Z" fill="#484848"/>
<path d="M24.2998 23.1749C24.5484 23.1749 24.7498 22.9734 24.7498 22.7249C24.7498 22.4764 24.5484 22.2749 24.2998 22.2749C24.0513 22.2749 23.8499 22.4764 23.8499 22.7249C23.8499 22.9734 24.0513 23.1749 24.2998 23.1749Z" fill="#484848"/>
<path d="M25.2593 8.03522C25.3413 7.93334 25.4652 7.87438 25.5959 7.87502C26.0381 7.89015 26.4599 7.68892 26.7263 7.33571C26.9927 6.9825 27.0703 6.52167 26.9343 6.1007C26.733 5.53698 26.1945 5.16452 25.596 5.17507C25.4647 5.17565 25.3404 5.11616 25.2585 5.01355C24.332 3.89755 22.2161 2.02515 18.4502 2.02515H8.55026C4.78425 2.02515 2.66843 3.89755 1.74096 5.01486C1.65901 5.11674 1.53509 5.1757 1.40436 5.17507C1.03655 5.1584 0.678014 5.29345 0.412607 5.54868C0.1472 5.80391 -0.00182466 6.15686 0.000390138 6.52504C0.000390138 6.669 0.0225381 6.81212 0.0660959 6.94939C0.267379 7.51311 0.805892 7.88556 1.40436 7.87502C1.53556 7.87443 1.6598 7.93376 1.74186 8.03612C2.47886 8.91486 3.39431 9.62687 4.42741 10.125H2.70039C1.60797 10.126 0.623593 10.7846 0.205787 11.794C-0.21202 12.8034 0.0189522 13.965 0.791074 14.7378C0.814013 14.7608 0.839694 14.7806 0.86353 14.8026C0.715191 14.875 0.579297 14.9704 0.460805 15.0852C-0.134502 15.6792 -0.154382 16.6374 0.415823 17.2555C0.151049 17.5085 0.00102294 17.8586 0.000495605 18.2248V23.6247C0.000495605 24.3703 0.604925 24.9747 1.35047 24.9747H25.65C26.3955 24.9747 27 24.3703 27 23.6247V18.2248C26.9989 17.6933 26.686 17.2119 26.2008 16.995L26.2129 16.9842C26.73 16.4647 27.0136 15.7573 26.9986 15.0245C26.9837 14.2917 26.6715 13.5965 26.1337 13.0985C26.7852 12.7718 27.1263 12.0398 26.9574 11.3309C26.7884 10.6219 26.1538 10.1225 25.425 10.1249H22.5729C23.6063 9.6265 24.522 8.91423 25.2593 8.03522ZM25.6499 17.7749C25.8985 17.7749 26.0999 17.9763 26.0999 18.2248V23.6247C26.0999 23.8733 25.8985 24.0747 25.6499 24.0747H1.35042C1.10188 24.0747 0.900443 23.8732 0.900443 23.6247V18.2248C0.900443 17.9763 1.10194 17.7749 1.35042 17.7749H25.6499ZM25.4249 11.025C25.7977 11.025 26.0999 11.3272 26.0999 11.7C26.0999 12.0727 25.7977 12.375 25.4249 12.375H2.70039C2.45186 12.375 2.25042 12.5765 2.25042 12.8249C2.25042 13.0735 2.45191 13.2749 2.70039 13.2749H24.3C25.294 13.2749 26.0999 14.0808 26.0999 15.0749C26.0999 16.0689 25.294 16.8748 24.3 16.8748H1.57538C1.20261 16.8748 0.90039 16.5726 0.90039 16.1998C0.90039 15.827 1.20261 15.5248 1.57538 15.5248H24.2999C24.5484 15.5248 24.7499 15.3234 24.7499 15.0749C24.7499 14.8263 24.5484 14.6249 24.2999 14.6249H2.70034C1.70626 14.6249 0.90039 13.819 0.90039 12.8249C0.90039 11.8309 1.70626 11.025 2.70034 11.025H25.4249ZM18.45 10.125H8.55026C5.32203 10.125 3.4424 8.67646 2.43535 7.46238C2.18192 7.15389 1.80366 6.97507 1.40442 6.97502C1.19844 6.98498 1.00765 6.86686 0.9247 6.67802C0.892691 6.57899 0.892691 6.47241 0.9247 6.37338C1.00718 6.18401 1.19807 6.06531 1.40442 6.07502C1.80334 6.07523 2.18139 5.89651 2.43446 5.58813C3.44245 4.37315 5.32203 2.92509 8.55031 2.92509H18.45C21.6783 2.92509 23.5579 4.37315 24.565 5.58723C24.8181 5.89609 25.1965 6.07517 25.5959 6.07502C25.8019 6.06505 25.9927 6.18317 26.0756 6.37201C26.1076 6.47104 26.1076 6.57762 26.0756 6.67665C25.9931 6.86602 25.8022 6.98472 25.5959 6.97502C25.1971 6.97491 24.8191 7.15336 24.5658 7.46148C23.5579 8.67646 21.6783 10.125 18.45 10.125Z" fill="#484848"/>
<path fill-rule="evenodd" clip-rule="evenodd" d="M8.55009 8.32498C6.19575 8.32498 4.79763 7.3656 4.0398 6.56099C3.86884 6.38313 3.58651 6.37611 3.4069 6.54523C3.22729 6.71434 3.21732 6.99657 3.38459 7.17792C4.26434 8.11167 5.87439 9.22493 8.55003 9.22493C8.79856 9.22493 9.00001 9.02343 9.00001 8.77495C9.00001 8.52647 8.79862 8.32498 8.55009 8.32498Z" fill="#484848"/>
<path fill-rule="evenodd" clip-rule="evenodd" d="M21.1498 5.625H5.85012C5.60159 5.625 5.40015 5.82644 5.40015 6.07497C5.40015 6.32351 5.60164 6.52495 5.85012 6.52495H21.1498C21.3983 6.52495 21.5998 6.32345 21.5998 6.07497C21.5998 5.82644 21.3983 5.625 21.1498 5.625Z" fill="#484848"/>
</g>
<defs>
<clipPath id="clip0_45_7929">
<rect width="27" height="27" fill="white"/>
</clipPath>
</defs>
</svg>
