<svg width="29" height="30" viewBox="0 0 29 30" fill="none" xmlns="http://www.w3.org/2000/svg">
<path d="M3.61361 3.28397L1.99369 2.33564C1.78422 2.21301 1.51504 2.28343 1.39241 2.4929C1.26977 2.70237 1.3402 2.97155 1.54967 3.09419L3.16953 4.04246C3.37537 4.16316 3.64689 4.09683 3.77082 3.88519C3.89345 3.67578 3.82302 3.40655 3.61361 3.28397ZM4.09454 2.19824C4.25726 2.37918 4.53522 2.39289 4.71516 2.23111C4.89557 2.06881 4.91033 1.79096 4.74803 1.61049L3.43051 0.145549C3.26826 -0.0348592 2.99041 -0.0495661 2.80989 0.112678C2.62948 0.274981 2.61472 0.552829 2.77702 0.733296L4.09454 2.19824ZM2.45821 4.99331L0.535833 4.56159C0.298649 4.50821 0.0639249 4.65727 0.0107809 4.89405C-0.0424216 5.13088 0.106463 5.36596 0.343238 5.4191L2.26562 5.85081C2.29808 5.85814 2.33042 5.86165 2.3623 5.86165C2.56339 5.86165 2.74473 5.72279 2.79067 5.51842C2.84387 5.28152 2.69499 5.04651 2.45821 4.99331ZM27.6846 12.5263C26.9376 10.7601 25.4427 9.47825 23.5832 9.00945L12.2079 6.14161L9.00564 2.5304C8.61963 2.09494 7.9628 2.04156 7.51034 2.40876C6.64621 3.10971 5.91374 3.94308 5.33332 4.88567C4.65352 5.9898 4.20446 7.20379 3.99857 8.49389C3.90699 9.06775 4.28186 9.60862 4.85197 9.7254L9.5802 10.6929L11.1598 12.3201C11.329 12.4944 11.6072 12.4983 11.7812 12.3294C11.9554 12.1603 11.9595 11.8821 11.7904 11.708L10.3476 10.2217L12.1835 7.04189L23.3682 9.86169C24.9581 10.2625 26.2363 11.3586 26.875 12.8687C27.5137 14.3788 27.4098 16.0594 26.59 17.4793C25.7702 18.8993 24.3667 19.8295 22.7396 20.0315C21.1125 20.2337 19.5241 19.6746 18.3821 18.4981L13.0436 12.9989C12.8746 12.8247 12.5965 12.8206 12.4223 12.9897C12.2481 13.1588 12.244 13.437 12.4131 13.6111L15.9675 17.2725C15.2569 17.3943 14.6239 17.8256 14.2577 18.4603C13.931 19.0264 13.8441 19.6858 14.0132 20.317C14.2065 21.0386 14.7373 21.6332 15.4145 21.9534L13.4333 25.3847C13.0224 26.0964 12.9133 26.9256 13.126 27.7193C13.3387 28.5129 13.8477 29.1761 14.5591 29.5867C15.2728 29.9985 16.1045 30.1057 16.8933 29.8943C17.6869 29.6817 18.3503 29.1727 18.7613 28.4609L22.2467 22.4241C22.368 22.2139 22.296 21.9452 22.0858 21.8238C21.8757 21.7025 21.6068 21.7744 21.4856 21.9847L18.0001 28.0216C17.7066 28.53 17.2327 28.8936 16.6659 29.0455C16.099 29.1974 15.5069 29.1194 14.9987 28.8257C14.4905 28.5324 14.1269 28.0587 13.975 27.4918C13.823 26.9249 13.901 26.3327 14.1945 25.8243L17.9554 19.3106C19.0865 20.3738 20.5488 20.9511 22.0841 20.9511C22.3371 20.9511 22.5921 20.9354 22.8479 20.9037C24.7509 20.6675 26.3924 19.5795 27.3512 17.9188C28.31 16.2581 28.4315 14.2925 27.6846 12.5263ZM9.57891 9.79548L5.02822 8.86426C4.92029 8.84217 4.84922 8.74027 4.86645 8.63229C5.054 7.45703 5.46292 6.35149 6.08173 5.34645C6.61006 4.48835 7.27697 3.72957 8.06405 3.0912C8.1026 3.05991 8.14889 3.04456 8.19483 3.04456C8.25149 3.04456 8.30768 3.06788 8.34799 3.11341L11.43 6.58909L9.57891 9.79548ZM15.8541 21.1924L15.5928 21.0416C14.8441 20.6095 14.5867 19.6487 15.019 18.8996C15.2982 18.4157 15.8191 18.1152 16.3785 18.1152C16.5432 18.1152 16.7049 18.1413 16.8604 18.1923L17.3155 18.6611L15.8541 21.1924ZM25.518 16.8311C26.4332 15.2462 25.8472 13.2448 24.3209 12.3636C22.767 11.4664 20.7445 12.0171 19.8534 13.5606C18.9517 15.1223 19.4886 17.1265 21.0504 18.0282C22.5927 18.9186 24.6069 18.4092 25.518 16.8311ZM20.6146 14C21.2668 12.8703 22.7444 12.4681 23.8815 13.1247C25.0029 13.772 25.4079 15.264 24.7569 16.3916C24.0976 17.5337 22.6319 17.9263 21.4899 17.267C20.3478 16.6076 19.9552 15.142 20.6146 14ZM18.4195 24.7652C18.7597 24.674 19.044 24.4559 19.22 24.1509C19.3961 23.846 19.4429 23.4907 19.3517 23.1506C19.2605 22.8104 19.0425 22.5261 18.7375 22.3501C18.4325 22.174 18.0773 22.1271 17.7371 22.2184C17.397 22.3096 17.1127 22.5276 16.9366 22.8327C16.5732 23.4622 16.7897 24.2701 17.4191 24.6335C17.6223 24.7508 17.8477 24.8107 18.0762 24.8107C18.1907 24.8107 18.306 24.7956 18.4195 24.7652ZM17.8586 23.8723C17.6488 23.7512 17.5766 23.4818 17.6977 23.272C17.7565 23.1703 17.8512 23.0976 17.9646 23.0672C18.0025 23.0571 18.0409 23.0521 18.079 23.0521C18.1552 23.0521 18.2304 23.0721 18.2981 23.1112C18.3997 23.1699 18.4725 23.2646 18.5028 23.378C18.5332 23.4914 18.5176 23.6098 18.4589 23.7114V23.7115C18.4002 23.8131 18.3054 23.8859 18.192 23.9162C18.0787 23.9466 17.9602 23.9309 17.8586 23.8723ZM23.4349 16.6432C23.5563 16.4331 23.4843 16.1643 23.2741 16.043L21.658 15.1099C21.4477 14.9886 21.1789 15.0605 21.0577 15.2708C20.9364 15.4809 21.0084 15.7497 21.2185 15.871L22.8347 16.8041C23.041 16.9234 23.3122 16.8556 23.4349 16.6432ZM17.2585 26.7779L15.6424 25.8448C15.432 25.7235 15.1633 25.7954 15.0421 26.0057C14.9207 26.2158 14.9927 26.4846 15.2029 26.6059L16.819 27.539C16.8883 27.5789 16.9638 27.5979 17.0383 27.5979C17.1902 27.5979 17.3379 27.5191 17.4193 27.3781C17.5407 27.168 17.4686 26.8993 17.2585 26.7779ZM22.0974 14.3487L23.7136 15.2818C23.92 15.4013 24.1912 15.3333 24.3138 15.1209C24.4352 14.9108 24.3632 14.642 24.153 14.5207L22.5369 13.5876C22.3268 13.4662 22.0579 13.5382 21.9366 13.7484C21.8152 13.9586 21.8873 14.2273 22.0974 14.3487Z" fill="#1C231F"/>
</svg>
