<svg width="75" height="57" viewBox="0 0 75 57" fill="none" xmlns="http://www.w3.org/2000/svg">
<path d="M19.0954 24.3735C18.7449 24.3252 18.3896 24.4176 18.107 24.6304C17.8244 24.8433 17.6375 25.1593 17.587 25.5094C17.5366 25.8596 17.6268 26.2155 17.8379 26.4994C18.049 26.7833 18.3638 26.9722 18.7137 27.0248C26.8893 28.2027 29.2713 33.8571 29.8302 38.3923C30.0851 40.3304 29.9482 42.2999 29.4275 44.184C28.8511 46.2505 27.7935 48.1512 26.3414 49.7304C24.8892 51.3097 23.0838 52.5227 21.0728 53.2702C17.9766 54.5207 14.5431 54.6612 11.3551 53.6676C2.39378 50.8255 2.6618 40.5116 2.67874 40.0226C2.67874 24.0139 17.5546 2.31815 17.705 2.10113C17.9071 1.80917 17.985 1.44888 17.9215 1.09949C17.858 0.750113 17.6583 0.440268 17.3663 0.238121C17.0744 0.035975 16.7141 -0.0419141 16.3647 0.0215886C16.0153 0.0850913 15.7055 0.284784 15.5033 0.576737C14.8706 1.49189 0.00123246 23.1733 0.00254443 39.969C-0.00269006 40.0972 -0.378556 52.7551 10.5458 56.2196C12.1892 56.7388 13.9028 57.0021 15.6262 57.0001C17.8326 56.9988 20.0186 56.5768 22.0669 55.7568C24.4618 54.8626 26.6108 53.4138 28.3378 51.529C30.0649 49.6442 31.3209 47.3772 32.0029 44.9135C32.6218 42.6864 32.7867 40.3576 32.488 38.0655C31.937 33.5943 29.4641 25.8691 19.0954 24.3735Z" fill="white"/>
<path d="M74.8286 38.0655C74.2775 33.5943 71.8046 25.8691 61.4359 24.3734C61.0847 24.3237 60.7282 24.4153 60.4445 24.6282C60.1608 24.841 59.9731 25.1577 59.9225 25.5087C59.872 25.8597 59.9627 26.2165 60.1749 26.5007C60.387 26.7849 60.7032 26.9734 61.0541 27.0248C69.2298 28.2027 71.6118 33.8571 72.1707 38.3923C72.4258 40.3303 72.2891 42.2998 71.7687 44.184C71.1919 46.2504 70.1341 48.151 68.6819 49.7303C67.2297 51.3095 65.4243 52.5226 63.4133 53.2702C60.3169 54.5195 56.8837 54.6599 53.6956 53.6676C44.7343 50.8255 45.0023 40.5116 45.0192 40.0226C45.0192 24.0139 59.8958 2.31814 60.0461 2.10112C60.2483 1.80917 60.3261 1.44887 60.2626 1.09949C60.1991 0.750114 59.9994 0.44027 59.7075 0.238123C59.4155 0.0359767 59.0553 -0.0419136 58.7059 0.0215878C58.3565 0.0850892 58.0467 0.28478 57.8445 0.576731C57.2117 1.49188 42.3417 23.1733 42.343 39.969C42.3378 40.0972 41.9619 52.7551 52.8863 56.2196C54.53 56.7388 56.2437 57.0021 57.9674 57.0001C60.1736 56.9988 62.3593 56.5768 64.4075 55.7568C66.8025 54.8626 68.9515 53.4138 70.6787 51.5291C72.4058 49.6443 73.662 47.3772 74.3441 44.9135C74.9624 42.6863 75.1271 40.3576 74.8286 38.0655Z" fill="white"/>
</svg>
