<svg width="85" height="85" viewBox="0 0 85 85" fill="none" xmlns="http://www.w3.org/2000/svg">
<circle cx="42.5" cy="42.5" r="42.5" fill="#FF702A" fill-opacity="0.1"/>
<g clip-path="url(#clip0_45_8098)">
<path d="M60.1339 63.5716L43.1491 29.6019L44.8474 26.2053L43.6682 25.6157L42.4121 28.128L41.156 25.6157L39.9768 26.2053L41.6751 29.6019L24.6903 63.5716H22.6367V64.89H62.3633V63.5716H60.1339ZM42.4121 31.0758L46.4088 39.0692L45.7077 39.8071L44.0375 38.0493L42.3675 39.8071L40.6975 38.0492L39.0281 39.807L38.385 39.13L42.4121 31.0758ZM31.7613 63.5716L40.5514 50.0424L36.4732 63.5716H31.7613ZM37.8501 63.5716L42.5047 48.1302L47.2283 63.5716H37.8501ZM48.6068 63.5716L44.4949 50.1297L53.3197 63.5716H48.6068ZM54.8968 63.5716L42.4786 44.6561L30.1891 63.5716H26.1642L37.758 40.384L39.0282 41.7212L40.6976 39.9633L42.3675 41.7211L44.0375 39.9633L45.7077 41.7211L47.0358 40.3233L58.66 63.5716H54.8968Z" fill="#FF702A"/>
<path d="M28.6414 29.4838C28.314 26.8178 30.2165 24.3826 32.8824 24.0552C33.2179 24.0141 33.5592 24.0077 33.8968 24.0366L35.5088 24.1745L34.4522 22.9493C32.8961 21.1448 30.6397 20.1099 28.2617 20.1099C23.7547 20.1099 20.0879 23.7767 20.0879 28.2837C20.0879 32.7907 23.7547 36.4575 28.2617 36.4575C30.0002 36.4575 31.6614 35.9173 33.0658 34.8953L34.3747 33.9428L32.7727 33.7101C30.6072 33.3953 28.9083 31.6575 28.6414 29.4838ZM28.2617 35.1392C24.4816 35.1392 21.4062 32.0638 21.4062 28.2837C21.4062 24.5036 24.4816 21.4282 28.2617 21.4282C29.7574 21.4282 31.1959 21.9167 32.3724 22.7996C29.1698 23.3779 26.9313 26.3746 27.3329 29.6444C27.604 31.8527 29.0385 33.7071 31.0093 34.5662C30.15 34.9436 29.2199 35.1392 28.2617 35.1392Z" fill="#FF702A"/>
<path d="M62.1506 24.352L58.7894 23.8635L57.2863 20.8179L55.7831 23.8635L52.4221 24.352L54.8542 26.7226L54.28 30.0701L57.2863 28.4897L60.2925 30.0701L59.7184 26.7227L62.1506 24.352ZM58.5417 27.6602L57.2864 27.0004L56.0311 27.6602L56.2709 26.2625L55.2554 25.2725L56.6587 25.0685L57.2864 23.7968L57.9141 25.0685L59.3176 25.2725L58.3019 26.2624L58.5417 27.6602Z" fill="#FF702A"/>
<path d="M64.8517 36.0013L60.8911 35.4258L59.1199 31.8369L57.3487 35.4258L53.3882 36.0013L56.254 38.7948L55.5775 42.7393L59.1199 40.877L62.6623 42.7393L61.9858 38.7949L64.8517 36.0013ZM59.1199 39.3875L57.3284 40.3293L57.6707 38.3345L56.2213 36.9217L58.2242 36.6306L59.1199 34.8157L60.0156 36.6306L62.0185 36.9217L60.5692 38.3344L60.9114 40.3293L59.1199 39.3875Z" fill="#FF702A"/>
<path d="M21.3184 63.5718H20V64.8901H21.3184V63.5718Z" fill="#FF702A"/>
<path d="M65 63.5718H63.6816V64.8901H65V63.5718Z" fill="#FF702A"/>
<path d="M50.5012 50.1989L49.322 50.7886L49.9118 51.9678L51.0909 51.3781L50.5012 50.1989Z" fill="#FF702A"/>
<path d="M47.7871 44.7757L46.6079 45.3652L48.7304 49.6101L49.9095 49.0206L47.7871 44.7757Z" fill="#FF702A"/>
<path d="M51.6782 52.5584L50.499 53.1479L51.0886 54.3271L52.2677 53.7375L51.6782 52.5584Z" fill="#FF702A"/>
<path d="M30.565 57.719L31.7441 58.3086L32.3337 57.1295L31.1546 56.5399L30.565 57.719Z" fill="#FF702A"/>
<path d="M32.3325 54.1812L31.7429 55.3604L32.9221 55.9499L33.5116 54.7708L32.3325 54.1812Z" fill="#FF702A"/>
<path d="M34.2442 50.3631L35.4233 50.9526L36.0129 49.7735L34.8338 49.1839L34.2442 50.3631Z" fill="#FF702A"/>
<path d="M37.3866 44.0729L35.4214 48.0034L36.6005 48.593L38.5658 44.6625L37.3866 44.0729Z" fill="#FF702A"/>
<path d="M22.7246 28.2835H24.043C24.043 27.9066 24.0928 27.5329 24.1912 27.1727L22.9195 26.8252C22.7902 27.2986 22.7246 27.7893 22.7246 28.2835Z" fill="#FF702A"/>
<path d="M27.2313 22.8428C25.6779 23.1364 24.3196 24.0876 23.5046 25.4522L24.6365 26.1281C25.2582 25.0871 26.2932 24.3617 27.4762 24.1382L27.2313 22.8428Z" fill="#FF702A"/>
<path d="M43.0713 35.5786H41.7529V36.897H43.0713V35.5786Z" fill="#FF702A"/>
</g>
<defs>
<clipPath id="clip0_45_8098">
<rect width="45" height="45" fill="white" transform="translate(20 20)"/>
</clipPath>
</defs>
</svg>
