<svg width="65" height="65" viewBox="0 0 65 65" fill="none" xmlns="http://www.w3.org/2000/svg">
<g clip-path="url(#clip0_160_4600)">
<path d="M48.101 62.625H45.9492V64.7768H48.101V62.625Z" fill="white"/>
<path d="M40.4435 45.9798L38.5488 47L46.0802 60.9872L47.9748 59.9671L40.4435 45.9798Z" fill="white"/>
<path d="M12.9118 31.1089L14.4331 29.5876L8.29297 23.4475V20.0347L12.9118 24.6535L14.4331 23.1322L7.97774 16.6769L7.97021 16.6844C7.57199 16.2644 6.90884 16.2466 6.4887 16.6449C6.47727 16.6556 6.46624 16.6666 6.45535 16.6779L0 23.1333L1.52131 24.6546L6.14119 20.0347V23.4475L0.00107589 29.5876L1.52239 31.1089L6.14119 26.4901V29.9028L0.00107589 36.0429L1.52239 37.5642L6.14119 32.9454V36.3582L0.00107589 42.4983L1.52239 44.0196L6.14119 39.4008V64.7768H8.29297V39.4008L12.9118 44.0196L14.4331 42.4983L8.29297 36.3582V32.9454L12.9118 37.5642L14.4331 36.0429L8.29297 29.9028V26.4901L12.9118 31.1089Z" fill="white"/>
<path d="M63.4786 35.4125L64.9999 33.8912L58.8598 27.7511V24.3384L63.4786 28.9572L64.9999 27.4358L58.5445 20.9805L58.537 20.988C58.1388 20.568 57.4755 20.5503 57.0555 20.9485C57.044 20.9593 57.033 20.9703 57.0221 20.9816L50.5668 27.4369L52.0881 28.9582L56.708 24.3384V27.7511L50.5679 33.8912L52.0892 35.4125L56.708 30.7937V34.2064L50.5679 40.3465L52.0892 41.8679L56.708 37.2491V47.5626L54.4486 42.7996C54.2716 42.4246 53.8949 42.1848 53.4803 42.1831H39.4937V34.0214L44.1125 38.6402L45.6338 37.1189L39.4937 30.9788V27.566L44.1125 32.1848L45.6338 30.6635L39.4937 24.5234V21.1107L44.1125 25.7295L45.6338 24.2082L39.4937 18.0681V14.6553L44.1125 19.2741L45.6338 17.7528L39.1785 11.2975L39.1709 11.305C38.7727 10.885 38.1094 10.8673 37.6894 11.2655C37.678 11.2762 37.667 11.2873 37.6561 11.2985L31.2007 17.7539L32.722 19.2752L37.3419 14.6553V18.0681L31.2018 24.2082L32.7231 25.7295L37.3419 21.1107V24.5234L31.2018 30.6635L32.7231 32.1848L37.3419 27.566V30.9788L31.2018 37.1189L32.7231 38.6402L37.3419 34.0214V42.1831H22.2794C21.9759 42.1848 21.6877 42.3165 21.4876 42.5446C21.424 42.6082 21.37 42.6807 21.3273 42.7598L10.5683 63.2017C10.2927 63.7281 10.4959 64.3783 11.0222 64.654C11.176 64.7346 11.347 64.7767 11.5205 64.7768H43.7973V62.625H33.6839L24.0611 44.3349H52.7993L61.4634 62.625H50.2526V64.7768H63.1633C63.7575 64.7745 64.2373 64.2911 64.2352 63.6969C64.2346 63.539 64.1993 63.3831 64.1316 63.2405L58.8598 52.1039V37.2491L63.4786 41.8679L64.9999 40.3465L58.8598 34.2064V30.7937L63.4786 35.4125ZM21.2035 62.625H13.3022L21.2035 47.6131V62.625ZM31.2567 62.625H23.3553V47.6131L31.2567 62.625Z" fill="white"/>
<path d="M20.6659 0.223145C20.0717 0.223279 19.5901 0.705009 19.5902 1.29931C19.5902 1.58455 19.7036 1.85796 19.9052 2.05969C21.0163 3.05825 21.7344 4.42074 21.93 5.9017C22.1339 7.71808 20.8268 9.35585 19.0105 9.55973C18.765 9.5873 18.5173 9.5873 18.272 9.55973L18.2752 9.5565C16.7943 9.36083 15.4318 8.6428 14.4332 7.53168C14.013 7.11154 13.3318 7.11168 12.9116 7.53195C12.7101 7.73368 12.5967 8.00722 12.5967 8.29233C12.5967 12.7488 16.2094 16.3615 20.6659 16.3615C25.1223 16.3615 28.7351 12.7488 28.7351 8.29233C28.7351 3.83585 25.1223 0.223145 20.6659 0.223145ZM25.9946 10.8715C24.5701 13.8129 21.031 15.0426 18.0898 13.6181C16.8923 13.0382 15.9252 12.0717 15.3446 10.8745C16.2015 11.336 17.1442 11.6162 18.114 11.6975C19.7363 11.8451 21.3414 11.2713 22.5025 10.1289C24.3197 8.17452 24.6238 5.25334 23.2481 2.96667C26.1894 4.39115 27.419 7.93029 25.9946 10.8715Z" fill="white"/>
</g>
<defs>
<clipPath id="clip0_160_4600">
<rect width="65" height="65" fill="white"/>
</clipPath>
</defs>
</svg>
