<svg width="28" height="30" viewBox="0 0 28 30" fill="none" xmlns="http://www.w3.org/2000/svg">
<path d="M27.4594 13.3699C27.4594 10.888 26.7732 8.50351 25.5274 6.44643C25.8308 5.99098 26.2696 5.5528 26.8973 5.31811C27.1208 5.23446 27.2652 5.02576 27.2652 4.78627C27.2652 4.54677 27.1208 4.33807 26.8972 4.25436C25.7252 3.81618 25.2109 2.66831 25.0088 2.02312C24.9342 1.78504 24.7163 1.62499 24.4665 1.62499C24.2167 1.62499 23.9988 1.78492 23.9241 2.02306C23.7996 2.42073 23.5562 3.00913 23.1136 3.50486C22.621 3.05444 22.092 2.63699 21.5278 2.25858C21.3264 2.12346 21.0536 2.17726 20.9186 2.37864C20.7835 2.58003 20.8373 2.85283 21.0387 2.98782C21.5307 3.31782 21.9935 3.68019 22.4271 4.06931C22.3055 4.13968 22.1754 4.2022 22.0357 4.25448C21.8122 4.33813 21.6678 4.54683 21.6678 4.78632C21.6678 5.02582 21.8122 5.23451 22.0358 5.31823C23.2078 5.75641 23.7221 6.90434 23.9242 7.54958C23.9988 7.78761 24.2168 7.94766 24.4665 7.94766C24.7163 7.94766 24.9342 7.78767 25.0089 7.54952C25.0241 7.50094 25.0413 7.44913 25.0603 7.39533C26.044 9.20085 26.5814 11.2472 26.5814 13.3699C26.5814 17.3749 24.6863 20.945 21.7464 23.2325L21.3395 19.4297C22.7143 17.7877 23.5431 15.6739 23.5431 13.3698C23.5431 10.3434 22.1128 7.64559 19.8935 5.91418C19.8935 5.91418 19.6984 4.09033 19.6984 4.09027C19.5934 3.10947 18.5556 2.50702 17.6612 2.85505C17.4809 2.92524 17.3147 3.03068 17.1745 3.16415C16.8593 3.46441 16.729 3.86237 16.7088 4.28586C15.8767 4.0456 14.9981 3.9164 14.0898 3.9164C12.6181 3.9164 11.2243 4.25524 9.98117 4.85769L8.30408 4.63617C7.89821 4.5826 7.52414 4.86922 7.47051 5.2752L7.26421 6.83702C5.63759 8.53577 4.6363 10.8378 4.6363 13.3698C4.6363 15.7795 5.54322 17.9809 7.03286 19.6522L6.54843 23.3195C3.54316 21.0362 1.59802 17.4266 1.59802 13.3698C1.59802 10.0331 2.8974 6.89621 5.25678 4.53676C7.61593 2.17744 10.7529 0.878117 14.0896 0.878117C15.9137 0.878117 17.6715 1.26226 19.3144 2.01979C19.5347 2.12153 19.7954 2.02511 19.8969 1.80494C19.9984 1.58471 19.9023 1.32391 19.6821 1.2224C17.9231 0.411252 16.0415 0 14.0896 0C10.5184 0 7.16089 1.3907 4.63566 3.91593C2.11043 6.44116 0.719724 9.79862 0.719724 13.3699C0.719724 16.9411 2.11043 20.2986 4.63572 22.8238C5.1908 23.3789 5.78704 23.8776 6.41613 24.3202L6.31544 25.0824C6.28371 25.3228 6.45283 25.5434 6.6932 25.5752C6.93381 25.6071 7.15421 25.4378 7.186 25.1975L8.45541 15.588L9.83294 15.77L8.14069 28.5805C8.03104 29.4107 6.65439 29.2219 6.76328 28.3974C6.76866 28.3566 6.91788 27.227 6.91788 27.227C6.94961 26.9866 6.78049 26.7659 6.54012 26.7342C6.29981 26.7025 6.07911 26.8715 6.04732 27.1119L5.89254 28.2836C5.83985 28.6824 5.94563 29.0779 6.19045 29.3972C7.00376 30.458 8.8337 30.0532 9.01126 28.6956L9.38188 25.8898C10.8671 26.4475 12.4557 26.7399 14.0896 26.7399C15.748 26.7399 17.3601 26.4395 18.8644 25.8654C18.8644 25.8654 19.1628 28.6541 19.1632 28.6586C19.3075 30.007 21.1355 30.4592 21.9658 29.4298C22.2183 29.1167 22.3339 28.7239 22.2911 28.3239L21.8558 24.2557C22.4509 23.8293 23.0156 23.3518 23.5436 22.8239C26.0687 20.2986 27.4594 16.9411 27.4594 13.3699ZM24.4665 6.53905C24.1734 5.9332 23.6975 5.24763 22.9412 4.78627C23.6976 4.32479 24.1734 3.63933 24.4665 3.03349C24.7596 3.63939 25.2353 4.3249 25.9916 4.78627C25.2353 5.24775 24.7596 5.9332 24.4665 6.53905ZM22.6649 13.3699C22.6649 15.1399 22.1255 16.786 21.2029 18.1533L20.8696 15.0387L20.0301 7.19201C21.6531 8.75325 22.6649 10.9454 22.6649 13.3699ZM17.5909 4.22C17.5992 4.0459 17.6811 3.88034 17.8164 3.76976C18.1926 3.46546 18.7745 3.7101 18.8252 4.1837C18.8254 4.18645 19.9498 14.6956 19.9498 14.6956L18.5682 14.8434L18.4403 13.6488C18.3993 13.2653 18.2148 12.9166 17.9209 12.667L17.4481 12.2654C17.3028 12.1419 17.2214 11.9544 17.2305 11.7639C17.2305 11.7638 17.5909 4.22006 17.5909 4.22ZM14.0896 4.79452C14.9869 4.79452 15.852 4.93391 16.6655 5.19078L16.3535 11.7219C16.3315 12.1826 16.5281 12.6359 16.8796 12.9345C17.1472 13.162 17.5135 13.3662 17.5673 13.7422L17.7417 15.3734L18.3248 20.8226C17.0745 21.536 15.6292 21.9451 14.0896 21.9451C12.6248 21.9451 11.2451 21.5752 10.0377 20.925L10.7609 15.4495L11.0312 13.4042C11.0449 13.3005 11.1128 13.2128 11.2043 13.1808C12.0436 12.8871 12.6635 12.1102 12.7836 11.2017L13.4619 6.06668C13.4879 5.87004 13.4357 5.67498 13.315 5.5175C13.1943 5.36003 13.0195 5.25899 12.8228 5.23305L11.8182 5.10034C12.5419 4.90118 13.3035 4.79452 14.0896 4.79452ZM7.91244 12.9923L7.64227 15.0376L7.19063 18.4567C6.13776 17.0327 5.5143 15.2728 5.5143 13.3699C5.5143 11.5552 6.0811 9.87051 7.04667 8.48314L6.79208 10.4103C6.67207 11.3189 7.06898 12.23 7.8032 12.7315C7.88329 12.7862 7.9262 12.8885 7.91244 12.9923ZM8.57033 14.7174L8.78301 13.1072C8.84055 12.6717 8.65492 12.2499 8.29852 12.0064C7.83517 11.6899 7.58555 11.1085 7.66259 10.5252L8.32316 5.52441L9.14321 5.63277L8.59134 9.81062C8.55961 10.051 8.72874 10.2716 8.96917 10.3034C8.98866 10.306 9.00804 10.3072 9.02718 10.3072C9.24413 10.3072 9.43275 10.1465 9.46191 9.92559L10.0138 5.74775L10.8829 5.86254L10.3311 10.0404C10.2993 10.2808 10.4685 10.5014 10.7089 10.5332C10.7284 10.5358 10.7478 10.537 10.7669 10.537C10.9839 10.537 11.1725 10.3762 11.2016 10.1554L11.7535 5.97746L12.5735 6.08576L11.913 11.0866C11.8359 11.6698 11.4439 12.1665 10.9142 12.3518C10.5069 12.4944 10.218 12.8535 10.1605 13.2891L9.94786 14.8991L8.57033 14.7174ZM14.0896 25.8617C12.4703 25.8617 10.9223 25.551 9.50107 24.9876L9.91566 21.8491C11.1753 22.4718 12.592 22.8233 14.0896 22.8233C15.6519 22.8233 17.1262 22.4414 18.4259 21.7676L18.7666 24.9517C17.3212 25.5375 15.7427 25.8617 14.0896 25.8617ZM21.2823 28.8783C21.1362 29.0595 20.9342 29.1007 20.7276 29.1228C20.3829 29.1595 20.0733 28.9094 20.0363 28.5651L18.6615 15.7165L20.0433 15.5687L21.4179 28.4173C21.4358 28.584 21.3876 28.7478 21.2823 28.8783Z" fill="#1C231F"/>
<path d="M4.27263 24.5157C3.37853 24.1814 2.98419 23.299 2.82865 22.8027C2.75752 22.5757 2.54982 22.4232 2.31179 22.4232C2.07376 22.4232 1.86606 22.5757 1.79493 22.8027V22.8027C1.63944 23.299 1.24505 24.1814 0.35113 24.5156C0.137806 24.5953 0 24.7943 0 25.0227C0 25.251 0.137806 25.45 0.350954 25.5296C1.24505 25.8639 1.63939 26.7463 1.79493 27.2427C1.86606 27.4697 2.07376 27.6221 2.31179 27.6221C2.54982 27.6221 2.75752 27.4697 2.82865 27.2426C2.98413 26.7463 3.37847 25.8639 4.27245 25.5297C4.48577 25.45 4.62358 25.251 4.62358 25.0227C4.62358 24.7943 4.48572 24.5954 4.27263 24.5157ZM2.31179 26.2144C2.0874 25.7974 1.75495 25.3535 1.26876 25.0227C1.75501 24.692 2.0874 24.2481 2.31179 23.831C2.53618 24.248 2.86863 24.6919 3.35482 25.0227C2.86863 25.3535 2.53624 25.7973 2.31179 26.2144Z" fill="#1C231F"/>
</svg>
