<svg width="10" height="6" viewBox="0 0 10 6" fill="none" xmlns="http://www.w3.org/2000/svg">
<mask id="path-1-inside-1_45_258" fill="white">
<path fill-rule="evenodd" clip-rule="evenodd" d="M0.228933 0.225519C0.371819 0.0880473 0.56344 0.0129274 0.761685 0.0166679C0.95993 0.0204084 1.14858 0.102703 1.28618 0.245467L4.98654 4.17324L8.68691 0.245467C8.75417 0.171316 8.83563 0.11142 8.92646 0.0693285C9.0173 0.0272373 9.11566 0.00380733 9.21571 0.000426662C9.31577 -0.00295401 9.41549 0.0137832 9.50895 0.0496473C9.60242 0.0855114 9.68774 0.139773 9.75985 0.209215C9.83197 0.278657 9.88941 0.361868 9.92877 0.453917C9.96814 0.545966 9.98862 0.64498 9.98902 0.745092C9.98942 0.845204 9.96971 0.944377 9.93108 1.03673C9.89244 1.12909 9.83566 1.21276 9.7641 1.28277L5.52514 5.77108C5.45536 5.84348 5.3717 5.90106 5.27916 5.9404C5.18662 5.97973 5.0871 6 4.98654 6C4.88599 6 4.78647 5.97973 4.69393 5.9404C4.60139 5.90106 4.51773 5.84348 4.44795 5.77108L0.208985 1.28277C0.0715127 1.13988 -0.00360719 0.948259 0.000133284 0.750014C0.00387376 0.551769 0.0861685 0.363118 0.228933 0.225519Z"/>
</mask>
<path fill-rule="evenodd" clip-rule="evenodd" d="M0.228933 0.225519C0.371819 0.0880473 0.56344 0.0129274 0.761685 0.0166679C0.95993 0.0204084 1.14858 0.102703 1.28618 0.245467L4.98654 4.17324L8.68691 0.245467C8.75417 0.171316 8.83563 0.11142 8.92646 0.0693285C9.0173 0.0272373 9.11566 0.00380733 9.21571 0.000426662C9.31577 -0.00295401 9.41549 0.0137832 9.50895 0.0496473C9.60242 0.0855114 9.68774 0.139773 9.75985 0.209215C9.83197 0.278657 9.88941 0.361868 9.92877 0.453917C9.96814 0.545966 9.98862 0.64498 9.98902 0.745092C9.98942 0.845204 9.96971 0.944377 9.93108 1.03673C9.89244 1.12909 9.83566 1.21276 9.7641 1.28277L5.52514 5.77108C5.45536 5.84348 5.3717 5.90106 5.27916 5.9404C5.18662 5.97973 5.0871 6 4.98654 6C4.88599 6 4.78647 5.97973 4.69393 5.9404C4.60139 5.90106 4.51773 5.84348 4.44795 5.77108L0.208985 1.28277C0.0715127 1.13988 -0.00360719 0.948259 0.000133284 0.750014C0.00387376 0.551769 0.0861685 0.363118 0.228933 0.225519Z" fill="black"/>
<path d="M1.28618 0.245467L2.89945 -1.2744L2.8908 -1.28358L2.88205 -1.29266L1.28618 0.245467ZM4.98654 4.17324L3.37327 5.69311L4.98654 7.40553L6.59982 5.69311L4.98654 4.17324ZM8.68691 0.245467L10.3002 1.76534L10.3145 1.75011L10.3286 1.73461L8.68691 0.245467ZM8.92646 0.0693285L9.85835 2.08036L8.92646 0.0693285ZM9.7641 1.28277L8.21409 -0.301572L8.18279 -0.270943L8.15271 -0.2391L9.7641 1.28277ZM5.52514 5.77108L7.12098 7.30924L7.1288 7.30113L7.13653 7.29295L5.52514 5.77108ZM4.44795 5.77108L2.83656 7.29295L2.84429 7.30113L2.8521 7.30924L4.44795 5.77108ZM0.208985 1.28277L1.82037 -0.2391L1.81333 -0.246556L1.80622 -0.253946L0.208985 1.28277ZM1.76565 1.82276C1.48517 2.09261 1.10902 2.24007 0.719873 2.23272L0.803497 -2.19939C0.0178578 -2.21421 -0.741526 -1.91651 -1.30778 -1.37172L1.76565 1.82276ZM0.719873 2.23272C0.330723 2.22538 -0.0395903 2.06384 -0.309691 1.7836L2.88205 -1.29266C2.33675 -1.85843 1.58914 -2.18456 0.803497 -2.19939L0.719873 2.23272ZM-0.327094 1.76534L3.37327 5.69311L6.59982 2.65337L2.89945 -1.2744L-0.327094 1.76534ZM6.59982 5.69311L10.3002 1.76534L7.07363 -1.2744L3.37327 2.65337L6.59982 5.69311ZM10.3286 1.73461C10.1966 1.88016 10.0367 1.99774 9.85835 2.08036L7.99458 -1.9417C7.63461 -1.7749 7.31178 -1.53753 7.04523 -1.24367L10.3286 1.73461ZM9.85835 2.08036C9.68004 2.16299 9.48696 2.20898 9.29056 2.21561L9.14087 -2.21476C8.74435 -2.20136 8.35456 -2.10851 7.99458 -1.9417L9.85835 2.08036ZM9.29056 2.21561C9.09416 2.22225 8.89842 2.1894 8.71494 2.11899L10.303 -2.0197C9.93255 -2.16183 9.53738 -2.22816 9.14087 -2.21476L9.29056 2.21561ZM8.71494 2.11899C8.53146 2.04859 8.36398 1.94208 8.22243 1.80577L11.2973 -1.38734C11.0115 -1.66253 10.6734 -1.87757 10.303 -2.0197L8.71494 2.11899ZM8.22243 1.80577C8.08088 1.66946 7.96812 1.50612 7.89085 1.32543L11.9667 -0.417593C11.8107 -0.782381 11.5831 -1.11214 11.2973 -1.38734L8.22243 1.80577ZM7.89085 1.32543C7.81358 1.14474 7.77337 0.950379 7.77259 0.753861L12.2055 0.736323C12.2039 0.339582 12.1227 -0.0528072 11.9667 -0.417593L7.89085 1.32543ZM7.77259 0.753861C7.77181 0.55734 7.81049 0.362667 7.88633 0.181378L11.9758 1.89209C12.1289 1.52609 12.207 1.13307 12.2055 0.736323L7.77259 0.753861ZM7.88633 0.181378C7.96216 8.60203e-05 8.07362 -0.164141 8.21409 -0.301572L11.3141 2.86711C11.5977 2.58965 11.8227 2.2581 11.9758 1.89209L7.88633 0.181378ZM8.15271 -0.2391L3.91375 4.24921L7.13653 7.29295L11.3755 2.80463L8.15271 -0.2391ZM3.9293 4.23292C4.06628 4.0908 4.2305 3.97776 4.41215 3.90055L6.14616 7.98024C6.51289 7.82436 6.84444 7.59615 7.12098 7.30924L3.9293 4.23292ZM4.41215 3.90055C4.5938 3.82335 4.78916 3.78355 4.98654 3.78355V8.21645C5.38503 8.21645 5.77943 8.13611 6.14616 7.98024L4.41215 3.90055ZM4.98654 3.78355C5.18393 3.78355 5.37928 3.82335 5.56093 3.90055L3.82692 7.98024C4.19365 8.13611 4.58805 8.21645 4.98654 8.21645V3.78355ZM5.56093 3.90055C5.74258 3.97776 5.90681 4.0908 6.04379 4.23292L2.8521 7.30924C3.12865 7.59615 3.46019 7.82436 3.82692 7.98024L5.56093 3.90055ZM6.05933 4.24921L1.82037 -0.2391L-1.4024 2.80463L2.83656 7.29295L6.05933 4.24921ZM1.80622 -0.253946C2.07607 0.0265352 2.22353 0.402678 2.21619 0.791826L-2.21592 0.708201C-2.23075 1.49384 -1.93305 2.25322 -1.38825 2.81948L1.80622 -0.253946ZM2.21619 0.791826C2.20885 1.18098 2.0473 1.55129 1.76706 1.82139L-1.3092 -1.37035C-1.87497 -0.825052 -2.2011 -0.0774388 -2.21592 0.708201L2.21619 0.791826Z" fill="#1C231F" mask="url(#path-1-inside-1_45_258)"/>
</svg>
