<svg width="65" height="65" viewBox="0 0 65 65" fill="none" xmlns="http://www.w3.org/2000/svg">
<path d="M33.7249 20.7713L36.3889 16.8175L34.705 15.682L32.5001 18.9544L30.2952 15.682L28.6113 16.8175L31.2753 20.7713L25.2516 29.7088C24.9383 27.5733 24.0619 25.5597 22.7125 23.8751C23.1426 22.7366 23.3618 21.5293 23.3595 20.3123C23.3551 18.8596 23.0403 17.4247 22.4362 16.1036C21.832 14.7826 20.9525 13.6059 19.8566 12.6524C20.2622 11.5765 20.4008 10.4183 20.2605 9.27714C20.1202 8.13594 19.7052 7.04579 19.0512 6.10017C18.3971 5.15456 17.5234 4.3817 16.505 3.84786C15.4867 3.31403 14.354 3.03516 13.2042 3.03516C12.0545 3.03516 10.9218 3.31403 9.90346 3.84786C8.88511 4.3817 8.01142 5.15456 7.35733 6.10017C6.70324 7.04579 6.28826 8.13594 6.14798 9.27714C6.0077 10.4183 6.1463 11.5765 6.5519 12.6524C5.4556 13.6057 4.57572 14.7823 3.97123 16.1034C3.36675 17.4245 3.05162 18.8595 3.04698 20.3123C3.04585 21.5299 3.26646 22.7375 3.698 23.8761C2.31373 25.5982 1.42463 27.6647 1.12616 29.8539C0.827684 32.0431 1.1311 34.2723 2.00384 36.302C2.87658 38.3318 4.28568 40.0856 6.07985 41.375C7.87402 42.6644 9.9855 43.4408 12.1876 43.6209V49.0951L3.52229 61.9529H1.01573V63.9841H63.9845V61.9529H61.4779L33.7249 20.7713ZM34.9437 45.0366L38.8823 49.6313C41.9728 53.2271 45.7719 56.1465 50.042 58.2073L46.6681 61.5822C41.3853 57.1828 37.344 51.4791 34.9447 45.0366H34.9437ZM32.5001 44.2048C34.7306 51.013 38.6862 57.1275 43.9817 61.9529H21.0235C26.3172 57.1269 30.271 51.0125 32.5001 44.2048ZM52.515 58.6084C52.6323 58.4911 52.7191 58.3468 52.7677 58.1881C52.8164 58.0295 52.8254 57.8614 52.7941 57.6984C52.7627 57.5355 52.6919 57.3827 52.5878 57.2535C52.4838 57.1242 52.3496 57.0224 52.1971 56.957C47.6651 55.0086 43.6377 52.0511 40.422 48.31L33.5157 40.249V24.0945L59.0292 61.9529H49.1706L52.515 58.6084ZM3.04698 31.4841C3.04914 28.9936 3.96858 26.591 5.62972 24.7353C5.76059 24.5888 5.84617 24.4075 5.87609 24.2134C5.90602 24.0192 5.879 23.8206 5.79831 23.6415C5.0317 21.9483 4.8716 20.0428 5.34493 18.2455C5.81827 16.4481 6.89616 14.8686 8.39729 13.7727C8.59086 13.6293 8.72716 13.4218 8.78186 13.1872C8.83655 12.9526 8.80608 12.7062 8.69589 12.492C8.31901 11.7711 8.12312 10.9694 8.12511 10.156C8.12511 8.80922 8.66012 7.51758 9.61245 6.56524C10.5648 5.61291 11.8564 5.07789 13.2032 5.07789C14.55 5.07789 15.8417 5.61291 16.794 6.56524C17.7463 7.51758 18.2814 8.80922 18.2814 10.156C18.2833 10.9694 18.0875 11.7711 17.7106 12.492C17.599 12.7067 17.5678 12.9542 17.6225 13.19C17.6772 13.4257 17.8144 13.6341 18.0092 13.7777C19.5102 14.8735 20.5881 16.4528 21.0614 18.25C21.5348 20.0472 21.3747 21.9525 20.6082 23.6456C20.5275 23.8246 20.5004 24.0233 20.5304 24.2174C20.5603 24.4116 20.6459 24.5929 20.7767 24.7394C22.437 26.594 23.3563 28.995 23.3595 31.4841C23.3557 31.8668 23.3306 32.2489 23.2843 32.6288L18.0467 40.4013C16.8615 41.0432 15.5602 41.4423 14.2189 41.5754V33.9369L18.9994 29.1563L17.5633 27.7202L14.2189 31.0647V13.2029H12.1876V21.9231L8.84315 18.5796L7.40706 20.0157L12.1876 24.7963V41.5896C9.68357 41.335 7.36293 40.1608 5.67452 38.2942C3.98611 36.4275 3.0499 34.0011 3.04698 31.4841ZM14.2189 43.6066C14.847 43.5573 15.4704 43.4595 16.0835 43.3141L14.2189 46.0807V43.6066ZM31.4845 24.0945V40.4816L31.0346 42.0588C28.8093 49.8836 24.2237 56.831 17.9035 61.9529H5.97097L31.4845 24.0945Z" fill="white"/>
<path d="M52.7423 1.04527C52.1119 1.0077 51.4797 1.0077 50.8492 1.04527C48.6602 1.1486 46.5433 1.8599 44.736 3.09935C42.9288 4.33881 41.5027 6.05739 40.6178 8.06223C39.7435 9.98406 39.4221 12.1115 39.6898 14.2059C39.9575 16.3002 40.8036 18.2785 42.1331 19.9186L51.0016 31.0996C51.0967 31.2194 51.2176 31.3161 51.3553 31.3825C51.493 31.449 51.6439 31.4835 51.7968 31.4835C51.9497 31.4835 52.1006 31.449 52.2383 31.3825C52.376 31.3161 52.4969 31.2194 52.592 31.0996L61.4605 19.9186C62.79 18.2785 63.6361 16.3002 63.9038 14.2059C64.1714 12.1115 63.8501 9.98406 62.9758 8.06223C62.0906 6.05716 60.6642 4.33845 58.8566 3.09898C57.0489 1.85952 54.9317 1.14834 52.7423 1.04527ZM59.869 18.6572L51.7968 28.8348L43.7246 18.6572C42.6289 17.3057 41.9314 15.6757 41.7103 13.9499C41.4893 12.2241 41.7535 10.4709 42.4733 8.88691C43.2109 7.22373 44.397 5.7988 45.8988 4.77182C47.4006 3.74484 49.1587 3.15641 50.9762 3.07246C51.2473 3.05621 51.5216 3.04707 51.7968 3.04707C52.072 3.04707 52.3462 3.05621 52.6154 3.07246C54.4332 3.15604 56.1917 3.7443 57.6939 4.7713C59.1961 5.7983 60.3826 7.22343 61.1202 8.88691C61.84 10.4709 62.1042 12.2241 61.8832 13.9499C61.6622 15.6757 60.9647 17.3057 59.869 18.6572Z" fill="white"/>
<path d="M51.7969 5.07812C50.1899 5.07813 48.619 5.55465 47.2829 6.44743C45.9467 7.34022 44.9053 8.60917 44.2904 10.0938C43.6754 11.5785 43.5145 13.2121 43.828 14.7882C44.1415 16.3643 44.9153 17.8121 46.0516 18.9484C47.1879 20.0847 48.6357 20.8585 50.2118 21.172C51.7879 21.4855 53.4215 21.3246 54.9062 20.7096C56.3908 20.0947 57.6598 19.0533 58.5526 17.7171C59.4454 16.381 59.9219 14.8101 59.9219 13.2031C59.9195 11.049 59.0627 8.98376 57.5395 7.46055C56.0162 5.93735 53.951 5.08054 51.7969 5.07812ZM51.7969 19.2969C50.5917 19.2969 49.4135 18.9395 48.4114 18.2699C47.4093 17.6003 46.6282 16.6486 46.167 15.5351C45.7058 14.4216 45.5851 13.1964 45.8202 12.0143C46.0553 10.8322 46.6357 9.74642 47.4879 8.89419C48.3402 8.04197 49.426 7.46159 50.608 7.22646C51.7901 6.99134 53.0154 7.11201 54.1289 7.57323C55.2423 8.03446 56.1941 8.81551 56.8636 9.81762C57.5332 10.8197 57.8906 11.9979 57.8906 13.2031C57.889 14.8188 57.2465 16.3678 56.104 17.5103C54.9616 18.6527 53.4125 19.2953 51.7969 19.2969Z" fill="white"/>
</svg>
