<svg width="40" height="41" viewBox="0 0 40 41" fill="none" xmlns="http://www.w3.org/2000/svg">
<path fill-rule="evenodd" clip-rule="evenodd" d="M19.1525 0.305737C19.3907 0.108144 19.6905 0 20 0C20.3095 0 20.6093 0.108144 20.8475 0.305737C25.8415 4.45988 32.0538 6.87262 38.5425 7.17824C38.8349 7.18723 39.1149 7.29849 39.3337 7.49263C39.5525 7.68677 39.6963 7.9515 39.74 8.24074C39.9125 9.54074 40 10.8657 40 12.2157C40 25.1207 31.85 36.1232 20.415 40.3557C20.1471 40.4545 19.8529 40.4545 19.585 40.3557C8.15 36.1232 0 25.1207 0 12.2132C0 10.8682 0.0875002 9.54074 0.26 8.24074C0.30382 7.95109 0.447974 7.68604 0.667298 7.49185C0.886621 7.29765 1.16718 7.18666 1.46 7.17824C7.94818 6.87137 14.1595 4.45777 19.1525 0.303237V0.305737ZM29.6425 15.1907C29.9349 14.7883 30.0555 14.2861 29.9776 13.7948C29.8998 13.3034 29.63 12.8631 29.2275 12.5707C28.825 12.2783 28.3229 12.1578 27.8316 12.2356C27.3402 12.3134 26.8999 12.5833 26.6075 12.9857L17.9 24.9607L13.2 20.2607C13.027 20.0817 12.82 19.939 12.5912 19.8408C12.3624 19.7427 12.1163 19.6911 11.8674 19.689C11.6184 19.687 11.3715 19.7345 11.1411 19.8289C10.9108 19.9233 10.7015 20.0626 10.5255 20.2388C10.3495 20.4149 10.2104 20.6243 10.1162 20.8548C10.0221 21.0853 9.97476 21.3322 9.97704 21.5811C9.97932 21.8301 10.0312 22.0761 10.1295 22.3048C10.2279 22.5335 10.3708 22.7404 10.55 22.9132L16.8 29.1632C16.9916 29.3549 17.2224 29.5028 17.4766 29.5967C17.7308 29.6906 18.0024 29.7282 18.2725 29.7071C18.5427 29.6859 18.8051 29.6065 19.0416 29.4742C19.2781 29.3419 19.4831 29.1599 19.6425 28.9407L29.6425 15.1907Z" fill="#63AC45"/>
</svg>
