<svg width="17" height="17" viewBox="0 0 17 17" fill="none" xmlns="http://www.w3.org/2000/svg">
<path fill-rule="evenodd" clip-rule="evenodd" d="M4.62229 0H16.2262C16.4314 0 16.6282 0.0815037 16.7733 0.226581C16.9183 0.371659 16.9998 0.568426 16.9998 0.773597V12.3776C16.9998 12.5827 16.9183 12.7795 16.7733 12.9246C16.6282 13.0696 16.4314 13.1512 16.2262 13.1512C16.0211 13.1512 15.8243 13.0696 15.6792 12.9246C15.5342 12.7795 15.4526 12.5827 15.4526 12.3776V2.64055L1.30098 16.7922C1.15433 16.9289 0.960365 17.0033 0.75995 16.9997C0.559536 16.9962 0.368318 16.915 0.226582 16.7733C0.0848451 16.6315 0.0036566 16.4403 0.000120523 16.2399C-0.00341555 16.0395 0.0709768 15.8455 0.207625 15.6989L14.3593 1.54719H4.62229C4.41712 1.54719 4.22035 1.46569 4.07527 1.32061C3.93019 1.17554 3.84869 0.978768 3.84869 0.773597C3.84869 0.568426 3.93019 0.371659 4.07527 0.226581C4.22035 0.0815037 4.41712 0 4.62229 0Z" fill="white"/>
</svg>
