<svg width="10" height="16" viewBox="0 0 10 16" fill="none" xmlns="http://www.w3.org/2000/svg">
<path fill-rule="evenodd" clip-rule="evenodd" d="M0.375866 15.6333C0.146745 15.4044 0.0215457 15.0975 0.0277798 14.78C0.0340139 14.4624 0.171172 14.1603 0.409112 13.9399L6.9554 8.01277L0.409112 2.08568C0.285526 1.97794 0.1857 1.84746 0.115548 1.70197C0.0453954 1.55647 0.00634555 1.39892 0.000711104 1.23866C-0.00492334 1.07839 0.022972 0.918673 0.0827455 0.768959C0.142519 0.619246 0.232954 0.482586 0.348691 0.367078C0.464429 0.25157 0.603113 0.159564 0.756528 0.0965119C0.909943 0.0334596 1.07497 0.000643804 1.24182 9.3785e-06C1.40867 -0.000625047 1.57396 0.0309343 1.72789 0.092818C1.88182 0.154702 2.02126 0.24565 2.13794 0.360275L9.61846 7.15006C9.73913 7.26184 9.8351 7.39584 9.90066 7.54407C9.96621 7.6923 10 7.8517 10 8.01277C10 8.17383 9.96621 8.33324 9.90066 8.48146C9.8351 8.62969 9.73913 8.7637 9.61846 8.87547L2.13794 15.6653C1.8998 15.8855 1.58043 16.0058 1.25002 15.9998C0.919614 15.9938 0.605197 15.862 0.375866 15.6333Z" fill="white"/>
</svg>
