<svg width="21" height="21" viewBox="0 0 21 21" fill="none" xmlns="http://www.w3.org/2000/svg">
<path d="M18.75 2.25V6.75M18.75 2.25H14.25M18.75 2.25L12.75 8.25M15.75 20.25C7.466 20.25 0.75 13.534 0.75 5.25V3C0.75 2.40326 0.987053 1.83097 1.40901 1.40901C1.83097 0.987053 2.40326 0.75 3 0.75H4.372C4.888 0.75 5.338 1.101 5.463 1.602L6.569 6.025C6.679 6.465 6.515 6.927 6.152 7.198L4.859 8.168C4.67393 8.30198 4.537 8.49207 4.46854 8.71005C4.40009 8.92803 4.40375 9.16227 4.479 9.378C5.08087 11.0151 6.03141 12.5018 7.26478 13.7352C8.49815 14.9686 9.98488 15.9191 11.622 16.521C12.063 16.683 12.55 16.517 12.832 16.141L13.802 14.848C13.9348 14.6708 14.1169 14.5366 14.3256 14.4625C14.5342 14.3883 14.7601 14.3773 14.975 14.431L19.398 15.537C19.898 15.662 20.25 16.112 20.25 16.628V18C20.25 18.5967 20.0129 19.169 19.591 19.591C19.169 20.0129 18.5967 20.25 18 20.25H15.75V20.25Z" stroke="white" stroke-width="1.5" stroke-linecap="round" stroke-linejoin="round"/>
</svg>
