<svg width="85" height="85" viewBox="0 0 85 85" fill="none" xmlns="http://www.w3.org/2000/svg">
<circle cx="42.5" cy="42.5" r="42.5" fill="#63AC45"/>
<g clip-path="url(#clip0_160_672)">
<path d="M60.1339 63.5719L43.1491 29.6022L44.8474 26.2055L43.6682 25.616L42.4121 28.1282L41.156 25.616L39.9768 26.2055L41.6751 29.6022L24.6903 63.5719H22.6367V64.8902H62.3633V63.5719H60.1339ZM42.4121 31.0761L46.4088 39.0695L45.7077 39.8073L44.0375 38.0495L42.3675 39.8073L40.6975 38.0494L39.0281 39.8072L38.385 39.1303L42.4121 31.0761ZM31.7613 63.5719L40.5514 50.0426L36.4732 63.5719H31.7613ZM37.8501 63.5719L42.5047 48.1305L47.2283 63.5719H37.8501ZM48.6068 63.5719L44.4949 50.13L53.3197 63.5719H48.6068ZM54.8968 63.5719L42.4786 44.6563L30.1891 63.5719H26.1642L37.758 40.3842L39.0282 41.7214L40.6976 39.9636L42.3675 41.7213L44.0375 39.9635L45.7077 41.7213L47.0358 40.3235L58.66 63.5719H54.8968Z" fill="white"/>
<path d="M28.6414 29.4838C28.314 26.8178 30.2165 24.3826 32.8824 24.0552C33.2179 24.0141 33.5592 24.0077 33.8968 24.0366L35.5088 24.1745L34.4522 22.9493C32.8961 21.1448 30.6397 20.1099 28.2617 20.1099C23.7547 20.1099 20.0879 23.7767 20.0879 28.2837C20.0879 32.7907 23.7547 36.4575 28.2617 36.4575C30.0002 36.4575 31.6614 35.9173 33.0658 34.8953L34.3747 33.9428L32.7727 33.7101C30.6072 33.3953 28.9083 31.6575 28.6414 29.4838ZM28.2617 35.1392C24.4816 35.1392 21.4062 32.0638 21.4062 28.2837C21.4062 24.5036 24.4816 21.4282 28.2617 21.4282C29.7574 21.4282 31.1959 21.9167 32.3724 22.7996C29.1698 23.3779 26.9313 26.3746 27.3329 29.6444C27.604 31.8527 29.0385 33.7071 31.0093 34.5662C30.15 34.9436 29.2199 35.1392 28.2617 35.1392Z" fill="white"/>
<path d="M62.1503 24.3517L58.7892 23.8633L57.2861 20.8176L55.7829 23.8633L52.4219 24.3517L54.854 26.7224L54.2798 30.0699L57.2861 28.4894L60.2923 30.0699L59.7182 26.7225L62.1503 24.3517ZM58.5414 27.66L57.2862 27.0001L56.0308 27.66L56.2707 26.2623L55.2551 25.2723L56.6585 25.0683L57.2862 23.7966L57.9138 25.0683L59.3173 25.2723L58.3017 26.2622L58.5414 27.66Z" fill="white"/>
<path d="M64.8517 36.0015L60.8911 35.426L59.1199 31.8372L57.3487 35.426L53.3882 36.0015L56.254 38.795L55.5775 42.7396L59.1199 40.8772L62.6623 42.7396L61.9858 38.7951L64.8517 36.0015ZM59.1199 39.3878L57.3284 40.3295L57.6707 38.3347L56.2213 36.922L58.2242 36.6309L59.1199 34.8159L60.0156 36.6309L62.0185 36.922L60.5692 38.3346L60.9114 40.3295L59.1199 39.3878Z" fill="white"/>
<path d="M21.3184 63.5718H20V64.8901H21.3184V63.5718Z" fill="white"/>
<path d="M65 63.5718H63.6816V64.8901H65V63.5718Z" fill="white"/>
<path d="M50.5014 50.1991L49.3223 50.7888L49.912 51.968L51.0911 51.3783L50.5014 50.1991Z" fill="white"/>
<path d="M47.7871 44.7759L46.6079 45.3655L48.7304 49.6104L49.9095 49.0208L47.7871 44.7759Z" fill="white"/>
<path d="M51.6782 52.5581L50.499 53.1477L51.0886 54.3268L52.2677 53.7373L51.6782 52.5581Z" fill="white"/>
<path d="M30.565 57.719L31.7441 58.3086L32.3337 57.1295L31.1546 56.5399L30.565 57.719Z" fill="white"/>
<path d="M32.3327 54.1815L31.7432 55.3606L32.9223 55.9502L33.5119 54.771L32.3327 54.1815Z" fill="white"/>
<path d="M34.2442 50.3628L35.4233 50.9524L36.0129 49.7733L34.8338 49.1837L34.2442 50.3628Z" fill="white"/>
<path d="M37.3866 44.0727L35.4214 48.0032L36.6005 48.5927L38.5658 44.6623L37.3866 44.0727Z" fill="white"/>
<path d="M22.7246 28.2837H24.043C24.043 27.9068 24.0928 27.5331 24.1912 27.173L22.9195 26.8254C22.7902 27.2988 22.7246 27.7895 22.7246 28.2837Z" fill="white"/>
<path d="M27.231 22.843C25.6777 23.1367 24.3193 24.0878 23.5044 25.4525L24.6362 26.1284C25.258 25.0873 26.293 24.3619 27.4759 24.1384L27.231 22.843Z" fill="white"/>
<path d="M43.0713 35.5786H41.7529V36.897H43.0713V35.5786Z" fill="white"/>
</g>
<defs>
<clipPath id="clip0_160_672">
<rect width="45" height="45" fill="white" transform="translate(20 20)"/>
</clipPath>
</defs>
</svg>
