<svg width="100" height="100" viewBox="0 0 100 100" fill="none" xmlns="http://www.w3.org/2000/svg">
<rect width="100" height="100" rx="12" fill="#63AC45"/>
<g clip-path="url(#clip0_160_575)">
<path d="M30 38.5H28C27.4477 38.5 27 38.9477 27 39.5C27 40.0523 27.4477 40.5 28 40.5H30C30.5523 40.5 31 40.0523 31 39.5C31 38.9477 30.5523 38.5 30 38.5Z" fill="white"/>
<path d="M63 31.5C63 34.8137 65.6863 37.5 69 37.5C72.3137 37.5 75 34.8137 75 31.5C75 28.1863 72.3137 25.5 69 25.5C65.6877 25.5033 63.0033 28.1877 63 31.5ZM69 27.5C71.2091 27.5 73 29.2909 73 31.5C73 33.7091 71.2091 35.5 69 35.5C66.7909 35.5 65 33.7091 65 31.5C65 29.2909 66.7909 27.5 69 27.5Z" fill="white"/>
<path d="M70 22.409V21.5C70 20.9477 69.5523 20.5 69 20.5C68.4477 20.5 68 20.9477 68 21.5V22.409C68 22.9613 68.4477 23.409 69 23.409C69.5523 23.409 70 22.9613 70 22.409Z" fill="white"/>
<path d="M68 40.5909V41.4999C68 42.0522 68.4477 42.4999 69 42.4999C69.5523 42.4999 70 42.0522 70 41.4999V40.5909C70 40.0387 69.5523 39.5909 69 39.5909C68.4477 39.5909 68 40.0387 68 40.5909Z" fill="white"/>
<path d="M78.9998 30.5H78.0908C77.5385 30.5 77.0908 30.9477 77.0908 31.5C77.0908 32.0523 77.5385 32.5 78.0908 32.5H78.9998C79.5521 32.5 79.9998 32.0523 79.9998 31.5C79.9998 30.9477 79.5521 30.5 78.9998 30.5Z" fill="white"/>
<path d="M59.909 32.5C60.4613 32.5 60.909 32.0523 60.909 31.5C60.909 30.9477 60.4613 30.5 59.909 30.5H59C58.4477 30.5 58 30.9477 58 31.5C58 32.0523 58.4477 32.5 59 32.5H59.909Z" fill="white"/>
<path d="M76.778 23.722C76.3875 23.3316 75.7545 23.3316 75.364 23.722L74.722 24.364C74.4361 24.65 74.3506 25.08 74.5053 25.4536C74.6601 25.8273 75.0246 26.0709 75.429 26.071C75.929 26.071 76.099 25.815 76.778 25.136C77.1684 24.7455 77.1684 24.1125 76.778 23.722Z" fill="white"/>
<path d="M61.222 39.278C61.6125 39.6684 62.2455 39.6684 62.636 39.278L63.278 38.636C63.657 38.2436 63.6515 37.6199 63.2658 37.2342C62.8801 36.8484 62.2564 36.843 61.864 37.222L61.222 37.864C60.8316 38.2545 60.8316 38.8875 61.222 39.278Z" fill="white"/>
<path d="M76.1361 37.222C75.7437 36.843 75.12 36.8484 74.7343 37.2342C74.3486 37.6199 74.3431 38.2436 74.7221 38.636C75.2981 39.212 75.5381 39.571 76.0711 39.571C76.4755 39.5709 76.8401 39.3273 76.9948 38.9537C77.1495 38.58 77.064 38.15 76.7781 37.864L76.1361 37.222Z" fill="white"/>
<path d="M62.6361 23.722C62.2437 23.343 61.62 23.3484 61.2343 23.7342C60.8486 24.1199 60.8431 24.7436 61.2221 25.136C61.7981 25.712 62.0381 26.071 62.5711 26.071C62.9755 26.0709 63.3401 25.8273 63.4948 25.4537C63.6495 25.08 63.564 24.65 63.2781 24.364L62.6361 23.722Z" fill="white"/>
<path d="M79 75.4999C66.659 75.4999 67.434 75.5789 67.062 75.3159L61.1 71.0539C60.592 70.6921 59.9836 70.4984 59.36 70.4999H56.813C57.059 69.8109 56.997 69.9369 56.997 65.0209L62.438 55.4999H71.564L78.132 66.9999C78.3046 67.3191 78.6365 67.5198 78.9994 67.5243C79.3623 67.5288 79.6991 67.3363 79.8795 67.0214C80.0599 66.7065 80.0555 66.3186 79.868 66.0079L68.734 46.5169C68.3767 45.8948 67.7136 45.5117 66.9963 45.513C66.2789 45.5142 65.6171 45.8996 65.262 46.5229L57 60.9889V44.3889C57.9799 43.3894 58.262 41.8985 57.7151 40.6101C57.1681 39.3218 55.8996 38.4891 54.5 38.4999H46.96L41.42 32.9599C40.4625 32.0104 39.1643 31.4845 37.816 31.4999C37.7721 31.3784 37.7206 31.2599 37.662 31.1449C39.701 28.6971 39.6619 25.1313 37.5698 22.7288C35.4776 20.3264 31.951 19.7976 29.2463 21.4809C26.5415 23.1642 25.4585 26.5618 26.69 29.4999H23C21.3431 29.4999 20 30.843 20 32.4999V35.4999C20.0021 36.2112 20.3832 36.8674 21 37.2219V49.4999C21 51.1567 22.3431 52.4999 24 52.4999V77.4999H21C20.4477 77.4999 20 77.9476 20 78.4999C20 79.0521 20.4477 79.4999 21 79.4999H34.08C34.9562 79.4993 35.7884 79.1157 36.358 78.4499L41.158 72.8499C41.3504 72.6298 41.6277 72.5024 41.92 72.4999C60.855 72.4999 59.552 72.4109 59.938 72.6839L65.9 76.9459C66.408 77.3076 67.0164 77.5013 67.64 77.4999H79C79.5523 77.4999 80 77.0521 80 76.4999C80 75.9476 79.5523 75.4999 79 75.4999ZM67 47.5159L70.421 53.4999H63.582L67 47.5159ZM53.284 70.1929C53.0993 70.0099 52.9968 69.7598 53 69.4999V45.4999C53.667 45.5428 54.3366 45.523 55 45.4409V69.4999C54.9979 69.9057 54.7508 70.27 54.3745 70.422C53.9982 70.574 53.5673 70.4834 53.284 70.1929ZM55.613 40.9929C56.0164 41.4564 56.1 42.1177 55.8248 42.6671C55.5495 43.2165 54.9698 43.5454 54.357 43.4999H53V40.4999C54.617 40.4999 55.068 40.3939 55.613 40.9939V40.9929ZM51 40.4999V43.4999H46.12C45.104 43.4624 44.1579 42.9732 43.54 42.1659L45.432 39.8059L45.543 39.9169C45.9171 40.2886 46.4226 40.498 46.95 40.4999H51ZM44.009 38.3829L42.118 40.7439L40.708 39.3339C40.4222 39.0474 39.992 38.9613 39.618 39.1159C39.244 39.2705 39.0001 39.6352 39 40.0399V49.4999H37V37.2219C37.6168 36.8674 37.9979 36.2112 38 35.4999V33.5119C38.7512 33.541 39.4644 33.8494 40 34.3769L44.009 38.3829ZM25 42.4999C23.8954 42.4999 23 41.6044 23 40.4999V37.4999H35V40.4999C35 41.6044 34.1046 42.4999 33 42.4999H25ZM32.67 22.4999C34.3865 22.5009 35.9521 23.4809 36.703 25.0245C37.4539 26.568 37.2587 28.4047 36.2 29.7559C35.428 29.4149 35.587 29.4999 28.942 29.4999C28.0157 28.1222 27.9245 26.3461 28.7049 24.8809C29.4852 23.4156 31.0099 22.5001 32.67 22.4999ZM22 32.4999C22 31.9476 22.4477 31.4999 23 31.4999H35C35.5523 31.4999 36 31.9476 36 32.4999V35.4999H22V32.4999ZM23 49.4999V43.9439C23.6053 44.3038 24.2957 44.4957 25 44.4999V46.4999C25 47.0521 25.4477 47.4999 26 47.4999C26.5523 47.4999 27 47.0521 27 46.4999V44.4999H31V46.4999C31 47.0521 31.4477 47.4999 32 47.4999C32.5523 47.4999 33 47.0521 33 46.4999V44.4999C33.7043 44.4957 34.3947 44.3038 35 43.9439C35 49.9369 35.056 49.6739 34.867 49.9949C34.6895 50.3065 34.3587 50.4992 34 50.4999H24C23.4477 50.4999 23 50.0521 23 49.4999ZM35.383 52.1499C35.6956 51.9734 35.9823 51.7547 36.235 51.4999H39C41.7601 51.5032 43.9967 53.7398 44 56.4999V65.4999H38.883L38 58.4279C37.9612 57.3515 37.0771 56.4992 36 56.4999H34C32.9177 56.4919 32.0283 57.3519 32 58.4339L31.064 72.4999H26V52.4999C34.785 52.4999 34.525 52.5999 35.383 52.1499ZM26 77.4999V74.4999H32C33.1046 74.4999 34 75.3953 34 76.4999V77.4999H26ZM35.936 75.8709C35.6879 74.3294 34.5632 73.0746 33.058 72.6599L34 58.4999H36C36.0002 58.5413 36.0028 58.5827 36.008 58.6239C37.2 68.1479 37 65.5409 37 70.4999C37.005 71.5391 37.8051 72.4013 38.841 72.4839L35.936 75.8709ZM39 70.4999V67.4999H45C46.1046 67.4999 47 68.3953 47 69.4999V70.4999H39ZM46 65.6419V56.4999C45.9913 53.4125 43.9593 50.6961 41 49.8159V42.4539L42.583 44.0369C43.5234 44.9711 44.7944 45.4968 46.12 45.4999H51C51 71.7599 50.923 69.7669 51.181 70.4999H49V69.4999C48.9932 67.6814 47.7607 66.0964 46 65.6419Z" fill="white"/>
</g>
<defs>
<clipPath id="clip0_160_575">
<rect width="60" height="60" fill="white" transform="translate(20 20)"/>
</clipPath>
</defs>
</svg>
