<svg width="27" height="27" viewBox="0 0 27 27" fill="none" xmlns="http://www.w3.org/2000/svg">
<g clip-path="url(#clip0_111_4760)">
<path d="M2.69998 19.5749C2.9485 19.5749 3.14996 19.3734 3.14996 19.1249C3.14996 18.8764 2.9485 18.6749 2.69998 18.6749C2.45146 18.6749 2.25 18.8764 2.25 19.1249C2.25 19.3734 2.45146 19.5749 2.69998 19.5749Z" fill="#484848"/>
<path d="M6.29959 19.5749C6.54811 19.5749 6.74957 19.3734 6.74957 19.1249C6.74957 18.8764 6.54811 18.6749 6.29959 18.6749C6.05107 18.6749 5.84961 18.8764 5.84961 19.1249C5.84961 19.3734 6.05107 19.5749 6.29959 19.5749Z" fill="#484848"/>
<path d="M9.90018 19.5749C10.1487 19.5749 10.3502 19.3734 10.3502 19.1249C10.3502 18.8764 10.1487 18.6749 9.90018 18.6749C9.65166 18.6749 9.4502 18.8764 9.4502 19.1249C9.4502 19.3734 9.65166 19.5749 9.90018 19.5749Z" fill="#484848"/>
<path d="M4.49979 21.3748C4.74831 21.3748 4.94977 21.1734 4.94977 20.9248C4.94977 20.6763 4.74831 20.4749 4.49979 20.4749C4.25127 20.4749 4.0498 20.6763 4.0498 20.9248C4.0498 21.1734 4.25127 21.3748 4.49979 21.3748Z" fill="#484848"/>
<path d="M8.0994 21.3748C8.34792 21.3748 8.54938 21.1734 8.54938 20.9248C8.54938 20.6763 8.34792 20.4749 8.0994 20.4749C7.85088 20.4749 7.64941 20.6763 7.64941 20.9248C7.64941 21.1734 7.85088 21.3748 8.0994 21.3748Z" fill="#484848"/>
<path d="M2.69998 23.1747C2.9485 23.1747 3.14996 22.9733 3.14996 22.7248C3.14996 22.4762 2.9485 22.2748 2.69998 22.2748C2.45146 22.2748 2.25 22.4762 2.25 22.7248C2.25 22.9733 2.45146 23.1747 2.69998 23.1747Z" fill="#484848"/>
<path d="M6.29959 23.1747C6.54811 23.1747 6.74957 22.9733 6.74957 22.7248C6.74957 22.4762 6.54811 22.2748 6.29959 22.2748C6.05107 22.2748 5.84961 22.4762 5.84961 22.7248C5.84961 22.9733 6.05107 23.1747 6.29959 23.1747Z" fill="#484848"/>
<path d="M9.90018 23.1747C10.1487 23.1747 10.3502 22.9733 10.3502 22.7248C10.3502 22.4762 10.1487 22.2748 9.90018 22.2748C9.65166 22.2748 9.4502 22.4762 9.4502 22.7248C9.4502 22.9733 9.65166 23.1747 9.90018 23.1747Z" fill="#484848"/>
<path d="M13.4998 19.5749C13.7483 19.5749 13.9498 19.3734 13.9498 19.1249C13.9498 18.8764 13.7483 18.6749 13.4998 18.6749C13.2513 18.6749 13.0498 18.8764 13.0498 19.1249C13.0498 19.3734 13.2513 19.5749 13.4998 19.5749Z" fill="#484848"/>
<path d="M17.0994 19.5749C17.3479 19.5749 17.5494 19.3734 17.5494 19.1249C17.5494 18.8764 17.3479 18.6749 17.0994 18.6749C16.8509 18.6749 16.6494 18.8764 16.6494 19.1249C16.6494 19.3734 16.8509 19.5749 17.0994 19.5749Z" fill="#484848"/>
<path d="M11.7 21.3748C11.9485 21.3748 12.15 21.1734 12.15 20.9248C12.15 20.6763 11.9485 20.4749 11.7 20.4749C11.4515 20.4749 11.25 20.6763 11.25 20.9248C11.25 21.1734 11.4515 21.3748 11.7 21.3748Z" fill="#484848"/>
<path d="M15.2996 21.3748C15.5481 21.3748 15.7496 21.1734 15.7496 20.9248C15.7496 20.6763 15.5481 20.4749 15.2996 20.4749C15.0511 20.4749 14.8496 20.6763 14.8496 20.9248C14.8496 21.1734 15.0511 21.3748 15.2996 21.3748Z" fill="#484848"/>
<path d="M13.4998 23.1747C13.7483 23.1747 13.9498 22.9733 13.9498 22.7248C13.9498 22.4762 13.7483 22.2748 13.4998 22.2748C13.2513 22.2748 13.0498 22.4762 13.0498 22.7248C13.0498 22.9733 13.2513 23.1747 13.4998 23.1747Z" fill="#484848"/>
<path d="M17.0994 23.1747C17.3479 23.1747 17.5494 22.9733 17.5494 22.7248C17.5494 22.4762 17.3479 22.2748 17.0994 22.2748C16.8509 22.2748 16.6494 22.4762 16.6494 22.7248C16.6494 22.9733 16.8509 23.1747 17.0994 23.1747Z" fill="#484848"/>
<path d="M20.7 19.5749C20.9485 19.5749 21.15 19.3734 21.15 19.1249C21.15 18.8764 20.9485 18.6749 20.7 18.6749C20.4515 18.6749 20.25 18.8764 20.25 19.1249C20.25 19.3734 20.4515 19.5749 20.7 19.5749Z" fill="#484848"/>
<path d="M24.2996 19.5749C24.5481 19.5749 24.7496 19.3734 24.7496 19.1249C24.7496 18.8764 24.5481 18.6749 24.2996 18.6749C24.0511 18.6749 23.8496 18.8764 23.8496 19.1249C23.8496 19.3734 24.0511 19.5749 24.2996 19.5749Z" fill="#484848"/>
<path d="M18.8992 21.3748C19.1477 21.3748 19.3492 21.1734 19.3492 20.9248C19.3492 20.6763 19.1477 20.4749 18.8992 20.4749C18.6507 20.4749 18.4492 20.6763 18.4492 20.9248C18.4492 21.1734 18.6507 21.3748 18.8992 21.3748Z" fill="#484848"/>
<path d="M22.4998 21.3748C22.7483 21.3748 22.9498 21.1734 22.9498 20.9248C22.9498 20.6763 22.7483 20.4749 22.4998 20.4749C22.2513 20.4749 22.0498 20.6763 22.0498 20.9248C22.0498 21.1734 22.2513 21.3748 22.4998 21.3748Z" fill="#484848"/>
<path d="M20.7 23.1747C20.9485 23.1747 21.15 22.9733 21.15 22.7248C21.15 22.4762 20.9485 22.2748 20.7 22.2748C20.4515 22.2748 20.25 22.4762 20.25 22.7248C20.25 22.9733 20.4515 23.1747 20.7 23.1747Z" fill="#484848"/>
<path d="M24.2996 23.1747C24.5481 23.1747 24.7496 22.9733 24.7496 22.7248C24.7496 22.4762 24.5481 22.2748 24.2996 22.2748C24.0511 22.2748 23.8496 22.4762 23.8496 22.7248C23.8496 22.9733 24.0511 23.1747 24.2996 23.1747Z" fill="#484848"/>
<path d="M25.2591 8.03534C25.341 7.93346 25.465 7.8745 25.5957 7.87514C26.0378 7.89027 26.4596 7.68904 26.726 7.33583C26.9924 6.98263 27.07 6.52179 26.934 6.10082C26.7327 5.5371 26.1942 5.16464 25.5958 5.17519C25.4644 5.17577 25.3402 5.11629 25.2583 5.01367C24.3317 3.89767 22.2159 2.02527 18.4499 2.02527H8.55001C4.78401 2.02527 2.66819 3.89767 1.74072 5.01499C1.65877 5.11687 1.53484 5.17582 1.40412 5.17519C1.0363 5.15853 0.677769 5.29358 0.412363 5.54881C0.146956 5.80403 -0.0020688 6.15698 0.000145997 6.52516C0.000145997 6.66913 0.022294 6.81224 0.0658517 6.94951C0.267135 7.51323 0.805648 7.88568 1.40412 7.87514C1.53532 7.87456 1.65956 7.93388 1.74161 8.03624C2.47861 8.91499 3.39406 9.62699 4.42716 10.1251H2.70015C1.60772 10.1262 0.623349 10.7848 0.205542 11.7941C-0.212264 12.8035 0.0187081 13.9652 0.79083 14.738C0.813769 14.7609 0.83945 14.7807 0.863285 14.8028C0.714947 14.8751 0.579053 14.9705 0.460561 15.0854C-0.134746 15.6794 -0.154626 16.6375 0.415579 17.2557C0.150805 17.5086 0.000778797 17.8587 0.000251464 18.225V23.6248C0.000251464 24.3704 0.604681 24.9748 1.35023 24.9748H25.6497C26.3953 24.9748 26.9997 24.3704 26.9997 23.6248V18.225C26.9987 17.6934 26.6858 17.212 26.2005 16.9951L26.2127 16.9843C26.7297 16.4648 27.0133 15.7574 26.9984 15.0246C26.9835 14.2918 26.6712 13.5966 26.1335 13.0986C26.785 12.772 27.1261 12.04 26.9571 11.331C26.7882 10.6221 26.1535 10.1226 25.4247 10.125H22.5727C23.606 9.62662 24.5217 8.91435 25.2591 8.03534ZM25.6497 17.775C25.8982 17.775 26.0997 17.9764 26.0997 18.225V23.6248C26.0997 23.8734 25.8982 24.0748 25.6497 24.0748H1.35017C1.10164 24.0748 0.900199 23.8733 0.900199 23.6248V18.225C0.900199 17.9764 1.10169 17.775 1.35017 17.775H25.6497ZM25.4247 11.0251C25.7975 11.0251 26.0997 11.3273 26.0997 11.7001C26.0997 12.0729 25.7975 12.3751 25.4247 12.3751H2.70015C2.45161 12.3751 2.25017 12.5766 2.25017 12.8251C2.25017 13.0736 2.45167 13.275 2.70015 13.275H24.2997C25.2938 13.275 26.0997 14.0809 26.0997 15.075C26.0997 16.0691 25.2938 16.8749 24.2997 16.8749H1.57513C1.20236 16.8749 0.900146 16.5727 0.900146 16.1999C0.900146 15.8272 1.20236 15.525 1.57513 15.525H24.2997C24.5482 15.525 24.7496 15.3235 24.7496 15.075C24.7496 14.8264 24.5481 14.625 24.2997 14.625H2.70009C1.70602 14.625 0.900146 13.8191 0.900146 12.8251C0.900146 11.831 1.70602 11.0251 2.70009 11.0251H25.4247ZM18.4498 10.1251H8.55001C5.32178 10.1251 3.44216 8.67658 2.43511 7.4625C2.18167 7.15401 1.80342 6.97519 1.40417 6.97514C1.19819 6.9851 1.00741 6.86698 0.924456 6.67814C0.892447 6.57911 0.892447 6.47254 0.924456 6.3735C1.00693 6.18414 1.19783 6.06543 1.40417 6.07514C1.8031 6.07535 2.18114 5.89663 2.43421 5.58825C3.44221 4.37327 5.32178 2.92522 8.55007 2.92522H18.4498C21.678 2.92522 23.5577 4.37327 24.5647 5.58735C24.8179 5.89621 25.1962 6.0753 25.5956 6.07514C25.8016 6.06517 25.9924 6.18329 26.0754 6.37213C26.1074 6.47116 26.1074 6.57774 26.0754 6.67677C25.9929 6.86614 25.802 6.98484 25.5956 6.97514C25.1968 6.97503 24.8189 7.15348 24.5656 7.4616C23.5577 8.67658 21.678 10.1251 18.4498 10.1251Z" fill="#484848"/>
<path fill-rule="evenodd" clip-rule="evenodd" d="M8.54935 8.32522C6.19502 8.32522 4.7969 7.36584 4.03907 6.56124C3.86811 6.38337 3.58577 6.37636 3.40616 6.54547C3.22655 6.71459 3.21659 6.99682 3.38386 7.17817C4.26361 8.11192 5.87366 9.22517 8.5493 9.22517C8.79783 9.22517 8.99927 9.02368 8.99927 8.7752C8.99927 8.52672 8.79788 8.32522 8.54935 8.32522Z" fill="#484848"/>
<path fill-rule="evenodd" clip-rule="evenodd" d="M21.1491 5.62524H5.84939C5.60086 5.62524 5.39941 5.82669 5.39941 6.07522C5.39941 6.32375 5.60091 6.52519 5.84939 6.52519H21.1491C21.3976 6.52519 21.599 6.3237 21.599 6.07522C21.5991 5.82669 21.3976 5.62524 21.1491 5.62524Z" fill="#484848"/>
</g>
<defs>
<clipPath id="clip0_111_4760">
<rect width="27" height="27" fill="white"/>
</clipPath>
</defs>
</svg>
