<svg width="140" height="20" viewBox="0 0 140 20" fill="none" xmlns="http://www.w3.org/2000/svg">
<path fill-rule="evenodd" clip-rule="evenodd" d="M11.0249 0.694996C10.6396 -0.231665 9.32641 -0.231665 8.9411 0.694996L6.74448 5.97769L1.03927 6.43502C0.0393848 6.51544 -0.36633 7.76379 0.395885 8.41678L4.74111 12.1402L3.41354 17.7062C3.18067 18.6821 4.24297 19.4539 5.10001 18.9305L9.98299 15.9477L14.8672 18.9305C15.723 19.4539 16.7853 18.6821 16.5524 17.7062L15.2249 12.1402L19.5701 8.41678C20.3323 7.76379 19.9266 6.51544 18.9267 6.43622L13.2227 5.97769L11.0249 0.694996Z" fill="#F7921E"/>
<path fill-rule="evenodd" clip-rule="evenodd" d="M41.0334 0.694996C40.6481 -0.231665 39.3349 -0.231665 38.9496 0.694996L36.753 5.97769L31.0477 6.43502C30.0479 6.51544 29.6421 7.76379 30.4044 8.41678L34.7496 12.1402L33.422 17.7062C33.1891 18.6821 34.2514 19.4539 35.1085 18.9305L39.9915 15.9477L44.8756 18.9305C45.7315 19.4539 46.7938 18.6821 46.5609 17.7062L45.2333 12.1402L49.5786 8.41678C50.3408 7.76379 49.9351 6.51544 48.9352 6.43622L43.2312 5.97769L41.0334 0.694996Z" fill="#F7921E"/>
<path fill-rule="evenodd" clip-rule="evenodd" d="M71.0418 0.694996C70.6565 -0.231665 69.3434 -0.231665 68.9581 0.694996L66.7614 5.97769L61.0562 6.43502C60.0563 6.51544 59.6506 7.76379 60.4128 8.41678L64.7581 12.1402L63.4305 17.7062C63.1976 18.6821 64.2599 19.4539 65.117 18.9305L69.9999 15.9477L74.8841 18.9305C75.74 19.4539 76.8023 18.6821 76.5694 17.7062L75.2418 12.1402L79.5871 8.41678C80.3493 7.76379 79.9436 6.51544 78.9437 6.43622L73.2397 5.97769L71.0418 0.694996Z" fill="#F7921E"/>
<path fill-rule="evenodd" clip-rule="evenodd" d="M101.05 0.694996C100.665 -0.231665 99.3518 -0.231665 98.9665 0.694996L96.7699 5.97769L91.0647 6.43502C90.0648 6.51544 89.6591 7.76379 90.4213 8.41678L94.7665 12.1402L93.439 17.7062C93.2061 18.6821 94.2684 19.4539 95.1254 18.9305L100.008 15.9477L104.893 18.9305C105.748 19.4539 106.811 18.6821 106.578 17.7062L105.25 12.1402L109.596 8.41678C110.358 7.76379 109.952 6.51544 108.952 6.43622L103.248 5.97769L101.05 0.694996Z" fill="#F7921E"/>
<path fill-rule="evenodd" clip-rule="evenodd" d="M131.059 0.694996C130.673 -0.231665 129.36 -0.231665 128.975 0.694996L126.778 5.97769L121.073 6.43502C120.073 6.51544 119.668 7.76379 120.43 8.41678L124.775 12.1402L123.447 17.7062C123.215 18.6821 124.277 19.4539 125.134 18.9305L130.017 15.9477L134.901 18.9305C135.757 19.4539 136.819 18.6821 136.586 17.7062L135.259 12.1402L139.604 8.41678C140.366 7.76379 139.961 6.51544 138.961 6.43622L133.257 5.97769L131.059 0.694996Z" fill="#F7921E"/>
</svg>
