<svg width="50" height="35" viewBox="0 0 50 35" fill="none" xmlns="http://www.w3.org/2000/svg">
<path d="M11.7188 0C5.25566 0 0 5.25713 0 11.7188C0 17.6182 4.38027 22.5134 10.0622 23.3202C9.60732 26.6247 8.34561 29.7689 6.37432 32.4955C5.99092 33.0276 6.00527 33.7486 6.41436 34.2636C6.81572 34.7703 7.51318 34.9624 8.12529 34.7042C17.4265 30.8219 23.4375 21.7981 23.4375 11.7188C23.4375 5.25713 18.1818 0 11.7188 0ZM38.2812 0C31.8182 0 26.5625 5.25713 26.5625 11.7188C26.5625 17.6182 30.9428 22.5134 36.6247 23.3202C36.1698 26.6247 34.9081 29.7689 32.9368 32.4955C32.5534 33.0276 32.5678 33.7486 32.9769 34.2636C33.3782 34.7703 34.0757 34.9624 34.6878 34.7042C43.989 30.8219 50 21.7981 50 11.7188C50 5.25713 44.7443 0 38.2812 0Z" fill="#63AC45"/>
</svg>
