<svg width="117" height="18" viewBox="0 0 117 18" fill="none" xmlns="http://www.w3.org/2000/svg">
<path d="M6.06741 18V9.78996H8.82207L9.23536 6.58941H6.06741V4.54632C6.06741 3.61998 6.32359 2.98869 7.65347 2.98869L9.34686 2.98799V0.125307C9.05401 0.0872508 8.04877 0 6.87877 0C4.43564 0 2.76302 1.49127 2.76302 4.22934V6.58941H0V9.78996H2.76302V18H6.06741Z" fill="#F7921E"/>
<path d="M43.7477 4.386C43.2077 4.62 42.6497 4.782 42.0557 4.854C42.6677 4.494 43.1357 3.918 43.3517 3.216C42.7757 3.558 42.1457 3.792 41.4797 3.936C40.9397 3.36 40.1657 3 39.3197 3C37.6817 3 36.3677 4.332 36.3677 5.952C36.3677 6.186 36.3857 6.402 36.4397 6.618C33.9917 6.51 31.8317 5.322 30.3737 3.54C29.3297 5.412 30.4997 6.96 31.2737 7.482C30.8057 7.482 30.3377 7.338 29.9417 7.122C29.9417 8.58 30.9677 9.786 32.2997 10.056C32.0117 10.146 31.3637 10.2 30.9677 10.11C31.3457 11.28 32.4437 12.144 33.7217 12.162C32.7137 12.954 31.2377 13.584 29.3477 13.386C30.6617 14.232 32.2097 14.718 33.8837 14.718C39.3197 14.718 42.2717 10.218 42.2717 6.33C42.2717 6.204 42.2717 6.078 42.2537 5.952C42.8657 5.502 43.3697 4.98 43.7477 4.386Z" fill="#484848"/>
<path d="M76.8117 0H68.6805C65.9597 0 63.7461 2.21358 63.7461 4.93446V13.0656C63.7461 15.7865 65.9597 18 68.6805 18H76.8117C79.5326 18 81.7461 15.7865 81.7461 13.0656V4.93446C81.7461 2.21358 79.5326 0 76.8117 0ZM80.6831 13.0656C80.6831 15.2003 78.9464 16.937 76.8117 16.937H68.6805C66.5458 16.937 64.8091 15.2003 64.8091 13.0656V4.93446C64.8091 2.7997 66.5458 1.06298 68.6805 1.06298H76.8117C78.9464 1.06298 80.6831 2.7997 80.6831 4.93446V13.0656Z" fill="#484848"/>
<path d="M72.7456 4.06299C70.0233 4.06299 67.8086 6.27773 67.8086 9.00002C67.8086 11.7223 70.0233 13.937 72.7456 13.937C75.4679 13.937 77.6827 11.7223 77.6827 8.99998C77.6827 6.27769 75.4679 4.06299 72.7456 4.06299ZM72.7456 12.8741C70.6095 12.8741 68.8715 11.1361 68.8715 8.99998C68.8715 6.86382 70.6095 5.1259 72.7456 5.1259C74.8818 5.1259 76.6197 6.86385 76.6197 9.00002C76.6197 11.1362 74.8818 12.8741 72.7456 12.8741Z" fill="#484848"/>
<path d="M77.9785 2.26758C77.1514 2.26758 76.4785 2.9405 76.4785 3.76759C76.4785 4.59468 77.1514 5.26757 77.9785 5.26757C78.8056 5.26757 79.4785 4.59464 79.4785 3.76755C79.4785 2.94047 78.8056 2.26758 77.9785 2.26758ZM77.9785 4.20455C77.7376 4.20455 77.5415 4.00852 77.5415 3.76755C77.5415 3.52659 77.7376 3.33056 77.9785 3.33056C78.2195 3.33056 78.4155 3.52663 78.4155 3.76755C78.4155 4.00848 78.2195 4.20455 77.9785 4.20455Z" fill="#484848"/>
<path d="M116.146 16.4V11.126C116.146 8.53396 115.588 6.55396 112.564 6.55396C111.106 6.55396 110.134 7.34596 109.738 8.10196H109.702V6.78795H106.84V16.4H109.828V11.63C109.828 10.37 110.062 9.16395 111.61 9.16395C113.14 9.16395 113.158 10.586 113.158 11.702V16.382H116.146V16.4Z" fill="#484848"/>
<path d="M101.98 6.78809H104.968V16.4001H101.98V6.78809Z" fill="#484848"/>
<path d="M103.474 2C102.52 2 101.746 2.774 101.746 3.728C101.746 4.682 102.52 5.474 103.474 5.474C104.428 5.474 105.202 4.682 105.202 3.728C105.202 2.774 104.428 2 103.474 2Z" fill="#484848"/>
</svg>
