<svg width="20" height="20" viewBox="0 0 20 20" fill="none" xmlns="http://www.w3.org/2000/svg">
<path fill-rule="evenodd" clip-rule="evenodd" d="M10.21 14.77C10.0722 14.6267 9.99685 14.4346 10.0006 14.2359C10.0043 14.0371 10.0869 13.848 10.23 13.71L14.168 10L10.23 6.29001C10.1556 6.22257 10.0956 6.1409 10.0534 6.04983C10.0112 5.95875 9.9877 5.86014 9.98431 5.75982C9.98093 5.65951 9.99771 5.55953 10.0337 5.46582C10.0696 5.37211 10.124 5.28657 10.1936 5.21427C10.2633 5.14196 10.3467 5.08437 10.439 5.04491C10.5313 5.00544 10.6305 4.9849 10.7309 4.9845C10.8313 4.98411 10.9307 5.00386 11.0233 5.0426C11.1159 5.08133 11.1998 5.13826 11.27 5.21001L15.77 9.46001C15.8426 9.52997 15.9003 9.61385 15.9398 9.70663C15.9792 9.79941 15.9995 9.89919 15.9995 10C15.9995 10.1008 15.9792 10.2006 15.9398 10.2934C15.9003 10.3862 15.8426 10.47 15.77 10.54L11.27 14.79C11.1267 14.9278 10.9346 15.0032 10.7359 14.9994C10.5371 14.9957 10.348 14.9131 10.21 14.77Z" fill="#63AC45"/>
<path fill-rule="evenodd" clip-rule="evenodd" d="M4.20999 14.77C4.07216 14.6267 3.99685 14.4346 4.0006 14.2359C4.00435 14.0371 4.08686 13.848 4.22999 13.71L8.16799 10L4.22999 6.29001C4.15565 6.22257 4.0956 6.1409 4.0534 6.04983C4.0112 5.95875 3.9877 5.86014 3.98431 5.75982C3.98093 5.65951 3.99771 5.55953 4.03366 5.46582C4.06962 5.37211 4.12402 5.28657 4.19365 5.21427C4.26327 5.14196 4.3467 5.08437 4.43899 5.04491C4.53127 5.00544 4.63055 4.9849 4.73092 4.9845C4.83129 4.98411 4.93072 5.00386 5.02332 5.0426C5.11592 5.08133 5.1998 5.13826 5.26999 5.21001L9.76999 9.46001C9.84258 9.52997 9.90032 9.61385 9.93975 9.70663C9.97919 9.79941 9.99951 9.89919 9.99951 10C9.99951 10.1008 9.97919 10.2006 9.93975 10.2934C9.90032 10.3862 9.84258 10.47 9.76999 10.54L5.26999 14.79C5.12673 14.9278 4.93462 15.0032 4.73585 14.9994C4.53709 14.9957 4.34795 14.9131 4.20999 14.77Z" fill="#63AC45"/>
</svg>
