<svg width="45" height="45" viewBox="0 0 45 45" fill="none" xmlns="http://www.w3.org/2000/svg">
<g clip-path="url(#clip0_140_704)">
<path d="M3.74231 34.5068C1.68228 31.1575 0.494141 27.2145 0.494141 22.994C0.494141 10.8404 10.3465 0.988037 22.5001 0.988037C34.6537 0.988037 44.5061 10.8404 44.5061 22.994C44.5061 27.2145 43.318 31.1575 41.2579 34.5068C35.491 33.3976 29.1528 32.7844 22.5001 32.7844C15.8475 32.7844 9.50923 33.3976 3.74231 34.5068Z" fill="#024C67"/>
<path d="M16.5718 6.28736C16.5718 6.78344 16.1697 7.18557 15.6736 7.18557C15.1775 7.18557 14.7754 6.78344 14.7754 6.28736C14.7754 5.79129 15.1775 5.38916 15.6736 5.38916C16.1697 5.38916 16.5718 5.79129 16.5718 6.28736Z" fill="#3691BB"/>
<path d="M30.9429 5.38917C30.9429 5.88525 30.5408 6.28737 30.0447 6.28737C29.5486 6.28737 29.1465 5.88525 29.1465 5.38917C29.1465 4.89309 29.5486 4.49097 30.0447 4.49097C30.5408 4.49097 30.9429 4.89309 30.9429 5.38917Z" fill="#FFF5F5"/>
<path d="M41.7206 17.9642C41.7206 18.4602 41.3185 18.8624 40.8224 18.8624C40.3264 18.8624 39.9242 18.4602 39.9242 17.9642C39.9242 17.4681 40.3264 17.066 40.8224 17.066C41.3185 17.066 41.7206 17.4681 41.7206 17.9642ZM4.8943 13.4731C4.39822 13.4731 3.99609 13.8753 3.99609 14.3713C3.99609 14.8674 4.39822 15.2696 4.8943 15.2696C5.39038 15.2696 5.7925 14.8674 5.7925 14.3713C5.7925 13.8753 5.39038 13.4731 4.8943 13.4731Z" fill="#FDF061"/>
<path d="M36.8218 35.0399C37.6223 28.9537 39.3208 20.3244 41.2868 20.3244C42.3889 20.3244 43.4068 23.036 44.2297 26.4913C43.8115 29.1102 42.9311 31.575 41.675 33.7993C41.0598 34.8887 39.8409 35.4935 38.6048 35.3008C38.0154 35.2089 37.4211 35.1219 36.8218 35.0399ZM6.69166 35.255C6.67432 31.9122 4.54064 15.8546 1.88231 15.2849C0.984829 17.684 0.494141 20.2817 0.494141 22.9939C0.494141 26.9146 1.51953 30.5958 3.31666 33.784C3.94172 34.8929 5.1983 35.4866 6.45624 35.2913C6.53456 35.2791 6.61306 35.2671 6.69166 35.255Z" fill="#025F80"/>
<path d="M39.7449 33.5273V33.5525C39.7414 34.868 38.3924 35.9281 36.7472 35.9281H29.9882C28.5816 35.9281 27.3917 35.1533 27.0738 34.1065C26.9163 34.1231 26.7558 34.1317 26.5929 34.1317H18.4059C18.243 34.1317 18.0825 34.1231 17.925 34.1065C17.6072 35.1533 16.4172 35.9281 15.0106 35.9281H8.25166C6.60642 35.9281 5.25741 34.868 5.25391 33.5525C5.25391 33.5441 5.25391 33.5357 5.25391 33.5273C5.25391 29.2662 8.10912 7.74961 11.6312 7.74961C13.3807 7.74961 14.9656 13.0585 16.1179 18.9245C17.509 10.0654 19.8482 0 22.4994 0C25.1506 0 27.4898 10.0654 28.881 18.9245C30.0332 13.0585 31.6182 7.74961 33.3677 7.74961C36.8897 7.74961 39.7449 29.2662 39.7449 33.5273Z" fill="#22B27F"/>
<path d="M23.6231 0.592096C20.0629 7.40892 17.4524 27.879 17.4524 32.5721V32.6054C17.4538 33.1499 17.6291 33.6614 17.9357 34.1076C16.1623 33.9244 14.7787 32.7203 14.7749 31.2542C14.7749 31.244 14.7749 31.2339 14.7749 31.2237C14.7749 26.0623 18.2333 0 22.4994 0C22.8811 0 23.2562 0.208563 23.6231 0.592096ZM22.4994 9.88024C22.0033 9.88024 21.6012 10.2824 21.6012 10.7784V34.1317H23.3976V10.7784C23.3976 10.2824 22.9955 9.88024 22.4994 9.88024ZM29.2009 34.6406C29.2009 30.7661 31.3562 13.8663 34.2953 8.2385C33.9925 7.92189 33.6828 7.7497 33.3677 7.7497C29.8456 7.7497 26.9904 29.2663 26.9904 33.5274V33.5526C26.9937 34.763 28.1359 35.7571 29.6 35.9084C29.3468 35.54 29.2021 35.1178 29.2009 34.6682C29.2009 34.6589 29.2009 34.6497 29.2009 34.6406ZM33.3677 15.9066C32.9581 15.9066 32.6261 16.2385 32.6261 16.6481V35.9281H34.1092V16.6481C34.1092 16.2385 33.7773 15.9066 33.3677 15.9066ZM11.6312 7.74961C8.10912 7.74961 5.25391 29.2662 5.25391 33.5273V33.5525C5.25714 34.7629 6.39939 35.757 7.86346 35.9083C7.61025 35.5399 7.46555 35.1177 7.46439 34.6681C7.46439 34.659 7.46439 34.6497 7.46439 34.6406C7.46439 30.7661 9.61963 13.8663 12.5588 8.2385C12.2559 7.9218 11.9462 7.74961 11.6312 7.74961ZM11.6312 15.9066C11.2216 15.9066 10.8896 16.2385 10.8896 16.6481V31.0334L12.3727 35.9281V16.6481C12.3727 16.2385 12.0407 15.9066 11.6312 15.9066Z" fill="#059B7E"/>
<path d="M41.6925 33.7689C41.3891 34.3081 41.0637 34.8333 40.7174 35.343L33.1529 27.5582C32.8072 27.2025 32.8153 26.6338 33.1711 26.2881C33.5269 25.9424 34.0909 25.9515 34.4365 26.3072L41.6925 33.7689ZM11.8356 26.2882C11.4798 25.9425 10.9111 25.9507 10.5655 26.3065L3.31055 33.7728C3.61396 34.3119 3.93956 34.837 4.28591 35.3466L11.8539 27.5583C12.1994 27.2025 12.1914 26.6338 11.8356 26.2882Z" fill="#CFF09A"/>
<path d="M23.1352 15.0065L34.735 26.6063C34.9474 26.8187 35.0395 27.1231 34.9807 27.4176L33.4229 35.2062C33.3389 35.626 32.9703 35.9282 32.5421 35.9282H12.4579C12.0298 35.9282 11.6612 35.626 11.5772 35.2062L10.0194 27.4176C9.96049 27.1231 10.0527 26.8187 10.2651 26.6063L21.8649 15.0065C22.2157 14.6557 22.7844 14.6557 23.1352 15.0065Z" fill="#FCB30B"/>
<path d="M27.8776 33.9457H17.1215C16.7901 33.9457 16.5728 33.599 16.7174 33.3007L22.0954 22.2046C22.2591 21.867 22.7401 21.867 22.9037 22.2046L28.2817 33.3007C28.4262 33.599 28.209 33.9457 27.8776 33.9457Z" fill="#FC5426"/>
<path d="M19.7158 33.9457H17.1216C16.7901 33.9457 16.5729 33.599 16.7174 33.3007L22.0954 22.2046C22.259 21.867 22.74 21.867 22.9037 22.2046L23.7966 24.0469L19.3115 33.3006C19.1671 33.599 19.3843 33.9457 19.7158 33.9457Z" fill="#E55920"/>
<path d="M14.149 35.9282H12.4579C12.0298 35.9282 11.6612 35.626 11.5772 35.2062L10.0194 27.4176C9.96049 27.1231 10.0527 26.8187 10.2651 26.6063L21.8649 15.0065C22.2157 14.6557 22.7844 14.6557 23.1352 15.0065L24.2522 16.1235L18.4876 21.8881C14.8086 25.5669 13.1882 30.8228 14.149 35.9282Z" fill="#FD9D01"/>
<path d="M3.4707 34.0534C9.32196 32.947 15.7518 32.3354 22.5 32.3354C29.2482 32.3354 35.678 32.947 41.5292 34.0534C39.9992 36.6804 37.9407 38.9618 35.4996 40.7519C31.3594 40.2425 27.0005 39.9704 22.5 39.9704C17.9994 39.9704 13.6404 40.2425 9.50034 40.7519C7.05912 38.9618 5.0007 36.6804 3.4707 34.0534Z" fill="#509C49"/>
<path d="M19.5643 40.3725C20.8793 40.199 22.208 40.0422 23.5491 39.9031C27.552 40.1007 31.4452 40.462 35.1947 40.9716C37.7698 39.15 39.9362 36.7891 41.5296 34.0534C37.268 33.2475 32.6994 32.7042 27.9246 32.4685C26.6357 32.6022 25.3621 32.7573 24.1054 32.9328C22.8257 33.1115 21.789 33.6409 21.0084 34.379C20.4192 34.9361 20.8175 35.9282 21.6284 35.9282H21.9306C22.409 35.9282 22.8267 36.2893 22.8576 36.7666C22.8915 37.2897 22.4772 37.7246 21.9614 37.7246H20.1663C19.6685 37.7246 19.2598 38.1294 19.2677 38.6271C19.2771 39.219 19.3752 39.8094 19.5643 40.3725ZM34.5363 34.1318H36.3327C36.8287 34.1318 37.2309 34.5339 37.2309 35.03C37.2309 35.5261 36.8287 35.9282 36.3327 35.9282H34.5363C34.0402 35.9282 33.6381 35.5261 33.6381 35.03C33.6381 34.5339 34.0402 34.1318 34.5363 34.1318ZM25.5542 34.1318H27.3506C27.8467 34.1318 28.2488 34.5339 28.2488 35.03C28.2488 35.5261 27.8467 35.9282 27.3506 35.9282H25.5542C25.0581 35.9282 24.656 35.5261 24.656 35.03C24.656 34.5339 25.0581 34.1318 25.5542 34.1318Z" fill="#7ECD00"/>
<path d="M8.23828 39.7532C9.079 39.721 9.86924 39.4917 10.564 39.1103C11.9652 38.3409 13.6748 38.3409 15.076 39.1103C15.827 39.5226 16.6895 39.7571 17.6067 39.7571C18.524 39.7571 19.3864 39.5226 20.1374 39.1103C21.5386 38.3409 23.2483 38.3409 24.6495 39.1103C25.4004 39.5226 26.2629 39.7571 27.1801 39.7571C28.0974 39.7571 28.9598 39.5226 29.7108 39.1103C31.112 38.3409 32.8217 38.3409 34.2229 39.1103C34.9739 39.5226 35.8363 39.7571 36.7536 39.7571H36.7579C32.9173 43.0267 27.9392 44.9999 22.5003 44.9999C17.0592 44.9999 12.0794 43.0251 8.23828 39.7532Z" fill="#0680AE"/>
<path d="M36.7565 39.7574C33.8794 42.2067 30.364 43.9285 26.4947 44.6382C25.3364 44.454 24.2058 44.1787 23.111 43.8192C20.8725 43.0842 19.6421 41.3456 19.3398 39.465C19.6165 39.3686 19.8826 39.2496 20.1361 39.1105C21.5373 38.3411 23.2469 38.3411 24.6481 39.1105C25.3991 39.5229 26.2616 39.7574 27.1788 39.7574C28.0961 39.7574 28.9585 39.5229 29.7095 39.1105C31.1107 38.3411 32.8204 38.3411 34.2216 39.1105C34.9725 39.5229 35.835 39.7574 36.7522 39.7574H36.7565Z" fill="#08A8F0"/>
<path d="M17.4701 35.03C17.4701 35.5261 17.068 35.9282 16.5719 35.9282H14.7755C14.2794 35.9282 13.8773 35.5261 13.8773 35.03C13.8773 34.534 14.2794 34.1318 14.7755 34.1318H16.5719C17.068 34.1318 17.4701 34.534 17.4701 35.03ZM10.2845 35.9282H8.48805C7.99197 35.9282 7.58984 36.3304 7.58984 36.8264C7.58984 37.3225 7.99197 37.7247 8.48805 37.7247H10.2845C10.7805 37.7247 11.1827 37.3225 11.1827 36.8264C11.1827 36.3304 10.7805 35.9282 10.2845 35.9282Z" fill="#387232"/>
<path d="M35.4608 33.7741C35.1484 34.7644 34.5186 35.4697 33.9824 35.475C33.9351 35.4411 33.8917 35.4 33.8521 35.3521C33.6582 35.6191 33.4326 35.805 33.1886 35.8846C32.9445 35.8051 32.719 35.6191 32.5251 35.3521C32.4856 35.4 32.4421 35.4411 32.3947 35.475C31.8586 35.4697 31.2288 34.7645 30.9164 33.7741C30.604 32.7837 30.7151 31.8447 31.1513 31.5328C31.3948 31.5351 31.6575 31.6819 31.9011 31.9341C32.0682 30.7748 32.5686 29.8864 33.1886 29.6841C33.8086 29.8864 34.3089 30.7748 34.4761 31.9341C34.7197 31.6819 34.9824 31.5351 35.2259 31.5328C35.6621 31.8447 35.7732 32.7837 35.4608 33.7741Z" fill="#FDE803"/>
<path d="M35.4596 33.7742C35.3103 34.2474 35.0885 34.6556 34.8392 34.9533C33.6366 34.6378 32.7383 33.3844 32.7383 31.8862C32.7383 31.0836 32.9962 30.3512 33.4205 29.7957C33.9307 30.1198 34.3293 30.9242 34.4749 31.9343C34.7185 31.6821 34.9812 31.5353 35.2247 31.533C35.6609 31.8448 35.772 32.7838 35.4596 33.7742Z" fill="#FDF061"/>
<path d="M36.4249 37.2771C36.235 37.7354 35.7097 37.953 35.2513 37.7632L33.0767 36.8624L30.4897 37.7799C30.0221 37.9457 29.5087 37.7011 29.3429 37.2336C29.1771 36.766 29.4217 36.2527 29.8892 36.0868L30.7492 35.7817C30.548 35.534 30.4853 35.1865 30.6161 34.8709C30.806 34.4125 31.3314 34.195 31.7897 34.3848L33.1266 34.9386L34.1219 34.5856C34.5894 34.4198 35.1028 34.6644 35.2686 35.1319C35.3507 35.3633 35.3321 35.606 35.2359 35.8123L35.9389 36.1035C36.3971 36.2933 36.6148 36.8188 36.4249 37.2771Z" fill="#AA695D"/>
<path d="M35.234 35.8123L34.3642 35.452L34.4203 35.432C34.7337 35.3209 34.9468 35.0536 35.0034 34.7488C35.1196 34.8478 35.2121 34.9776 35.2667 35.1319C35.3488 35.3633 35.3302 35.606 35.234 35.8123ZM36.4838 36.8162C36.2376 37.0048 35.9003 37.0606 35.5932 36.9333L31.444 35.2146C31.1368 35.0873 30.9379 34.8094 30.8971 34.502C30.7759 34.5947 30.6767 34.7197 30.6141 34.8708C30.4243 35.3292 30.6419 35.8546 31.1002 36.0444L31.8352 36.3489L30.1875 36.9333C29.8741 37.0444 29.5402 36.9712 29.3041 36.7701C29.2763 36.9201 29.2862 37.0793 29.3409 37.2336C29.5067 37.7011 30.0202 37.9457 30.4877 37.7799L33.0747 36.8623L35.2494 37.7632C35.7078 37.953 36.2331 37.7354 36.423 37.277C36.4856 37.1259 36.5039 36.9674 36.4838 36.8162Z" fill="#5A443D"/>
<path d="M30.4897 37.78C30.0221 37.9458 29.5087 37.7012 29.3429 37.2337C29.1771 36.7661 29.4217 36.2527 29.8892 36.0869C30.3567 35.9211 30.8701 36.1657 31.0359 36.6332C31.2018 37.1006 30.9572 37.6141 30.4897 37.78ZM35.2513 37.7632C35.7096 37.9531 36.235 37.7355 36.4249 37.2771C36.6148 36.8189 36.3971 36.2934 35.9388 36.1035C35.4805 35.9137 34.9551 36.1313 34.7652 36.5897C34.5754 37.0479 34.793 37.5734 35.2513 37.7632Z" fill="#FFF2B4"/>
<path d="M30.0374 36.5101C30.2712 36.4272 30.5279 36.5495 30.6108 36.7832C30.6937 37.017 30.5714 37.2737 30.3377 37.3566C30.1039 37.4395 29.8471 37.3173 29.7642 37.0835C29.6813 36.8498 29.8036 36.5931 30.0374 36.5101ZM35.765 36.5185C35.5359 36.4236 35.2732 36.5324 35.1783 36.7616C35.0833 36.9907 35.1922 37.2534 35.4213 37.3484C35.6504 37.4433 35.9132 37.3344 36.0081 37.1053C36.103 36.8762 35.9942 36.6134 35.765 36.5185Z" fill="#F1CA50"/>
</g>
<defs>
<clipPath id="clip0_140_704">
<rect width="45" height="45" fill="white"/>
</clipPath>
</defs>
</svg>
