<svg width="20" height="20" viewBox="0 0 20 20" fill="none" xmlns="http://www.w3.org/2000/svg">
<path d="M4.61538 0.769231V3.07692M15.3846 0.769231V3.07692M0.769231 16.9231V5.38462C0.769231 4.77258 1.01236 4.18561 1.44514 3.75283C1.87791 3.32005 2.46489 3.07692 3.07692 3.07692H16.9231C17.5351 3.07692 18.1221 3.32005 18.5549 3.75283C18.9876 4.18561 19.2308 4.77258 19.2308 5.38462V16.9231M0.769231 16.9231C0.769231 17.5351 1.01236 18.1221 1.44514 18.5549C1.87791 18.9876 2.46489 19.2308 3.07692 19.2308H16.9231C17.5351 19.2308 18.1221 18.9876 18.5549 18.5549C18.9876 18.1221 19.2308 17.5351 19.2308 16.9231M0.769231 16.9231V9.23077C0.769231 8.61873 1.01236 8.03176 1.44514 7.59898C1.87791 7.16621 2.46489 6.92308 3.07692 6.92308H16.9231C17.5351 6.92308 18.1221 7.16621 18.5549 7.59898C18.9876 8.03176 19.2308 8.61873 19.2308 9.23077V16.9231M10 10.7692H10.0082V10.7774H10V10.7692ZM10 13.0769H10.0082V13.0851H10V13.0769ZM10 15.3846H10.0082V15.3928H10V15.3846ZM7.69231 13.0769H7.70051V13.0851H7.69231V13.0769ZM7.69231 15.3846H7.70051V15.3928H7.69231V15.3846ZM5.38462 13.0769H5.39282V13.0851H5.38462V13.0769ZM5.38462 15.3846H5.39282V15.3928H5.38462V15.3846ZM12.3077 10.7692H12.3159V10.7774H12.3077V10.7692ZM12.3077 13.0769H12.3159V13.0851H12.3077V13.0769ZM12.3077 15.3846H12.3159V15.3928H12.3077V15.3846ZM14.6154 10.7692H14.6236V10.7774H14.6154V10.7692ZM14.6154 13.0769H14.6236V13.0851H14.6154V13.0769Z" stroke="#63AC45" stroke-width="1.5" stroke-linecap="round" stroke-linejoin="round"/>
</svg>
