<svg width="162" height="18" viewBox="0 0 162 18" fill="none" xmlns="http://www.w3.org/2000/svg">
<path d="M10.3941 18V9.78996H13.1487L13.562 6.58941H10.3941V4.54632C10.3941 3.61998 10.6503 2.98869 11.9801 2.98869L13.6735 2.98799V0.125307C13.3807 0.0872508 12.3754 0 11.2054 0C8.7623 0 7.08968 1.49127 7.08968 4.22934V6.58941H4.32666V9.78996H7.08968V18H10.3941Z" fill="#F7921E"/>
<path d="M64.1822 4.5359C63.6422 4.7699 63.0842 4.9319 62.4902 5.0039C63.1022 4.6439 63.5702 4.0679 63.7862 3.3659C63.2102 3.7079 62.5802 3.9419 61.9142 4.0859C61.3742 3.5099 60.6002 3.1499 59.7542 3.1499C58.1162 3.1499 56.8022 4.4819 56.8022 6.1019C56.8022 6.3359 56.8202 6.5519 56.8742 6.7679C54.4262 6.6599 52.2662 5.4719 50.8082 3.6899C49.7642 5.5619 50.9342 7.1099 51.7082 7.6319C51.2402 7.6319 50.7722 7.4879 50.3762 7.2719C50.3762 8.7299 51.4022 9.9359 52.7342 10.2059C52.4462 10.2959 51.7982 10.3499 51.4022 10.2599C51.7802 11.4299 52.8782 12.2939 54.1562 12.3119C53.1482 13.1039 51.6722 13.7339 49.7822 13.5359C51.0962 14.3819 52.6442 14.8679 54.3182 14.8679C59.7542 14.8679 62.7062 10.3679 62.7062 6.4799C62.7062 6.3539 62.7062 6.2279 62.6882 6.1019C63.3002 5.6519 63.8042 5.1299 64.1822 4.5359Z" fill="#B1B6B3"/>
<g clip-path="url(#clip0_160_4674)">
<path d="M109.066 0H100.934C98.2136 0 96 2.21358 96 4.93446V13.0656C96 15.7865 98.2136 18 100.934 18H109.066C111.786 18 114 15.7865 114 13.0656V4.93446C114 2.21358 111.786 0 109.066 0ZM112.937 13.0656C112.937 15.2003 111.2 16.937 109.066 16.937H100.934C98.7997 16.937 97.063 15.2003 97.063 13.0656V4.93446C97.063 2.7997 98.7997 1.06298 100.934 1.06298H109.066C111.2 1.06298 112.937 2.7997 112.937 4.93446V13.0656Z" fill="#B1B6B3"/>
<path d="M105 4.06299C102.278 4.06299 100.063 6.27773 100.063 9.00002C100.063 11.7223 102.278 13.937 105 13.937C107.722 13.937 109.937 11.7223 109.937 8.99998C109.937 6.27769 107.722 4.06299 105 4.06299ZM105 12.8741C102.864 12.8741 101.126 11.1361 101.126 8.99998C101.126 6.86382 102.864 5.1259 105 5.1259C107.136 5.1259 108.874 6.86385 108.874 9.00002C108.874 11.1362 107.136 12.8741 105 12.8741Z" fill="#B1B6B3"/>
<path d="M110.232 2.26758C109.405 2.26758 108.732 2.9405 108.732 3.76759C108.732 4.59468 109.405 5.26757 110.232 5.26757C111.059 5.26757 111.732 4.59464 111.732 3.76755C111.732 2.94047 111.059 2.26758 110.232 2.26758ZM110.232 4.20455C109.991 4.20455 109.795 4.00852 109.795 3.76755C109.795 3.52659 109.991 3.33056 110.232 3.33056C110.473 3.33056 110.669 3.52663 110.669 3.76755C110.669 4.00848 110.473 4.20455 110.232 4.20455Z" fill="#B1B6B3"/>
</g>
<path d="M160.2 16.2V10.926C160.2 8.334 159.642 6.354 156.618 6.354C155.16 6.354 154.188 7.146 153.792 7.902H153.756V6.588H150.894V16.2H153.882V11.43C153.882 10.17 154.116 8.964 155.664 8.964C157.194 8.964 157.212 10.386 157.212 11.502V16.182H160.2V16.2Z" fill="#B1B6B3"/>
<path d="M146.034 6.58789H149.022V16.1999H146.034V6.58789Z" fill="#B1B6B3"/>
<path d="M147.528 1.7998C146.574 1.7998 145.8 2.5738 145.8 3.5278C145.8 4.4818 146.574 5.2738 147.528 5.2738C148.482 5.2738 149.256 4.4818 149.256 3.5278C149.256 2.5738 148.482 1.7998 147.528 1.7998Z" fill="#B1B6B3"/>
<defs>
<clipPath id="clip0_160_4674">
<rect width="18" height="18" fill="white" transform="translate(96)"/>
</clipPath>
</defs>
</svg>
