<svg width="37" height="41" viewBox="0 0 37 41" fill="none" xmlns="http://www.w3.org/2000/svg">
<path d="M2.72542 27.0378L0.846272 28.138C0.589251 28.2887 0.37611 28.504 0.228003 28.7625C0.0798973 29.021 0.00197721 29.3138 0.00197721 29.6117C0.00197721 29.9096 0.0798973 30.2024 0.228003 30.4609C0.37611 30.7194 0.589251 30.9347 0.846272 31.0854L17.36 40.7658C17.6218 40.9192 17.9198 41 18.2232 41C18.5267 41 18.8246 40.9192 19.0865 40.7658L35.6002 31.0854C35.8572 30.9347 36.0704 30.7194 36.2185 30.4609C36.3666 30.2024 36.4445 29.9096 36.4445 29.6117C36.4445 29.3138 36.3666 29.021 36.2185 28.7625C36.0704 28.504 35.8572 28.2887 35.6002 28.138L33.721 27.0356L20.8153 34.6022C20.0292 35.0631 19.1345 35.3061 18.2232 35.3061C17.312 35.3061 16.4172 35.0631 15.6312 34.6022L2.72542 27.0378Z" fill="#63AC45"/>
<path d="M2.72542 17.9268L0.846272 19.027C0.589251 19.1777 0.37611 19.393 0.228003 19.6515C0.0798973 19.91 0.00197721 20.2028 0.00197721 20.5007C0.00197721 20.7986 0.0798973 21.0914 0.228003 21.3499C0.37611 21.6084 0.589251 21.8237 0.846272 21.9744L17.36 31.6548C17.6218 31.8082 17.9198 31.889 18.2232 31.889C18.5267 31.889 18.8246 31.8082 19.0865 31.6548L35.6002 21.9744C35.8572 21.8237 36.0704 21.6084 36.2185 21.3499C36.3666 21.0914 36.4445 20.7986 36.4445 20.5007C36.4445 20.2028 36.3666 19.91 36.2185 19.6515C36.0704 19.393 35.8572 19.1777 35.6002 19.027L33.721 17.9246L20.8153 25.4912C20.0292 25.9521 19.1345 26.1951 18.2232 26.1951C17.312 26.1951 16.4172 25.9521 15.6312 25.4912L2.72542 17.9268Z" fill="#63AC45"/>
<path d="M19.0891 0.235505C18.8267 0.0813045 18.5279 0 18.2235 0C17.9192 0 17.6204 0.0813045 17.358 0.235505L0.844294 9.91594C0.587274 10.0666 0.374133 10.2819 0.226026 10.5404C0.0779203 10.799 0 11.0917 0 11.3896C0 11.6876 0.0779203 11.9803 0.226026 12.2389C0.374133 12.4974 0.587274 12.7127 0.844294 12.8634L17.358 22.5438C17.6204 22.698 17.9192 22.7793 18.2235 22.7793C18.5279 22.7793 18.8267 22.698 19.0891 22.5438L35.6028 12.8634C35.8598 12.7127 36.0729 12.4974 36.221 12.2389C36.3691 11.9803 36.4471 11.6876 36.4471 11.3896C36.4471 11.0917 36.3691 10.799 36.221 10.5404C36.0729 10.2819 35.8598 10.0666 35.6028 9.91594L19.0891 0.235505Z" fill="#63AC45"/>
</svg>
