<svg width="1640" height="730" viewBox="0 0 1640 730" fill="none" xmlns="http://www.w3.org/2000/svg">
<mask id="mask0_160_418" style="mask-type:alpha" maskUnits="userSpaceOnUse" x="0" y="0" width="1640" height="730">
<rect width="1640" height="730" fill="#D9D9D9"/>
</mask>
<g mask="url(#mask0_160_418)">
<rect x="-31" y="-6" width="1682" height="946" fill="#C4C4C4"/>
</g>
<rect width="1640" height="730" fill="#1C231F" fill-opacity="0.2"/>
<circle cx="820" cy="365" r="65" fill="#F7921E"/>
<path d="M811 357.408C811 356.338 812.146 355.661 813.084 356.176L827.509 364.111C827.729 364.232 827.913 364.411 828.041 364.627C828.169 364.844 828.237 365.091 828.237 365.343C828.237 365.594 828.169 365.842 828.041 366.058C827.913 366.275 827.729 366.453 827.509 366.575L813.084 374.508C812.87 374.626 812.629 374.686 812.384 374.682C812.14 374.678 811.901 374.611 811.691 374.487C811.481 374.363 811.306 374.186 811.185 373.974C811.064 373.761 811 373.521 811 373.277V357.408Z" fill="white"/>
</svg>
