<svg width="37" height="38" viewBox="0 0 37 38" fill="none" xmlns="http://www.w3.org/2000/svg">
<path fill-rule="evenodd" clip-rule="evenodd" d="M26.9978 18.0057C28.417 18.0061 29.8162 17.671 31.0812 17.0276C32.3462 16.3843 33.4411 15.4509 34.2766 14.3037C35.1122 13.1565 35.6646 11.828 35.8888 10.4266C36.113 9.02526 36.0027 7.59072 35.5669 6.2401C35.3569 5.59202 34.5467 5.458 34.0627 5.94006L28.678 11.3248C28.5539 11.455 28.3939 11.5454 28.2183 11.5846C28.0428 11.6238 27.8595 11.6099 27.6918 11.5448C26.2298 10.935 25.067 9.77365 24.4554 8.31237C24.3901 8.14439 24.3762 7.96081 24.4154 7.78489C24.4545 7.60898 24.5451 7.44866 24.6754 7.32424L30.0642 1.93953C30.5442 1.45747 30.4122 0.645362 29.7641 0.435334C28.3666 -0.0158514 26.8799 -0.118239 25.4337 0.137103C23.9875 0.392445 22.6257 0.997761 21.4672 1.90025C20.3086 2.80274 19.3885 3.97499 18.787 5.31475C18.1856 6.65451 17.9211 8.12108 18.0166 9.58654C18.1266 11.3328 17.7605 13.203 16.4164 14.3232L1.95445 26.3728C1.37403 26.8579 0.900982 27.4585 0.565423 28.1365C0.229864 28.8144 0.0391485 29.5549 0.00541936 30.3106C-0.0283098 31.0663 0.0956864 31.8207 0.369513 32.5259C0.64334 33.231 1.061 33.8714 1.59589 34.4063C2.13079 34.9412 2.7712 35.3589 3.47636 35.6327C4.18151 35.9065 4.93596 36.0305 5.69167 35.9968C6.44737 35.9631 7.18777 35.7724 7.86573 35.4368C8.54369 35.1012 9.14435 34.6282 9.62947 34.0478L21.6791 19.5859C22.7992 18.2417 24.6694 17.8756 26.4157 17.9856C26.6077 17.9997 26.8017 18.0057 26.9978 18.0057ZM7.99525 30.0072C7.99525 30.5377 7.78451 31.0465 7.40939 31.4216C7.03426 31.7968 6.52549 32.0075 5.99499 32.0075C5.46448 32.0075 4.95571 31.7968 4.58059 31.4216C4.20546 31.0465 3.99472 30.5377 3.99472 30.0072C3.99472 29.4767 4.20546 28.968 4.58059 28.5928C4.95571 28.2177 5.46448 28.007 5.99499 28.007C6.52549 28.007 7.03426 28.2177 7.40939 28.5928C7.78451 28.968 7.99525 29.4767 7.99525 30.0072Z" fill="#63AC45"/>
<path d="M26.9984 21.0061C27.3444 21.0061 27.6885 20.9921 28.0265 20.9621L35.5355 28.4711C36.4734 29.409 37.0003 30.6811 37.0003 32.0076C37.0003 33.334 36.4734 34.6061 35.5355 35.544C34.5976 36.482 33.3255 37.0089 31.999 37.0089C30.6726 37.0089 29.4005 36.482 28.4626 35.544L19.6414 26.7229L23.986 21.5082C24.09 21.3822 24.28 21.2321 24.6701 21.1161C25.0741 20.9961 25.6082 20.9421 26.2243 20.9821C26.4803 20.9981 26.7383 21.0061 26.9984 21.0061ZM9.99612 7.17628L14.6567 11.8369C14.6117 11.9038 14.5578 11.9643 14.4967 12.0169L11.5963 14.4332L7.16775 10.0047H4.61341C4.42783 10.0046 4.24591 9.95301 4.088 9.85551C3.93009 9.75801 3.80243 9.6185 3.71929 9.45258L0.31884 2.64768C0.224875 2.4601 0.192279 2.24772 0.225663 2.0406C0.259047 1.83347 0.356722 1.64209 0.504865 1.49353L1.48499 0.513401C1.63332 0.364931 1.82459 0.266881 2.03173 0.233136C2.23886 0.199391 2.45137 0.231661 2.63915 0.325377L9.44405 3.72583C9.61057 3.80927 9.75049 3.93756 9.84803 4.09624C9.94557 4.25492 9.99686 4.43768 9.99612 4.62394V7.17828V7.17628Z" fill="#63AC45"/>
</svg>
