<svg width="100" height="100" viewBox="0 0 100 100" fill="none" xmlns="http://www.w3.org/2000/svg">
<rect width="100" height="100" rx="12" fill="#63AC45"/>
<path d="M71.6963 71.6216C71.0047 71.6216 70.3213 71.71 69.66 71.8765V51.0544L71.918 52.7694C72.2288 53.0055 72.6721 52.9449 72.9081 52.6341L75.1316 49.7067C75.2449 49.5574 75.2944 49.3693 75.2689 49.1837C75.2436 48.998 75.1455 48.8299 74.9962 48.7166L51.2894 30.7111C51.0369 30.5193 50.6871 30.5193 50.4347 30.7111L42.6365 36.6338V35.7362H42.8682C43.2584 35.7362 43.5749 35.4199 43.5749 35.0295V32.1553C43.5749 31.765 43.2584 31.4486 42.8682 31.4486H32.8215C32.4313 31.4486 32.1148 31.765 32.1148 32.1553V35.0297C32.1148 35.42 32.4313 35.7363 32.8215 35.7363H33.0532V43.9125L26.7279 48.7166C26.5786 48.8299 26.4805 48.998 26.4552 49.1837C26.4298 49.3693 26.4793 49.5575 26.5925 49.7067L28.8161 52.6341C28.9551 52.8172 29.1661 52.9135 29.3794 52.9135C29.5283 52.9135 29.6785 52.8666 29.8062 52.7694L32.0633 51.055V71.6318C31.9646 71.6266 31.8661 71.6216 31.7662 71.6216C28.6845 71.6216 26.1772 74.1288 26.1772 77.2106C26.1772 77.601 26.4937 77.9173 26.8839 77.9173C27.2741 77.9173 27.5906 77.601 27.5906 77.2106C27.5906 74.9082 29.4638 73.035 31.7662 73.035C33.6134 73.035 35.2178 74.2205 35.7587 75.985C35.8301 76.2178 36.0164 76.3974 36.2517 76.4605C36.4868 76.5232 36.7379 76.4609 36.9162 76.2948C39.1716 74.1926 42.1118 73.035 45.1952 73.035C48.2937 73.035 51.2446 74.2024 53.5038 76.3223C53.6562 76.4651 53.8641 76.5336 54.0712 76.5086C54.2786 76.4838 54.4645 76.3685 54.5788 76.1938C55.8727 74.2158 58.0529 73.035 60.4109 73.035C62.3505 73.035 64.2178 73.8542 65.5338 75.2827C65.6677 75.4279 65.8561 75.5105 66.0536 75.5105C66.251 75.5105 66.4395 75.4279 66.5733 75.2827C67.8894 73.8542 69.7566 73.035 71.6963 73.035C74.4832 73.035 76.996 74.6893 78.0977 77.2498C78.2517 77.6082 78.6671 77.7738 79.0261 77.6196C79.3846 77.4653 79.5502 77.0496 79.3959 76.6912C78.0708 73.6116 75.0485 71.6216 71.6963 71.6216ZM33.4766 63.9978H41.8114C42.2016 63.9978 42.5181 63.6815 42.5181 63.2911C42.5181 62.9008 42.2016 62.5845 41.8114 62.5845H33.4766V57.0733H41.8114C42.2016 57.0733 42.5181 56.757 42.5181 56.3666C42.5181 55.9763 42.2016 55.66 41.8114 55.66H33.4766V50.1488H68.2467V55.66H59.9822C59.592 55.66 59.2756 55.9763 59.2756 56.3666C59.2756 56.757 59.592 57.0733 59.9822 57.0733H68.2467V62.5845H59.9822C59.592 62.5845 59.2756 62.9008 59.2756 63.2911C59.2756 63.6815 59.592 63.9978 59.9822 63.9978H68.2467V69.5098H33.4766V63.9978ZM35.1172 48.7356L50.862 36.7773L66.6069 48.7356H35.1172ZM33.5282 32.862H42.1614V34.323H41.9297H33.7597H33.528V32.862H33.5282ZM34.4665 35.7362H41.2232V37.7073L34.4665 42.839V35.7362ZM29.5141 51.2164L28.1455 49.4145L50.862 32.1612L73.5787 49.4145L72.2101 51.2164L51.2894 35.3272C51.0369 35.1354 50.6871 35.1354 50.4347 35.3272L29.5141 51.2164ZM66.0536 73.8084C64.5179 72.411 62.4993 71.6216 60.4109 71.6216C57.8465 71.6216 55.4573 72.7821 53.8727 74.7622C51.4386 72.7314 48.3872 71.6216 45.1952 71.6216C42.0897 71.6216 39.1142 72.6737 36.7128 74.6027C36.0289 73.2957 34.8638 72.3297 33.4765 71.8886V70.9233H68.2465V72.3693C67.4496 72.7298 66.7074 73.2134 66.0536 73.8084Z" fill="white"/>
<path d="M69.6765 28.527C70.0818 28.3621 70.5096 28.2785 70.9483 28.2785C72.8111 28.2785 74.3267 29.794 74.3267 31.6569C74.3267 33.0585 73.4447 34.3304 72.132 34.8217C71.8506 34.927 71.6666 35.1987 71.6732 35.4991C71.6799 35.7995 71.8757 36.0628 72.1614 36.1557C72.76 36.3501 73.3828 36.4487 74.0124 36.4487C77.3138 36.4487 79.9998 33.7628 79.9998 30.4613C79.9998 27.1599 77.314 24.4739 74.0124 24.4739C71.8551 24.4739 69.8558 25.6431 68.7947 27.5253C68.6471 27.7871 68.6813 28.1137 68.8799 28.3392C69.0785 28.5647 69.3982 28.64 69.6765 28.527ZM74.0124 25.8873C76.5346 25.8873 78.5865 27.9393 78.5865 30.4614C78.5865 32.8687 76.7173 34.8477 74.354 35.0229C75.2211 34.1419 75.7401 32.9377 75.7401 31.6571C75.7401 29.0931 73.716 26.993 71.1817 26.8709C71.9767 26.2445 72.9705 25.8873 74.0124 25.8873Z" fill="white"/>
<path d="M57.4383 52.5848H44.2863C43.8961 52.5848 43.5796 52.9012 43.5796 53.2915V66.4436C43.5796 66.8339 43.8961 67.1502 44.2863 67.1502H57.4383C57.8285 67.1502 58.145 66.8339 58.145 66.4436V53.2915C58.145 52.9013 57.8285 52.5848 57.4383 52.5848ZM56.7316 65.7369H44.9929V53.9982H56.7316V65.7369Z" fill="white"/>
<path d="M47.1935 64.2431H54.5308C54.921 64.2431 55.2375 63.9268 55.2375 63.5364V56.199C55.2375 55.8086 54.921 55.4923 54.5308 55.4923H47.1935C46.8033 55.4923 46.4868 55.8086 46.4868 56.199V63.5364C46.4868 63.9266 46.8033 64.2431 47.1935 64.2431ZM47.9002 60.5743H50.1556V62.8296H47.9002V60.5743ZM51.5689 62.8297V60.5744H53.8242V62.8297H51.5689ZM53.8242 59.161H51.5689V56.9055H53.8242V59.161ZM50.1556 56.9057V59.1611H47.9002V56.9057H50.1556Z" fill="white"/>
<path d="M20.9059 23.4961H27.8804C28.2049 23.4961 28.4691 23.7601 28.4691 24.0847C28.4691 25.1885 29.3671 26.0866 30.471 26.0866H35.0542C37.3017 26.0866 39.1302 27.915 39.1302 30.1626C39.1302 30.5529 39.4466 30.8693 39.8368 30.8693C40.2271 30.8693 40.5435 30.5529 40.5435 30.1626C40.5435 27.1358 38.0811 24.6733 35.0542 24.6733H30.471C30.1465 24.6733 29.8824 24.4093 29.8824 24.0847C29.8824 22.9809 28.9843 22.0828 27.8804 22.0828H20.9059C20.5157 22.0828 20.1992 22.3991 20.1992 22.7894C20.1992 23.1798 20.5157 23.4961 20.9059 23.4961Z" fill="white"/>
<path d="M35.3441 30.1624C35.3441 30.5528 35.6606 30.8691 36.0508 30.8691C36.441 30.8691 36.7575 30.5528 36.7575 30.1624C36.7575 28.8936 35.7254 27.8615 34.4567 27.8615H23.9947C23.78 27.8615 23.6054 27.6869 23.6054 27.4722C23.6054 26.4782 22.7967 25.6696 21.8028 25.6696H20.7067C20.3165 25.6696 20 25.9859 20 26.3762C20 26.7666 20.3165 27.0829 20.7067 27.0829H21.8027C22.0174 27.0829 22.192 27.2575 22.192 27.4722C22.192 28.4662 23.0007 29.2749 23.9946 29.2749H34.4566C34.946 29.275 35.3441 29.673 35.3441 30.1624Z" fill="white"/>
<path d="M46.7681 45.3073C46.7681 45.6977 47.0845 46.014 47.4747 46.014H54.25C54.6403 46.014 54.9567 45.6977 54.9567 45.3073C54.9567 43.0497 53.12 41.213 50.8624 41.213C48.6048 41.213 46.7681 43.0497 46.7681 45.3073ZM53.4489 44.6007H48.2758C48.5868 43.4641 49.6285 42.6264 50.8624 42.6264C52.0962 42.6264 53.138 43.4641 53.4489 44.6007Z" fill="white"/>
<path d="M25.0906 39.5285C25.6409 39.5285 26.0871 39.0824 26.0871 38.5321C26.0871 37.9817 25.6409 37.5356 25.0906 37.5356C24.5403 37.5356 24.0942 37.9817 24.0942 38.5321C24.0942 39.0824 24.5403 39.5285 25.0906 39.5285Z" fill="white"/>
<path d="M27.4822 62.8434C28.0325 62.8434 28.4787 62.3973 28.4787 61.847C28.4787 61.2967 28.0325 60.8506 27.4822 60.8506C26.9319 60.8506 26.4858 61.2967 26.4858 61.847C26.4858 62.3973 26.9319 62.8434 27.4822 62.8434Z" fill="white"/>
<path d="M60.1629 32.7531C60.7132 32.7531 61.1593 32.307 61.1593 31.7567C61.1593 31.2064 60.7132 30.7603 60.1629 30.7603C59.6126 30.7603 59.1665 31.2064 59.1665 31.7567C59.1665 32.307 59.6126 32.7531 60.1629 32.7531Z" fill="white"/>
<path d="M74.9095 42.7168C75.4598 42.7168 75.9059 42.2707 75.9059 41.7204C75.9059 41.1701 75.4598 40.724 74.9095 40.724C74.3592 40.724 73.9131 41.1701 73.9131 41.7204C73.9131 42.2707 74.3592 42.7168 74.9095 42.7168Z" fill="white"/>
<path d="M73.5145 60.8507C74.0648 60.8507 74.5109 60.4046 74.5109 59.8543C74.5109 59.304 74.0648 58.8579 73.5145 58.8579C72.9642 58.8579 72.5181 59.304 72.5181 59.8543C72.5181 60.4046 72.9642 60.8507 73.5145 60.8507Z" fill="white"/>
</svg>
