<svg width="14" height="13" viewBox="0 0 14 13" fill="none" xmlns="http://www.w3.org/2000/svg">
<path d="M4 4H10M4 6H7M0.5 7.00667C0.5 8.07333 1.24867 9.00267 2.30467 9.158C3.05733 9.26867 3.818 9.35333 4.58667 9.41067C4.82 9.428 5.03333 9.55067 5.16333 9.74467L7 12.5L8.83667 9.74467C8.9011 9.64885 8.98652 9.56897 9.08644 9.51109C9.18636 9.45322 9.29815 9.41887 9.41333 9.41067C10.1768 9.35367 10.9379 9.2694 11.6953 9.158C12.7513 9.00267 13.5 8.074 13.5 7.006V2.994C13.5 1.926 12.7513 0.997335 11.6953 0.842002C10.1406 0.613811 8.57135 0.499507 7 0.500002C5.40533 0.500002 3.83733 0.616668 2.30467 0.842002C1.24867 0.997335 0.5 1.92667 0.5 2.994V7.006V7.00667Z" stroke="#484848" stroke-linecap="round" stroke-linejoin="round"/>
</svg>
