<svg width="60" height="60" viewBox="0 0 60 60" fill="none" xmlns="http://www.w3.org/2000/svg">
<path d="M35.5172 12.513C34.4393 11.8931 33.3641 11.2683 32.2877 10.6454C32.875 9.26625 33.4822 7.84453 34.0342 6.42047C34.2462 5.87355 34.1735 5.25902 33.8401 4.77656C33.1631 3.79699 31.863 3.73969 30.9874 4.57277C28.683 6.76512 26.4073 8.90812 24.1139 11.081C23.6715 11.5002 23.4533 12.0695 23.5153 12.6429C23.5767 13.2108 23.9067 13.7143 24.4206 14.0245C25.5157 14.6856 26.6191 15.3083 27.7133 15.9336C27.1685 17.218 26.4979 18.7751 25.9649 20.1527C25.6266 21.0271 26.0142 21.9976 26.8664 22.4102C27.5358 22.7344 28.3073 22.6716 29.0108 22.0021C31.2516 19.8696 33.6366 17.627 35.8863 15.4925C36.3338 15.068 36.5511 14.4949 36.4826 13.9202C36.4133 13.3389 36.0615 12.8261 35.5172 12.513ZM34.6764 14.2171C32.2704 16.4995 27.8846 20.723 27.6529 20.8368C27.6357 20.8301 27.5936 20.8145 27.6041 20.7868C28.2123 19.1984 28.9673 17.481 29.5871 16.0126C29.7613 15.6 29.6923 15.0429 29.1452 14.728C27.8749 13.997 26.5909 13.2814 25.329 12.5195C25.2353 12.4629 25.2393 12.4363 25.323 12.3568C26.8311 10.9279 31.8157 6.08801 32.3313 5.74055C32.3777 5.75051 32.3951 5.77559 32.3952 5.78555C31.7739 7.3875 31.0807 8.98641 30.4147 10.5596C30.2044 11.0565 30.3804 11.5736 30.8529 11.8464C32.1161 12.5755 33.3763 13.3104 34.641 14.0368C34.7698 14.1109 34.7743 14.1243 34.6764 14.2171ZM53.8477 45.5133C54.3332 45.5133 54.7266 45.1198 54.7266 44.6344V25.28L57.8993 26.812C58.3548 27.0316 58.8839 27.003 59.3141 26.7329C59.7436 26.4632 60 25.9992 60 25.4918V20.2313C60 19.6714 59.6741 19.1535 59.1717 18.9124L43.1168 11.1596C42.0952 4.8409 36.6027 0 30 0C22.673 0 16.7119 5.96098 16.7119 13.2881C16.7119 14.7514 16.9502 16.1599 17.3892 17.4776L1.75781 25.0256V20.4157L14.293 14.3625C14.73 14.1514 14.9133 13.626 14.7022 13.1889C14.4913 12.7519 13.9661 12.5685 13.5285 12.7795L0.830391 18.9115C0.325898 19.1535 0 19.6716 0 20.2313V25.4918C0 25.9992 0.256406 26.4633 0.685898 26.7329C1.11633 27.0033 1.64566 27.0315 2.10141 26.8118L5.27344 25.28V54.7266H1.58203C0.709688 54.7266 0 55.4362 0 56.3086V58.418C0 59.2903 0.709688 60 1.58203 60H58.418C59.2903 60 60 59.2903 60 58.418V56.3086C60 55.4362 59.2903 54.7266 58.418 54.7266H54.7266V48.15C54.7266 47.6646 54.3332 47.2711 53.8477 47.2711C53.3621 47.2711 52.9688 47.6646 52.9688 48.15V54.7266H30.8789V48.2442C34.1645 47.8121 36.7095 44.9957 36.7095 41.5942V35.8429C36.7095 34.9208 35.9594 34.1707 35.0373 34.1707H33.5156V31.1263C33.5156 30.6409 33.1222 30.2474 32.6367 30.2474C32.1512 30.2474 31.7578 30.6409 31.7578 31.1263V34.1707H28.2422V31.1263C28.2422 30.6409 27.8488 30.2474 27.3633 30.2474C26.8778 30.2474 26.4844 30.6409 26.4844 31.1263V34.1707H24.9627C24.0407 34.1707 23.2905 34.9208 23.2905 35.8429V41.5942C23.2905 44.9957 25.8355 47.8121 29.1211 48.2442V54.7266H7.03125V24.4312L18.056 19.1077C20.2175 23.5259 24.759 26.576 30 26.576C35.241 26.576 39.7825 23.5257 41.944 19.1077L52.9688 24.4312V44.6344C52.9688 45.1198 53.3621 45.5133 53.8477 45.5133ZM25.0484 41.5942V35.9285H34.9516V41.5942C34.9516 44.3245 32.7304 46.5458 30 46.5458C27.2696 46.5458 25.0484 44.3244 25.0484 41.5942ZM58.2422 56.4844V58.2422H1.75781V56.4844H58.2422ZM30 24.8183C23.6422 24.8183 18.4697 19.6459 18.4697 13.2881C18.4697 6.93023 23.6422 1.75781 30 1.75781C36.3578 1.75781 41.5303 6.93023 41.5303 13.2881C41.5303 19.6459 36.3578 24.8183 30 24.8183ZM42.6108 17.4776C43.0496 16.1598 43.2881 14.7513 43.2881 13.2881C43.2881 13.2566 43.2872 13.2253 43.287 13.1939L58.2422 20.4157V25.0256L42.6108 17.4776Z" fill="#63AC45"/>
</svg>
