<svg width="60" height="56" viewBox="0 0 60 56" fill="none" xmlns="http://www.w3.org/2000/svg">
<path d="M51.6965 49.5387C51.005 49.5387 50.3216 49.6271 49.6603 49.7937V28.9715L51.9183 30.6865C52.2291 30.9226 52.6724 30.8621 52.9084 30.5513L55.1318 27.6238C55.2452 27.4745 55.2946 27.2864 55.2692 27.1008C55.2439 26.9151 55.1457 26.747 54.9964 26.6337L31.2896 8.62825C31.0372 8.43642 30.6873 8.43642 30.4349 8.62825L22.6368 14.5509V13.6533H22.8684C23.2586 13.6533 23.5751 13.337 23.5751 12.9467V10.0724C23.5751 9.68209 23.2586 9.36575 22.8684 9.36575H12.8217C12.4315 9.36575 12.1151 9.68209 12.1151 10.0724V12.9468C12.1151 13.3371 12.4315 13.6535 12.8217 13.6535H13.0534V21.8296L6.72818 26.6337C6.57888 26.747 6.48072 26.9151 6.45541 27.1008C6.43009 27.2864 6.47956 27.4747 6.59276 27.6238L8.81633 30.5513C8.95535 30.7343 9.16632 30.8306 9.37961 30.8306C9.52853 30.8306 9.67873 30.7837 9.80644 30.6865L12.0635 28.9722V49.5489C11.9649 49.5437 11.8663 49.5387 11.7665 49.5387C8.68476 49.5387 6.17749 52.0459 6.17749 55.1277C6.17749 55.5181 6.49395 55.8344 6.88416 55.8344C7.27437 55.8344 7.59083 55.5181 7.59083 55.1277C7.59083 52.8253 9.46403 50.9521 11.7665 50.9521C13.6136 50.9521 15.218 52.1376 15.7589 53.9021C15.8304 54.1349 16.0167 54.3146 16.2519 54.3776C16.4871 54.4403 16.7381 54.378 16.9165 54.2119C19.1719 52.1097 22.112 50.9521 25.1954 50.9521C28.294 50.9521 31.2448 52.1195 33.5041 54.2394C33.6565 54.3823 33.8644 54.4507 34.0715 54.4257C34.2789 54.4009 34.4648 54.2856 34.579 54.1109C35.873 52.1329 38.0531 50.9521 40.4111 50.9521C42.3507 50.9521 44.218 51.7713 45.5341 53.1998C45.668 53.345 45.8563 53.4276 46.0538 53.4276C46.2513 53.4276 46.4398 53.345 46.5735 53.1998C47.8896 51.7713 49.7569 50.9521 51.6965 50.9521C54.4835 50.9521 56.9963 52.6065 58.0979 55.1669C58.252 55.5253 58.6674 55.6909 59.0264 55.5367C59.3848 55.3824 59.5505 54.9667 59.3961 54.6083C58.0711 51.5287 55.0487 49.5387 51.6965 49.5387ZM13.4769 41.9149H21.8116C22.2018 41.9149 22.5183 41.5986 22.5183 41.2082C22.5183 40.8179 22.2018 40.5016 21.8116 40.5016H13.4769V34.9904H21.8116C22.2018 34.9904 22.5183 34.6741 22.5183 34.2838C22.5183 33.8934 22.2018 33.5771 21.8116 33.5771H13.4769V28.066H48.2469V33.5771H39.9825C39.5923 33.5771 39.2758 33.8934 39.2758 34.2838C39.2758 34.6741 39.5923 34.9904 39.9825 34.9904H48.2469V40.5016H39.9825C39.5923 40.5016 39.2758 40.8179 39.2758 41.2082C39.2758 41.5986 39.5923 41.9149 39.9825 41.9149H48.2469V47.4269H13.4769V41.9149ZM15.1174 26.6527L30.8623 14.6944L46.6072 26.6527H15.1174ZM13.5284 10.7791H22.1616V12.2401H21.93H13.7599H13.5283V10.7791H13.5284ZM14.4667 13.6533H21.2234V15.6244L14.4667 20.7561V13.6533ZM9.51439 29.1335L8.14576 27.3317L30.8623 10.0783L53.5789 27.3317L52.2103 29.1335L31.2896 13.2444C31.0372 13.0525 30.6873 13.0525 30.4349 13.2444L9.51439 29.1335ZM46.0538 51.7256C44.5181 50.3282 42.4995 49.5387 40.4111 49.5387C37.8468 49.5387 35.4576 50.6992 33.873 52.6793C31.4388 50.6485 28.3874 49.5387 25.1954 49.5387C22.0899 49.5387 19.1145 50.5908 16.7131 52.5199C16.0291 51.2128 14.864 50.2468 13.4768 49.8057V48.8404H48.2468V50.2864C47.4498 50.6469 46.7077 51.1305 46.0538 51.7256Z" fill="#63AC45"/>
<path d="M49.6768 6.44419C50.082 6.27935 50.5099 6.1957 50.9485 6.1957C52.8113 6.1957 54.3269 7.71119 54.3269 9.57411C54.3269 10.9758 53.445 12.2476 52.1322 12.739C51.8509 12.8442 51.6669 13.1159 51.6734 13.4163C51.6801 13.7167 51.8759 13.98 52.1617 14.0729C52.7603 14.2673 53.3831 14.366 54.0126 14.366C57.3141 14.366 60.0001 11.68 60.0001 8.37855C60.0001 5.07711 57.3142 2.39111 54.0126 2.39111C51.8554 2.39111 49.856 3.56033 48.795 5.44252C48.6473 5.70437 48.6815 6.03098 48.8801 6.25648C49.0788 6.48197 49.3985 6.55726 49.6768 6.44419ZM54.0126 3.80458C56.5348 3.80458 58.5867 5.8565 58.5867 8.37868C58.5867 10.786 56.7175 12.7649 54.3543 12.9402C55.2213 12.0591 55.7404 10.855 55.7404 9.57436C55.7404 7.0103 53.7162 4.9102 51.182 4.78814C51.9769 4.16178 52.9707 3.80458 54.0126 3.80458Z" fill="#63AC45"/>
<path d="M37.4383 30.5022H24.2863C23.8961 30.5022 23.5796 30.8185 23.5796 31.2089V44.3609C23.5796 44.7513 23.8961 45.0676 24.2863 45.0676H37.4383C37.8285 45.0676 38.145 44.7513 38.145 44.3609V31.2089C38.145 30.8187 37.8285 30.5022 37.4383 30.5022ZM36.7316 43.6543H24.9929V31.9155H36.7316V43.6543Z" fill="#63AC45"/>
<path d="M27.1935 42.1602H34.5308C34.921 42.1602 35.2375 41.8439 35.2375 41.4535V34.1161C35.2375 33.7258 34.921 33.4094 34.5308 33.4094H27.1935C26.8033 33.4094 26.4868 33.7258 26.4868 34.1161V41.4535C26.4868 41.8437 26.8033 42.1602 27.1935 42.1602ZM27.9002 38.4914H30.1556V40.7467H27.9002V38.4914ZM31.5689 40.7469V38.4916H33.8242V40.7469H31.5689ZM33.8242 37.0781H31.5689V34.8226H33.8242V37.0781ZM30.1556 34.8228V37.0782H27.9002V34.8228H30.1556Z" fill="#63AC45"/>
<path d="M0.906134 1.41334H7.8806C8.20515 1.41334 8.46932 1.67738 8.46932 2.00194C8.46932 3.10576 9.3673 4.00387 10.4713 4.00387H15.0545C17.3019 4.00387 19.1304 5.83222 19.1304 8.07982C19.1304 8.47016 19.4469 8.7865 19.8371 8.7865C20.2273 8.7865 20.5438 8.47016 20.5438 8.07982C20.5438 5.05309 18.0813 2.59053 15.0545 2.59053H10.4713C10.1467 2.59053 9.88266 2.32649 9.88266 2.00194C9.88266 0.898115 8.98454 0 7.8806 0H0.906134C0.515923 0 0.199463 0.316332 0.199463 0.706671C0.199463 1.09701 0.515923 1.41334 0.906134 1.41334Z" fill="#63AC45"/>
<path d="M15.3441 8.0798C15.3441 8.47014 15.6606 8.78647 16.0508 8.78647C16.441 8.78647 16.7575 8.47014 16.7575 8.0798C16.7575 6.81101 15.7254 5.77888 14.4567 5.77888H3.99475C3.78005 5.77888 3.60544 5.60427 3.60544 5.38957C3.60544 4.3956 2.79675 3.58691 1.80278 3.58691H0.706671C0.31646 3.58691 0 3.90325 0 4.29359C0 4.68393 0.31646 5.00026 0.706671 5.00026H1.80265C2.01735 5.00026 2.19197 5.17487 2.19197 5.38957C2.19197 6.38353 3.00066 7.19222 3.99462 7.19222H14.4566C14.946 7.19235 15.3441 7.5904 15.3441 8.0798Z" fill="#63AC45"/>
<path d="M26.7678 23.2245C26.7678 23.6148 27.0843 23.9311 27.4745 23.9311H34.2498C34.64 23.9311 34.9565 23.6148 34.9565 23.2245C34.9565 20.9668 33.1198 19.1301 30.8621 19.1301C28.6045 19.1301 26.7678 20.9668 26.7678 23.2245ZM33.4487 22.5178H28.2756C28.5865 21.3812 29.6283 20.5435 30.8621 20.5435C32.096 20.5435 33.1378 21.3812 33.4487 22.5178Z" fill="#63AC45"/>
<path d="M5.09064 17.4457C5.64095 17.4457 6.08705 16.9996 6.08705 16.4493C6.08705 15.899 5.64095 15.4529 5.09064 15.4529C4.54034 15.4529 4.09424 15.899 4.09424 16.4493C4.09424 16.9996 4.54034 17.4457 5.09064 17.4457Z" fill="#63AC45"/>
<path d="M7.482 40.7606C8.0323 40.7606 8.47841 40.3145 8.47841 39.7642C8.47841 39.2139 8.0323 38.7678 7.482 38.7678C6.9317 38.7678 6.4856 39.2139 6.4856 39.7642C6.4856 40.3145 6.9317 40.7606 7.482 40.7606Z" fill="#63AC45"/>
<path d="M40.1629 10.6703C40.7132 10.6703 41.1593 10.2242 41.1593 9.6739C41.1593 9.1236 40.7132 8.67749 40.1629 8.67749C39.6126 8.67749 39.1665 9.1236 39.1665 9.6739C39.1665 10.2242 39.6126 10.6703 40.1629 10.6703Z" fill="#63AC45"/>
<path d="M54.9092 20.6339C55.4595 20.6339 55.9057 20.1878 55.9057 19.6375C55.9057 19.0872 55.4595 18.6411 54.9092 18.6411C54.3589 18.6411 53.9128 19.0872 53.9128 19.6375C53.9128 20.1878 54.3589 20.6339 54.9092 20.6339Z" fill="#63AC45"/>
<path d="M53.5142 38.768C54.0645 38.768 54.5106 38.3219 54.5106 37.7716C54.5106 37.2213 54.0645 36.7751 53.5142 36.7751C52.9639 36.7751 52.5178 37.2213 52.5178 37.7716C52.5178 38.3219 52.9639 38.768 53.5142 38.768Z" fill="#63AC45"/>
</svg>
