<svg width="21" height="21" viewBox="0 0 21 21" fill="none" xmlns="http://www.w3.org/2000/svg">
<path d="M20.25 7.19509V8.10109C20.25 8.50733 20.14 8.90599 19.9318 9.25477C19.7235 9.60356 19.4247 9.88944 19.067 10.0821L12.589 13.5701M0.75 7.19509V8.10109C0.749984 8.50733 0.859953 8.90599 1.06824 9.25477C1.27652 9.60356 1.57534 9.88944 1.933 10.0821L8.411 13.5701M17.25 16.0801L12.59 13.5701M12.59 13.5701L11.567 13.0201C11.2391 12.8435 10.8725 12.751 10.5 12.751C10.1275 12.751 9.76091 12.8435 9.433 13.0201L8.411 13.5701M8.411 13.5701L3.75 16.0801M20.25 17.6951C20.25 18.2918 20.0129 18.8641 19.591 19.2861C19.169 19.708 18.5967 19.9451 18 19.9451H3C2.40326 19.9451 1.83097 19.708 1.40901 19.2861C0.987053 18.8641 0.75 18.2918 0.75 17.6951V7.03909C0.750165 6.63302 0.860219 6.23456 1.06849 5.88597C1.27677 5.53738 1.57549 5.25166 1.933 5.05909L9.433 1.01909C9.76091 0.842461 10.1275 0.75 10.5 0.75C10.8725 0.75 11.2391 0.842461 11.567 1.01909L19.067 5.05909C19.4245 5.25166 19.7232 5.53738 19.9315 5.88597C20.1398 6.23456 20.2498 6.63302 20.25 7.03909V17.6951V17.6951Z" stroke="white" stroke-width="1.5" stroke-linecap="round" stroke-linejoin="round"/>
</svg>
