<svg width="27" height="27" viewBox="0 0 27 27" fill="none" xmlns="http://www.w3.org/2000/svg">
<g clip-path="url(#clip0_113_5872)">
<path d="M2.69998 19.5748C2.9485 19.5748 3.14996 19.3733 3.14996 19.1248C3.14996 18.8763 2.9485 18.6748 2.69998 18.6748C2.45146 18.6748 2.25 18.8763 2.25 19.1248C2.25 19.3733 2.45146 19.5748 2.69998 19.5748Z" fill="#484848"/>
<path d="M6.29959 19.5748C6.54811 19.5748 6.74957 19.3733 6.74957 19.1248C6.74957 18.8763 6.54811 18.6748 6.29959 18.6748C6.05107 18.6748 5.84961 18.8763 5.84961 19.1248C5.84961 19.3733 6.05107 19.5748 6.29959 19.5748Z" fill="#484848"/>
<path d="M9.90018 19.5748C10.1487 19.5748 10.3502 19.3733 10.3502 19.1248C10.3502 18.8763 10.1487 18.6748 9.90018 18.6748C9.65166 18.6748 9.4502 18.8763 9.4502 19.1248C9.4502 19.3733 9.65166 19.5748 9.90018 19.5748Z" fill="#484848"/>
<path d="M4.49979 21.3748C4.74831 21.3748 4.94977 21.1734 4.94977 20.9248C4.94977 20.6763 4.74831 20.4749 4.49979 20.4749C4.25127 20.4749 4.0498 20.6763 4.0498 20.9248C4.0498 21.1734 4.25127 21.3748 4.49979 21.3748Z" fill="#484848"/>
<path d="M8.0994 21.3748C8.34792 21.3748 8.54938 21.1734 8.54938 20.9248C8.54938 20.6763 8.34792 20.4749 8.0994 20.4749C7.85088 20.4749 7.64941 20.6763 7.64941 20.9248C7.64941 21.1734 7.85088 21.3748 8.0994 21.3748Z" fill="#484848"/>
<path d="M2.69998 23.1746C2.9485 23.1746 3.14996 22.9732 3.14996 22.7246C3.14996 22.4761 2.9485 22.2747 2.69998 22.2747C2.45146 22.2747 2.25 22.4761 2.25 22.7246C2.25 22.9732 2.45146 23.1746 2.69998 23.1746Z" fill="#484848"/>
<path d="M6.29959 23.1746C6.54811 23.1746 6.74957 22.9732 6.74957 22.7246C6.74957 22.4761 6.54811 22.2747 6.29959 22.2747C6.05107 22.2747 5.84961 22.4761 5.84961 22.7246C5.84961 22.9732 6.05107 23.1746 6.29959 23.1746Z" fill="#484848"/>
<path d="M9.90018 23.1746C10.1487 23.1746 10.3502 22.9732 10.3502 22.7246C10.3502 22.4761 10.1487 22.2747 9.90018 22.2747C9.65166 22.2747 9.4502 22.4761 9.4502 22.7246C9.4502 22.9732 9.65166 23.1746 9.90018 23.1746Z" fill="#484848"/>
<path d="M13.4998 19.5748C13.7483 19.5748 13.9498 19.3733 13.9498 19.1248C13.9498 18.8763 13.7483 18.6748 13.4998 18.6748C13.2513 18.6748 13.0498 18.8763 13.0498 19.1248C13.0498 19.3733 13.2513 19.5748 13.4998 19.5748Z" fill="#484848"/>
<path d="M17.0994 19.5748C17.3479 19.5748 17.5494 19.3733 17.5494 19.1248C17.5494 18.8763 17.3479 18.6748 17.0994 18.6748C16.8509 18.6748 16.6494 18.8763 16.6494 19.1248C16.6494 19.3733 16.8509 19.5748 17.0994 19.5748Z" fill="#484848"/>
<path d="M11.7 21.3748C11.9485 21.3748 12.15 21.1734 12.15 20.9248C12.15 20.6763 11.9485 20.4749 11.7 20.4749C11.4515 20.4749 11.25 20.6763 11.25 20.9248C11.25 21.1734 11.4515 21.3748 11.7 21.3748Z" fill="#484848"/>
<path d="M15.2996 21.3748C15.5481 21.3748 15.7496 21.1734 15.7496 20.9248C15.7496 20.6763 15.5481 20.4749 15.2996 20.4749C15.0511 20.4749 14.8496 20.6763 14.8496 20.9248C14.8496 21.1734 15.0511 21.3748 15.2996 21.3748Z" fill="#484848"/>
<path d="M13.4998 23.1746C13.7483 23.1746 13.9498 22.9732 13.9498 22.7246C13.9498 22.4761 13.7483 22.2747 13.4998 22.2747C13.2513 22.2747 13.0498 22.4761 13.0498 22.7246C13.0498 22.9732 13.2513 23.1746 13.4998 23.1746Z" fill="#484848"/>
<path d="M17.0994 23.1746C17.3479 23.1746 17.5494 22.9732 17.5494 22.7246C17.5494 22.4761 17.3479 22.2747 17.0994 22.2747C16.8509 22.2747 16.6494 22.4761 16.6494 22.7246C16.6494 22.9732 16.8509 23.1746 17.0994 23.1746Z" fill="#484848"/>
<path d="M20.7 19.5748C20.9485 19.5748 21.15 19.3733 21.15 19.1248C21.15 18.8763 20.9485 18.6748 20.7 18.6748C20.4515 18.6748 20.25 18.8763 20.25 19.1248C20.25 19.3733 20.4515 19.5748 20.7 19.5748Z" fill="#484848"/>
<path d="M24.2996 19.5748C24.5481 19.5748 24.7496 19.3733 24.7496 19.1248C24.7496 18.8763 24.5481 18.6748 24.2996 18.6748C24.0511 18.6748 23.8496 18.8763 23.8496 19.1248C23.8496 19.3733 24.0511 19.5748 24.2996 19.5748Z" fill="#484848"/>
<path d="M18.8992 21.3748C19.1477 21.3748 19.3492 21.1734 19.3492 20.9248C19.3492 20.6763 19.1477 20.4749 18.8992 20.4749C18.6507 20.4749 18.4492 20.6763 18.4492 20.9248C18.4492 21.1734 18.6507 21.3748 18.8992 21.3748Z" fill="#484848"/>
<path d="M22.4998 21.3748C22.7483 21.3748 22.9498 21.1734 22.9498 20.9248C22.9498 20.6763 22.7483 20.4749 22.4998 20.4749C22.2513 20.4749 22.0498 20.6763 22.0498 20.9248C22.0498 21.1734 22.2513 21.3748 22.4998 21.3748Z" fill="#484848"/>
<path d="M20.7 23.1746C20.9485 23.1746 21.15 22.9732 21.15 22.7246C21.15 22.4761 20.9485 22.2747 20.7 22.2747C20.4515 22.2747 20.25 22.4761 20.25 22.7246C20.25 22.9732 20.4515 23.1746 20.7 23.1746Z" fill="#484848"/>
<path d="M24.2996 23.1746C24.5481 23.1746 24.7496 22.9732 24.7496 22.7246C24.7496 22.4761 24.5481 22.2747 24.2996 22.2747C24.0511 22.2747 23.8496 22.4761 23.8496 22.7246C23.8496 22.9732 24.0511 23.1746 24.2996 23.1746Z" fill="#484848"/>
<path d="M25.2591 8.03522C25.341 7.93334 25.465 7.87438 25.5957 7.87502C26.0378 7.89015 26.4596 7.68892 26.726 7.33571C26.9924 6.9825 27.07 6.52167 26.934 6.1007C26.7327 5.53698 26.1942 5.16452 25.5958 5.17507C25.4644 5.17565 25.3402 5.11616 25.2583 5.01355C24.3317 3.89755 22.2159 2.02515 18.4499 2.02515H8.55001C4.78401 2.02515 2.66819 3.89755 1.74072 5.01486C1.65877 5.11674 1.53484 5.1757 1.40412 5.17507C1.0363 5.1584 0.677769 5.29345 0.412363 5.54868C0.146956 5.80391 -0.0020688 6.15686 0.000145997 6.52504C0.000145997 6.669 0.022294 6.81212 0.0658517 6.94939C0.267135 7.51311 0.805648 7.88556 1.40412 7.87502C1.53532 7.87443 1.65956 7.93376 1.74161 8.03612C2.47861 8.91486 3.39406 9.62687 4.42716 10.125H2.70015C1.60772 10.126 0.623349 10.7846 0.205542 11.794C-0.212264 12.8034 0.0187081 13.965 0.79083 14.7378C0.813769 14.7608 0.83945 14.7806 0.863285 14.8026C0.714947 14.875 0.579053 14.9704 0.460561 15.0852C-0.134746 15.6792 -0.154626 16.6374 0.415579 17.2555C0.150805 17.5085 0.000778797 17.8586 0.000251464 18.2248V23.6247C0.000251464 24.3703 0.604681 24.9747 1.35023 24.9747H25.6497C26.3953 24.9747 26.9997 24.3703 26.9997 23.6247V18.2248C26.9987 17.6933 26.6858 17.2119 26.2005 16.995L26.2127 16.9842C26.7297 16.4647 27.0133 15.7573 26.9984 15.0245C26.9835 14.2917 26.6712 13.5965 26.1335 13.0985C26.785 12.7718 27.1261 12.0398 26.9571 11.3309C26.7882 10.6219 26.1535 10.1225 25.4247 10.1249H22.5727C23.606 9.6265 24.5217 8.91423 25.2591 8.03522ZM25.6497 17.7749C25.8982 17.7749 26.0997 17.9763 26.0997 18.2248V23.6247C26.0997 23.8733 25.8982 24.0747 25.6497 24.0747H1.35017C1.10164 24.0747 0.900199 23.8732 0.900199 23.6247V18.2248C0.900199 17.9763 1.10169 17.7749 1.35017 17.7749H25.6497ZM25.4247 11.025C25.7975 11.025 26.0997 11.3272 26.0997 11.7C26.0997 12.0727 25.7975 12.375 25.4247 12.375H2.70015C2.45161 12.375 2.25017 12.5765 2.25017 12.8249C2.25017 13.0735 2.45167 13.2749 2.70015 13.2749H24.2997C25.2938 13.2749 26.0997 14.0808 26.0997 15.0749C26.0997 16.0689 25.2938 16.8748 24.2997 16.8748H1.57513C1.20236 16.8748 0.900146 16.5726 0.900146 16.1998C0.900146 15.827 1.20236 15.5248 1.57513 15.5248H24.2997C24.5482 15.5248 24.7496 15.3234 24.7496 15.0749C24.7496 14.8263 24.5481 14.6249 24.2997 14.6249H2.70009C1.70602 14.6249 0.900146 13.819 0.900146 12.8249C0.900146 11.8309 1.70602 11.025 2.70009 11.025H25.4247ZM18.4498 10.125H8.55001C5.32178 10.125 3.44216 8.67646 2.43511 7.46238C2.18167 7.15389 1.80342 6.97507 1.40417 6.97502C1.19819 6.98498 1.00741 6.86686 0.924456 6.67802C0.892447 6.57899 0.892447 6.47241 0.924456 6.37338C1.00693 6.18401 1.19783 6.06531 1.40417 6.07502C1.8031 6.07523 2.18114 5.89651 2.43421 5.58813C3.44221 4.37315 5.32178 2.92509 8.55007 2.92509H18.4498C21.678 2.92509 23.5577 4.37315 24.5647 5.58723C24.8179 5.89609 25.1962 6.07517 25.5956 6.07502C25.8016 6.06505 25.9924 6.18317 26.0754 6.37201C26.1074 6.47104 26.1074 6.57762 26.0754 6.67665C25.9929 6.86602 25.802 6.98472 25.5956 6.97502C25.1968 6.97491 24.8189 7.15336 24.5656 7.46148C23.5577 8.67646 21.678 10.125 18.4498 10.125Z" fill="#484848"/>
<path fill-rule="evenodd" clip-rule="evenodd" d="M8.54935 8.32498C6.19502 8.32498 4.7969 7.3656 4.03907 6.56099C3.86811 6.38313 3.58577 6.37611 3.40616 6.54523C3.22655 6.71434 3.21659 6.99657 3.38386 7.17792C4.26361 8.11167 5.87366 9.22493 8.5493 9.22493C8.79783 9.22493 8.99927 9.02343 8.99927 8.77495C8.99927 8.52647 8.79788 8.32498 8.54935 8.32498Z" fill="#484848"/>
<path fill-rule="evenodd" clip-rule="evenodd" d="M21.1491 5.625H5.84939C5.60086 5.625 5.39941 5.82644 5.39941 6.07497C5.39941 6.32351 5.60091 6.52495 5.84939 6.52495H21.1491C21.3976 6.52495 21.599 6.32345 21.599 6.07497C21.5991 5.82644 21.3976 5.625 21.1491 5.625Z" fill="#484848"/>
</g>
<defs>
<clipPath id="clip0_113_5872">
<rect width="27" height="27" fill="white"/>
</clipPath>
</defs>
</svg>
