<svg width="65" height="65" viewBox="0 0 65 65" fill="none" xmlns="http://www.w3.org/2000/svg">
<path d="M33.7249 20.7716L36.3889 16.8177L34.705 15.6823L32.5001 18.9546L30.2952 15.6823L28.6113 16.8177L31.2753 20.7716L25.2516 29.7091C24.9383 27.5735 24.0619 25.56 22.7125 23.8753C23.1426 22.7368 23.3618 21.5295 23.3595 20.3125C23.3551 18.8599 23.0403 17.425 22.4362 16.1039C21.832 14.7828 20.9525 13.6061 19.8566 12.6527C20.2622 11.5768 20.4008 10.4186 20.2605 9.27739C20.1202 8.13619 19.7052 7.04603 19.0512 6.10042C18.3971 5.1548 17.5234 4.38194 16.505 3.84811C15.4867 3.31427 14.354 3.0354 13.2042 3.0354C12.0545 3.0354 10.9218 3.31427 9.90346 3.84811C8.88511 4.38194 8.01142 5.1548 7.35733 6.10042C6.70324 7.04603 6.28826 8.13619 6.14798 9.27739C6.0077 10.4186 6.1463 11.5768 6.5519 12.6527C5.4556 13.606 4.57572 14.7826 3.97123 16.1036C3.36675 17.4247 3.05162 18.8597 3.04698 20.3125C3.04585 21.5301 3.26646 22.7378 3.698 23.8763C2.31373 25.5984 1.42463 27.665 1.12616 29.8542C0.827684 32.0434 1.1311 34.2725 2.00384 36.3023C2.87658 38.3321 4.28568 40.0858 6.07985 41.3752C7.87402 42.6647 9.9855 43.4411 12.1876 43.6211V49.0953L3.52229 61.9531H1.01573V63.9844H63.9845V61.9531H61.4779L33.7249 20.7716ZM34.9437 45.0369L38.8823 49.6316C41.9728 53.2273 45.7719 56.1468 50.042 58.2075L46.6681 61.5824C41.3853 57.183 37.344 51.4794 34.9447 45.0369H34.9437ZM32.5001 44.2051C34.7306 51.0133 38.6862 57.1278 43.9817 61.9531H21.0235C26.3172 57.1272 30.271 51.0127 32.5001 44.2051ZM52.515 58.6087C52.6323 58.4913 52.7191 58.347 52.7677 58.1884C52.8164 58.0298 52.8254 57.8616 52.7941 57.6987C52.7627 57.5357 52.6919 57.383 52.5878 57.2537C52.4838 57.1245 52.3496 57.0227 52.1971 56.9573C47.6651 55.0088 43.6377 52.0513 40.422 48.3102L33.5157 40.2492V24.0947L59.0292 61.9531H49.1706L52.515 58.6087ZM3.04698 31.4844C3.04914 28.9938 3.96858 26.5913 5.62972 24.7356C5.76059 24.5891 5.84617 24.4078 5.87609 24.2136C5.90602 24.0195 5.879 23.8208 5.79831 23.6417C5.0317 21.9486 4.8716 20.043 5.34493 18.2457C5.81827 16.4483 6.89616 14.8689 8.39729 13.7729C8.59086 13.6295 8.72716 13.422 8.78186 13.1874C8.83655 12.9528 8.80608 12.7064 8.69589 12.4922C8.31901 11.7714 8.12312 10.9697 8.12511 10.1563C8.12511 8.80946 8.66012 7.51782 9.61245 6.56549C10.5648 5.61315 11.8564 5.07814 13.2032 5.07814C14.55 5.07814 15.8417 5.61315 16.794 6.56549C17.7463 7.51782 18.2814 8.80946 18.2814 10.1563C18.2833 10.9697 18.0875 11.7714 17.7106 12.4922C17.599 12.7069 17.5678 12.9545 17.6225 13.1902C17.6772 13.4259 17.8144 13.6344 18.0092 13.778C19.5102 14.8738 20.5881 16.4531 21.0614 18.2502C21.5348 20.0474 21.3747 21.9528 20.6082 23.6458C20.5275 23.8249 20.5004 24.0236 20.5304 24.2177C20.5603 24.4118 20.6459 24.5931 20.7767 24.7396C22.437 26.5943 23.3563 28.9952 23.3595 31.4844C23.3557 31.867 23.3306 32.2491 23.2843 32.629L18.0467 40.4016C16.8615 41.0435 15.5602 41.4426 14.2189 41.5756V33.9371L18.9994 29.1566L17.5633 27.7205L14.2189 31.0649V13.2031H12.1876V21.9233L8.84315 18.5799L7.40706 20.016L12.1876 24.7965V41.5899C9.68357 41.3352 7.36293 40.161 5.67452 38.2944C3.98611 36.4278 3.0499 34.0013 3.04698 31.4844ZM14.2189 43.6069C14.847 43.5575 15.4704 43.4597 16.0835 43.3144L14.2189 46.081V43.6069ZM31.4845 24.0947V40.4818L31.0346 42.0591C28.8093 49.8838 24.2237 56.8312 17.9035 61.9531H5.97097L31.4845 24.0947Z" fill="#63AC45"/>
<path d="M52.7423 1.04503C52.1119 1.00745 51.4797 1.00745 50.8492 1.04503C48.6602 1.14835 46.5433 1.85965 44.736 3.09911C42.9288 4.33857 41.5027 6.05714 40.6178 8.06198C39.7435 9.98381 39.4221 12.1113 39.6898 14.2056C39.9575 16.3 40.8036 18.2782 42.1331 19.9184L51.0016 31.0994C51.0967 31.2191 51.2176 31.3158 51.3553 31.3823C51.493 31.4488 51.6439 31.4833 51.7968 31.4833C51.9497 31.4833 52.1006 31.4488 52.2383 31.3823C52.376 31.3158 52.4969 31.2191 52.592 31.0994L61.4605 19.9184C62.79 18.2782 63.6361 16.3 63.9038 14.2056C64.1714 12.1113 63.8501 9.98381 62.9758 8.06198C62.0906 6.05692 60.6642 4.33821 58.8566 3.09874C57.0489 1.85927 54.9317 1.1481 52.7423 1.04503ZM59.869 18.657L51.7968 28.8346L43.7246 18.657C42.6289 17.3055 41.9314 15.6754 41.7103 13.9497C41.4893 12.2239 41.7535 10.4707 42.4733 8.88667C43.2109 7.22348 44.397 5.79855 45.8988 4.77158C47.4006 3.7446 49.1587 3.15616 50.9762 3.07222C51.2473 3.05597 51.5216 3.04683 51.7968 3.04683C52.072 3.04683 52.3462 3.05597 52.6154 3.07222C54.4332 3.15579 56.1917 3.74406 57.6939 4.77106C59.1961 5.79805 60.3826 7.22319 61.1202 8.88667C61.84 10.4707 62.1042 12.2239 61.8832 13.9497C61.6622 15.6754 60.9647 17.3055 59.869 18.657Z" fill="#63AC45"/>
<path d="M51.7969 5.07812C50.1899 5.07813 48.619 5.55465 47.2829 6.44743C45.9467 7.34022 44.9053 8.60917 44.2904 10.0938C43.6754 11.5785 43.5145 13.2121 43.828 14.7882C44.1415 16.3643 44.9153 17.8121 46.0516 18.9484C47.1879 20.0847 48.6357 20.8585 50.2118 21.172C51.7879 21.4855 53.4215 21.3246 54.9062 20.7096C56.3908 20.0947 57.6598 19.0533 58.5526 17.7171C59.4454 16.381 59.9219 14.8101 59.9219 13.2031C59.9195 11.049 59.0627 8.98376 57.5395 7.46055C56.0162 5.93735 53.951 5.08054 51.7969 5.07812ZM51.7969 19.2969C50.5917 19.2969 49.4135 18.9395 48.4114 18.2699C47.4093 17.6003 46.6282 16.6486 46.167 15.5351C45.7058 14.4216 45.5851 13.1964 45.8202 12.0143C46.0553 10.8322 46.6357 9.74642 47.4879 8.89419C48.3402 8.04197 49.426 7.46159 50.608 7.22646C51.7901 6.99134 53.0154 7.11201 54.1289 7.57323C55.2423 8.03446 56.1941 8.81551 56.8636 9.81762C57.5332 10.8197 57.8906 11.9979 57.8906 13.2031C57.889 14.8188 57.2465 16.3678 56.104 17.5103C54.9616 18.6527 53.4125 19.2953 51.7969 19.2969Z" fill="#63AC45"/>
</svg>
