<svg width="30" height="30" viewBox="0 0 30 30" fill="none" xmlns="http://www.w3.org/2000/svg">
<g clip-path="url(#clip0_119_7961)">
<path d="M14.6991 20.4789C14.8152 20.4921 14.9331 20.5001 15.053 20.5001C15.0659 20.5001 15.0782 20.4984 15.0913 20.4984C15.1042 20.4984 15.1165 20.5001 15.1297 20.5001C18.2292 20.5001 20.7512 18.0537 20.7512 15.0462C20.7512 12.124 15.6192 6.71957 15.4009 6.4907C15.259 6.34278 15.0001 6.34278 14.8584 6.4907C14.6399 6.71957 9.50781 12.124 9.50781 15.0462C9.50781 17.9126 11.8003 20.2643 14.6991 20.4789ZM12.7058 17.4901C12.7058 16.5313 14.2047 14.4823 15.053 13.4355C15.901 14.482 17.3996 16.5305 17.3996 17.4901C17.3996 18.724 16.3673 19.7282 15.0913 19.7482C14.9846 19.7477 14.8799 19.7402 14.7749 19.7328C13.6116 19.5997 12.7058 18.6456 12.7058 17.4901ZM15.1297 7.30064C16.1908 8.45906 20.0013 12.7769 20.0013 15.0462C20.0013 16.7247 19.0833 18.1964 17.7094 19.0293C17.9869 18.5781 18.1497 18.0528 18.1497 17.4901C18.1497 15.9411 15.6257 12.9417 15.3379 12.6046C15.1955 12.4375 14.9102 12.4375 14.7677 12.6046C14.4799 12.9417 11.956 15.9411 11.956 17.4901C11.956 17.9879 12.083 18.4568 12.3039 18.8708C11.0679 18.0168 10.258 16.6223 10.258 15.0462C10.258 12.7769 14.0682 8.45906 15.1297 7.30064Z" fill="black"/>
<path d="M22.6712 30C22.9138 30 23.155 29.9442 23.3787 29.8332C23.7633 29.6427 24.0505 29.3131 24.1873 28.9057L24.6178 27.6237C24.8994 26.7846 24.4485 25.8716 23.6145 25.589L22.1554 25.0854L23.6125 24.6239C24.4485 24.3407 24.8994 23.4278 24.6178 22.5884L24.1875 21.3066C24.0505 20.8989 23.7635 20.5696 23.3793 20.3791C22.9962 20.1891 22.5625 20.1605 22.1597 20.2964L15.0822 22.6439L7.8616 20.1514C7.45735 20.0143 7.02391 20.0435 6.64053 20.2332C6.25602 20.4234 5.96877 20.753 5.83202 21.1607L5.40144 22.4427C5.11963 23.2813 5.56995 24.1937 6.40565 24.4775L8.02411 25.0362L6.40679 25.5884C5.57052 25.8716 5.11935 26.7846 5.40144 27.6237L5.83202 28.9057C5.96877 29.3134 6.25602 29.6427 6.64053 29.8332C6.86426 29.9442 7.10544 30 7.34806 30C7.52057 30 7.69395 29.9717 7.86218 29.9148L15.0112 27.4867C15.0269 27.4812 15.0381 27.4698 15.0527 27.4626L22.1574 29.9148C22.3253 29.9717 22.4987 30 22.6712 30ZM22.398 21.0077C22.6126 20.935 22.8426 20.9499 23.046 21.0511C23.2506 21.1524 23.4034 21.3281 23.4763 21.5455L23.9066 22.8272C24.0571 23.2753 23.8173 23.7625 23.379 23.9113L21.0716 24.642C21.0425 24.6511 21.0196 24.6694 20.9944 24.6846L16.2494 23.0467L22.398 21.0077ZM6.6474 23.7677C6.20194 23.6169 5.96191 23.1294 6.1124 22.6813L6.54297 21.3993C6.61593 21.1822 6.76871 21.0065 6.97355 20.9049C7.09257 20.846 7.22074 20.8165 7.3492 20.8165C7.44018 20.8165 7.53116 20.8314 7.61899 20.8612L23.3719 26.2988C23.8173 26.4495 24.0571 26.9368 23.9069 27.3848L23.4763 28.6668C23.4034 28.8842 23.2506 29.0596 23.046 29.1612C22.8423 29.2619 22.6126 29.2773 22.4 29.2052L6.6494 23.7685C6.64883 23.7682 6.64826 23.7679 6.6474 23.7677ZM7.62128 29.2044C7.40671 29.2773 7.17668 29.2622 6.97355 29.1612C6.76871 29.0596 6.61593 28.8842 6.54297 28.6668L6.1124 27.3848C5.96191 26.9368 6.20166 26.4495 6.64826 26.2985L9.05607 25.4765C9.0904 25.4648 9.11815 25.4436 9.14647 25.4239L13.9109 27.0684L7.62128 29.2044Z" fill="black"/>
<path d="M16.7999 0.749865C17.007 0.749865 17.175 0.582211 17.175 0.375076C17.175 0.16794 17.007 0 16.7999 0C15.9339 0 15.2295 0.704661 15.2295 1.57068C15.2295 2.4367 15.9339 3.14137 16.7999 3.14137C17.2522 3.14137 17.6204 3.50957 17.6204 3.9619C17.6204 4.41451 17.2522 4.78243 16.7999 4.78243C16.5928 4.78243 16.4248 4.95037 16.4248 5.1575C16.4248 5.36464 16.5928 5.53258 16.7999 5.53258C17.6659 5.53258 18.3706 4.82792 18.3706 3.9619C18.3706 3.09588 17.6659 2.39121 16.7999 2.39121C16.3473 2.39121 15.9794 2.02301 15.9794 1.57068C15.9794 1.11807 16.3473 0.749865 16.7999 0.749865Z" fill="black"/>
<path d="M13.1762 0.749865C13.3833 0.749865 13.5512 0.582211 13.5512 0.375076C13.5512 0.16794 13.3833 0 13.1762 0C12.3101 0 11.6055 0.704661 11.6055 1.57068C11.6055 2.4367 12.3101 3.14137 13.1762 3.14137C13.6288 3.14137 13.997 3.50957 13.997 3.9619C13.997 4.41451 13.6288 4.78243 13.1762 4.78243C12.969 4.78243 12.8011 4.95037 12.8011 5.1575C12.8011 5.36464 12.969 5.53258 13.1762 5.53258C14.0422 5.53258 14.7468 4.82792 14.7468 3.9619C14.7468 3.09588 14.0422 2.39121 13.1762 2.39121C12.7238 2.39121 12.3556 2.02301 12.3556 1.57068C12.3556 1.11807 12.7238 0.749865 13.1762 0.749865Z" fill="black"/>
</g>
<defs>
<clipPath id="clip0_119_7961">
<rect width="30" height="30" fill="white"/>
</clipPath>
</defs>
</svg>
