<svg width="45" height="45" viewBox="0 0 45 45" fill="none" xmlns="http://www.w3.org/2000/svg">
<g clip-path="url(#clip0_96_11926)">
<path d="M3.74231 34.5066C1.68228 31.1573 0.494141 27.2143 0.494141 22.9938C0.494141 10.8402 10.3465 0.987793 22.5001 0.987793C34.6537 0.987793 44.5061 10.8402 44.5061 22.9938C44.5061 27.2143 43.318 31.1573 41.2579 34.5066C35.491 33.3974 29.1528 32.7842 22.5001 32.7842C15.8475 32.7842 9.50923 33.3974 3.74231 34.5066Z" fill="#024C67"/>
<path d="M16.5718 6.28736C16.5718 6.78344 16.1697 7.18557 15.6736 7.18557C15.1775 7.18557 14.7754 6.78344 14.7754 6.28736C14.7754 5.79129 15.1775 5.38916 15.6736 5.38916C16.1697 5.38916 16.5718 5.79129 16.5718 6.28736Z" fill="#3691BB"/>
<path d="M30.9429 5.38941C30.9429 5.88549 30.5408 6.28762 30.0447 6.28762C29.5486 6.28762 29.1465 5.88549 29.1465 5.38941C29.1465 4.89334 29.5486 4.49121 30.0447 4.49121C30.5408 4.49121 30.9429 4.89334 30.9429 5.38941Z" fill="#FFF5F5"/>
<path d="M41.7216 17.9642C41.7216 18.4602 41.3195 18.8624 40.8234 18.8624C40.3273 18.8624 39.9252 18.4602 39.9252 17.9642C39.9252 17.4681 40.3273 17.066 40.8234 17.066C41.3195 17.066 41.7216 17.4681 41.7216 17.9642ZM4.89527 13.4731C4.3992 13.4731 3.99707 13.8753 3.99707 14.3713C3.99707 14.8674 4.3992 15.2696 4.89527 15.2696C5.39135 15.2696 5.79348 14.8674 5.79348 14.3713C5.79348 13.8753 5.39135 13.4731 4.89527 13.4731Z" fill="#FDF061"/>
<path d="M36.8218 35.0402C37.6223 28.9539 39.3208 20.3246 41.2868 20.3246C42.3889 20.3246 43.4068 23.0362 44.2297 26.4915C43.8115 29.1105 42.9311 31.5752 41.675 33.7996C41.0598 34.8889 39.8409 35.4937 38.6048 35.301C38.0154 35.2091 37.4211 35.1222 36.8218 35.0402ZM6.69166 35.2553C6.67432 31.9124 4.54064 15.8549 1.88231 15.2852C0.984829 17.6843 0.494141 20.282 0.494141 22.9942C0.494141 26.9148 1.51953 30.596 3.31666 33.7842C3.94172 34.8931 5.1983 35.4868 6.45624 35.2916C6.53456 35.2793 6.61306 35.2673 6.69166 35.2553Z" fill="#025F80"/>
<path d="M39.7454 33.5273V33.5525C39.7419 34.868 38.3929 35.9281 36.7477 35.9281H29.9887C28.5821 35.9281 27.3922 35.1533 27.0743 34.1065C26.9168 34.1231 26.7563 34.1317 26.5934 34.1317H18.4064C18.2435 34.1317 18.083 34.1231 17.9255 34.1065C17.6077 35.1533 16.4177 35.9281 15.0111 35.9281H8.25215C6.60691 35.9281 5.2579 34.868 5.25439 33.5525C5.25439 33.5441 5.25439 33.5357 5.25439 33.5273C5.25439 29.2662 8.1096 7.74961 11.6316 7.74961C13.3812 7.74961 14.9661 13.0585 16.1183 18.9245C17.5095 10.0654 19.8487 0 22.4999 0C25.1511 0 27.4903 10.0654 28.8815 18.9245C30.0337 13.0585 31.6186 7.74961 33.3682 7.74961C36.8902 7.74961 39.7454 29.2662 39.7454 33.5273Z" fill="#22B27F"/>
<path d="M23.6236 0.592096C20.0634 7.40892 17.4529 27.879 17.4529 32.5721V32.6054C17.4543 33.1499 17.6296 33.6614 17.9362 34.1076C16.1628 33.9244 14.7792 32.7203 14.7754 31.2542C14.7754 31.244 14.7754 31.2339 14.7754 31.2237C14.7754 26.0623 18.2338 0 22.4999 0C22.8816 0 23.2567 0.208563 23.6236 0.592096ZM22.4999 9.88024C22.0038 9.88024 21.6017 10.2824 21.6017 10.7784V34.1317H23.3981V10.7784C23.3981 10.2824 22.996 9.88024 22.4999 9.88024ZM29.2014 34.6406C29.2014 30.7661 31.3566 13.8663 34.2958 8.2385C33.993 7.92189 33.6833 7.7497 33.3682 7.7497C29.8461 7.7497 26.9909 29.2663 26.9909 33.5274V33.5526C26.9942 34.763 28.1364 35.7571 29.6005 35.9084C29.3473 35.54 29.2026 35.1178 29.2014 34.6682C29.2014 34.6589 29.2014 34.6497 29.2014 34.6406ZM33.3682 15.9066C32.9586 15.9066 32.6266 16.2385 32.6266 16.6481V35.9281H34.1097V16.6481C34.1097 16.2385 33.7777 15.9066 33.3682 15.9066ZM11.6316 7.74961C8.1096 7.74961 5.25439 29.2662 5.25439 33.5273V33.5525C5.25763 34.7629 6.39987 35.757 7.86395 35.9083C7.61074 35.5399 7.46604 35.1177 7.46487 34.6681C7.46487 34.659 7.46487 34.6497 7.46487 34.6406C7.46487 30.7661 9.62011 13.8663 12.5593 8.2385C12.2564 7.9218 11.9467 7.74961 11.6316 7.74961ZM11.6316 15.9066C11.2221 15.9066 10.8901 16.2385 10.8901 16.6481V31.0334L12.3732 35.9281V16.6481C12.3732 16.2385 12.0412 15.9066 11.6316 15.9066Z" fill="#059B7E"/>
<path d="M41.692 33.7689C41.3886 34.3081 41.0632 34.8333 40.7169 35.343L33.1524 27.5582C32.8067 27.2025 32.8148 26.6338 33.1707 26.2881C33.5264 25.9424 34.0904 25.9515 34.436 26.3072L41.692 33.7689ZM11.8351 26.2882C11.4793 25.9425 10.9107 25.9507 10.565 26.3065L3.31006 33.7728C3.61347 34.3119 3.93907 34.837 4.28542 35.3466L11.8534 27.5583C12.199 27.2025 12.1909 26.6338 11.8351 26.2882Z" fill="#CFF09A"/>
<path d="M23.1352 15.0062L34.735 26.6061C34.9474 26.8184 35.0395 27.1229 34.9807 27.4173L33.4229 35.2059C33.3389 35.6257 32.9703 35.928 32.5421 35.928H12.4579C12.0298 35.928 11.6612 35.6257 11.5772 35.2059L10.0194 27.4173C9.96049 27.1228 10.0527 26.8184 10.2651 26.6061L21.8649 15.0062C22.2157 14.6555 22.7844 14.6555 23.1352 15.0062Z" fill="#FCB30B"/>
<path d="M27.8781 33.9459H17.122C16.7906 33.9459 16.5733 33.5992 16.7179 33.3009L22.0959 22.2049C22.2596 21.8673 22.7405 21.8673 22.9042 22.2049L28.2822 33.3009C28.4267 33.5992 28.2095 33.9459 27.8781 33.9459Z" fill="#FC5426"/>
<path d="M19.7163 33.9459H17.1221C16.7906 33.9459 16.5733 33.5992 16.7179 33.3009L22.0959 22.2049C22.2595 21.8673 22.7405 21.8673 22.9042 22.2049L23.7971 24.0472L19.312 33.3008C19.1675 33.5992 19.3848 33.9459 19.7163 33.9459Z" fill="#E55920"/>
<path d="M14.149 35.928H12.4579C12.0298 35.928 11.6612 35.6257 11.5772 35.2059L10.0194 27.4173C9.96049 27.1228 10.0527 26.8184 10.2651 26.6061L21.8649 15.0062C22.2157 14.6555 22.7844 14.6555 23.1352 15.0062L24.2522 16.1232L18.4876 21.8878C14.8086 25.5667 13.1882 30.8226 14.149 35.928Z" fill="#FD9D01"/>
<path d="M3.4707 34.0534C9.32196 32.947 15.7518 32.3354 22.5 32.3354C29.2482 32.3354 35.678 32.947 41.5292 34.0534C39.9992 36.6804 37.9407 38.9618 35.4996 40.7519C31.3594 40.2425 27.0005 39.9704 22.5 39.9704C17.9994 39.9704 13.6404 40.2425 9.50034 40.7519C7.05912 38.9618 5.0007 36.6804 3.4707 34.0534Z" fill="#509C49"/>
<path d="M19.5638 40.3723C20.8788 40.1987 22.2075 40.042 23.5486 39.9029C27.5515 40.1005 31.4447 40.4617 35.1942 40.9714C37.7693 39.1497 39.9357 36.7889 41.5291 34.0531C37.2675 33.2473 32.6989 32.704 27.9241 32.4683C26.6353 32.6019 25.3616 32.757 24.1049 32.9325C22.8253 33.1113 21.7886 33.6407 21.0079 34.3787C20.4187 34.9358 20.817 35.928 21.6279 35.928H21.9301C22.4085 35.928 22.8262 36.289 22.8571 36.7663C22.891 37.2895 22.4768 37.7244 21.9609 37.7244H20.1658C19.668 37.7244 19.2593 38.1292 19.2672 38.6269C19.2766 39.2188 19.3747 39.8092 19.5638 40.3723ZM34.5358 34.1316H36.3322C36.8282 34.1316 37.2304 34.5337 37.2304 35.0298C37.2304 35.5258 36.8282 35.928 36.3322 35.928H34.5358C34.0397 35.928 33.6376 35.5258 33.6376 35.0298C33.6376 34.5337 34.0397 34.1316 34.5358 34.1316ZM25.5537 34.1316H27.3501C27.8462 34.1316 28.2483 34.5337 28.2483 35.0298C28.2483 35.5258 27.8462 35.928 27.3501 35.928H25.5537C25.0577 35.928 24.6555 35.5258 24.6555 35.0298C24.6555 34.5337 25.0577 34.1316 25.5537 34.1316Z" fill="#7ECD00"/>
<path d="M8.23779 39.7532C9.07851 39.721 9.86875 39.4917 10.5635 39.1103C11.9647 38.3409 13.6743 38.3409 15.0755 39.1103C15.8265 39.5226 16.689 39.7571 17.6062 39.7571C18.5235 39.7571 19.3859 39.5226 20.1369 39.1103C21.5381 38.3409 23.2478 38.3409 24.649 39.1103C25.4 39.5226 26.2624 39.7571 27.1796 39.7571C28.0969 39.7571 28.9594 39.5226 29.7103 39.1103C31.1115 38.3409 32.8212 38.3409 34.2224 39.1103C34.9734 39.5226 35.8358 39.7571 36.7531 39.7571H36.7574C32.9168 43.0267 27.9387 44.9999 22.4998 44.9999C17.0587 44.9999 12.0789 43.0251 8.23779 39.7532Z" fill="#0680AE"/>
<path d="M36.7574 39.7571C33.8804 42.2065 30.365 43.9282 26.4956 44.638C25.3374 44.4538 24.2067 44.1785 23.1119 43.8189C20.8735 43.0839 19.6431 41.3453 19.3408 39.4648C19.6175 39.3683 19.8836 39.2494 20.1371 39.1103C21.5383 38.3409 23.2479 38.3409 24.6491 39.1103C25.4001 39.5226 26.2626 39.7571 27.1798 39.7571C28.097 39.7571 28.9595 39.5226 29.7105 39.1103C31.1117 38.3409 32.8213 38.3409 34.2225 39.1103C34.9735 39.5226 35.836 39.7571 36.7532 39.7571H36.7574Z" fill="#08A8F0"/>
<path d="M17.4701 35.03C17.4701 35.5261 17.068 35.9282 16.5719 35.9282H14.7755C14.2794 35.9282 13.8773 35.5261 13.8773 35.03C13.8773 34.534 14.2794 34.1318 14.7755 34.1318H16.5719C17.068 34.1318 17.4701 34.534 17.4701 35.03ZM10.2845 35.9282H8.48805C7.99197 35.9282 7.58984 36.3304 7.58984 36.8264C7.58984 37.3225 7.99197 37.7247 8.48805 37.7247H10.2845C10.7805 37.7247 11.1827 37.3225 11.1827 36.8264C11.1827 36.3304 10.7805 35.9282 10.2845 35.9282Z" fill="#387232"/>
<path d="M35.4608 33.7741C35.1484 34.7644 34.5186 35.4697 33.9824 35.475C33.9351 35.4411 33.8917 35.4 33.8521 35.3521C33.6582 35.6191 33.4326 35.805 33.1886 35.8846C32.9445 35.8051 32.719 35.6191 32.5251 35.3521C32.4856 35.4 32.4421 35.4411 32.3947 35.475C31.8586 35.4697 31.2288 34.7645 30.9164 33.7741C30.604 32.7837 30.7151 31.8447 31.1513 31.5328C31.3948 31.5351 31.6575 31.6819 31.9011 31.9341C32.0682 30.7748 32.5686 29.8864 33.1886 29.6841C33.8086 29.8864 34.3089 30.7748 34.4761 31.9341C34.7197 31.6819 34.9824 31.5351 35.2259 31.5328C35.6621 31.8447 35.7732 32.7837 35.4608 33.7741Z" fill="#FDE803"/>
<path d="M35.461 33.7744C35.3118 34.2477 35.09 34.6558 34.8406 34.9536C33.638 34.638 32.7397 33.3847 32.7397 31.8865C32.7397 31.0838 32.9976 30.3514 33.4219 29.7959C33.9322 30.1201 34.3307 30.9245 34.4763 31.9345C34.7199 31.6823 34.9827 31.5355 35.2262 31.5332C35.6623 31.8451 35.7734 32.784 35.461 33.7744Z" fill="#FDF061"/>
<path d="M36.4239 37.2773C36.234 37.7357 35.7087 37.9532 35.2503 37.7634L33.0757 36.8626L30.4887 37.7801C30.0212 37.9459 29.5078 37.7013 29.3419 37.2338C29.1761 36.7662 29.4207 36.2529 29.8882 36.087L30.7483 35.782C30.547 35.5343 30.4844 35.1867 30.6151 34.8711C30.805 34.4128 31.3304 34.1952 31.7887 34.385L33.1256 34.9388L34.1209 34.5858C34.5884 34.42 35.1019 34.6646 35.2677 35.1321C35.3498 35.3636 35.3312 35.6063 35.2349 35.8125L35.9379 36.1037C36.3962 36.2936 36.6138 36.819 36.4239 37.2773Z" fill="#AA695D"/>
<path d="M35.2349 35.8123L34.3652 35.452L34.4213 35.432C34.7346 35.3209 34.9478 35.0536 35.0044 34.7488C35.1206 34.8478 35.2131 34.9776 35.2677 35.1319C35.3498 35.3633 35.3312 35.606 35.2349 35.8123ZM36.4848 36.8162C36.2386 37.0048 35.9013 37.0606 35.5941 36.9333L31.445 35.2146C31.1378 35.0873 30.9388 34.8094 30.8981 34.502C30.7769 34.5947 30.6777 34.7197 30.6151 34.8708C30.4252 35.3292 30.6429 35.8546 31.1012 36.0444L31.8362 36.3489L30.1885 36.9333C29.8751 37.0444 29.5412 36.9712 29.3051 36.7701C29.2772 36.9201 29.2872 37.0793 29.3419 37.2336C29.5077 37.7011 30.0211 37.9457 30.4887 37.7799L33.0757 36.8623L35.2504 37.7632C35.7087 37.953 36.2341 37.7354 36.424 37.277C36.4866 37.1259 36.5049 36.9674 36.4848 36.8162Z" fill="#5A443D"/>
<path d="M30.4887 37.7802C30.0212 37.946 29.5078 37.7014 29.3419 37.2339C29.1761 36.7664 29.4207 36.253 29.8882 36.0872C30.3557 35.9214 30.8692 36.1659 31.035 36.6335C31.2008 37.1009 30.9562 37.6144 30.4887 37.7802ZM35.2503 37.7635C35.7086 37.9534 36.234 37.7357 36.4239 37.2774C36.6138 36.8191 36.3962 36.2937 35.9378 36.1038C35.4795 35.9139 34.9541 36.1315 34.7642 36.5899C34.5744 37.0482 34.7921 37.5736 35.2503 37.7635Z" fill="#FFF2B4"/>
<path d="M30.0384 36.5103C30.2722 36.4274 30.5289 36.5498 30.6118 36.7835C30.6947 37.0173 30.5723 37.274 30.3386 37.3569C30.1048 37.4398 29.8481 37.3175 29.7652 37.0837C29.6823 36.85 29.8046 36.5933 30.0384 36.5103ZM35.766 36.5188C35.5369 36.4238 35.2742 36.5327 35.1792 36.7618C35.0843 36.991 35.1932 37.2537 35.4223 37.3486C35.6514 37.4436 35.9141 37.3347 36.0091 37.1056C36.104 36.8764 35.9952 36.6136 35.766 36.5188Z" fill="#F1CA50"/>
</g>
<defs>
<clipPath id="clip0_96_11926">
<rect width="45" height="45" fill="white"/>
</clipPath>
</defs>
</svg>
