<svg width="142" height="121" viewBox="0 0 142 121" fill="none" xmlns="http://www.w3.org/2000/svg">
<mask id="mask0_160_556" style="mask-type:alpha" maskUnits="userSpaceOnUse" x="-158" y="0" width="300" height="277">
<rect x="-158" width="300" height="277" rx="7" fill="#1C231F"/>
</mask>
<g mask="url(#mask0_160_556)">
<path fill-rule="evenodd" clip-rule="evenodd" d="M0 0H142V121C140.166 119.049 138.283 117.386 136.369 116.106C125.221 108.651 112.958 114.174 99.4411 113.345C85.9243 112.517 71.1533 105.339 66.4146 94.9846C61.6773 84.6317 66.9725 71.1026 58.8893 62.405C50.8074 53.7075 29.3472 49.8428 20.2894 42.3878C11.2315 34.9327 14.5761 23.8886 8.72309 12.1547C6.71069 8.11825 3.60942 4.00186 0 0Z" fill="white" fill-opacity="0.06"/>
<path fill-rule="evenodd" clip-rule="evenodd" d="M32 0H142V93C140.58 91.5005 139.121 90.222 137.638 89.2384C129.002 83.5085 119.503 87.7532 109.032 87.1166C98.5611 86.4799 87.1187 80.9629 83.448 73.0047C79.7782 65.0475 83.8801 54.6491 77.6185 47.9642C71.3579 41.2793 54.7337 38.3089 47.7171 32.579C40.7005 26.8491 43.2914 18.3607 38.7573 9.34207C37.1984 6.23965 34.796 3.07581 32 0Z" fill="white" fill-opacity="0.06"/>
<path fill-rule="evenodd" clip-rule="evenodd" d="M60 0H142V67C140.941 65.9197 139.854 64.9987 138.748 64.29C132.31 60.162 125.229 63.2201 117.424 62.7614C109.618 62.3027 101.088 58.3281 98.3521 52.5948C95.6165 46.8622 98.6743 39.3709 94.0065 34.5549C89.3395 29.7389 76.947 27.5989 71.7164 23.4709C66.4858 19.3429 68.4172 13.2276 65.0373 6.73031C63.8752 4.49523 62.0843 2.21591 60 0Z" fill="white" fill-opacity="0.06"/>
</g>
</svg>
