<svg width="100" height="100" viewBox="0 0 100 100" fill="none" xmlns="http://www.w3.org/2000/svg">
<circle cx="50" cy="50" r="50" fill="#F7921E"/>
<g clip-path="url(#clip0_102_2074)">
<path d="M74.6713 73.7491H65.7526V67.9721H74.5035L69.1711 57.798H73.5651L68.6314 49.1295H71.8052L65.2317 37.5736L62.5091 42.3598L63.4144 42.875L65.2318 39.6803L70.0139 48.0879H66.84L69.3607 52.5168H67.1879V53.5585H69.9536L71.7737 56.7564H67.4489L70.3138 62.2226H65.9398V63.2643H70.8597L72.7813 66.9305H56.8211V67.9722H64.7109V73.7491H55.3084V65.5088H64.833L59.0031 54.0813H63.7699L58.3759 43.5168H61.8453L54.7876 29.685L47.7299 43.5168H51.1997L47.8784 50.0293L48.8062 50.5026L52.9006 42.4752H49.4307L51.2627 38.885H54.4178V37.8434H51.7942L54.7876 31.9769L60.1445 42.4751H56.6741L59.6133 48.2317H54.7952V49.2734H60.1452L62.0681 53.0396H57.3022L60.8597 60.0128H55.1167V61.0545H61.3911L63.1321 64.4671H50.5441V65.5088H54.2668V73.749H49.5478V59.0396H54.0003L44.0744 47.8941H37.2965L27.3711 59.0396H31.8287V73.7491H27.4479V74.7907C46.785 74.7926 52.8768 74.7917 74.6713 74.7907V73.7491ZM29.6935 57.9979C31.3822 56.1015 35.8798 51.0509 37.7633 48.9358H43.6075C46.6445 52.3461 48.6784 54.6299 51.6778 57.9979C49.1467 57.9979 32.074 57.9979 29.6935 57.9979ZM32.8704 61.7905H37.3727V60.7489H32.8704V59.0397H48.506V60.7489H40.7536V61.7905H48.5061V73.7491H44.8292V64.1991H36.5472V73.7491H32.8704V61.7905ZM43.7876 73.7491H37.5889V65.2408H43.7876V73.7491Z" fill="white"/>
<path d="M38.5674 68.7385H39.5049V69.7802H38.5674V68.7385Z" fill="white"/>
<path d="M41.7056 50.5042H43.2363V51.5458H41.7056V50.5042Z" fill="white"/>
<path d="M38.1348 50.5042H39.6655V51.5458H38.1348V50.5042Z" fill="white"/>
<path d="M36.0435 52.9755H37.682V54.0172H36.0435V52.9755Z" fill="white"/>
<path d="M43.6899 52.9755H45.3285V54.0172H43.6899V52.9755Z" fill="white"/>
<path d="M39.8667 52.9755H41.5052V54.0172H39.8667V52.9755Z" fill="white"/>
<path d="M45.7627 55.4468H47.4549V56.4885H45.7627V55.4468Z" fill="white"/>
<path d="M37.8652 55.4468H39.5579V56.4885H37.8652V55.4468Z" fill="white"/>
<path d="M41.814 55.4468H43.5062V56.4885H41.814V55.4468Z" fill="white"/>
<path d="M33.9165 55.4468H35.6087V56.4885H33.9165V55.4468Z" fill="white"/>
<path d="M38.3823 60.749H39.7016V61.7906H38.3823V60.749Z" fill="white"/>
<path d="M39.7811 45.1432H37.4577L42.2851 35.6827L47.1129 45.1432H43.9391L45.7259 48.6441L46.6537 48.1706L45.64 46.1849H48.8138L42.2851 33.3909L35.7568 46.1849H39.7811V45.1432Z" fill="white"/>
<path d="M28.5019 53.7454L27.4882 55.7308L28.416 56.2043L30.2038 52.7037H27.0294L28.4778 49.8653H30.8696V48.8236H29.0093L31.8568 43.2432L34.5413 48.5037L35.4691 48.0302L31.8568 40.9514L25.3286 53.7454H28.5019Z" fill="white"/>
<path d="M47.9587 34.741H44.3241V35.7827H47.9587C49.5527 35.7827 50.8498 34.4857 50.8498 32.8917C50.8498 31.2941 49.5528 29.9943 47.9587 29.9943H47.8224C47.3889 26.7298 43.5377 25.2066 40.99 27.2586C40.0083 26.0402 38.5339 25.3292 36.9357 25.3292C34.2019 25.3292 31.9466 27.4402 31.7239 30.1158C30.5184 30.4708 29.6553 31.5949 29.6553 32.8917C29.6553 34.4857 30.9553 35.7827 32.5529 35.7827H39.4819V34.741H32.5529C31.5296 34.741 30.6969 33.9115 30.6969 32.8917C30.6969 31.9649 31.3836 31.1761 32.294 31.0568L32.7462 30.9975L32.7473 30.5416C32.7533 28.2418 34.6322 26.3708 36.9358 26.3708C38.3844 26.3708 39.7053 27.0999 40.4698 28.3211L40.8334 28.9017L41.2957 28.3961C43.237 26.2722 46.7906 27.6624 46.8174 30.5199L46.822 31.0359H47.9588C48.9786 31.0359 49.8081 31.8682 49.8081 32.8916C49.808 33.9115 48.9785 34.741 47.9587 34.741Z" fill="white"/>
<path d="M63.3987 32.3752C63.6841 33.7627 64.918 34.7698 66.333 34.7698C66.5359 34.7698 66.7399 34.749 66.9398 34.7078C68.5593 34.3746 69.606 32.7861 69.2729 31.1665C68.9875 29.7789 67.7531 28.7718 66.3386 28.7718C66.1357 28.7718 65.9317 28.7927 65.7318 28.8339C64.1123 29.167 63.0656 30.7555 63.3987 32.3752ZM65.9414 29.8542C66.0726 29.8272 66.2058 29.8135 66.3386 29.8135C67.2612 29.8135 68.0664 30.4709 68.2525 31.3765C68.4697 32.4334 67.7871 33.47 66.7302 33.6874C65.6834 33.9016 64.6321 33.2004 64.419 32.1651C64.2019 31.1082 64.8844 30.0716 65.9414 29.8542Z" fill="white"/>
<path d="M64.519 25.4044L65.5399 25.194L66.0775 27.8023L65.0567 28.0127L64.519 25.4044Z" fill="white"/>
<path d="M62.77 30.0462L60.5474 28.5822L61.1201 27.7128L63.3427 29.1768L62.77 30.0462Z" fill="white"/>
<path d="M62.5688 33.0851L59.9606 33.6227L59.7502 32.6018L62.3584 32.0642L62.5688 33.0851Z" fill="white"/>
<path d="M63.1396 37.5738L62.2697 37.0008L63.7337 34.7782L64.6037 35.3512L63.1396 37.5738Z" fill="white"/>
<path d="M68.1484 38.1322L67.1276 38.3426L66.59 35.7344L67.6108 35.524L68.1484 38.1322Z" fill="white"/>
<path d="M71.5586 35.8371L69.336 34.3731L69.9087 33.5036L72.1313 34.9676L71.5586 35.8371Z" fill="white"/>
<path d="M70.1074 30.45L72.7157 29.9124L72.9261 30.9333L70.3178 31.4709L70.1074 30.45Z" fill="white"/>
<path d="M68.9316 28.7873L68.0617 28.2143L69.5257 25.9917L70.3956 26.5647L68.9316 28.7873Z" fill="white"/>
<path d="M53.1626 60.013H54.1397V61.0547H53.1626V60.013Z" fill="white"/>
<path d="M52.8389 48.2297H53.816V49.2713H52.8389V48.2297Z" fill="white"/>
<path d="M65.2319 52.5172H66.209V53.5588H65.2319V52.5172Z" fill="white"/>
<path d="M64.1201 45.0214H67.1878V46.063H64.1201V45.0214Z" fill="white"/>
<path d="M62.1646 45.0219H63.1416V46.0635H62.1646V45.0219Z" fill="white"/>
<path d="M41.7178 41.8416H44.3631V42.8833H41.7178V41.8416Z" fill="white"/>
<path d="M40.0303 41.8422H40.873V42.8839H40.0303V41.8422Z" fill="white"/>
<path d="M31.7139 48.8245H32.5566V49.8661H31.7139V48.8245Z" fill="white"/>
<path d="M55.3975 37.8427H56.3745V38.8844H55.3975V37.8427Z" fill="white"/>
</g>
<defs>
<clipPath id="clip0_102_2074">
<rect width="50" height="50" fill="white" transform="translate(25 25)"/>
</clipPath>
</defs>
</svg>
