<svg width="28" height="28" viewBox="0 0 28 28" fill="none" xmlns="http://www.w3.org/2000/svg">
<path d="M23.5387 17.3506V12.1598L27.9407 4.80636C27.9783 4.74363 27.9985 4.67206 27.9994 4.59895C28.0003 4.52584 27.9818 4.45381 27.9458 4.39019C27.9098 4.32656 27.8575 4.27363 27.7944 4.23678C27.7312 4.19994 27.6594 4.18049 27.5863 4.18043H13.3637C13.2923 4.18054 13.2221 4.19914 13.16 4.23442C13.0979 4.26969 13.046 4.32045 13.0093 4.38175L4.87558 17.9682C4.83801 18.031 4.81774 18.1025 4.81684 18.1756C4.81595 18.2487 4.83446 18.3207 4.8705 18.3844C4.90653 18.448 4.95879 18.5009 5.02195 18.5377C5.08511 18.5745 5.15691 18.5939 5.23001 18.5939H19.4526C19.524 18.5939 19.5942 18.5754 19.6563 18.5401C19.7184 18.5049 19.7704 18.4541 19.807 18.3929L20.1905 17.7511C20.2035 17.7542 20.2165 17.7561 20.2297 17.758V22.8892H13.9998C13.8901 22.8892 13.785 22.9327 13.7074 23.0103C13.6299 23.0878 13.5863 23.193 13.5863 23.3027V25.7837H11.7645V25.46C11.7645 25.3503 11.721 25.2451 11.6434 25.1676C11.5659 25.09 11.4607 25.0465 11.351 25.0465H10.3463V21.9157C10.3463 21.806 10.3028 21.7008 10.2252 21.6233C10.1477 21.5457 10.0425 21.5022 9.93283 21.5022H8.93617V20.4979C8.93617 20.3883 8.89261 20.2831 8.81506 20.2055C8.73752 20.128 8.63234 20.0844 8.52267 20.0844H7.10495C6.99528 20.0844 6.89011 20.128 6.81256 20.2055C6.73501 20.2831 6.69145 20.3883 6.69145 20.4979V21.5022H3.76858V20.4979C3.76861 20.4436 3.75794 20.3898 3.73717 20.3397C3.7164 20.2895 3.68594 20.2439 3.64754 20.2055C3.60913 20.1671 3.56354 20.1366 3.51335 20.1158C3.46317 20.0951 3.40939 20.0844 3.35508 20.0844H1.93736C1.82769 20.0844 1.72251 20.128 1.64497 20.2055C1.56742 20.2831 1.52385 20.3883 1.52385 20.4979V21.5022H0.526723C0.417055 21.5022 0.311879 21.5457 0.234333 21.6233C0.156786 21.7008 0.113221 21.806 0.113221 21.9157V27.5865C0.113221 27.6962 0.156786 27.8014 0.234333 27.8789C0.311879 27.9565 0.417055 28 0.526723 28H9.93283C10.0425 28 10.1477 27.9565 10.2252 27.8789C10.3028 27.8014 10.3463 27.6962 10.3463 27.5865V27.2912H11.351C11.4607 27.2912 11.5659 27.2476 11.6434 27.1701C11.721 27.0925 11.7645 26.9873 11.7645 26.8777V26.6107H13.9998C14.1095 26.6107 14.2146 26.5671 14.2922 26.4896C14.3697 26.412 14.4133 26.3068 14.4133 26.1972V23.7162H20.2307V24.3376H18.76C18.7057 24.3376 18.6519 24.3482 18.6018 24.369C18.5516 24.3898 18.506 24.4202 18.4676 24.4586C18.4292 24.497 18.3987 24.5426 18.3779 24.5928C18.3572 24.643 18.3465 24.6968 18.3465 24.7511V25.7553H17.0035C16.8938 25.7553 16.7886 25.7989 16.7111 25.8764C16.6335 25.954 16.59 26.0592 16.59 26.1688V27.5865C16.59 27.6962 16.6335 27.8014 16.7111 27.8789C16.7886 27.9565 16.8938 28 17.0035 28H26.4096C26.5193 28 26.6244 27.9565 26.702 27.8789C26.7795 27.8014 26.8231 27.6962 26.8231 27.5865V26.1688C26.8231 26.0592 26.7795 25.954 26.702 25.8764C26.6244 25.7989 26.5193 25.7553 26.4096 25.7553H25.0663V24.7511C25.0663 24.6968 25.0557 24.643 25.0349 24.5928C25.0141 24.5426 24.9837 24.497 24.9453 24.4586C24.9069 24.4202 24.8613 24.3898 24.8111 24.369C24.7609 24.3482 24.7071 24.3376 24.6528 24.3376H23.1843V17.757C23.2823 17.7432 23.3721 17.6945 23.4372 17.6198C23.5023 17.5452 23.5383 17.4496 23.5387 17.3506ZM7.51845 20.9114H8.10917V21.5022H7.51845V20.9114ZM2.35086 20.9114H2.94158V21.5022H2.35086V20.9114ZM9.51933 27.173H0.940225V22.3292H9.51933V27.173ZM10.9371 26.4642H10.3463V25.8735H10.9371V26.4642ZM22.7112 16.9371H20.7028V16.8962L22.7112 13.5409V16.9371ZM10.6625 17.7669L11.7941 15.8766H15.5333L14.4017 17.7669H10.6625ZM12.2891 15.0496L13.4209 13.1593H17.1601L16.0283 15.0496H12.2891ZM8.71785 13.1593H12.4571L11.3255 15.0496H7.58603L8.71785 13.1593ZM10.3444 10.442H14.0839L12.9521 12.3323H9.21287L10.3444 10.442ZM11.9713 7.72474H15.7105L14.5789 9.61503H10.8397L11.9713 7.72474ZM22.0404 5.00744L20.9086 6.89773H17.1694L18.3012 5.00744H22.0404ZM20.4136 7.72474L19.282 9.61503H15.5428L16.6743 7.72474H20.4136ZM24.0997 9.61503H20.2456L21.3774 7.72474H25.23L24.0997 9.61503ZM22.4728 12.3323H18.6213L19.7529 10.442H23.6056L22.4728 12.3323ZM17.6563 12.3323H13.9159L15.0475 10.442H18.7867L17.6563 12.3323ZM18.1249 13.1593H21.9766L20.8448 15.0496H16.9933L18.1249 13.1593ZM25.7262 6.89773H21.8724L23.004 5.00744H26.8569L25.7262 6.89773ZM13.5993 5.00744H17.3374L16.2058 6.89773H12.4663L13.5993 5.00744ZM7.09219 15.8766H10.8302L9.69867 17.7669H5.95943L7.09219 15.8766ZM19.2191 17.7669H15.3653L16.4971 15.8766H20.3486L19.2191 17.7669ZM25.9961 27.173H17.417V26.5823H25.9961V27.173ZM24.2393 25.7553H19.1745V25.1646H24.2402L24.2393 25.7553ZM21.0577 24.3376V17.7641H22.3573V24.3376H21.0577Z" fill="#1C231F"/>
<path d="M0.413502 4.72574H1.09259C1.16568 5.29745 1.39063 5.83914 1.74403 6.29445L1.26177 6.77671C1.1867 6.85495 1.14528 6.9595 1.1464 7.06793C1.14753 7.17636 1.1911 7.28003 1.26777 7.3567C1.34444 7.43338 1.44812 7.47695 1.55654 7.47807C1.66497 7.47919 1.76952 7.43777 1.84776 7.3627L2.33003 6.88044C2.78533 7.23384 3.32702 7.45879 3.89873 7.53188V8.21097C3.89873 8.32064 3.9423 8.42581 4.01985 8.50336C4.09739 8.58091 4.20257 8.62447 4.31224 8.62447C4.4219 8.62447 4.52708 8.58091 4.60463 8.50336C4.68217 8.42581 4.72574 8.32064 4.72574 8.21097V7.53188C5.29745 7.45879 5.83914 7.23384 6.29445 6.88044L6.77671 7.3627C6.81489 7.40249 6.86063 7.43427 6.91124 7.45616C6.96186 7.47805 7.01634 7.48962 7.07148 7.49019C7.12662 7.49076 7.18133 7.48032 7.23239 7.45948C7.28344 7.43864 7.32983 7.40782 7.36882 7.36882C7.40782 7.32983 7.43864 7.28344 7.45948 7.23239C7.48032 7.18133 7.49076 7.12662 7.49019 7.07148C7.48962 7.01634 7.47805 6.96186 7.45616 6.91124C7.43427 6.86063 7.40249 6.81489 7.3627 6.77671L6.88044 6.29445C7.23384 5.83914 7.45879 5.29745 7.53188 4.72574H8.21097C8.32064 4.72574 8.42581 4.68217 8.50336 4.60463C8.58091 4.52708 8.62447 4.4219 8.62447 4.31224C8.62447 4.20257 8.58091 4.09739 8.50336 4.01985C8.42581 3.9423 8.32064 3.89873 8.21097 3.89873H7.53188C7.45879 3.32702 7.23384 2.78533 6.88044 2.33003L7.3627 1.84776C7.40249 1.80958 7.43427 1.76385 7.45616 1.71323C7.47805 1.66261 7.48962 1.60814 7.49019 1.55299C7.49076 1.49785 7.48032 1.44314 7.45948 1.39209C7.43864 1.34103 7.40782 1.29464 7.36882 1.25565C7.32983 1.21665 7.28344 1.18583 7.23239 1.16499C7.18133 1.14415 7.12662 1.13371 7.07148 1.13428C7.01634 1.13485 6.96186 1.14642 6.91124 1.16831C6.86063 1.19021 6.81489 1.22198 6.77671 1.26177L6.29445 1.7438C5.83906 1.39057 5.2974 1.16572 4.72574 1.09259V0.413502C4.72574 0.303835 4.68217 0.198659 4.60463 0.121112C4.52708 0.0435653 4.4219 0 4.31224 0C4.20257 0 4.09739 0.0435653 4.01985 0.121112C3.9423 0.198659 3.89873 0.303835 3.89873 0.413502V1.09259C3.32707 1.16572 2.78541 1.39057 2.33003 1.7438L1.84776 1.26177C1.76952 1.1867 1.66497 1.14528 1.55654 1.1464C1.44812 1.14753 1.34444 1.1911 1.26777 1.26777C1.1911 1.34444 1.14753 1.44812 1.1464 1.55654C1.14528 1.66497 1.1867 1.76952 1.26177 1.84776L1.74403 2.33003C1.39063 2.78533 1.16568 3.32702 1.09259 3.89873H0.413502C0.303835 3.89873 0.198659 3.9423 0.121112 4.01985C0.0435653 4.09739 0 4.20257 0 4.31224C0 4.4219 0.0435653 4.52708 0.121112 4.60463C0.198659 4.68217 0.303835 4.72574 0.413502 4.72574ZM4.31224 1.8903C4.79125 1.8903 5.25951 2.03234 5.65779 2.29847C6.05608 2.56459 6.36651 2.94285 6.54982 3.3854C6.73313 3.82795 6.78109 4.31492 6.68764 4.78473C6.59419 5.25454 6.36352 5.68609 6.02481 6.02481C5.68609 6.36352 5.25454 6.59419 4.78473 6.68764C4.31492 6.78109 3.82795 6.73313 3.3854 6.54982C2.94285 6.36651 2.56459 6.05608 2.29847 5.65779C2.03234 5.25951 1.8903 4.79125 1.8903 4.31224C1.89098 3.67011 2.14637 3.05448 2.60043 2.60043C3.05448 2.14637 3.67011 1.89098 4.31224 1.8903Z" fill="#1C231F"/>
<path d="M1.94444 23.9241C1.83478 23.9241 1.7296 23.9676 1.65205 24.0452C1.57451 24.1227 1.53094 24.2279 1.53094 24.3376V25.8143C1.53094 25.924 1.57451 26.0292 1.65205 26.1067C1.7296 26.1843 1.83478 26.2278 1.94444 26.2278C2.05411 26.2278 2.15929 26.1843 2.23683 26.1067C2.31438 26.0292 2.35795 25.924 2.35795 25.8143V24.3376C2.35798 24.2832 2.3473 24.2295 2.32653 24.1793C2.30576 24.1291 2.27531 24.0835 2.2369 24.0451C2.1985 24.0067 2.1529 23.9762 2.10272 23.9555C2.05254 23.9347 1.99876 23.924 1.94444 23.9241Z" fill="#1C231F"/>
<path d="M5.73217 24.3376H5.30969L5.62112 23.4397C5.65627 23.3363 5.64907 23.2231 5.60108 23.125C5.55309 23.0269 5.46822 22.9517 5.36501 22.9159C5.26179 22.8802 5.14861 22.8867 5.05019 22.9341C4.95177 22.9815 4.8761 23.0659 4.83972 23.1689L4.33808 24.6162C4.31644 24.6785 4.31002 24.745 4.31935 24.8103C4.32869 24.8756 4.35351 24.9377 4.39174 24.9914C4.42997 25.0451 4.4805 25.0889 4.53912 25.1191C4.59773 25.1493 4.66272 25.1651 4.72866 25.1651H5.15114L4.83972 26.063C4.82192 26.1142 4.81441 26.1685 4.8176 26.2227C4.82079 26.2769 4.83464 26.33 4.85834 26.3788C4.88203 26.4277 4.91512 26.4714 4.95572 26.5074C4.99631 26.5435 5.04361 26.5712 5.09491 26.5889C5.13836 26.6044 5.18415 26.6124 5.2303 26.6126C5.31626 26.6125 5.40009 26.5858 5.47012 26.5359C5.54016 26.4861 5.59294 26.4157 5.62112 26.3344L6.12275 24.8872C6.1444 24.8249 6.15082 24.7583 6.14148 24.6931C6.13215 24.6278 6.10733 24.5657 6.0691 24.512C6.03087 24.4582 5.98033 24.4144 5.92172 24.3842C5.86311 24.354 5.79811 24.3383 5.73217 24.3383V24.3376Z" fill="#1C231F"/>
</svg>
