<svg width="43" height="43" viewBox="0 0 43 43" fill="none" xmlns="http://www.w3.org/2000/svg">
<path d="M24.0307 14.4567C25.4126 15.1165 26.616 16.0983 27.5398 17.3196C28.4636 18.5409 29.0808 19.9661 29.3396 21.4754C29.5983 22.9848 29.4911 24.5342 29.0269 25.9935C28.5627 27.4528 27.7551 28.7793 26.6719 29.8618L17.1022 39.4315C15.3075 41.2262 12.8734 42.2344 10.3353 42.2344C7.79728 42.2344 5.36317 41.2262 3.5685 39.4315C1.77382 37.6368 0.765576 35.2027 0.765576 32.6647C0.765576 30.1266 1.77382 27.6925 3.5685 25.8978L7.30493 22.1614M35.6951 20.8386L39.4315 17.1022C41.2262 15.3075 42.2344 12.8734 42.2344 10.3353C42.2344 7.79728 41.2262 5.36317 39.4315 3.5685C37.6368 1.77382 35.2027 0.765576 32.6647 0.765576C30.1266 0.765576 27.6925 1.77382 25.8978 3.5685L16.3281 13.1382C15.2449 14.2206 14.4373 15.5472 13.9731 17.0065C13.5089 18.4658 13.4017 20.0152 13.6604 21.5245C13.9192 23.0339 14.5364 24.4591 15.4602 25.6804C16.384 26.9017 17.5874 27.8835 18.9693 28.5433" stroke="#63AC45" stroke-width="1.5" stroke-linecap="round" stroke-linejoin="round"/>
</svg>
