<svg width="30" height="21" viewBox="0 0 30 21" fill="none" xmlns="http://www.w3.org/2000/svg">
<path d="M27.6562 0H2.34375C1.72238 0.000744308 1.12667 0.247913 0.687291 0.687291C0.247913 1.12667 0.000744308 1.72238 0 2.34375L0 11.7188C0.000744308 12.3401 0.247913 12.9358 0.687291 13.3752C1.12667 13.8146 1.72238 14.0618 2.34375 14.0625H27.6562C28.2776 14.0618 28.8733 13.8146 29.3127 13.3752C29.7521 12.9358 29.9993 12.3401 30 11.7188V2.34375C29.9993 1.72238 29.7521 1.12667 29.3127 0.687291C28.8733 0.247913 28.2776 0.000744308 27.6562 0ZM26.25 0.9375V2.34375C26.25 2.46807 26.2006 2.5873 26.1127 2.67521C26.0248 2.76311 25.9056 2.8125 25.7812 2.8125H4.21875C4.09443 2.8125 3.9752 2.76311 3.88729 2.67521C3.79939 2.5873 3.75 2.46807 3.75 2.34375V0.9375H26.25ZM0.9375 2.34375C0.9375 1.97079 1.08566 1.6131 1.34938 1.34938C1.6131 1.08566 1.97079 0.9375 2.34375 0.9375H2.8125V2.34375C2.8125 2.71671 2.96066 3.0744 3.22438 3.33812C3.4881 3.60184 3.84579 3.75 4.21875 3.75H25.7812C26.1542 3.75 26.5119 3.60184 26.7756 3.33812C27.0393 3.0744 27.1875 2.71671 27.1875 2.34375V0.9375H27.6562C28.0292 0.9375 28.3869 1.08566 28.6506 1.34938C28.9143 1.6131 29.0625 1.97079 29.0625 2.34375V9.375H0.9375V2.34375ZM0.9375 11.7188V10.3125H7.5V13.125H2.34375C1.97079 13.125 1.6131 12.9768 1.34938 12.7131C1.08566 12.4494 0.9375 12.0917 0.9375 11.7188ZM8.4375 10.3125H21.5625V13.125H8.4375V10.3125ZM29.0625 11.7188C29.0625 12.0917 28.9143 12.4494 28.6506 12.7131C28.3869 12.9768 28.0292 13.125 27.6562 13.125H22.5V10.3125H29.0625V11.7188Z" fill="#1C231F"/>
<path d="M10.7812 8.4375H19.2188C19.3431 8.4375 19.4623 8.38811 19.5502 8.30021C19.6381 8.2123 19.6875 8.09307 19.6875 7.96875C19.6875 7.84443 19.6381 7.7252 19.5502 7.63729C19.4623 7.54939 19.3431 7.5 19.2188 7.5H10.7812C10.6569 7.5 10.5377 7.54939 10.4498 7.63729C10.3619 7.7252 10.3125 7.84443 10.3125 7.96875C10.3125 8.09307 10.3619 8.2123 10.4498 8.30021C10.5377 8.38811 10.6569 8.4375 10.7812 8.4375Z" fill="#1C231F"/>
<path d="M25.7812 12.1875H27.1875C27.3118 12.1875 27.431 12.1381 27.519 12.0502C27.6069 11.9623 27.6562 11.8431 27.6562 11.7188C27.6562 11.5944 27.6069 11.4752 27.519 11.3873C27.431 11.2994 27.3118 11.25 27.1875 11.25H25.7812C25.6569 11.25 25.5377 11.2994 25.4498 11.3873C25.3619 11.4752 25.3125 11.5944 25.3125 11.7188C25.3125 11.8431 25.3619 11.9623 25.4498 12.0502C25.5377 12.1381 25.6569 12.1875 25.7812 12.1875Z" fill="#1C231F"/>
<path d="M15.9375 15.4688C15.9375 15.3444 15.8881 15.2252 15.8002 15.1373C15.7123 15.0494 15.5931 15 15.4688 15C15.3444 15 15.2252 15.0494 15.1373 15.1373C15.0494 15.2252 15 15.3444 15 15.4688C15.0015 15.6324 14.9698 15.7946 14.9069 15.9457C14.844 16.0967 14.7511 16.2335 14.6339 16.3477C14.2665 16.747 14.0625 17.2698 14.0625 17.8125C14.0625 18.3552 14.2665 18.878 14.6339 19.2773C14.7511 19.3915 14.844 19.5283 14.9069 19.6793C14.9698 19.8304 15.0015 19.9926 15 20.1562C15 20.2806 15.0494 20.3998 15.1373 20.4877C15.2252 20.5756 15.3444 20.625 15.4688 20.625C15.5931 20.625 15.7123 20.5756 15.8002 20.4877C15.8881 20.3998 15.9375 20.2806 15.9375 20.1562C15.9416 19.6128 15.737 19.0886 15.3661 18.6914C15.2501 18.5763 15.158 18.4394 15.0952 18.2886C15.0323 18.1377 15 17.9759 15 17.8125C15 17.6491 15.0323 17.4873 15.0952 17.3364C15.158 17.1856 15.2501 17.0487 15.3661 16.9336C15.737 16.5364 15.9416 16.0122 15.9375 15.4688Z" fill="#1C231F"/>
<path d="M18.75 15.4688C18.75 15.3444 18.7006 15.2252 18.6127 15.1373C18.5248 15.0494 18.4056 15 18.2813 15C18.1569 15 18.0377 15.0494 17.9498 15.1373C17.8619 15.2252 17.8125 15.3444 17.8125 15.4688C17.814 15.6324 17.7823 15.7946 17.7194 15.9457C17.6565 16.0967 17.5636 16.2335 17.4464 16.3477C17.079 16.747 16.875 17.2698 16.875 17.8125C16.875 18.3552 17.079 18.878 17.4464 19.2773C17.5636 19.3915 17.6565 19.5283 17.7194 19.6793C17.7823 19.8304 17.814 19.9926 17.8125 20.1562C17.8125 20.2806 17.8619 20.3998 17.9498 20.4877C18.0377 20.5756 18.1569 20.625 18.2813 20.625C18.4056 20.625 18.5248 20.5756 18.6127 20.4877C18.7006 20.3998 18.75 20.2806 18.75 20.1562C18.754 19.6128 18.5495 19.0886 18.1786 18.6914C18.0626 18.5763 17.9705 18.4394 17.9077 18.2886C17.8448 18.1377 17.8125 17.9759 17.8125 17.8125C17.8125 17.6491 17.8448 17.4873 17.9077 17.3364C17.9705 17.1856 18.0626 17.0487 18.1786 16.9336C18.5495 16.5364 18.754 16.0122 18.75 15.4688Z" fill="#1C231F"/>
<path d="M21.5625 15.4688C21.5625 15.3444 21.5131 15.2252 21.4252 15.1373C21.3373 15.0494 21.2181 15 21.0938 15C20.9694 15 20.8502 15.0494 20.7623 15.1373C20.6744 15.2252 20.625 15.3444 20.625 15.4688C20.6265 15.6324 20.5948 15.7946 20.5319 15.9457C20.469 16.0967 20.3761 16.2335 20.2589 16.3477C19.8915 16.747 19.6875 17.2698 19.6875 17.8125C19.6875 18.3552 19.8915 18.878 20.2589 19.2773C20.3761 19.3915 20.469 19.5283 20.5319 19.6793C20.5948 19.8304 20.6265 19.9926 20.625 20.1562C20.625 20.2806 20.6744 20.3998 20.7623 20.4877C20.8502 20.5756 20.9694 20.625 21.0938 20.625C21.2181 20.625 21.3373 20.5756 21.4252 20.4877C21.5131 20.3998 21.5625 20.2806 21.5625 20.1562C21.5665 19.6128 21.362 19.0886 20.9911 18.6914C20.8751 18.5763 20.783 18.4394 20.7202 18.2886C20.6573 18.1377 20.625 17.9759 20.625 17.8125C20.625 17.6491 20.6573 17.4873 20.7202 17.3364C20.783 17.1856 20.8751 17.0487 20.9911 16.9336C21.362 16.5364 21.5665 16.0122 21.5625 15.4688Z" fill="#1C231F"/>
<path d="M24.375 15.4688C24.375 15.3444 24.3256 15.2252 24.2377 15.1373C24.1498 15.0494 24.0306 15 23.9063 15C23.7819 15 23.6627 15.0494 23.5748 15.1373C23.4869 15.2252 23.4375 15.3444 23.4375 15.4688C23.439 15.6324 23.4073 15.7946 23.3444 15.9457C23.2815 16.0967 23.1886 16.2335 23.0714 16.3477C22.704 16.747 22.5 17.2698 22.5 17.8125C22.5 18.3552 22.704 18.878 23.0714 19.2773C23.1886 19.3915 23.2815 19.5283 23.3444 19.6793C23.4073 19.8304 23.439 19.9926 23.4375 20.1562C23.4375 20.2806 23.4869 20.3998 23.5748 20.4877C23.6627 20.5756 23.7819 20.625 23.9063 20.625C24.0306 20.625 24.1498 20.5756 24.2377 20.4877C24.3256 20.3998 24.375 20.2806 24.375 20.1562C24.379 19.6128 24.1745 19.0886 23.8036 18.6914C23.6876 18.5763 23.5955 18.4394 23.5327 18.2886C23.4698 18.1377 23.4375 17.9759 23.4375 17.8125C23.4375 17.6491 23.4698 17.4873 23.5327 17.3364C23.5955 17.1856 23.6876 17.0487 23.8036 16.9336C24.1745 16.5364 24.379 16.0122 24.375 15.4688Z" fill="#1C231F"/>
<path d="M7.50001 15.4688C7.50001 15.3444 7.45063 15.2252 7.36272 15.1373C7.27481 15.0494 7.15558 15 7.03126 15C6.90694 15 6.78772 15.0494 6.69981 15.1373C6.6119 15.2252 6.56251 15.3444 6.56251 15.4688C6.564 15.6324 6.53233 15.7946 6.46941 15.9457C6.40649 16.0967 6.31363 16.2335 6.19642 16.3477C5.82896 16.747 5.625 17.2698 5.625 17.8125C5.625 18.3552 5.82896 18.878 6.19642 19.2773C6.31363 19.3915 6.40649 19.5283 6.46941 19.6793C6.53233 19.8304 6.564 19.9926 6.56251 20.1562C6.56251 20.2806 6.6119 20.3998 6.69981 20.4877C6.78772 20.5756 6.90694 20.625 7.03126 20.625C7.15558 20.625 7.27481 20.5756 7.36272 20.4877C7.45063 20.3998 7.50001 20.2806 7.50001 20.1562C7.50405 19.6128 7.29954 19.0886 6.92861 18.6914C6.81259 18.5763 6.72051 18.4394 6.65767 18.2886C6.59482 18.1377 6.56247 17.9759 6.56247 17.8125C6.56247 17.6491 6.59482 17.4873 6.65767 17.3364C6.72051 17.1856 6.81259 17.0487 6.92861 16.9336C7.29954 16.5364 7.50405 16.0122 7.50001 15.4688Z" fill="#1C231F"/>
<path d="M10.3125 15.4688C10.3125 15.3444 10.2631 15.2252 10.1752 15.1373C10.0873 15.0494 9.96809 15 9.84377 15C9.71944 15 9.60022 15.0494 9.51231 15.1373C9.4244 15.2252 9.37502 15.3444 9.37502 15.4688C9.3765 15.6324 9.34483 15.7946 9.28191 15.9457C9.21899 16.0967 9.12613 16.2335 9.00892 16.3477C8.64146 16.747 8.4375 17.2698 8.4375 17.8125C8.4375 18.3552 8.64146 18.878 9.00892 19.2773C9.12613 19.3915 9.21899 19.5283 9.28191 19.6793C9.34483 19.8304 9.3765 19.9926 9.37502 20.1562C9.37502 20.2806 9.4244 20.3998 9.51231 20.4877C9.60022 20.5756 9.71944 20.625 9.84377 20.625C9.96809 20.625 10.0873 20.5756 10.1752 20.4877C10.2631 20.3998 10.3125 20.2806 10.3125 20.1562C10.3166 19.6128 10.112 19.0886 9.74111 18.6914C9.62509 18.5763 9.53301 18.4394 9.47017 18.2886C9.40733 18.1377 9.37497 17.9759 9.37497 17.8125C9.37497 17.6491 9.40733 17.4873 9.47017 17.3364C9.53301 17.1856 9.62509 17.0487 9.74111 16.9336C10.112 16.5364 10.3166 16.0122 10.3125 15.4688Z" fill="#1C231F"/>
<path d="M13.125 15.4688C13.125 15.3444 13.0756 15.2252 12.9877 15.1373C12.8998 15.0494 12.7806 15 12.6563 15C12.5319 15 12.4127 15.0494 12.3248 15.1373C12.2369 15.2252 12.1875 15.3444 12.1875 15.4688C12.189 15.6324 12.1573 15.7946 12.0944 15.9457C12.0315 16.0967 11.9386 16.2335 11.8214 16.3477C11.454 16.747 11.25 17.2698 11.25 17.8125C11.25 18.3552 11.454 18.878 11.8214 19.2773C11.9386 19.3915 12.0315 19.5283 12.0944 19.6793C12.1573 19.8304 12.189 19.9926 12.1875 20.1562C12.1875 20.2806 12.2369 20.3998 12.3248 20.4877C12.4127 20.5756 12.5319 20.625 12.6563 20.625C12.7806 20.625 12.8998 20.5756 12.9877 20.4877C13.0756 20.3998 13.125 20.2806 13.125 20.1562C13.1291 19.6128 12.9245 19.0886 12.5536 18.6914C12.4376 18.5763 12.3455 18.4394 12.2827 18.2886C12.2198 18.1377 12.1875 17.9759 12.1875 17.8125C12.1875 17.6491 12.2198 17.4873 12.2827 17.3364C12.3455 17.1856 12.4376 17.0487 12.5536 16.9336C12.9245 16.5364 13.1291 16.0122 13.125 15.4688Z" fill="#1C231F"/>
</svg>
