<svg width="27" height="27" viewBox="0 0 27 27" fill="none" xmlns="http://www.w3.org/2000/svg">
<g clip-path="url(#clip0_127_568)">
<path d="M8.35044 7.18286C8.35044 6.62112 7.99613 6.18091 7.54377 6.18091C7.09161 6.18091 6.7373 6.62091 6.7373 7.18286C6.7373 7.7446 7.09161 8.18461 7.54377 8.18461C7.99613 8.18461 8.35044 7.7446 8.35044 7.18286Z" fill="#484848"/>
<path d="M15.0194 7.18286C15.0194 6.62112 14.6651 6.18091 14.2129 6.18091C13.7606 6.18091 13.4062 6.62091 13.4062 7.18286C13.4062 7.7446 13.7606 8.18461 14.2129 8.18461C14.6651 8.18461 15.0194 7.7446 15.0194 7.18286Z" fill="#484848"/>
<path d="M10.8782 10.2424C11.0977 10.2424 11.2755 10.0646 11.2755 9.84499V8.95407C11.7396 8.821 12.0991 8.46957 12.0991 8.09178C12.0991 7.95335 12.0457 7.61861 11.552 7.50182C11.39 7.4635 11.1886 7.44702 10.8782 7.44702C10.5679 7.44702 10.3665 7.4635 10.2043 7.50182C9.71058 7.61861 9.65723 7.95335 9.65723 8.09178C9.65723 8.46957 10.0167 8.821 10.4808 8.95407V9.84499C10.4808 10.0646 10.6588 10.2424 10.8782 10.2424Z" fill="#484848"/>
<path d="M20.0615 11.0342C20.5516 12.1756 21.1615 13.5959 21.0423 15.1827C20.9485 16.4279 20.5977 17.7238 20.0543 18.8316C19.9577 19.0288 20.0391 19.2667 20.2362 19.3633C20.2925 19.3909 20.3522 19.4041 20.4109 19.4041C20.5578 19.4041 20.6989 19.3223 20.7681 19.1816C21.3548 17.985 21.7336 16.5861 21.8347 15.2422C21.9688 13.4612 21.3162 11.9416 20.7918 10.7204C20.4919 10.0219 20.2327 9.41855 20.2098 8.96681C20.1855 8.48602 20.5969 7.99637 21.0905 7.91892C21.3768 7.87381 22.3592 7.90574 22.9735 10.205C23.0301 10.417 23.2478 10.5429 23.46 10.4864C23.672 10.4298 23.7981 10.2118 23.7414 9.99987C23.4623 8.95589 23.062 8.17868 22.5514 7.68986C22.0856 7.24388 21.5224 7.04654 20.9669 7.13367C20.0667 7.27519 19.3708 8.11544 19.4162 9.00698C19.4462 9.60127 19.7313 10.2654 20.0615 11.0342Z" fill="#484848"/>
<path d="M24.213 14.4915C24.2133 13.4293 24.158 12.4614 24.0489 11.6143C24.0211 11.3966 23.8215 11.2431 23.6041 11.2709C23.3864 11.299 23.2327 11.4982 23.2605 11.7157C23.3654 12.5294 23.4183 13.4631 23.4181 14.4912C23.4177 16.4601 22.9958 18.229 22.1642 19.749C21.4995 20.9644 20.5707 22.0281 19.4037 22.9106C18.8931 23.2968 18.3799 23.6145 17.8983 23.8738C18.0812 23.4676 18.1715 23.0012 18.1715 22.469C18.1715 22.416 18.1702 22.36 18.1682 22.3025C18.8032 21.8658 19.3769 21.3098 19.8756 20.6457C20.0075 20.4702 19.972 20.2212 19.7965 20.0893C19.621 19.9575 19.372 19.9929 19.2402 20.1684C18.8914 20.6327 18.5033 21.0369 18.0816 21.3766C17.7041 18.5852 16.2417 13.5159 15.8141 12.0665C16.5109 11.8049 17.1798 11.2306 17.5984 10.4019L18.1643 10.7094C18.3548 10.8126 18.5999 10.7401 18.7031 10.5498C18.808 10.357 18.7365 10.1157 18.5437 10.0109L17.8843 9.65266C17.9628 9.36386 18.0131 9.05384 18.0297 8.72404L18.6834 8.6124C18.8999 8.57552 19.0453 8.37035 19.0084 8.15385C18.9713 7.93756 18.7662 7.79234 18.5497 7.829L17.9733 7.92726C17.6802 6.28302 16.4246 4.21546 16.1084 3.71346C16.1187 3.4467 16.1332 2.81244 16.0744 2.15409C15.9574 0.841496 15.6085 0.142972 15.0078 0.0187579C14.4181 -0.102984 13.8248 0.368535 13.194 1.46112C12.9287 1.92049 12.7168 2.38521 12.5979 2.66207H9.15821C9.03936 2.38521 8.82739 1.92049 8.56207 1.46112C7.93132 0.368535 7.33806 -0.10319 6.7483 0.0187579C6.14762 0.142972 5.79867 0.841496 5.68166 2.15409C5.62295 2.81224 5.63737 3.4467 5.64788 3.71346C5.33147 4.21546 4.07615 6.28302 3.78281 7.92726L3.20644 7.829C2.99015 7.79213 2.78477 7.93756 2.7479 8.15385C2.71103 8.37035 2.85646 8.57552 3.07275 8.6124L3.72637 8.72404C3.74306 9.05384 3.79352 9.36386 3.8718 9.65266L3.21242 10.0109C3.01961 10.1157 2.94833 10.357 3.05298 10.5498C3.15639 10.7401 3.40131 10.8128 3.59186 10.7094L4.15772 10.4019C4.57651 11.2308 5.24537 11.8051 5.94245 12.0665C5.82915 12.4513 5.64129 13.0973 5.42129 13.8836C5.36217 14.0949 5.48556 14.3143 5.69691 14.3734C5.90825 14.4327 6.12764 14.3091 6.18676 14.0978C6.54354 12.8219 6.81524 11.9188 6.81792 11.9097C6.88508 11.6873 6.74006 11.4485 6.51202 11.4048C5.56466 11.2238 4.57527 10.2123 4.51718 8.63011C4.49328 7.97752 4.8031 6.98381 5.41325 5.75671C5.88827 4.80172 6.37874 4.04552 6.38369 4.0381C6.43004 3.96683 6.45228 3.88278 6.44734 3.79791C6.44693 3.79029 6.40305 3.01473 6.47329 2.22474C6.573 1.10702 6.82184 0.815129 6.90938 0.797207C6.99631 0.778668 7.33847 0.933575 7.86993 1.85189C8.24813 2.50531 8.52005 3.19703 8.52272 3.20404C8.58205 3.35647 8.72913 3.45679 8.89289 3.45679H12.8634C13.0272 3.45679 13.1741 3.35647 13.2336 3.20404C13.2363 3.19703 13.5049 2.51231 13.8823 1.85869C14.416 0.934605 14.7598 0.77908 14.8469 0.797207C14.9341 0.815129 15.1821 1.10558 15.2822 2.21733C15.3533 3.00752 15.3094 3.79029 15.3088 3.79812C15.304 3.88278 15.3263 3.96704 15.3726 4.0381C15.3776 4.04552 15.868 4.80172 16.3431 5.75691C16.9532 6.98381 17.263 7.97752 17.2389 8.63011C17.181 10.2123 16.1915 11.2238 15.2441 11.4048C15.0161 11.4485 14.8712 11.6875 14.9382 11.9099C14.9627 11.9909 17.3767 20.0331 17.3767 22.469C17.3767 23.2839 17.1234 23.8631 16.5795 24.292C16.1171 24.6566 15.4324 24.9197 14.4984 25.0908C14.7188 24.2207 14.9143 23.0146 15.0797 21.5064C15.3599 18.9518 15.4594 16.3641 15.4604 16.3384C15.4686 16.119 15.2976 15.9344 15.0783 15.9262C14.8605 15.9169 14.6745 16.0889 14.6661 16.3083C14.6652 16.3322 14.573 18.7279 14.3167 21.1679C14.1669 22.5921 13.9919 23.7507 13.7962 24.6111C13.5131 25.8547 13.2633 26.1377 13.1918 26.1958C13.0838 26.1159 12.5633 25.5364 12.2627 21.7171C12.0897 19.5179 12.0794 17.3558 12.0794 17.3342C12.0786 17.1152 11.9008 16.9382 11.682 16.9382C11.6816 16.9382 11.681 16.9382 11.6804 16.9382C11.461 16.9391 11.2839 17.1177 11.2847 17.337C11.2847 17.3605 11.2956 19.6965 11.4886 22.0022C11.6027 23.3677 11.7579 24.4599 11.9496 25.2486C11.9558 25.2742 11.9624 25.2999 11.9688 25.3261C11.6279 25.3366 11.2674 25.342 10.8781 25.342C10.4887 25.342 10.1284 25.3366 9.78732 25.3261C9.79391 25.2999 9.8003 25.274 9.80648 25.2486C9.99826 24.4599 10.1536 23.3677 10.2677 22.0022C10.4605 19.6965 10.4714 17.3605 10.4716 17.337C10.4725 17.1177 10.2951 16.9391 10.0757 16.9382C10.0751 16.9382 10.0747 16.9382 10.0741 16.9382C9.8553 16.9382 9.67752 17.1152 9.6767 17.3342C9.6767 17.3558 9.66661 19.514 9.49378 21.7132C9.19323 25.5362 8.67228 26.1159 8.56433 26.1958C8.51469 26.1554 8.37935 26.0067 8.20673 25.5049C8.19993 25.4701 8.18881 25.4367 8.17357 25.4056C8.10641 25.198 8.03431 24.938 7.95995 24.6111C7.76426 23.7507 7.58916 22.5921 7.4394 21.1679C7.18315 18.7279 7.09086 16.3322 7.09004 16.3083C7.08159 16.0889 6.89702 15.9167 6.67785 15.9262C6.45846 15.9344 6.28749 16.119 6.29573 16.3384C6.29676 16.3641 6.39646 18.9518 6.6764 21.5064C6.84182 23.0148 7.03751 24.2207 7.25792 25.0908C6.3258 24.9201 5.64211 24.6581 5.17986 24.2947C4.63377 23.8654 4.37937 23.2853 4.37937 22.469C4.37937 21.3947 4.86016 19.0274 5.76941 15.6232C5.82606 15.411 5.7002 15.1933 5.48803 15.1366C5.27627 15.0802 5.05833 15.2058 5.00147 15.418C4.06132 18.9376 3.58465 21.31 3.58465 22.469C3.58465 23.5339 3.94575 24.3355 4.68857 24.9195C5.32179 25.4171 6.24917 25.7517 7.51809 25.9393C7.74324 26.5239 8.06418 27 8.5596 27C9.02597 27 9.32857 26.5981 9.53415 26.1126C9.95047 26.1286 10.3927 26.1367 10.8781 26.1367C11.3634 26.1367 11.8056 26.1286 12.222 26.1126C12.4275 26.5981 12.7301 27 13.1965 27C13.6921 27 14.0129 26.5239 14.2382 25.9393C14.7009 25.8707 15.1176 25.7824 15.4917 25.674C15.6668 25.6376 24.211 23.6905 24.213 14.4915Z" fill="#484848"/>
</g>
<defs>
<clipPath id="clip0_127_568">
<rect width="27" height="27" fill="white"/>
</clipPath>
</defs>
</svg>
