<svg width="191" height="42" viewBox="0 0 191 42" fill="none" xmlns="http://www.w3.org/2000/svg">
<path d="M0 5C0 2.23858 2.23858 0 5 0H186C188.761 0 191 2.23858 191 5V37C191 39.7614 188.761 42 186 42H5C2.23857 42 0 39.7614 0 37V5Z" fill="#63AC45"/>
<path d="M36.0674 30V21.79H38.8221L39.2354 18.5894H36.0674V16.5463C36.0674 15.62 36.3236 14.9887 37.6535 14.9887L39.3469 14.988V12.1253C39.054 12.0873 38.0488 12 36.8788 12C34.4356 12 32.763 13.4913 32.763 16.2293V18.5894H30V21.79H32.763V30H36.0674Z" fill="white"/>
<path d="M78.7467 16.386C78.2067 16.62 77.6487 16.782 77.0547 16.854C77.6667 16.494 78.1347 15.918 78.3507 15.216C77.7747 15.558 77.1447 15.792 76.4787 15.936C75.9387 15.36 75.1647 15 74.3187 15C72.6807 15 71.3667 16.332 71.3667 17.952C71.3667 18.186 71.3847 18.402 71.4387 18.618C68.9907 18.51 66.8307 17.322 65.3727 15.54C64.3287 17.412 65.4987 18.96 66.2727 19.482C65.8047 19.482 65.3367 19.338 64.9407 19.122C64.9407 20.58 65.9667 21.786 67.2987 22.056C67.0107 22.146 66.3627 22.2 65.9667 22.11C66.3447 23.28 67.4427 24.144 68.7207 24.162C67.7127 24.954 66.2367 25.584 64.3467 25.386C65.6607 26.232 67.2087 26.718 68.8827 26.718C74.3187 26.718 77.2707 22.218 77.2707 18.33C77.2707 18.204 77.2707 18.078 77.2527 17.952C77.8647 17.502 78.3687 16.98 78.7467 16.386Z" fill="white"/>
<path d="M116.812 12H108.681C105.96 12 103.747 14.2136 103.747 16.9345V25.0656C103.747 27.7865 105.96 30 108.681 30H116.812C119.533 30 121.747 27.7865 121.747 25.0656V16.9345C121.747 14.2136 119.533 12 116.812 12ZM120.684 25.0656C120.684 27.2003 118.947 28.937 116.812 28.937H108.681C106.546 28.937 104.81 27.2003 104.81 25.0656V16.9345C104.81 14.7997 106.546 13.063 108.681 13.063H116.812C118.947 13.063 120.684 14.7997 120.684 16.9345V25.0656Z" fill="white"/>
<path d="M112.747 16.063C110.024 16.063 107.81 18.2777 107.81 21C107.81 23.7223 110.024 25.937 112.747 25.937C115.469 25.937 117.684 23.7223 117.684 21C117.684 18.2777 115.469 16.063 112.747 16.063ZM112.747 24.8741C110.61 24.8741 108.873 23.1361 108.873 21C108.873 18.8638 110.61 17.1259 112.747 17.1259C114.883 17.1259 116.621 18.8639 116.621 21C116.621 23.1362 114.883 24.8741 112.747 24.8741Z" fill="white"/>
<path d="M117.979 14.2676C117.152 14.2676 116.479 14.9405 116.479 15.7676C116.479 16.5947 117.152 17.2676 117.979 17.2676C118.806 17.2676 119.479 16.5946 119.479 15.7676C119.479 14.9405 118.806 14.2676 117.979 14.2676ZM117.979 16.2045C117.738 16.2045 117.542 16.0085 117.542 15.7676C117.542 15.5266 117.738 15.3306 117.979 15.3306C118.22 15.3306 118.416 15.5266 118.416 15.7676C118.416 16.0085 118.22 16.2045 117.979 16.2045Z" fill="white"/>
<path d="M161.147 28.4V23.126C161.147 20.534 160.589 18.554 157.565 18.554C156.107 18.554 155.135 19.346 154.739 20.102H154.703V18.788H151.841V28.4H154.829V23.63C154.829 22.37 155.063 21.164 156.611 21.164C158.141 21.164 158.159 22.586 158.159 23.702V28.382H161.147V28.4Z" fill="white"/>
<path d="M146.98 18.7881H149.968V28.4001H146.98V18.7881Z" fill="white"/>
<path d="M148.475 14C147.521 14 146.747 14.774 146.747 15.728C146.747 16.682 147.521 17.474 148.475 17.474C149.429 17.474 150.203 16.682 150.203 15.728C150.203 14.774 149.429 14 148.475 14Z" fill="white"/>
</svg>
