<svg width="40" height="40" viewBox="0 0 40 40" fill="none" xmlns="http://www.w3.org/2000/svg">
<g clip-path="url(#clip0_128_2006)">
<path d="M37.8003 34.7681C37.3853 33.8781 36.6486 33.2031 35.726 32.8673L30.7485 31.0559L35.726 29.2442C36.6667 28.9017 37.4109 28.2103 37.8215 27.2973C38.2321 26.3845 38.2552 25.3684 37.8866 24.4361C37.1619 22.6031 35.0378 21.6706 33.1509 22.3571L31.7564 22.8647C32.1896 21.3076 32.3145 19.6815 32.1274 18.0313C32.0909 17.7098 31.8008 17.4788 31.4792 17.5151C31.1576 17.5516 30.9265 17.8417 30.963 18.1633C31.1332 19.6649 31.0199 21.1426 30.6262 22.555C30.5489 22.8317 30.4605 23.1054 30.3629 23.372L28.8269 23.931L29.8212 21.0656C29.9064 20.8202 29.8908 20.5562 29.7775 20.3224C29.6641 20.0886 29.4664 19.913 29.221 19.8277L26.4025 18.8498C26.157 18.7646 25.8931 18.78 25.6593 18.8934C25.4254 19.0068 25.2498 19.2045 25.1646 19.4499L22.8556 26.1045L13.6242 29.4644C11.41 28.2006 9.77995 25.971 9.19628 23.4958C9.19488 23.4895 9.19331 23.4834 9.19167 23.4772C9.07839 22.9921 9.00488 22.4977 8.9755 21.9993C8.83534 19.6272 9.84402 16.324 11.9807 14.5543C12.1165 16.3102 13.0309 17.7259 14.4961 18.4042C16.1765 19.1807 18.1819 18.7163 19.2644 17.2999C20.4667 15.7261 20.1246 13.666 19.6922 12.0471C19.6087 11.7345 19.2875 11.5489 18.975 11.6323C18.6623 11.7158 18.4765 12.0369 18.56 12.3495C18.9232 13.7095 19.2257 15.4202 18.3332 16.5885C17.5812 17.5724 16.1741 17.8888 14.988 17.3407C13.8029 16.792 13.1104 15.5474 13.1356 14.009C13.1399 13.6767 12.96 13.3723 12.666 13.2147C12.3733 13.0578 12.0218 13.0763 11.7487 13.263C8.9323 15.1885 7.63316 19.1501 7.80558 22.0684C7.81862 22.2891 7.83925 22.5091 7.86722 22.728L6.78956 22.3357C5.86675 21.9995 4.86839 22.0431 3.97839 22.4581C3.08847 22.8731 2.41347 23.6099 2.07761 24.5327C1.38448 26.4377 2.37011 28.5514 4.27464 29.2444L9.25191 31.0557L4.27456 32.8673C2.3698 33.5606 1.38409 35.6743 2.07737 37.5792C2.41323 38.5019 3.08831 39.2385 3.97831 39.6536C4.47253 39.8841 5.00011 39.9999 5.52972 39.9999C5.9537 39.9999 6.37902 39.9256 6.78925 39.7763L12.9071 37.5496C13.2111 37.4389 13.3679 37.1027 13.2573 36.7986C13.1466 36.4946 12.8103 36.3379 12.5064 36.4484L8.91636 37.755C9.28105 36.896 9.3073 35.9459 8.98652 35.0644C8.65581 34.1558 8.00152 33.457 7.20128 33.0491L25.3812 26.4321C25.6853 26.3214 25.8421 25.9852 25.7314 25.6811C25.6207 25.377 25.2844 25.2204 24.9803 25.3309L24.2752 25.5877L26.2064 20.0221L28.6488 20.8696L27.5975 23.8994C27.4705 24.2655 27.5631 24.6619 27.8392 24.9338C28.1153 25.2057 28.5128 25.2923 28.8771 25.1598L33.5517 23.4584C34.8475 22.9867 36.3033 23.6187 36.7968 24.867C37.048 25.5025 37.0324 26.1949 36.7528 26.8167C36.473 27.4388 35.966 27.9099 35.3252 28.1431L15.0756 35.5133C14.7715 35.624 14.6147 35.9602 14.7253 36.2643C14.836 36.5683 15.1721 36.7249 15.4763 36.6145L20.0003 34.9679L33.2112 39.7762C33.6215 39.9256 34.0471 40.0001 34.4711 40.0001C35.0005 40.0001 35.5281 39.8841 36.0221 39.6538C36.9121 39.2387 37.587 38.5018 37.9228 37.579C38.2586 36.6562 38.2151 35.6579 37.8003 34.7681ZM4.6755 28.1431C4.04691 27.9144 3.54511 27.4546 3.26253 26.8484C2.97987 26.2421 2.95019 25.562 3.17894 24.9332C3.40769 24.3045 3.86753 23.8027 4.47378 23.5199C5.07995 23.2373 5.76011 23.2076 6.3887 23.4367L8.13472 24.0724C8.77019 26.4274 10.2452 28.5592 12.2386 29.9686L10.9653 30.432L4.6755 28.1431ZM7.88534 35.4652C8.11417 36.0938 8.08448 36.7738 7.80175 37.3802C7.51909 37.9863 7.01745 38.446 6.38909 38.6749C5.76058 38.9038 5.07995 38.8742 4.47362 38.5915C3.86737 38.3088 3.40753 37.8069 3.1787 37.1783C2.70644 35.8807 3.37792 34.4407 4.6755 33.9684C5.97323 33.4962 7.41308 34.1677 7.88534 35.4652ZM29.0352 31.6795L32.7994 33.0493C31.9991 33.4572 31.3448 34.1559 31.0141 35.0645C30.6933 35.9459 30.7196 36.8959 31.0842 37.7549L21.7135 34.3444L29.0352 31.6795ZM36.8218 37.1782C36.593 37.807 36.1332 38.3088 35.5269 38.5916C34.9206 38.8744 34.2407 38.904 33.612 38.6749C32.9834 38.446 32.4815 37.9863 32.1989 37.38C31.9162 36.7738 31.8865 36.0938 32.1153 35.4652C32.3441 34.8365 32.804 34.3347 33.4103 34.052C34.0164 33.7692 34.6967 33.7395 35.3253 33.9684C35.9537 34.1971 36.4556 34.6569 36.7382 35.2631C37.0208 35.8695 37.0505 36.5495 36.8218 37.1782Z" fill="#63AC45"/>
<path d="M18.5182 10.0846C18.8312 10.0028 19.0187 9.68269 18.937 9.36957C18.6727 8.35871 18.373 7.02551 18.4001 5.67723C18.4263 4.37027 18.96 2.32535 20.062 1.40598C20.1449 2.55394 20.4755 3.41598 21.2238 4.51269C22.1537 5.87574 23.3383 7.05918 24.3744 8.03715C24.6491 8.29644 24.9268 8.5541 25.2046 8.81199C26.648 10.1514 28.1405 11.5364 29.2006 13.1782C29.6841 13.927 30.0811 14.7432 30.3805 15.6043C30.4646 15.8463 30.6914 15.9979 30.9338 15.9979C30.9977 15.9979 31.0626 15.9874 31.1263 15.9653C31.432 15.859 31.5936 15.525 31.4873 15.2195C31.1573 14.2703 30.7191 13.3696 30.1851 12.5425C29.0452 10.7773 27.498 9.34152 26.0016 7.95301C25.7262 7.69746 25.451 7.44207 25.1787 7.18496C24.1384 6.20301 23.0565 5.11965 22.1918 3.8523C21.4746 2.80113 21.2277 2.05105 21.213 0.879804C21.2091 0.568397 21.047 0.286679 20.7793 0.126444C20.5139 -0.0323058 20.1923 -0.0424621 19.9187 0.0995692C18.0069 1.09301 17.2625 3.96535 17.2285 5.65371C17.1985 7.14605 17.5199 8.58176 17.8032 9.66582C17.885 9.97902 18.2051 10.1668 18.5182 10.0846Z" fill="#63AC45"/>
<path d="M11.3387 9.7361C11.6745 9.94415 12.0593 10.0509 12.4419 10.0509C12.6808 10.0509 12.9189 10.0092 13.1437 9.9247C13.9687 9.61431 14.5432 8.75079 14.6073 7.72501C14.6456 7.11188 14.5018 6.56829 14.3627 6.04266C14.2869 5.7561 14.2153 5.4854 14.1774 5.21727C14.1513 5.03243 14.2071 4.41884 14.4505 3.29805C14.5154 2.99962 14.3913 2.69985 14.1345 2.5347C13.8777 2.36938 13.5536 2.38071 13.3087 2.5636C12.6865 3.02821 11.8537 3.69173 11.4191 4.21391C10.6972 5.0811 10.2723 6.05087 10.1903 7.01821C10.0712 8.4236 10.7054 9.34368 11.3387 9.7361ZM11.3579 7.11704C11.4357 6.1986 11.9238 5.43899 12.3196 4.96352C12.476 4.77563 12.7396 4.52477 13.082 4.23532C13.0044 4.75352 12.9826 5.13712 13.0171 5.38126C13.0647 5.71813 13.1487 6.03548 13.2299 6.34235C13.3505 6.7979 13.4643 7.22813 13.4379 7.65188C13.4098 8.10079 13.1767 8.66024 12.7312 8.8279C12.4882 8.91923 12.1911 8.88548 11.9559 8.73993C11.4731 8.44087 11.3077 7.70938 11.3579 7.11704Z" fill="#63AC45"/>
</g>
<defs>
<clipPath id="clip0_128_2006">
<rect width="40" height="40" fill="white"/>
</clipPath>
</defs>
</svg>
