<svg width="18" height="18" viewBox="0 0 18 18" fill="none" xmlns="http://www.w3.org/2000/svg">
<path d="M16.2005 16.1995V10.9255C16.2005 8.33352 15.6425 6.35352 12.6185 6.35352C11.1605 6.35352 10.1885 7.14552 9.79253 7.90152H9.75653V6.58752H6.89453V16.1995H9.88253V11.4295C9.88253 10.1695 10.1165 8.96352 11.6645 8.96352C13.1945 8.96352 13.2125 10.3855 13.2125 11.5015V16.1815H16.2005V16.1995Z" fill="white"/>
<path d="M2.03516 6.58777H5.02316V16.1998H2.03516V6.58777Z" fill="white"/>
<path d="M3.52878 1.7998C2.57478 1.7998 1.80078 2.5738 1.80078 3.5278C1.80078 4.4818 2.57478 5.2738 3.52878 5.2738C4.48278 5.2738 5.25678 4.4818 5.25678 3.5278C5.25678 2.5738 4.48278 1.7998 3.52878 1.7998Z" fill="white"/>
</svg>
